<svg width="375" height="391" viewBox="0 0 375 391" fill="none" xmlns="http://www.w3.org/2000/svg">
<rect width="375" height="391" fill="#FAFAFA"/>
<circle opacity="0.02" cx="187.5" cy="195.5" r="171.5" fill="#282E33"/>
<circle opacity="0.02" cx="187.5" cy="195.5" r="143.5" fill="#282E33"/>
<circle opacity="0.02" cx="187.5" cy="195.5" r="108.5" fill="#282E33"/>
<path d="M228.62 170.328C229.12 170.028 229.42 170.428 229.82 170.528C230.62 170.828 231.12 170.528 231.42 169.728C231.82 168.828 231.52 167.928 231.02 167.228C230.52 166.528 229.82 166.828 229.12 166.928C228.62 167.028 228.32 167.228 228.22 167.728C228.02 168.628 227.62 169.528 227.42 170.428C227.22 171.528 226.82 172.628 226.32 173.728C226.02 174.328 226.22 174.428 226.92 174.428C229.12 174.228 231.22 173.428 233.12 172.328C234.42 171.628 234.92 170.028 235.62 168.728C237.62 164.928 236.62 161.228 235.02 157.528C233.92 154.928 232.92 152.328 231.72 149.728C230.72 147.628 229.42 145.728 227.22 144.528C225.72 143.728 224.62 144.328 223.42 144.828C223.22 144.928 223.12 145.028 222.82 144.928C223.82 142.428 221.32 143.528 220.62 142.828C221.72 142.128 222.82 142.728 223.82 143.028C224.12 143.128 224.32 143.428 224.72 143.328C227.02 142.628 228.62 143.928 230.02 145.428C231.62 147.128 232.62 149.228 233.52 151.328C234.82 154.228 236.12 157.128 237.02 160.228C237.72 162.528 238.02 164.728 237.12 167.028C236.32 169.128 235.82 171.428 233.92 172.928C233.12 173.628 232.02 173.828 231.12 174.228C229.82 174.828 228.42 175.028 227.12 175.228C224.22 175.628 224.02 175.828 224.22 178.728C224.32 179.428 224.32 180.028 224.22 180.728C224.22 181.228 224.02 181.928 225.02 181.828C225.12 181.828 225.22 181.928 225.22 181.928C226.72 184.528 229.62 185.428 231.52 187.428C233.82 189.828 235.32 192.528 235.72 195.928C236.22 200.728 235.52 205.628 235.82 210.428C236.02 213.828 235.92 217.328 236.62 220.728C236.72 221.128 236.82 221.628 236.22 221.628C235.72 221.628 235.62 221.328 235.52 220.828C235.02 215.728 234.82 210.628 235.02 205.428C235.12 202.128 235.22 198.928 234.72 195.628C234.12 192.228 232.82 189.128 229.62 187.228C228.42 186.528 227.62 185.228 226.32 184.428C225.82 184.128 225.62 183.828 225.32 184.728C224.42 187.728 220.32 188.528 218.12 186.028C217.52 185.428 217.22 185.228 216.62 185.828C215.72 186.728 214.52 187.028 213.52 187.528C210.82 189.028 209.62 191.428 209.02 194.228C208.32 198.028 208.12 201.728 208.52 205.628C208.62 207.128 208.32 208.728 208.52 210.328C208.62 210.828 208.32 211.328 208.82 211.728C208.92 211.728 208.92 211.828 208.92 211.928C208.02 214.228 209.02 216.628 208.92 218.928C208.82 220.628 208.92 222.328 208.92 224.028C208.92 224.428 209.02 224.928 208.42 224.928C207.82 224.928 208.02 224.428 208.02 224.028C208.22 221.028 208.42 217.928 207.92 214.928C207.32 210.328 207.72 205.728 207.42 201.228C207.22 198.628 207.42 196.028 208.12 193.528C208.72 191.028 209.92 189.028 211.92 187.428C212.82 186.728 213.72 186.228 214.72 185.828C217.52 184.728 218.52 182.428 218.72 179.628C218.82 179.028 218.62 178.428 217.62 178.528C216.12 178.628 214.82 177.928 213.72 176.728C213.12 176.028 212.32 175.428 211.62 174.728C210.22 173.328 210.02 171.528 209.82 169.628C209.82 169.228 209.72 168.828 209.72 168.428C209.72 168.028 209.52 167.928 209.12 167.928C207.02 167.828 206.02 166.428 206.52 164.328C206.82 162.728 206.92 162.628 208.62 162.828C209.22 162.928 209.42 162.728 209.42 162.128C209.42 161.028 209.42 159.928 209.52 158.828C209.62 157.828 209.62 157.028 210.52 156.028C212.82 153.628 215.52 151.728 218.22 149.928C218.62 149.728 218.92 149.528 219.32 149.828C219.72 150.128 219.52 150.428 219.52 150.828C219.42 152.228 219.02 153.528 218.52 154.928C218.42 155.228 218.02 155.528 218.42 155.728C218.82 155.928 218.92 155.428 219.22 155.328C220.62 154.228 221.52 152.828 222.12 151.028C222.52 150.028 223.72 149.828 224.32 150.928C225.72 153.328 227.92 155.228 228.72 157.928C229.32 159.728 229.42 161.628 229.52 163.428C229.52 164.228 229.02 164.928 228.62 165.628C228.52 165.828 228.42 166.028 228.62 166.328C228.82 166.528 229.02 166.328 229.12 166.228C230.62 165.728 231.82 166.228 232.12 167.528C232.62 169.228 231.82 171.228 230.42 171.528C229.62 171.728 229.12 171.028 228.62 170.328ZM218.02 177.728C221.12 178.228 225.02 174.928 225.82 171.928C226.52 169.228 227.32 166.628 228.02 164.028C228.62 161.928 228.42 160.028 227.82 158.028C227.12 155.628 225.12 154.128 224.02 152.028C223.42 151.028 223.02 151.528 222.72 152.328C221.62 154.828 220.02 156.828 217.12 157.428C216.82 157.528 216.52 157.828 216.12 157.428C215.72 156.928 216.12 156.628 216.42 156.428C217.62 155.328 217.72 153.828 218.32 152.528C218.42 152.228 218.42 151.828 218.22 151.628C217.92 151.428 217.72 151.728 217.52 151.828C215.52 153.028 213.72 154.528 211.92 156.128C211.12 156.828 210.62 157.828 210.42 158.928C210.12 161.328 210.62 163.628 210.52 166.028C210.52 166.628 211.42 166.528 211.12 167.128C210.42 168.528 210.92 169.928 211.12 171.328C211.62 174.428 215.02 177.528 218.02 177.728ZM223.12 177.328C222.02 177.828 220.92 178.528 219.72 178.628C219.22 178.628 219.32 179.028 219.42 179.428C219.42 180.928 219.42 182.528 218.82 183.828C218.32 184.728 218.62 185.228 219.12 185.728C219.92 186.528 222.02 186.828 223.02 186.328C223.82 185.928 224.82 183.928 224.32 183.628C223.22 183.128 223.62 182.328 223.52 181.528C223.32 180.228 223.52 178.828 223.12 177.328ZM207.42 165.128C207.32 166.228 207.92 167.228 208.72 167.328C209.12 167.328 209.52 167.328 209.52 166.628C209.52 165.228 208.92 163.928 208.12 163.928C207.22 163.928 207.62 164.728 207.42 165.128Z" fill="#223A70" stroke="#223A70" stroke-width="0.5" stroke-miterlimit="10"/>
<path d="M212.62 176.628C209.62 177.328 205.72 175.428 204.32 172.928C202.22 169.228 203.02 165.528 204.02 161.728C204.72 158.928 206.62 156.628 207.22 153.728C207.62 151.028 208.72 148.528 210.52 146.428C212.52 144.128 214.82 142.428 217.92 142.028C218.62 141.928 219.42 142.128 220.22 142.128C219.82 142.928 219.32 142.828 218.72 142.828C216.02 142.728 214.02 144.028 212.12 145.828C209.22 148.628 208.42 152.228 207.32 155.828C207.22 156.328 207.02 156.728 206.82 157.128C205.12 160.128 204.12 163.428 203.92 166.828C203.62 169.828 204.42 172.328 206.72 174.328C207.82 175.228 209.02 175.628 210.32 175.728C211.22 175.728 211.92 176.128 212.62 176.628Z" fill="#223A70" stroke="#223A70" stroke-width="0.5" stroke-miterlimit="10"/>
<path d="M214.32 220.928C214.52 219.328 214.72 217.728 214.92 216.128C215.12 214.328 214.82 212.428 214.82 210.528C214.82 207.928 213.62 205.728 212.92 203.328C212.42 201.328 212.62 199.428 213.52 197.528C213.62 197.228 213.72 196.728 214.22 196.928C214.62 197.128 214.32 197.528 214.22 197.728C214.12 198.728 213.52 199.528 213.52 200.628C213.52 202.328 213.92 203.828 214.62 205.328C215.42 207.128 215.52 209.028 215.62 210.928C215.72 213.028 215.72 215.228 215.72 217.328C215.72 218.228 215.32 219.128 215.22 220.028C215.12 221.028 215.02 222.028 215.22 223.028C215.32 223.428 215.12 223.828 214.72 223.828C214.22 223.828 214.22 223.428 214.22 223.028C214.22 222.328 214.22 221.628 214.32 220.928Z" fill="#223A70" stroke="#223A70" stroke-width="0.5" stroke-miterlimit="10"/>
<path d="M232.32 197.828C232.22 200.428 232.62 202.828 231.62 205.028C230.22 208.328 229.62 211.828 230.12 215.428C230.42 217.428 230.82 219.428 231.12 221.428C231.12 221.728 231.32 222.228 230.82 222.328C230.32 222.428 230.22 222.128 230.12 221.728C229.52 218.728 228.92 215.728 229.02 212.728C229.02 210.128 229.42 207.628 230.62 205.228C231.52 203.428 231.42 201.528 231.42 199.628C231.42 198.928 231.42 198.328 232.32 197.828Z" fill="#223A70" stroke="#223A70" stroke-width="0.5" stroke-miterlimit="10"/>
<path d="M218.72 172.128C217.42 172.028 216.82 171.528 216.52 170.628C216.42 170.428 216.42 170.128 216.62 169.928C216.92 169.728 217.02 169.928 217.22 170.128C218.92 171.328 219.32 171.328 220.62 169.728C220.82 169.428 221.12 169.328 221.42 169.528C221.72 169.728 221.72 170.028 221.52 170.428C221.12 171.228 219.52 172.128 218.72 172.128Z" fill="#223A70" stroke="#223A70" stroke-width="0.5" stroke-miterlimit="10"/>
<path d="M214.72 162.528C214.62 163.028 214.62 163.828 213.92 163.728C213.22 163.628 213.12 162.828 213.02 162.228C212.92 161.628 213.52 161.428 214.02 161.428C214.62 161.428 214.82 161.928 214.72 162.528Z" fill="#223A70" stroke="#223A70" stroke-width="0.5" stroke-miterlimit="10"/>
<path d="M224.72 162.528C224.52 163.128 224.32 163.628 223.62 163.528C223.12 163.528 222.72 163.128 222.82 162.528C222.82 161.928 223.22 161.528 223.82 161.528C224.22 161.728 224.62 161.928 224.72 162.528Z" fill="#223A70" stroke="#223A70" stroke-width="0.5" stroke-miterlimit="10"/>
<path d="M175.356 214.007C174.843 213.814 174.201 213.814 173.688 213.365C173.046 212.723 172.918 211.889 173.046 211.055C173.431 208.168 173.624 205.281 173.688 202.457C173.752 200.212 173.944 198.03 173.816 195.785C173.752 194.501 173.88 193.154 173.816 191.871C173.816 190.908 173.88 189.882 174.843 189.304C175.484 188.919 176.19 188.983 176.896 189.048C178.692 189.176 180.489 189.561 182.285 189.753C183.183 189.882 184.081 189.817 185.044 189.882C185.75 189.946 186.391 189.946 187.033 190.01C188.316 190.202 189.342 191.293 189.471 192.705C189.471 192.961 189.471 193.282 189.856 193.282C189.92 193.282 190.048 193.411 189.984 193.475C189.471 194.052 189.727 194.822 189.792 195.4C190.048 198.287 189.599 201.046 189.278 203.869C189.15 205.152 189.086 206.5 188.957 207.783C188.765 209.451 188.829 211.119 188.38 212.788C188.38 212.916 188.38 213.044 188.316 213.172C188.188 214.392 187.674 214.905 186.391 214.969C184.723 215.097 183.055 214.777 181.387 214.712C179.847 214.648 178.307 214.392 176.832 214.327C176.447 214.263 175.933 214.135 175.356 214.007ZM174.265 208.553C174.714 208.617 175.035 208.681 175.356 208.745C177.024 208.938 178.692 208.938 180.296 209.194C182.734 209.644 185.108 209.579 187.546 209.644C188.252 209.644 188.444 209.387 188.508 208.809C188.508 208.617 188.572 208.489 188.572 208.296C188.637 206.179 188.957 204.061 189.214 201.944C189.471 199.763 189.663 197.581 189.471 195.4C189.471 195.271 189.535 195.015 189.342 194.95C189.022 194.822 188.957 194.63 189.086 194.309C189.214 194.052 189.022 193.924 188.765 193.86C188.38 193.796 187.995 193.924 187.61 193.86C184.274 193.603 181.066 192.897 177.794 192.384C176.767 192.191 175.741 192.063 174.714 191.935C174.522 191.935 174.329 191.935 174.329 192.191C174.394 192.961 174.201 193.731 174.201 194.501C174.265 195.785 174.201 197.004 174.201 198.287C174.137 199.827 174.073 201.367 174.073 202.907C174.073 204.446 173.944 206.05 173.816 207.59C173.688 208.296 173.688 208.681 174.265 208.553ZM188.252 210.221C187.225 210.157 186.263 210.221 185.236 210.157C183.953 210.029 182.606 210.157 181.323 209.9C178.885 209.387 176.447 209.451 174.009 209.066C173.688 209.002 173.559 209.13 173.559 209.451C173.495 210.029 173.431 210.542 173.367 211.119C173.239 212.595 173.88 213.365 175.356 213.686C176.062 213.814 176.767 213.814 177.473 213.942C180.232 214.199 183.055 214.392 185.814 214.584C187.033 214.648 187.61 214.135 187.867 212.98C188.123 211.953 188.188 211.119 188.252 210.221ZM180.36 192.448C182.606 192.961 184.595 193.026 186.584 193.346C187.225 193.411 187.867 193.411 188.508 193.346C188.765 193.346 189.086 193.346 189.086 192.897C189.086 191.935 188.316 190.844 187.353 190.587C186.391 190.331 185.365 190.395 184.402 190.331C182.477 190.202 180.617 190.01 178.756 189.625C177.601 189.432 176.447 189.304 175.292 189.625C174.778 189.817 174.265 190.459 174.329 191.101C174.394 191.614 174.971 191.422 175.292 191.614C175.356 191.678 175.484 191.678 175.613 191.678C177.216 191.935 178.949 192.191 180.36 192.448Z" fill="#223A70" stroke="#223A70" stroke-miterlimit="10"/>
<path d="M181.981 212.125C181.878 212.703 181.413 213.051 180.999 212.993C180.327 212.819 179.914 212.182 180.017 211.546C180.121 211.199 180.793 210.909 181.361 211.025C181.775 211.083 182.085 211.604 181.981 212.125ZM180.844 212.472C181.154 212.588 181.413 212.414 181.516 212.067C181.62 211.777 181.413 211.488 181.154 211.488C180.896 211.488 180.482 211.314 180.379 211.777C180.327 212.067 180.482 212.356 180.844 212.472Z" fill="#223A70" stroke="#223A70" stroke-miterlimit="10"/>
<path d="M164.514 167.999C165.209 168.254 165.841 168.509 166.473 168.956C166.916 169.274 167.232 169.657 167.295 170.231C167.611 173.292 167.927 176.353 167.99 179.414C168.053 181.2 167.801 183.05 167.864 184.835C167.927 189.236 167.421 193.572 167.295 197.909C167.232 198.865 166.979 199.758 167.042 200.715C167.168 202.181 166.726 203.457 166.157 204.732C165.651 206.008 164.514 206.646 163.123 206.773C162.428 206.837 161.795 206.901 161.1 206.964C158.255 207.092 155.411 207.283 152.566 207.156C151.176 207.092 149.785 207.156 148.394 207.092C148.078 207.092 147.889 207.22 147.825 207.538C147.572 209.005 147.699 210.536 148.394 211.875C148.837 212.832 149.722 213.342 150.86 213.342C150.796 213.98 150.543 214.043 150.038 213.98C147.383 213.597 144.665 213.661 142.01 213.724C140.556 213.788 139.102 213.916 137.648 213.98C137.395 213.98 137.079 213.98 137.016 213.724C136.953 213.342 137.332 213.469 137.585 213.406C139.165 213.087 139.987 212.258 140.177 210.6C140.303 209.643 140.429 208.623 140.556 207.666C140.619 207.156 140.24 207.22 139.987 207.156C138.091 206.964 136.194 207.092 134.298 207.028C130.631 206.901 126.965 206.964 123.552 205.37C122.287 204.796 121.592 203.712 121.213 202.437C120.517 200.205 120.454 197.909 120.391 195.677C120.264 193.381 119.948 191.021 119.759 188.662C119.506 186.047 119.443 183.496 119.506 180.817C119.569 178.522 119.443 176.29 119.063 174.057C118.874 173.037 119.127 172.208 119.632 171.507C120.138 170.678 120.96 170.231 121.908 169.912C123.425 169.402 125.005 169.019 126.586 168.701C127.471 168.509 128.356 168.509 129.304 168.509C129.43 168.509 129.62 168.445 129.683 168.637C129.683 168.828 129.557 168.828 129.367 168.892C128.861 169.147 128.356 168.956 127.85 168.956C126.08 169.019 124.373 169.593 122.667 169.912C121.782 170.104 120.897 170.55 120.264 171.124C119.443 171.889 119.443 172.973 119.506 173.994C119.569 175.269 119.822 176.545 119.885 177.82C119.948 179.861 119.822 181.965 119.885 184.006C119.885 186.111 120.138 188.151 120.391 190.256C120.644 191.914 120.77 193.508 120.77 195.166C120.77 197.143 121.023 199.12 121.339 201.034C121.402 201.289 121.466 201.416 121.718 201.544C122.351 201.799 122.983 201.863 123.741 201.671C124.689 201.416 125.701 201.608 126.649 201.544C130.631 201.352 134.614 201.544 138.596 201.48C141.251 201.416 143.906 201.352 146.498 201.416C149.342 201.48 152.124 201.48 154.968 201.352C156.359 201.289 157.75 200.842 159.14 200.906C160.847 200.97 162.554 200.97 164.261 200.842C164.766 200.842 165.335 201.034 165.904 200.97C166.22 200.97 166.284 200.906 166.347 200.523C166.852 195.932 167.105 191.34 167.295 186.748C167.421 183.815 167.611 180.881 167.421 178.011C167.295 175.524 167.042 173.101 166.852 170.614C166.789 169.402 165.904 169.019 165.019 168.637C164.64 168.509 164.324 168.445 164.514 167.999ZM127.976 206.327C130.062 206.135 132.085 206.518 134.171 206.518C137.142 206.518 140.177 206.646 143.148 206.646C144.033 206.646 144.918 206.518 145.739 206.518C147.193 206.518 148.584 206.646 150.038 206.646C152.756 206.646 155.537 206.646 158.255 206.518C159.773 206.454 161.29 206.327 162.744 206.199C163.376 206.135 164.008 205.944 164.577 205.498C165.651 204.796 165.778 203.648 166.157 202.564C166.347 201.99 166.157 201.799 165.588 201.799C164.766 201.799 163.945 201.735 163.123 201.671C162.364 201.608 161.606 201.544 160.784 201.608C160.025 201.735 159.33 201.863 158.572 201.99C157.497 202.181 156.359 201.799 155.284 201.99C153.325 202.309 151.302 201.926 149.342 202.118C147.952 202.245 146.561 201.926 145.17 201.926C142.958 201.99 140.745 201.926 138.596 201.863C136.889 201.799 135.246 202.118 133.539 202.054C131.896 201.926 130.315 202.054 128.672 202.054C126.775 202.054 124.879 201.735 122.983 202.245C122.667 202.309 122.54 202.118 122.351 201.99C122.161 201.926 121.908 201.863 121.782 201.99C121.529 202.118 121.718 202.373 121.782 202.5C122.034 203.393 122.603 204.031 123.299 204.541C124.689 205.689 126.459 205.498 127.976 206.327ZM139.734 213.087C139.861 213.15 139.924 213.214 139.924 213.214C142.642 213.533 145.36 213.023 148.078 213.342C148.205 213.342 148.394 213.406 148.457 213.214C148.521 213.023 148.394 212.895 148.268 212.832C147.762 212.321 147.572 211.62 147.383 210.918C147.067 209.834 147.256 208.75 147.32 207.666C147.32 207.092 147.193 206.964 146.624 206.964C144.854 207.028 143.084 207.283 141.251 207.156C141.062 207.156 140.809 207.156 140.872 207.411C141.062 207.985 140.745 208.495 140.745 209.069C140.872 210.472 140.745 211.875 139.734 213.087Z" fill="#223A70" stroke="#223A70" stroke-miterlimit="10"/>
<path d="M151 168.201C150.752 168.411 150.441 168.327 150.193 168.327C148.827 168.117 147.46 168.243 146.032 168.285C144.479 168.327 142.926 168.327 141.373 168.495C140.131 168.621 138.827 168.621 137.584 168.747C135.721 168.915 133.858 168.957 131.994 168.999C131.559 168.999 131.435 168.621 131 168.789C131.808 168.537 132.678 168.747 133.485 168.705C135.783 168.621 138.081 168.537 140.379 168.369C142.056 168.243 143.733 168.201 145.41 168.075C147.087 167.949 148.764 167.991 150.441 168.117C150.628 168.075 150.814 168.075 151 168.201Z" fill="#223A70" stroke="#223A70" stroke-miterlimit="10"/>
<path d="M165 168.575C164.612 169.038 164.223 169.038 163.705 168.961C162.215 168.729 160.791 168.421 159.236 168.498C157.487 168.575 155.739 168.112 153.99 168.421C153.148 168.575 152.241 168.807 151.399 168.807C151.27 168.807 151.075 168.884 151.011 168.652C150.946 168.344 151.205 168.344 151.399 168.344C153.99 168.267 156.581 167.881 159.171 168.035C161.05 168.112 162.993 168.344 165 168.575Z" fill="#223A70" stroke="#223A70" stroke-miterlimit="10"/>
<path d="M138.35 347.259C137.09 347.259 136.656 347.231 136.572 347.231C136.432 347.231 136.418 347.245 136.418 347.385V348.365C136.418 348.505 136.432 348.519 136.572 348.519C136.614 348.519 136.782 348.505 137.118 348.505C137.538 349.569 138.14 350.493 138.882 351.277C137.846 351.963 136.572 352.495 135.158 352.831C135.354 353.055 135.55 353.377 135.69 353.699C135.802 353.965 135.844 354.049 135.97 354.049C136.04 354.049 136.138 354.021 136.292 353.979C137.678 353.559 138.91 352.985 139.96 352.229C140.982 352.999 142.172 353.573 143.516 353.965C143.656 354.007 143.754 354.021 143.824 354.021C143.964 354.021 144.02 353.937 144.118 353.657C144.258 353.279 144.468 352.901 144.664 352.649C143.25 352.383 142.046 351.949 141.052 351.319C141.78 350.619 142.396 349.807 142.872 348.883C143.04 348.533 143.11 348.421 143.25 348.351C143.376 348.253 143.418 348.197 143.418 348.085C143.418 347.987 143.32 347.805 143.012 347.525C142.718 347.245 142.564 347.147 142.452 347.147C142.382 347.147 142.34 347.161 142.284 347.189C142.214 347.231 142.116 347.259 141.948 347.259H138.35ZM141.458 348.491C141.108 349.205 140.59 349.863 139.946 350.451C139.358 349.891 138.882 349.233 138.532 348.491H141.458ZM134.864 348.771L135.718 348.407C136.04 348.267 136.04 348.267 136.04 347.833C136.04 347.469 136.04 347.049 136.068 346.797C135.676 347.007 135.27 347.189 134.864 347.343V345.313C135.83 345.313 136.124 345.341 136.208 345.341C136.362 345.341 136.376 345.327 136.376 345.187V344.123C136.376 343.983 136.362 343.969 136.208 343.969C136.124 343.969 135.83 343.997 134.864 343.997V343.325C134.864 342.373 134.864 342.079 134.948 341.911C134.99 341.813 135.032 341.729 135.032 341.617C135.032 341.547 134.948 341.477 134.808 341.463C134.332 341.407 133.856 341.379 133.338 341.365C133.422 342.009 133.45 342.457 133.45 343.353V343.997H133.212C132.204 343.997 131.882 343.969 131.812 343.969C131.672 343.969 131.658 343.983 131.658 344.123V345.187C131.658 345.327 131.672 345.341 131.812 345.341C131.882 345.341 132.204 345.313 133.212 345.313H133.45V347.861C133.268 347.931 133.1 347.973 132.932 348.029C132.442 348.183 132.008 348.281 131.56 348.337C131.63 348.813 131.728 349.359 131.826 349.751C131.854 349.877 131.91 349.919 131.994 349.919C132.064 349.919 132.148 349.877 132.218 349.821C132.288 349.779 132.428 349.681 132.666 349.597C132.932 349.513 133.184 349.429 133.45 349.331V352.089C133.45 352.481 133.324 352.621 133.002 352.621C132.694 352.621 132.246 352.607 131.882 352.579C132.022 352.817 132.148 353.181 132.246 353.629C132.344 354.063 132.344 354.063 132.792 354.063C133.744 354.063 134.122 353.993 134.43 353.769C134.794 353.503 134.878 353.139 134.878 352.425C134.878 351.739 134.864 350.577 134.864 349.597V348.771ZM140.506 343.059V345.229C140.506 345.691 140.646 346.027 140.898 346.181C141.15 346.335 141.612 346.405 142.284 346.405C143.292 346.405 143.698 346.321 143.978 346.041C144.244 345.789 144.356 345.523 144.44 344.585C144.482 344.165 144.482 344.165 144.132 344.067C143.782 343.983 143.404 343.857 143.222 343.717C143.208 344.431 143.152 344.725 143.04 344.907C142.956 345.047 142.844 345.103 142.452 345.103C142.186 345.103 142.06 345.061 142.004 344.991C141.934 344.907 141.92 344.809 141.92 344.543V343.003C141.92 342.303 141.948 341.953 141.948 341.869C141.948 341.729 141.934 341.715 141.78 341.715C141.696 341.715 141.388 341.743 140.422 341.743H138.966C138.014 341.743 137.72 341.715 137.636 341.715C137.482 341.715 137.468 341.729 137.468 341.869C137.468 341.953 137.496 342.163 137.496 342.499C137.496 344.291 137.076 345.229 135.816 346.055C136.082 346.167 136.376 346.405 136.642 346.699C136.796 346.881 136.88 346.965 136.964 346.965C137.048 346.965 137.132 346.895 137.3 346.755C138.434 345.817 138.938 344.795 138.938 343.059H140.506ZM154.296 351.991C155.598 351.991 156.088 352.019 156.172 352.019C156.312 352.019 156.326 352.005 156.326 351.851C156.326 351.767 156.298 351.375 156.298 350.479V348.085C156.298 347.385 156.312 346.993 156.326 346.811C156.676 346.923 157.04 347.021 157.432 347.091C157.852 347.175 157.866 347.175 157.992 346.741C158.076 346.433 158.216 346.055 158.384 345.831C156.508 345.663 154.576 345.089 153.96 343.465H156.032C155.85 343.731 155.542 344.095 155.234 344.389C155.43 344.431 155.71 344.529 156.018 344.669C156.2 344.753 156.312 344.795 156.396 344.795C156.508 344.795 156.578 344.711 156.732 344.515C156.97 344.193 157.18 343.913 157.418 343.521C157.502 343.381 157.572 343.325 157.67 343.269C157.74 343.227 157.782 343.171 157.782 343.087C157.782 342.975 157.698 342.849 157.32 342.597C156.984 342.359 156.9 342.317 156.802 342.317C156.732 342.317 156.662 342.345 156.606 342.373C156.536 342.415 156.438 342.429 156.256 342.429H152.112L152.266 342.163C152.364 341.967 152.434 341.855 152.546 341.785C152.644 341.715 152.672 341.673 152.672 341.589C152.672 341.519 152.602 341.477 152.434 341.435C152.112 341.351 151.762 341.281 151.328 341.211C151.258 341.449 151.16 341.673 151.062 341.841C150.642 342.583 150.026 343.227 149.228 343.801C149.438 343.899 149.662 344.067 149.844 344.263C149.998 344.445 150.068 344.543 150.166 344.543C150.236 344.543 150.32 344.473 150.488 344.347C150.824 344.081 151.118 343.787 151.384 343.465H152.56C152.084 344.753 150.95 345.355 148.934 345.705C149.088 345.831 149.284 346.111 149.424 346.349C149.466 346.447 149.508 346.517 149.55 346.573C148.276 346.573 147.814 346.545 147.716 346.545C147.576 346.545 147.562 346.559 147.562 346.699C147.562 346.797 147.59 347.175 147.59 348.085V350.479C147.59 351.375 147.562 351.767 147.562 351.851C147.562 352.005 147.576 352.019 147.716 352.019C147.8 352.019 148.248 351.991 149.41 351.991C149.186 352.159 148.976 352.257 148.78 352.341C148.01 352.649 146.904 352.901 145.63 353.027C145.84 353.223 146.064 353.489 146.26 353.839C146.4 354.077 146.442 354.133 146.61 354.133C146.68 354.133 146.778 354.119 146.89 354.105C148.094 353.923 149.228 353.559 150.082 353.125C150.32 352.999 150.502 352.901 150.656 352.873C150.782 352.845 150.866 352.789 150.866 352.705C150.866 352.621 150.81 352.551 150.67 352.509C150.278 352.327 149.984 352.187 149.48 351.991H154.184L153.12 352.495C152.924 352.565 152.924 352.621 153.05 352.705C154.072 353.349 155.626 353.895 156.872 354.077C157.068 354.105 157.152 354.105 157.208 354.105C157.334 354.105 157.39 354.049 157.53 353.839C157.754 353.489 157.978 353.195 158.216 352.971C156.648 352.817 155.36 352.523 154.394 352.033L154.296 351.991ZM150.53 346.573C151.888 346.195 152.826 345.579 153.33 344.641C153.834 345.523 154.66 346.139 155.668 346.559C155.36 346.573 154.912 346.573 154.24 346.573H150.53ZM154.94 350.997H148.934V350.395H154.94V350.997ZM148.934 349.569V348.981H154.94V349.569H148.934ZM154.94 347.567V348.155H148.934V347.567H154.94ZM149.34 344.053C148.528 344.529 147.548 344.907 146.736 345.173C146.372 345.285 146.05 345.355 145.7 345.425C145.84 345.831 146.008 346.279 146.19 346.615C146.246 346.727 146.302 346.769 146.386 346.769C146.456 346.769 146.512 346.727 146.582 346.657C146.652 346.587 146.778 346.531 146.96 346.461C147.646 346.209 148.458 345.887 149.144 345.523C149.536 345.313 149.536 345.313 149.438 344.851C149.396 344.571 149.354 344.291 149.34 344.053ZM146.246 342.275C146.176 342.345 146.148 342.387 146.148 342.429C146.148 342.471 146.19 342.499 146.26 342.541C146.89 342.807 147.548 343.227 148.164 343.717C148.276 343.815 148.332 343.801 148.458 343.647L149.06 342.961C149.13 342.891 149.158 342.849 149.158 342.821C149.158 342.779 149.13 342.751 149.06 342.695C148.444 342.261 147.73 341.855 147.128 341.603C146.988 341.547 146.96 341.561 146.834 341.687L146.246 342.275ZM165.986 346.279C165.216 346.279 164.586 346.909 164.586 347.679C164.586 348.449 165.216 349.079 165.986 349.079C166.756 349.079 167.386 348.449 167.386 347.679C167.386 346.909 166.756 346.279 165.986 346.279ZM176.64 347.007V351.151C176.234 350.801 175.898 350.395 175.618 349.905C175.674 349.527 175.716 349.149 175.744 348.785C175.772 348.547 175.786 348.351 175.842 348.239C175.87 348.169 175.912 348.099 175.912 348.029C175.912 347.945 175.842 347.903 175.674 347.861C175.338 347.791 174.862 347.693 174.498 347.665C174.526 347.945 174.526 348.281 174.512 348.561C174.47 350.101 174.078 351.669 173.364 352.887C173.644 353.097 173.854 353.321 174.064 353.643C174.176 353.811 174.246 353.909 174.316 353.909C174.4 353.909 174.47 353.797 174.582 353.559C174.876 352.929 175.156 352.103 175.352 351.263C175.842 352.075 176.36 352.551 177.144 352.999C178.152 353.587 179.51 353.825 181.414 353.825C183.01 353.825 184.284 353.797 185.74 353.685C186.174 353.657 186.174 353.657 186.258 353.209C186.342 352.831 186.482 352.369 186.664 352.117C184.872 352.341 183.192 352.439 181.302 352.439C179.832 352.439 178.782 352.285 177.956 351.949V349.821H178.796C179.426 349.821 179.678 349.849 179.762 349.849C179.902 349.849 179.916 349.835 179.916 349.709V348.687C179.916 348.547 179.902 348.533 179.762 348.533C179.678 348.533 179.426 348.561 178.796 348.561H177.956V347.007H178.264C179.468 347.007 179.888 347.035 179.972 347.035C180.112 347.035 180.126 347.021 180.126 346.895V345.859C180.126 345.719 180.112 345.705 179.972 345.705C179.888 345.705 179.468 345.733 178.264 345.733H177.872V344.375H178.082C179.216 344.375 179.566 344.403 179.65 344.403C179.804 344.403 179.818 344.389 179.818 344.249V343.241C179.818 343.101 179.804 343.087 179.65 343.087C179.566 343.087 179.216 343.115 178.082 343.115H177.872V342.835C177.872 342.177 177.9 341.911 177.942 341.771C177.984 341.673 178.012 341.603 178.012 341.533C178.012 341.449 177.942 341.407 177.802 341.379C177.368 341.323 176.906 341.295 176.402 341.281C176.486 341.827 176.5 342.205 176.5 343.115H175.926C174.806 343.115 174.428 343.087 174.344 343.087C174.204 343.087 174.19 343.101 174.19 343.241V344.249C174.19 344.389 174.204 344.403 174.344 344.403C174.428 344.403 174.806 344.375 175.926 344.375H176.5V345.733H175.562C174.358 345.733 173.938 345.705 173.854 345.705C173.728 345.705 173.714 345.719 173.714 345.859V346.895C173.714 347.021 173.728 347.035 173.854 347.035C173.938 347.035 174.358 347.007 175.562 347.007H176.64ZM184.158 343.423V345.761H182.044C181.26 345.761 180.896 345.733 180.812 345.733C180.672 345.733 180.658 345.747 180.658 345.901C180.658 345.985 180.686 346.405 180.686 347.245V350.185C180.686 350.773 180.756 351.067 181.036 351.291C181.302 351.529 181.876 351.655 183.29 351.655C184.69 351.655 185.25 351.487 185.614 351.165C185.95 350.871 186.174 350.395 186.258 349.527C186.272 349.079 186.272 349.079 185.838 348.967C185.516 348.883 185.18 348.729 184.9 348.575C184.872 349.485 184.788 349.863 184.606 350.045C184.382 350.255 184.004 350.297 183.374 350.297C182.674 350.297 182.352 350.255 182.184 350.115C182.086 350.017 182.086 349.863 182.086 349.569V347.021H184.13C184.984 347.021 185.334 347.049 185.418 347.049C185.572 347.049 185.586 347.035 185.586 346.909C185.586 346.825 185.558 346.419 185.558 345.537V343.661C185.558 342.779 185.586 342.373 185.586 342.289C185.586 342.149 185.572 342.135 185.418 342.135C185.334 342.135 184.984 342.163 184.13 342.163H182.1C181.036 342.163 180.714 342.135 180.63 342.135C180.49 342.135 180.476 342.149 180.476 342.289V343.297C180.476 343.437 180.49 343.451 180.63 343.451C180.714 343.451 181.036 343.423 182.1 343.423H184.158ZM191.998 350.661C190.822 351.571 189.394 352.145 187.532 352.607C187.714 352.789 187.91 353.083 188.092 353.447C188.218 353.713 188.274 353.811 188.4 353.811C188.47 353.811 188.568 353.783 188.722 353.727C190.584 353.125 192.04 352.341 193.216 351.221C193.202 352.887 193.16 353.699 193.16 353.937C193.16 354.077 193.174 354.091 193.3 354.091H194.49C194.63 354.091 194.644 354.077 194.644 353.937C194.644 353.699 194.574 352.831 194.574 351.165C195.722 352.201 197.388 353.125 199.278 353.671C199.432 353.713 199.53 353.741 199.6 353.741C199.74 353.741 199.796 353.643 199.908 353.377C200.076 352.999 200.272 352.705 200.454 352.481C198.438 352.033 196.968 351.487 195.792 350.661H198.284C199.544 350.661 199.964 350.689 200.048 350.689C200.188 350.689 200.202 350.675 200.202 350.535V349.709C200.202 349.555 200.188 349.541 200.048 349.541C199.964 349.541 199.544 349.569 198.284 349.569H194.602V348.813H196.828C198.2 348.813 198.676 348.841 198.76 348.841C198.9 348.841 198.914 348.827 198.914 348.687V347.889C198.914 347.735 198.9 347.721 198.76 347.721C198.676 347.721 198.2 347.749 196.828 347.749H194.602V347.007H197.43C198.774 347.007 199.222 347.035 199.306 347.035C199.446 347.035 199.46 347.021 199.46 346.895V346.069C199.46 345.929 199.446 345.915 199.306 345.915C199.222 345.915 198.774 345.943 197.43 345.943H196.52L196.772 345.495C196.828 345.397 196.898 345.243 196.968 345.201C197.052 345.159 197.122 345.089 197.122 344.991C197.122 344.907 197.052 344.851 196.94 344.823C196.52 344.711 196.198 344.641 195.834 344.571H198.284C199.544 344.571 199.964 344.599 200.048 344.599C200.188 344.599 200.202 344.585 200.202 344.445V343.577C200.202 343.423 200.188 343.409 200.048 343.409C199.964 343.409 199.544 343.437 198.284 343.437H198.088C198.284 343.157 198.48 342.877 198.662 342.583C198.732 342.485 198.802 342.401 198.9 342.317C198.984 342.247 199.04 342.191 199.04 342.079C199.04 342.009 198.984 341.939 198.858 341.897C198.48 341.771 197.99 341.631 197.5 341.533C197.444 341.869 197.36 342.079 197.262 342.289C197.066 342.695 196.87 343.045 196.618 343.437H195.75V342.513C195.75 342.051 195.792 341.841 195.834 341.743C195.862 341.673 195.89 341.589 195.89 341.519C195.89 341.449 195.834 341.407 195.708 341.393C195.33 341.337 194.784 341.309 194.364 341.295C194.448 341.687 194.448 342.023 194.448 342.527V343.437H193.314V342.513C193.314 342.051 193.356 341.841 193.398 341.743C193.426 341.659 193.454 341.589 193.454 341.505C193.454 341.435 193.398 341.393 193.286 341.379C192.908 341.337 192.362 341.309 191.928 341.295C192.012 341.687 192.012 342.023 192.012 342.513V343.437H190.71L191.046 343.269C191.228 343.171 191.228 343.157 191.158 343.031C190.906 342.555 190.556 342.079 190.22 341.673C190.136 341.561 190.094 341.547 189.954 341.617L189.142 341.995C188.974 342.079 188.946 342.135 189.03 342.233C189.352 342.639 189.604 342.989 189.828 343.437H189.73C188.47 343.437 188.05 343.409 187.966 343.409C187.812 343.409 187.798 343.423 187.798 343.577V344.445C187.798 344.585 187.812 344.599 187.966 344.599C188.05 344.599 188.47 344.571 189.73 344.571H191.97L191.06 344.823C190.878 344.879 190.892 344.935 190.962 345.061C191.116 345.327 191.256 345.607 191.41 345.943H190.556C189.212 345.943 188.764 345.915 188.68 345.915C188.526 345.915 188.512 345.929 188.512 346.069V346.895C188.512 347.021 188.526 347.035 188.68 347.035C188.764 347.035 189.212 347.007 190.556 347.007H193.188V347.749H191.214C189.856 347.749 189.366 347.721 189.282 347.721C189.142 347.721 189.142 347.735 189.142 347.889V348.687C189.142 348.827 189.142 348.841 189.282 348.841C189.366 348.841 189.856 348.813 191.214 348.813H193.188V349.569H189.73C188.47 349.569 188.05 349.541 187.966 349.541C187.812 349.541 187.798 349.555 187.798 349.709V350.535C187.798 350.675 187.812 350.689 187.966 350.689C188.05 350.689 188.47 350.661 189.73 350.661H191.998ZM192.838 345.943C192.642 345.453 192.418 345.033 192.208 344.683C192.166 344.627 192.138 344.585 192.096 344.571H195.666C195.61 344.837 195.582 344.977 195.512 345.131C195.372 345.467 195.26 345.705 195.134 345.943H192.838ZM208.686 345.831C209.498 349.009 210.786 351.375 213.152 353.111C213.306 353.209 213.39 353.279 213.446 353.279C213.544 353.279 213.6 353.181 213.726 352.957C213.936 352.565 214.188 352.285 214.482 351.991C213.11 351.193 212.088 350.255 211.332 349.093C211.738 348.771 212.172 348.379 212.592 347.973C212.886 347.679 213.026 347.483 213.208 347.413C213.292 347.385 213.39 347.315 213.39 347.203C213.39 347.119 213.334 347.035 213.18 346.923C212.9 346.671 212.592 346.433 212.158 346.139C212.004 346.391 211.794 346.713 211.556 346.979C211.22 347.371 210.954 347.637 210.688 347.889C210.408 347.273 210.184 346.587 210.002 345.831C211.304 345.831 211.766 345.859 211.85 345.859C211.99 345.859 212.004 345.845 212.004 345.691V344.809C212.004 344.655 211.99 344.641 211.85 344.641C211.766 344.641 211.304 344.669 209.96 344.669H205.984C204.654 344.669 204.192 344.641 204.108 344.641C203.954 344.641 203.94 344.655 203.94 344.809V345.691C203.94 345.845 203.954 345.859 204.108 345.859C204.192 345.859 204.654 345.831 205.984 345.831H206.712C205.536 346.461 204.178 346.937 202.33 347.329C202.61 347.581 202.75 347.735 202.974 348.155C203.128 348.421 203.142 348.435 203.548 348.323C204.64 347.987 205.592 347.609 206.558 347.105C206.712 347.301 206.838 347.497 206.964 347.693C205.452 348.659 204.01 349.317 201.868 349.793C202.092 350.003 202.302 350.255 202.484 350.577C202.596 350.787 202.652 350.871 202.75 350.871C202.82 350.871 202.918 350.829 203.086 350.773C204.724 350.199 206.152 349.555 207.51 348.659C207.622 348.883 207.706 349.107 207.79 349.331C205.998 350.745 204.08 351.697 201.574 352.425C201.868 352.677 202.022 352.845 202.232 353.237C202.344 353.461 202.4 353.545 202.512 353.545C202.582 353.545 202.68 353.503 202.848 353.447C204.794 352.719 206.418 351.865 208.07 350.605C208.098 350.843 208.112 351.109 208.112 351.361C208.112 352.537 207.846 352.705 207.258 352.705C206.964 352.705 206.418 352.691 205.802 352.621C205.984 352.873 206.11 353.223 206.208 353.629C206.278 353.979 206.278 353.979 206.656 354.007C206.908 354.035 207.146 354.035 207.384 354.035C209.022 354.035 209.498 353.377 209.498 351.417C209.498 349.695 208.91 347.987 207.664 346.461C207.972 346.279 208.294 346.069 208.616 345.831H208.686ZM208.602 342.443V342.415C208.602 342.009 208.63 341.827 208.672 341.715C208.714 341.603 208.756 341.533 208.756 341.435C208.756 341.379 208.686 341.323 208.546 341.309C208.056 341.267 207.538 341.239 207.034 341.225C207.118 341.575 207.132 341.953 207.132 342.415V342.443H204.066C202.778 342.443 202.316 342.415 202.218 342.415C202.078 342.415 202.064 342.429 202.064 342.569C202.064 342.667 202.092 342.891 202.092 343.353V343.815C202.092 345.005 202.064 345.229 202.064 345.313C202.064 345.453 202.078 345.467 202.218 345.467H203.366C203.506 345.467 203.52 345.453 203.52 345.313V343.661H212.424V345.313C212.424 345.453 212.438 345.467 212.578 345.467H213.726C213.866 345.467 213.88 345.453 213.88 345.313C213.88 345.229 213.852 345.005 213.852 343.815V343.241C213.852 342.891 213.88 342.653 213.88 342.569C213.88 342.429 213.866 342.415 213.726 342.415C213.628 342.415 213.166 342.443 211.878 342.443H208.602ZM221.118 344.711V346.447H218.948C217.59 346.447 217.128 346.419 217.044 346.419C216.904 346.419 216.89 346.433 216.89 346.573V347.651C216.89 347.791 216.904 347.805 217.044 347.805C217.114 347.805 217.478 347.791 218.43 347.777C219.018 349.093 219.774 350.143 220.698 351.011C219.354 351.753 217.702 352.271 215.644 352.691C215.84 352.929 216.064 353.293 216.218 353.685C216.316 353.951 216.358 354.049 216.498 354.049C216.568 354.049 216.666 354.035 216.806 353.993C218.808 353.475 220.474 352.817 221.874 351.935C223.288 352.873 225.024 353.517 227.18 354.007C227.32 354.035 227.418 354.049 227.488 354.049C227.642 354.049 227.684 353.965 227.782 353.685C227.936 353.293 228.16 352.859 228.384 352.565C226.284 352.243 224.576 351.767 223.176 350.983C224.142 350.171 224.982 349.191 225.738 348.001C225.864 347.791 225.948 347.721 226.074 347.623C226.2 347.525 226.27 347.483 226.27 347.371C226.27 347.245 226.158 347.077 225.836 346.769C225.486 346.419 225.374 346.335 225.276 346.335C225.22 346.335 225.15 346.363 225.094 346.391C225.024 346.419 224.898 346.447 224.688 346.447H222.644V344.711H226.214C227.474 344.711 227.908 344.739 227.992 344.739C228.132 344.739 228.146 344.725 228.146 344.585V343.479C228.146 343.325 228.132 343.311 227.992 343.311C227.908 343.311 227.474 343.339 226.214 343.339H222.644V342.975C222.644 342.247 222.686 342.009 222.728 341.869C222.77 341.771 222.826 341.687 222.826 341.575C222.826 341.505 222.728 341.435 222.602 341.421C222.112 341.365 221.51 341.337 221.006 341.323C221.104 341.967 221.118 342.317 221.118 343.115V343.339H217.758C216.498 343.339 216.064 343.311 215.98 343.311C215.84 343.311 215.826 343.325 215.826 343.479V344.585C215.826 344.725 215.84 344.739 215.98 344.739C216.064 344.739 216.498 344.711 217.758 344.711H221.118ZM224.044 347.777C223.47 348.729 222.784 349.513 221.972 350.157C221.216 349.527 220.572 348.757 220.04 347.777H224.044ZM236.854 348.981C236.924 348.729 236.994 348.477 237.05 348.211H240.284C241.6 348.211 242.062 348.239 242.146 348.239C242.286 348.239 242.286 348.225 242.286 348.071V347.161C242.286 347.021 242.272 347.007 242.146 347.007C242.062 347.007 241.6 347.035 240.284 347.035H237.26C237.302 346.797 237.33 346.545 237.358 346.279H240.074C241.362 346.279 241.81 346.307 241.908 346.307C242.048 346.307 242.062 346.293 242.062 346.139V345.341C242.062 345.201 242.048 345.187 241.908 345.187C241.824 345.187 241.46 345.215 240.55 345.215C240.83 344.739 240.998 344.375 241.222 343.941C241.292 343.815 241.348 343.745 241.446 343.675C241.516 343.619 241.572 343.549 241.572 343.465C241.572 343.395 241.502 343.311 241.39 343.269C241.026 343.129 240.62 343.031 240.144 342.933C240.102 343.185 240.018 343.451 239.934 343.689C239.738 344.179 239.486 344.697 239.178 345.215H236.168C234.88 345.215 234.432 345.187 234.348 345.187C234.208 345.187 234.194 345.201 234.194 345.341V346.139C234.194 346.293 234.208 346.307 234.348 346.307C234.418 346.307 234.852 346.279 236 346.279C235.986 346.531 235.972 346.797 235.944 347.035C234.74 347.035 234.306 347.007 234.222 347.007C234.082 347.007 234.068 347.021 234.068 347.161V348.071C234.068 348.225 234.082 348.239 234.222 348.239C234.292 348.239 234.698 348.225 235.72 348.211C235.244 350.199 234.236 351.837 232.696 352.971C232.948 353.167 233.144 353.335 233.368 353.643C233.48 353.797 233.55 353.881 233.634 353.881C233.704 353.881 233.788 353.811 233.942 353.685C234.908 352.859 235.65 351.879 236.196 350.745C236.56 351.249 236.966 351.683 237.4 352.075C236.658 352.523 235.762 352.887 234.684 353.125C234.852 353.307 235.034 353.531 235.202 353.867C235.314 354.091 235.342 354.189 235.468 354.189C235.538 354.189 235.636 354.161 235.79 354.105C236.84 353.783 237.708 353.363 238.45 352.845C239.332 353.377 240.326 353.769 241.46 354.063C241.88 354.175 241.88 354.175 242.034 353.755C242.16 353.405 242.3 353.097 242.468 352.887C241.292 352.677 240.298 352.397 239.472 352.005C239.976 351.529 240.41 350.997 240.83 350.409C241.012 350.129 241.082 350.059 241.194 349.989C241.292 349.933 241.348 349.863 241.348 349.793C241.348 349.681 241.25 349.527 240.998 349.261C240.746 348.967 240.62 348.883 240.508 348.883C240.438 348.883 240.382 348.897 240.326 348.925C240.256 348.953 240.186 348.981 240.032 348.981H236.854ZM239.528 349.975C239.206 350.493 238.828 350.955 238.366 351.361C237.834 350.983 237.372 350.535 236.966 349.975H239.528ZM232.584 348.925C232.836 348.827 233.074 348.729 233.312 348.617C233.564 348.505 233.606 348.491 233.606 348.127C233.606 347.777 233.634 347.357 233.676 347.119C233.298 347.273 232.934 347.427 232.584 347.553V345.313C233.298 345.313 233.536 345.341 233.634 345.341C233.774 345.341 233.788 345.327 233.788 345.187V344.165C233.788 344.025 233.774 344.011 233.634 344.011C233.536 344.011 233.298 344.039 232.584 344.039V343.269C232.584 342.317 232.584 342.023 232.668 341.855C232.71 341.757 232.766 341.673 232.766 341.561C232.766 341.505 232.668 341.421 232.528 341.407C232.066 341.351 231.618 341.323 231.114 341.309C231.184 341.953 231.212 342.401 231.212 343.297V344.039H230.96C230.092 344.039 229.826 344.011 229.756 344.011C229.616 344.011 229.602 344.025 229.602 344.165V345.187C229.602 345.327 229.616 345.341 229.756 345.341C229.826 345.341 230.092 345.313 230.96 345.313H231.212V348.029L230.82 348.141C230.33 348.281 229.924 348.351 229.518 348.407C229.588 348.897 229.672 349.373 229.756 349.737C229.798 349.849 229.854 349.905 229.938 349.905C230.022 349.905 230.106 349.877 230.176 349.821C230.26 349.765 230.414 349.667 230.666 349.583L231.212 349.415V352.201C231.212 352.509 231.114 352.593 230.918 352.593C230.26 352.593 230.022 352.593 229.714 352.551C229.826 352.775 229.98 353.125 230.05 353.559C230.12 353.993 230.148 353.993 230.582 353.979C231.436 353.979 231.884 353.909 232.192 353.671C232.514 353.433 232.626 353.055 232.626 352.285C232.626 351.585 232.584 350.843 232.584 349.499V348.925ZM240.76 341.239C240.564 341.337 240.298 341.435 239.976 341.505C238.268 341.869 236.196 342.051 233.97 342.065C234.11 342.247 234.278 342.555 234.376 342.835C234.516 343.255 234.558 343.241 235.006 343.213C236.896 343.087 239.206 342.835 240.942 342.499C241.18 342.457 241.404 342.415 241.558 342.415C241.74 342.415 241.852 342.345 241.852 342.247C241.852 342.163 241.782 342.093 241.698 342.009C241.516 341.827 241.082 341.449 240.76 341.239ZM238.744 344.683C238.912 344.613 238.926 344.571 238.884 344.445C238.716 343.997 238.52 343.605 238.24 343.171C238.17 343.059 238.128 343.031 237.932 343.115L237.302 343.353C237.106 343.423 237.05 343.465 237.106 343.563C237.33 343.983 237.554 344.431 237.708 344.907C237.764 345.075 237.792 345.075 237.988 344.991L238.744 344.683ZM234.824 343.591C234.642 343.661 234.628 343.675 234.726 343.801C234.992 344.207 235.16 344.543 235.314 345.005C235.37 345.159 235.412 345.159 235.594 345.089L236.364 344.767C236.546 344.697 236.56 344.669 236.504 344.529C236.322 344.123 236.14 343.745 235.86 343.353C235.776 343.241 235.748 343.227 235.566 343.297L234.824 343.591Z" fill="#282E33"/>
<path opacity="0.2" d="M148.8 265.326C148.5 266.426 148.2 267.226 148 268.026C144.4 264.926 140.4 264.126 135.9 265.026C135.9 264.926 135.9 264.926 135.8 264.826C136.1 264.626 136.3 264.326 136.6 264.126C136.8 263.826 137.1 263.626 137.4 263.226C138.8 264.426 140 263.926 141.1 262.926C141.3 262.826 141.7 262.926 141.9 262.926C142 262.926 142 263.126 142.1 263.226C143.3 264.626 143.6 264.726 145.2 263.926C145.4 263.826 145.6 263.726 145.9 263.526C146.4 264.626 146.7 266.226 148.8 265.326Z" fill="#2655BD"/>
<path opacity="0.2" d="M131.9 264.026C133 264.326 134.1 264.526 135.4 264.926C134.4 265.526 133.6 266.026 132.7 266.526C132.3 265.726 132 264.926 131.6 264.226C131.7 264.126 131.8 264.026 131.9 264.026Z" fill="#2655BD"/>
<path d="M149.4 316.827C148.7 316.927 147.9 316.727 147.6 317.627C147.5 317.827 147.1 317.827 146.8 317.827C144.3 317.827 141.8 317.727 139.3 316.227C139.3 316.827 139.3 317.227 139.3 317.527C139.3 319.727 139.2 322.027 139.4 324.227C139.5 324.827 140.4 325.527 141.1 325.927C141.7 326.327 142.2 326.827 142.3 327.527C142.3 327.727 142.1 327.927 142 328.127C141.8 328.027 141.6 327.927 141.4 327.827C140.7 327.327 140 326.727 139.3 326.227C139 327.127 138.7 327.727 138.4 328.427C138.3 328.627 138.1 328.727 137.9 328.827C137.7 328.627 137.4 328.427 137.4 328.227C137.3 327.427 137.4 326.627 137.4 325.627C136.8 325.927 136.5 326.127 136.1 326.327C135.8 326.427 135.4 326.627 135.1 326.727C134.9 326.727 134.6 326.527 134.5 326.327C134.4 326.227 134.6 325.827 134.8 325.727C135.5 325.327 136.2 324.827 137 324.527C137.9 324.127 138.4 323.427 138.4 322.427C138.3 320.527 138.3 318.527 138.2 316.627C138.2 316.027 137.9 315.727 137.4 315.427C135.9 314.627 134.2 313.827 133.1 312.627C129.6 309.027 128.3 304.627 129.1 299.627C129.4 297.827 129.9 296.027 130.4 294.227C131.3 291.227 131.5 288.327 130.2 285.427C129.7 284.327 129.3 283.327 128.7 282.227C128.5 281.827 128 281.427 127.5 281.227C126.2 280.627 124.8 280.227 123.5 279.727C123.3 279.627 123 279.727 122.7 279.627C122.4 279.527 122 279.327 122 279.227C122 278.927 122.2 278.527 122.4 278.427C123.4 277.927 124.4 277.527 125.4 277.027C126.3 276.527 127.1 276.027 127.9 275.527C128 275.427 128.1 275.127 128.1 275.027C128 273.227 128.7 271.727 129.6 270.327C130 269.427 130.8 268.627 131.3 267.727C131.5 267.427 131.6 266.827 131.5 266.427C131.2 265.627 130.8 264.727 130.4 263.927C130.1 263.127 130.3 262.727 131.2 262.727C131.7 262.727 132.2 262.827 132.6 262.927C133.4 263.127 134.2 263.427 135 263.527C135.8 263.627 136.1 262.927 136.4 262.327C136.9 261.227 137.3 261.127 138.1 262.027C138.8 262.827 139.5 262.227 140.1 262.027C140.3 262.027 140.4 261.827 140.5 261.727C141.7 260.727 141.8 260.727 142.7 261.927C143.6 263.127 143.7 263.227 145 262.427C145.1 262.327 145.2 262.327 145.3 262.227C146.7 261.527 146.8 261.627 147.1 263.127C147.4 264.227 147.6 264.327 148.8 264.127C149.7 263.927 150.1 264.227 149.9 265.127C149.6 266.227 149.3 267.327 148.9 268.327C148.7 268.827 148.5 269.327 149 269.827C150.2 271.427 150.2 273.327 150.4 275.227C150.6 277.427 150.2 279.427 149.1 281.327C148.6 282.227 148 283.127 147.7 284.127C147.1 285.827 147.7 287.427 148.7 288.727C149.6 289.927 150.7 291.127 151.9 292.127C152.7 292.827 153.8 293.227 154.8 293.627C156.2 294.227 157.5 294.927 158.9 295.327C160.7 295.927 162.5 296.327 164.4 296.727C166.4 297.127 168.4 297.527 170.4 297.927C171 298.027 171.5 299.127 171.4 300.127C171.2 301.427 170.8 302.427 169.5 303.127C168.1 303.927 166.9 305.027 165.5 306.027C165.1 306.327 164.7 306.627 164.2 306.727C163.4 307.027 163.4 307.327 164 307.827C164.2 308.027 164.4 308.127 164.6 308.327C165.1 308.827 165 309.527 164.4 309.827C163.5 310.327 162.5 310.727 161.5 310.927C160.5 311.227 159.5 311.327 158.5 311.527C158.5 311.627 158.5 311.727 158.5 311.727C158.7 312.227 159.2 312.727 159.2 313.227C159.2 313.927 158.4 313.927 157.8 314.027C155.6 314.427 153.4 314.927 151.2 315.327C150.4 315.527 150.1 315.927 150.5 316.727C151.1 318.327 151.6 319.927 152.2 321.527C152.6 322.627 153.3 323.027 154.4 323.027C155 323.027 155.7 322.927 155.8 323.627C155.8 324.327 155.1 324.327 154.5 324.327C154.2 324.327 153.8 324.327 153.4 324.327C153.4 324.927 153.4 325.527 153.3 326.027C153.2 326.327 153 326.627 152.9 326.927C152.6 326.627 152.3 326.427 152.2 326.027C152 325.527 152 324.827 151.9 324.127C151.3 324.527 150.9 324.927 150.4 325.127C150.1 325.227 149.8 325.127 149.4 325.127C149.5 324.827 149.6 324.527 149.7 324.327C149.7 324.327 149.7 324.327 149.8 324.227C151.6 322.527 151.6 322.527 150.8 320.227C150.6 319.527 150.4 318.927 150.1 318.227C149.8 318.127 149.6 317.527 149.4 316.827ZM163.3 309.327C162.9 308.627 162.5 308.127 162.1 307.527C161.8 307.127 162 306.727 162.4 306.627C163.8 306.427 164.9 305.527 166 304.627C167.1 303.727 168.4 302.827 169.6 301.927C170.7 301.027 170.5 299.427 169.3 299.027C168.6 298.827 167.9 298.727 167.2 298.527C164.2 297.827 161.3 297.127 158.3 296.327C156.9 295.927 155.6 295.427 154.3 294.827C153.1 294.327 151.9 293.727 150.9 292.927C149.8 292.027 148.9 290.827 148 289.627C147.5 289.027 147.2 288.127 146.9 287.427C146.7 286.827 146.3 286.127 146.4 285.527C146.6 284.427 147.1 283.327 147.5 282.227C148.4 280.227 149.4 278.327 149.3 275.927C149.2 271.627 146.7 266.727 141.9 266.027C139 265.627 136.4 265.727 133.8 267.227C131.4 268.727 130.2 270.927 129.5 273.427C129 275.227 129.3 277.127 129.1 278.927C129 280.027 130.3 280.927 129.6 282.127C129.6 282.127 129.6 282.227 129.7 282.327C130.8 284.027 131.4 286.027 131.9 287.927C132.5 290.127 132.2 292.327 131.4 294.327C130.2 297.327 129.6 300.327 129.9 303.527C130 304.927 130.2 306.327 130.7 307.527C131.3 308.927 132.4 310.127 133.3 311.327C133.7 311.927 134.4 312.327 135 312.727C135.6 313.127 136.2 313.427 136.9 313.827C139.2 314.927 141.3 316.227 144 316.427C146 316.527 147.7 315.827 149.4 315.227C151.3 314.527 153.2 313.827 155.2 313.727C156 313.627 156.7 313.327 157.6 313.127C157.4 312.827 157.3 312.727 157.2 312.527C156.7 311.327 156.9 311.027 158.2 310.927C159.5 310.727 160.8 310.427 162.2 310.127C162.7 309.927 163 309.527 163.3 309.327ZM148.8 265.327C146.7 266.227 146.5 264.627 145.9 263.527C145.6 263.727 145.4 263.827 145.2 263.927C143.6 264.727 143.3 264.627 142.1 263.227C142 263.127 142 262.927 141.9 262.927C141.6 262.927 141.2 262.727 141.1 262.927C140 263.927 138.8 264.427 137.4 263.227C137.1 263.527 136.9 263.827 136.6 264.127C136.4 264.427 136.1 264.627 135.8 264.827C135.8 264.927 135.8 264.927 135.9 265.027C140.4 264.127 144.4 264.927 148 268.027C148.2 267.227 148.4 266.427 148.8 265.327ZM128 277.027C126.7 277.627 125.4 278.227 124.2 278.727C124.2 278.827 124.2 278.927 124.2 279.027C125.6 279.527 127.1 280.027 128.5 280.427C128.3 279.327 128.1 278.227 128 277.027ZM131.9 264.027C131.8 264.027 131.7 264.127 131.7 264.227C132 264.927 132.4 265.727 132.8 266.527C133.7 266.027 134.5 265.527 135.5 264.927C134.1 264.527 133 264.227 131.9 264.027Z" fill="#223A70" stroke="#223A70" stroke-width="0.5" stroke-miterlimit="10"/>
<path d="M134.1 274.327C134 273.627 134.5 273.327 135.3 273.327C136 273.427 136.7 273.427 136.8 274.327C136.9 275.227 136.2 276.027 135.5 275.927C134.7 275.827 134.1 275.127 134.1 274.327Z" fill="#223A70" stroke="#223A70" stroke-width="0.5" stroke-miterlimit="10"/>
<path d="M177 306.927C177.2 303.827 177.2 300.627 178.5 297.727C179.4 295.727 180.3 293.827 181.8 292.227C182.3 291.727 183.2 291.427 183.1 290.327C183.1 290.027 183.7 290.027 183.8 290.327C184.1 291.227 184.8 291.727 185.2 292.627C185.8 293.927 186.6 295.127 187.3 296.427C188 297.627 188.8 298.527 189.7 299.527C190.2 300.027 190.7 300.527 190.9 301.227C191.1 301.627 191.4 301.627 191.8 301.627C194.7 301.027 197.8 301.127 200.7 300.427C202 300.127 203.3 300.427 204.6 300.127C205 300.027 205.4 300.027 205.8 299.827C206.1 299.627 206.6 299.627 206.8 299.827C207 300.127 207.3 300.527 207.1 301.027C206.8 301.727 206.9 302.627 206.6 303.427C205.8 306.127 205.5 308.927 205 311.627C204.9 312.227 205.2 312.327 205.7 312.327C207.3 312.227 209 312.027 210.6 311.927C211.8 311.827 212.3 312.527 211.8 313.627C211.1 315.527 210.3 317.327 209.2 319.027C208.6 320.027 208.1 321.027 206.9 321.627C206.3 321.927 205.7 322.527 205.2 323.027C203.9 324.227 202.2 324.527 200.6 324.827C198 325.127 195.3 325.427 192.6 325.027C189.4 324.627 186.6 323.527 184 321.727C181.7 320.227 180.4 318.027 179.1 315.827C177.8 313.127 176.7 310.127 177 306.927ZM196.8 324.027C197.7 324.027 198.6 323.927 199.5 323.927C202.7 323.827 205.4 322.327 207.5 319.927C209.1 318.227 210 315.927 210.9 313.727C211.1 313.327 210.9 313.127 210.5 313.127C210.1 313.127 209.8 313.027 209.4 313.127C208 313.227 206.5 313.127 205.1 313.427C204.3 313.627 204 313.227 204.1 312.327C204.3 310.727 204.7 309.127 205 307.427C205.4 305.627 205.8 303.827 206.1 302.027C206.2 301.427 206.3 300.927 205.4 301.027C205 301.127 204.5 301.127 204.1 301.127C199.8 301.427 195.6 302.027 191.3 302.527C190.9 302.527 190.6 302.527 190.5 302.227C190 300.927 189 300.027 188.4 298.827C187.7 297.427 186.8 296.127 185.9 294.727C185.4 293.827 184.9 292.927 184.3 292.127C183.9 291.627 183.5 291.327 183.1 292.027C182.4 293.227 181.4 294.127 180.8 295.327C180.4 296.027 180.2 296.827 179.9 297.527C178.1 300.827 178.2 304.427 178.2 308.027C178.2 310.827 179.3 313.327 180.9 315.627C182.1 317.427 183.2 319.327 185.1 320.627C186.6 321.627 188.2 322.527 190 323.027C192.1 323.827 194.4 324.027 196.8 324.027Z" fill="#223A70" stroke="#223A70" stroke-width="0.5" stroke-miterlimit="10"/>
<path d="M250.8 303.627C251.2 305.627 250.5 307.627 249.9 309.527C249.4 311.027 248.6 312.427 247.6 313.627C246.3 315.427 245.2 317.427 243.2 318.527C241.7 319.327 240.1 320.027 238.4 320.327C236.6 320.627 234.9 321.327 233 321.227C228.2 320.927 224 319.527 220.5 315.827C217.9 313.027 216.2 309.927 215.1 306.327C214.8 305.427 214.9 304.427 215.5 303.627C215.8 303.227 216.1 303.127 216.6 303.327C218.7 303.927 220.7 304.727 222.9 305.127C223.4 305.227 223.6 305.027 223.6 304.627C223.5 301.927 224 299.227 223.8 296.427C223.6 294.427 223.9 294.327 225.7 294.827C228.6 295.727 231.4 296.527 234.3 297.427C235 297.627 235.5 297.627 235.6 296.727C236.1 293.827 236.9 291.027 237.8 288.227C238.2 287.027 238.4 287.027 239.5 287.527C241.8 288.627 243.8 290.127 245.6 291.727C247.4 293.227 248.7 295.327 249.6 297.527C250.6 299.327 251 301.327 250.8 303.627ZM224.6 303.527C224.6 304.227 224.6 304.827 224.7 305.527C224.7 306.027 224.6 306.627 223.8 306.327C221.9 305.627 219.9 305.427 218 304.727C217.4 304.527 216.7 303.927 216.2 304.527C215.7 305.027 215.9 305.927 216.1 306.627V306.727C217.4 309.627 218.6 312.627 221.1 314.827C223.2 316.627 225 318.727 227.9 319.227C229.7 319.527 231.5 320.127 233.4 320.027C236.1 319.927 238.8 319.327 241.3 318.327C242.5 317.827 243.6 317.227 244.4 316.227C245.5 314.627 246.8 313.227 247.7 311.527C250 307.527 250.2 303.327 249.1 298.927C248.4 296.427 246.9 294.327 245.1 292.527C244.5 292.027 243.9 291.527 243.3 291.127C242.1 290.227 240.9 289.327 239.6 288.627C239.2 288.427 239 288.427 238.8 288.827C237.4 291.827 236.6 294.927 236.6 298.127C236.6 298.727 236.3 299.127 235.7 298.827C234.3 298.227 232.9 297.927 231.5 297.427C229.6 296.827 227.7 296.327 225.8 295.727C225.2 295.527 224.9 295.627 224.9 296.327C224.8 298.627 224.7 301.127 224.6 303.527Z" fill="#223A70" stroke="#223A70" stroke-width="0.5" stroke-miterlimit="10"/>
<path d="M227.7 265.127C227.6 265.327 227.6 265.627 227.5 265.927C226.1 269.727 224.4 273.327 223.2 277.227C223.1 277.427 223.4 278.027 222.7 277.827C222.2 277.627 222.1 277.127 222.4 276.727C223.2 275.127 223.9 273.527 224.5 271.927C225.2 269.827 226.1 267.727 226.7 265.627C226.8 265.327 226.9 265.127 227 264.927C227.1 264.727 227.2 264.527 227.4 264.627C227.7 264.527 227.7 264.827 227.7 265.127Z" fill="#223A70" stroke="#223A70" stroke-width="0.5" stroke-miterlimit="10"/>
<path d="M193.6 271.427C193.6 271.127 193.5 270.927 193.8 270.827C194.1 270.827 194.2 270.927 194.4 271.227C195 272.527 195.7 273.727 196.3 275.027C196.8 276.227 197.3 277.527 198.2 278.627C198.5 278.927 198.7 279.227 199 279.527C199.1 279.627 199.4 279.827 199.3 279.927C199.3 280.327 199.3 280.827 198.9 281.027C198.6 281.227 198.4 280.727 198.2 280.427C196.3 277.927 195.3 275.127 193.9 272.327C193.8 272.027 193.6 271.727 193.6 271.427Z" fill="#223A70" stroke="#223A70" stroke-width="0.5" stroke-miterlimit="10"/>
<path d="M210.1 267.727C209.9 270.227 210.4 272.727 210.8 275.127C210.9 275.527 211.3 275.927 210.9 276.427C210.8 276.627 211.1 277.227 210.5 276.927C210.3 276.827 209.6 276.927 209.9 276.127C210.2 275.227 209.7 274.227 209.6 273.227C209.4 271.227 209.1 269.227 209 267.127C209 266.727 208.8 266.027 209.5 266.027C210.2 266.027 210 266.727 210 267.127C210.1 267.427 210.1 267.527 210.1 267.727Z" fill="#223A70" stroke="#223A70" stroke-width="0.5" stroke-miterlimit="10"/>
<path d="M273.449 117.108C273.953 117.598 274.345 118.172 274.709 118.858C274.765 118.956 274.835 118.984 274.933 118.928L275.563 118.55C275.675 118.48 275.675 118.41 275.633 118.326C275.297 117.696 274.849 117.08 274.443 116.702C274.373 116.632 274.317 116.618 274.247 116.66L273.449 117.108ZM274.821 116.31C275.353 116.842 275.745 117.416 276.067 118.046C276.109 118.13 276.179 118.186 276.305 118.116L276.893 117.738C277.019 117.654 277.005 117.57 276.963 117.486C276.697 116.968 276.249 116.366 275.773 115.918C275.703 115.848 275.661 115.82 275.577 115.876L274.821 116.31ZM270.803 119.096C271.573 119.096 272.399 119.11 273.155 119.138C273.309 119.138 273.337 119.068 273.337 118.872C273.365 118.536 273.365 118.186 273.337 117.85C273.337 117.668 273.309 117.584 273.169 117.584C272.469 117.626 271.587 117.64 270.803 117.64H268.227C267.597 117.64 266.883 117.626 265.903 117.57C265.945 118.074 265.959 118.578 266.001 118.914C266.015 119.082 266.057 119.152 266.239 119.152C267.023 119.124 267.583 119.096 268.227 119.096H270.803ZM272.875 122.344C273.841 122.344 274.807 122.372 275.535 122.4C275.661 122.4 275.745 122.344 275.745 122.162C275.759 121.98 275.759 121.266 275.745 121.084C275.745 120.888 275.731 120.804 275.591 120.804C274.765 120.86 273.953 120.888 272.861 120.888H266.575C265.763 120.888 264.979 120.888 264.195 120.818C264.195 121.238 264.237 121.77 264.307 122.162C264.321 122.344 264.363 122.442 264.489 122.428C265.203 122.386 265.889 122.344 266.589 122.344H269.249C269.193 123.674 269.053 124.43 268.535 125.354C267.947 126.418 267.121 127.104 265.749 127.846C266.239 128.028 266.715 128.308 266.995 128.588C267.093 128.686 267.191 128.728 267.289 128.728C267.415 128.728 267.555 128.658 267.709 128.56C268.605 128.028 269.613 127.006 270.173 125.914C270.719 124.85 270.915 123.912 270.999 122.344H272.875ZM286.566 120.272V118.942C286.566 118.34 286.58 117.976 286.678 117.71C286.72 117.598 286.734 117.514 286.734 117.458C286.734 117.346 286.678 117.276 286.482 117.234C286.146 117.136 285.376 117.052 284.844 116.996C284.942 117.486 284.984 118.13 284.97 118.914L284.956 120.286H281.946V119.264C281.946 118.312 281.946 118.172 282.044 117.92C282.086 117.808 282.128 117.71 282.128 117.626C282.128 117.528 282.072 117.458 281.918 117.43C281.624 117.346 280.938 117.276 280.21 117.206C280.35 118.018 280.378 118.368 280.378 119.264V120.286H279.958C278.88 120.286 277.97 120.258 277.382 120.216C277.41 120.79 277.424 121.28 277.48 121.574C277.494 121.756 277.536 121.84 277.648 121.84C278.082 121.812 279.202 121.77 279.958 121.77H280.378V122.302C280.378 123.184 280.35 123.87 280.308 124.598C280.294 124.752 280.378 124.78 280.56 124.794C280.938 124.822 281.4 124.822 281.764 124.794C281.918 124.78 282.016 124.752 282.002 124.598C281.96 123.856 281.96 123.1 281.96 122.274V121.77H284.942C284.886 123.478 284.662 124.444 284.116 125.34C283.402 126.488 282.324 127.202 280.336 127.818C280.812 128.028 281.078 128.224 281.498 128.658C281.61 128.77 281.68 128.812 281.764 128.812C281.848 128.812 281.96 128.77 282.156 128.686C283.626 128.084 284.76 127.244 285.46 126.082C286.146 124.948 286.454 123.772 286.538 121.77H287.112C287.798 121.77 288.652 121.784 289.128 121.784C289.324 121.798 289.352 121.742 289.366 121.56C289.394 121.21 289.394 120.804 289.366 120.454C289.352 120.3 289.338 120.216 289.17 120.23C288.526 120.258 287.742 120.272 287.056 120.272H286.566ZM287 117.234C287.476 117.766 287.826 118.354 288.134 119.054C288.19 119.166 288.26 119.194 288.372 119.138L288.946 118.844C289.058 118.788 289.072 118.732 289.03 118.634C288.736 117.976 288.33 117.346 287.952 116.94C287.882 116.856 287.826 116.856 287.756 116.884L287 117.234ZM288.344 116.604C288.834 117.164 289.198 117.766 289.478 118.424C289.52 118.508 289.576 118.55 289.702 118.494L290.262 118.214C290.388 118.158 290.388 118.06 290.346 117.976C290.122 117.444 289.716 116.814 289.268 116.338C289.198 116.254 289.156 116.24 289.072 116.282L288.344 116.604ZM298.535 120.748C299.109 120.188 299.627 119.642 300.173 118.984C300.551 118.578 300.775 118.368 301.013 118.214C301.125 118.144 301.209 118.018 301.209 117.906C301.209 117.836 301.181 117.752 301.097 117.696C300.789 117.444 300.173 117.066 299.543 116.716C299.319 117.318 299.137 117.598 298.661 118.158C297.793 119.194 296.785 120.174 295.679 121.084C294.391 122.148 293.201 122.96 291.269 123.954C291.689 124.178 292.151 124.458 292.473 124.78C292.571 124.878 292.655 124.92 292.767 124.92C292.837 124.92 292.907 124.906 292.977 124.864C294.097 124.276 295.595 123.212 296.827 122.176V125.438C296.827 126.39 296.785 127.3 296.771 128.308C296.757 128.476 296.813 128.532 296.967 128.532C297.415 128.56 297.919 128.56 298.367 128.532C298.521 128.532 298.591 128.476 298.577 128.294C298.549 127.174 298.535 126.348 298.535 125.382V120.748ZM305.815 119.278C306.823 119.894 307.831 120.692 308.671 121.56C308.741 121.63 308.797 121.672 308.853 121.672C308.909 121.672 308.951 121.63 309.021 121.56C309.217 121.35 309.679 120.79 309.889 120.51C309.945 120.44 309.973 120.384 309.973 120.328C309.973 120.272 309.931 120.216 309.847 120.132C309.049 119.376 307.887 118.522 307.173 118.144C307.103 118.102 307.047 118.074 306.991 118.074C306.921 118.074 306.851 118.116 306.795 118.186C306.529 118.466 306.123 118.9 305.815 119.278ZM306.123 126.264C306.459 126.852 306.893 127.426 307.243 127.818C307.327 127.916 307.411 127.972 307.481 127.972C307.565 127.972 307.649 127.916 307.733 127.832C307.859 127.706 308.041 127.566 308.671 127.188C310.561 126.138 311.737 125.354 312.899 124.444C314.173 123.464 315.377 122.344 316.119 121.476C316.273 121.294 316.343 121.182 316.343 121.056C316.343 120.972 316.315 120.888 316.273 120.79C316.091 120.328 315.965 119.852 315.881 119.152C314.691 120.678 313.753 121.574 312.045 122.96C310.631 124.094 309.721 124.682 308.013 125.564C307.271 125.942 306.837 126.068 306.123 126.264Z" fill="#282E33"/>
<path d="M301.511 96.8072C301.511 99.2888 301.235 101.679 301.879 104.16C301.971 104.436 301.879 104.62 301.695 104.804C301.327 104.987 301.143 104.895 300.96 104.62C300.868 104.528 300.868 104.528 300.776 104.436C299.673 102.69 298.018 102.598 296.272 102.598C293.331 102.69 290.482 103.333 287.448 103.057C284.323 102.781 281.198 102.598 278.073 102.138C274.121 101.587 270.261 101.679 266.309 102.23C265.114 102.414 263.919 102.322 262.816 102.414C262.356 102.414 261.805 102.322 261.805 102.873C261.805 103.517 261.897 104.252 262.816 104.344C264.654 104.62 266.492 104.895 268.331 104.987C273.202 105.171 277.982 105.447 282.853 105.355C285.243 105.263 287.632 105.631 290.022 105.631C293.331 105.539 296.732 105.355 300.041 105.171C300.408 105.171 300.684 105.079 301.052 105.079C301.419 105.079 301.695 105.171 301.603 105.539C301.511 105.815 301.511 106.274 300.96 106.274C298.11 105.998 295.353 106.274 292.596 106.366C289.562 106.458 286.621 106.182 283.588 106.274C277.89 106.366 272.191 105.815 266.401 105.631C265.114 105.539 263.827 105.171 262.448 105.355C261.713 105.447 261.713 104.436 261.437 103.976C261.161 103.425 261.253 102.69 260.242 102.69C259.783 102.69 259.875 101.954 259.875 101.587C260.242 94.5093 260.059 87.4321 259.967 80.3548C259.875 73.6452 259.323 66.9356 258.404 60.3179C257.945 57.6524 258.404 55.1708 257.945 52.5972C257.853 52.0457 257.853 51.5862 257.209 51.4943C256.75 51.4943 256.658 51.1266 256.566 50.8509C256.29 49.4722 255.922 48.0935 256.014 46.7148C256.014 45.428 256.474 45.1523 257.761 45.1523C262.356 45.1523 266.86 45.9795 271.456 46.3471C273.018 46.4391 274.673 46.2552 276.235 46.0714C280.831 45.6118 285.335 44.9685 289.93 45.2442C291.768 45.3361 293.607 45.2442 295.445 45.0604C296.824 44.9685 298.11 44.9685 299.397 45.1523C300.224 45.3361 300.776 45.7038 301.052 46.531C301.603 48.3692 301.419 50.2075 301.603 52.1376C301.971 55.8141 302.063 59.4907 302.063 63.2591C302.063 65.1892 303.625 65.7407 304.544 66.8437C304.544 66.8437 304.636 66.9356 304.636 66.8437C305.739 65.9245 306.199 67.2113 306.934 67.579C308.037 68.0385 309.14 70.2444 308.405 71.2555C306.934 73.4614 308.037 75.5754 308.221 77.7813C308.313 78.9761 308.588 80.0791 308.588 81.2739C308.496 83.4798 309.783 85.2262 310.886 87.0644C311.162 87.524 311.805 87.6159 312.265 87.9836C314.93 90.5571 317.32 93.4983 319.986 96.1638C320.813 97.0829 321.916 97.7263 322.835 98.4616C323.111 98.6454 323.294 98.8292 323.386 99.105C323.478 99.3807 323.754 99.7484 323.386 100.024C323.019 100.3 322.835 99.8403 322.651 99.6565C320.997 98.0939 319.066 96.991 317.688 95.1527C316.493 93.4983 314.838 92.2115 313.644 90.5571C313.092 89.8218 312.357 89.5461 311.713 88.9027C311.438 88.535 311.254 88.8108 310.978 88.9946C309.599 89.7299 308.496 90.9248 307.394 92.0277C306.382 92.9468 305.371 94.0498 304.177 94.7851C302.798 95.7042 302.798 96.1638 304.085 97.2667C306.015 99.0131 307.577 101.035 308.772 103.333C309.691 105.171 310.61 107.009 312.173 108.48C312.265 108.572 312.357 108.756 312.265 108.848C312.173 109.032 311.989 109.032 311.805 108.94C311.162 108.756 310.702 108.296 310.335 107.837C309.508 106.918 308.864 105.907 308.405 104.804C307.394 101.862 305.188 99.7484 303.074 97.6344C302.798 97.3586 302.614 97.1748 302.338 96.991C301.695 96.3476 301.603 95.7961 302.43 95.2447C302.89 94.9689 303.257 94.5093 303.074 93.9579C302.89 93.3145 302.338 92.8549 301.787 92.4873C301.419 92.3035 301.419 92.6711 301.419 92.9468C301.511 94.3255 301.511 95.5204 301.511 96.8072ZM264.378 50.8509C262.908 50.8509 261.529 51.0347 260.15 51.2185C259.599 51.3104 258.956 51.4943 258.956 52.1376C258.956 53.884 258.588 55.6303 258.68 57.2847C258.956 61.0532 259.323 64.9135 259.783 68.6819C260.242 72.9099 260.518 77.1379 260.518 81.4578C260.518 87.8916 261.161 94.4174 260.426 100.851C260.334 101.495 260.61 101.862 261.437 101.77C264.93 101.311 268.423 101.403 272.007 100.943C275.592 100.484 279.084 101.587 282.669 101.587C285.059 101.587 287.357 102.322 289.746 102.138C292.228 101.954 294.71 101.679 297.191 101.77C298.018 101.77 298.386 101.495 298.202 100.484C297.651 97.4506 297.835 94.3255 297.559 91.2005C297.375 91.2005 297.099 91.2005 296.824 91.2005C294.802 91.2924 292.871 91.2005 291.309 89.638C290.757 89.0865 290.574 89.638 290.39 90.0056C289.195 92.5792 287.081 93.9579 284.323 94.4174C281.75 94.7851 279.268 94.1417 276.787 93.2226C273.202 91.8439 271.088 88.8108 271.272 85.0424C271.364 83.296 272.099 81.6416 273.018 80.0791C273.478 79.3438 273.294 78.9761 272.559 78.7923C270.812 78.3327 269.434 77.4136 268.147 76.0349C265.389 73.0937 264.93 69.5091 266.033 65.9245C267.136 62.0642 271.915 58.3877 276.143 60.134C276.327 60.226 276.511 60.226 276.695 60.226C278.717 60.5017 280.279 61.6046 281.566 63.1672C282.669 64.5458 283.129 66.1084 283.68 67.9466C284.507 66.9356 285.426 66.2922 286.254 65.5569C286.529 65.3731 286.621 65.1892 286.529 64.8216C286.07 61.8804 286.07 58.9392 285.243 55.998C285.151 55.5384 285.335 55.3546 285.61 55.1708C285.886 54.895 286.07 55.0788 286.254 55.2627C286.713 55.6303 287.173 55.6303 287.724 55.6303C289.287 55.6303 290.849 55.8141 292.32 55.4465C293.331 55.2627 293.607 55.6303 293.699 56.5494C293.699 57.9281 293.79 59.3068 293.79 60.5936C293.79 62.3399 294.618 63.0752 295.996 63.7186C296.732 64.0863 297.191 63.7186 297.651 63.5348C298.202 63.351 298.294 62.8914 298.202 62.3399C297.927 58.9392 298.018 55.5384 297.559 52.2296C297.467 51.5862 297.651 50.9428 297.375 50.3913C297.099 49.8398 296.364 50.2994 295.721 50.1156H295.629C292.871 49.2884 290.114 49.4722 287.357 49.7479L264.378 50.8509ZM282.118 49.3803C285.61 49.5641 288.919 48.9207 292.32 48.9207C294.434 48.9207 294.342 48.8288 294.342 47.0825C294.342 46.4391 294.158 46.3471 293.515 46.3471C291.585 46.3471 289.654 46.2552 287.816 46.2552C284.599 46.2552 281.474 46.2552 278.257 46.7148C275.5 47.1744 272.742 47.3582 269.893 46.9905C267.412 46.7148 264.93 46.2552 262.448 46.2552C259.048 46.1633 259.415 45.8876 259.415 49.4722C259.415 50.2075 259.783 50.3913 260.426 50.3913C262.54 50.5751 264.654 49.8398 266.768 50.2994C267.32 50.3913 268.239 50.2075 268.974 50.0237C269.617 49.9317 270.353 49.8398 270.996 49.7479C271.64 49.7479 272.283 49.656 272.926 49.7479L282.118 49.3803ZM281.198 78.8842C281.29 80.171 281.934 81.182 282.577 82.285C283.588 83.9394 284.875 84.9504 286.989 84.7666C287.357 84.7666 287.724 84.8585 287.908 85.1343C289.103 86.8806 291.033 87.8916 292.412 89.3622C292.779 89.7299 293.239 90.0056 293.79 90.0056C294.985 90.0056 296.18 90.3733 297.375 90.1895C298.938 89.9137 300.5 89.8218 301.879 91.1086C302.43 91.6601 303.166 92.1196 303.625 92.763C304.269 93.6821 304.728 93.3145 305.371 92.763C306.934 91.5681 307.945 90.0056 309.599 88.9027C310.427 88.3512 310.427 87.7997 309.875 87.0644C308.864 85.6857 307.945 84.3071 307.853 82.5607C307.669 79.5276 307.026 76.5864 306.842 73.6452C306.842 73.2775 307.026 72.7261 306.382 72.7261C305.555 72.7261 304.728 72.5422 303.901 72.7261C301.052 73.4614 298.202 74.1967 295.353 74.932C294.158 75.2077 293.239 75.7592 292.963 77.1379C292.871 77.6893 292.504 78.4246 291.952 78.5166C290.114 78.7923 288.184 78.7923 286.346 78.3327C284.14 77.7813 283.129 75.943 282.393 74.0128C282.026 73.0018 281.474 72.7261 280.555 73.0018C279.452 73.2775 279.912 74.0128 280.095 74.6562C280.463 75.943 280.647 77.5055 281.198 78.8842ZM266.217 70.0606C266.217 70.7959 266.125 71.5312 266.309 72.1746C267.503 75.2077 269.617 77.4136 272.742 78.4246C273.294 78.6085 273.845 78.5166 274.213 78.057C274.581 77.5974 274.856 77.1379 275.224 76.6783C275.959 75.7592 276.051 74.1048 277.798 74.2886C278.625 74.3805 279.084 74.0128 279.084 73.0937C279.084 72.9099 279.176 72.5422 279.36 72.5422C280.463 72.5422 280.739 71.4393 281.382 70.8878C282.485 69.8768 282.853 68.7738 282.301 67.2113C281.198 64.1782 279.36 62.0642 276.143 61.3289C273.11 60.5936 269.985 61.4208 268.331 63.6267C266.86 65.2811 265.849 67.3951 266.217 70.0606ZM283.221 93.5902C284.967 93.5902 286.897 93.0387 288.276 91.3843C289.838 89.5461 290.39 88.9027 288.46 87.1563C287.816 86.6049 287.448 85.5938 286.529 85.5938C283.404 85.3181 281.934 83.296 280.923 80.8144C280.279 79.3438 280.371 79.3438 278.901 79.8952C277.706 80.3548 276.511 80.7225 275.408 79.5276C274.948 79.068 274.489 79.1599 274.029 79.7114C273.386 80.5386 272.926 81.5497 272.559 82.4688C271.456 85.3181 272.099 88.9027 274.581 90.8328C277.154 92.763 279.912 93.4983 283.221 93.5902ZM286.254 77.046C286.989 76.8621 287.908 76.8621 288.735 76.4945C290.665 75.6673 292.688 74.932 294.71 74.2886C297.743 73.3695 300.776 72.6342 303.809 71.8069C304.452 71.6231 304.452 71.3474 304.269 70.8878C303.993 70.2444 303.809 69.5091 303.993 68.8657C304.177 68.0385 303.717 68.0385 303.257 68.3143C302.338 68.8657 301.143 69.1415 300.224 69.4172C298.662 69.7849 297.099 70.3363 295.537 70.7959C292.228 71.8069 288.827 72.9099 285.426 73.7371C283.312 74.1048 283.221 74.1967 284.599 76.0349C284.967 76.4945 285.426 77.046 286.254 77.046ZM288.919 68.4062C289.103 68.59 289.379 68.6819 289.562 68.8657C291.309 70.6121 293.239 70.9797 295.445 69.6929C296.088 69.3253 295.904 69.2334 295.537 68.8657C294.066 67.579 292.688 66.2003 291.125 64.9135C290.665 64.5458 290.114 63.9944 289.379 64.4539C287.265 65.6488 285.426 67.2113 283.864 68.9576C283.221 69.601 282.945 70.5202 282.026 70.9797C281.566 71.2555 281.474 71.715 282.118 71.9908C282.301 72.0827 282.485 72.0827 282.577 72.2665C282.945 72.7261 283.221 73.1856 283.956 73.0018C284.599 72.818 285.059 72.4503 285.426 71.9908C286.437 70.8878 287.357 69.6929 288.368 68.59C288.551 68.59 288.735 68.4981 288.919 68.4062ZM300.684 50.2075C300.868 48.9207 300.408 47.8178 300.224 46.7148C300.132 46.0714 299.581 45.8876 299.029 45.7038C298.478 45.5199 298.11 45.7038 298.294 46.4391C298.57 47.4501 298.478 48.3692 298.386 49.3803C298.294 50.0237 298.202 50.759 298.386 51.3104C299.305 54.7112 298.662 58.2039 298.938 61.6046C299.029 62.7995 299.305 63.6267 300.224 64.2701C300.408 64.4539 300.592 64.6378 300.868 64.5458C301.143 64.362 301.327 64.1782 301.327 63.8105C300.96 62.248 301.327 60.5936 301.235 59.0311C300.868 56.0899 301.052 53.0568 300.684 50.2075ZM298.662 97.1748C298.754 100.667 298.846 100.943 299.949 102.138C300.132 102.322 300.224 102.781 300.592 102.598C300.96 102.414 300.776 102.046 300.776 101.77C300.592 98.5535 300.408 95.3366 300.868 92.1196C301.052 90.9248 299.765 91.2005 299.029 91.1086C298.294 90.9248 298.294 91.5681 298.294 92.1196C298.386 93.9579 298.754 95.7042 298.662 97.1748ZM278.717 74.6562C277.982 74.6562 277.338 74.6562 276.97 75.2996C276.419 76.1268 275.959 76.954 275.408 77.8732C275.316 78.057 275.316 78.2408 275.5 78.4246C276.235 79.3438 279.268 79.3438 280.004 78.3327C280.095 78.2408 280.095 78.1489 280.095 78.057C279.912 77.046 279.728 76.1268 279.544 75.1158C279.452 74.6562 278.993 74.6562 278.717 74.6562ZM288 61.6046C289.654 61.6046 289.654 61.6046 289.562 60.226C289.471 59.0311 288.551 59.7664 288.092 59.7664C287.724 59.7664 287.357 59.9502 287.265 59.4907C287.173 58.9392 287.632 58.9392 288 58.9392C288.276 58.9392 288.551 58.8473 288.827 58.8473C289.379 58.8473 289.562 58.5715 289.562 58.02C289.654 57.1009 289.471 56.5494 288.368 56.7333C288 56.8252 287.632 56.7333 287.265 56.6414C286.529 56.4575 286.07 56.5494 286.346 57.4686C286.529 58.3877 286.713 59.3987 286.897 60.4098C286.897 61.237 286.805 62.1561 288 61.6046ZM297.559 68.9576C297.559 68.9576 297.743 68.8657 297.927 68.8657C299.121 68.59 299.121 68.59 298.294 67.6709C297.559 66.8437 296.824 65.9245 296.088 65.1892C295.629 64.7297 295.169 64.362 294.526 64.2701C293.882 64.1782 293.607 64.6378 293.239 65.0054C292.963 65.1892 293.239 65.3731 293.331 65.5569C294.342 66.7517 295.813 67.579 296.732 68.8657C296.915 68.9576 297.099 68.9576 297.559 68.9576ZM304.82 69.6929C304.728 70.1525 305.188 70.6121 305.555 71.1636C305.923 71.715 306.382 71.6231 306.934 71.5312C307.485 71.4393 307.669 71.0716 307.669 70.6121C307.761 69.5091 307.302 68.7738 306.382 68.1304C305.739 67.6709 305.28 67.7628 305.004 68.4981C304.912 68.8657 304.912 69.1415 304.82 69.6929ZM258.588 48.3692C258.588 47.9097 258.588 47.4501 258.588 47.0825C258.68 46.2552 258.22 45.9795 257.485 45.9795C256.658 45.9795 256.658 46.6229 256.658 47.1744C256.75 48.0935 256.934 49.0126 257.117 49.9317C257.209 50.2075 257.393 50.4832 257.577 50.667C258.22 51.1266 258.496 50.9428 258.588 50.2994C258.588 49.656 258.588 49.0126 258.588 48.3692ZM301.327 67.6709C300.5 66.3841 299.857 65.0973 298.57 64.362C298.202 64.0863 297.927 64.6378 297.651 64.7297C297.375 64.8216 297.467 65.0973 297.651 65.2811C298.478 66.1084 299.305 66.9356 299.949 67.8547C300.224 68.3143 300.684 68.0385 301.052 67.8547C301.235 67.8547 301.419 67.8547 301.327 67.6709ZM286.621 72.2665C288.092 72.3584 289.195 71.6231 290.482 71.3474C290.574 71.3474 290.757 71.0716 290.757 71.0716C290.482 70.6121 290.114 70.2444 289.654 70.0606C289.287 69.9687 288.827 69.5091 288.46 69.9687C287.908 70.704 287.081 71.2555 286.621 72.2665ZM295.445 47.6339C295.629 47.9097 295.077 48.9207 296.272 48.8288C296.915 48.7369 297.651 48.645 297.559 47.6339C297.467 46.8986 297.467 46.0714 296.456 46.0714C295.813 46.1633 295.077 46.4391 295.445 47.6339ZM290.39 60.5017C290.39 61.5127 290.482 61.7885 291.033 61.6046C291.676 61.4208 292.779 62.1561 292.871 60.9613C292.871 60.5017 293.331 59.3987 292.136 59.4907C291.401 59.4907 290.114 59.0311 290.39 60.5017ZM291.676 58.4796C292.596 58.7553 292.688 58.112 292.688 57.4686C292.688 56.9171 292.688 56.3656 291.86 56.4575C291.033 56.5494 290.206 56.3656 290.298 57.7443C290.298 59.123 291.125 58.4796 291.676 58.4796ZM288.368 62.4319C286.897 62.3399 286.897 62.4319 287.265 63.9025C287.448 64.5458 287.724 64.4539 288.092 64.1782C288.276 64.0863 288.368 63.9025 288.551 63.7186C288.919 63.351 289.838 63.5348 289.654 62.7995C289.471 62.1561 288.735 62.7076 288.368 62.4319ZM291.952 62.5238C291.401 62.5238 290.665 62.248 290.849 63.1672C290.941 63.7186 291.585 64.2701 292.228 64.362C292.596 64.4539 293.147 64.0863 293.055 63.4429C293.055 62.7076 292.779 62.248 291.952 62.5238ZM290.482 77.5055C290.757 77.5055 291.033 77.5055 291.309 77.4136C291.768 77.2298 292.136 76.8621 291.952 76.4026C291.768 75.943 291.493 76.4945 291.125 76.5864C290.849 76.6783 290.574 76.6783 290.298 76.8621C290.022 76.954 289.471 76.8621 289.654 77.4136C289.746 77.6893 290.114 77.5055 290.482 77.5055ZM302.155 66.1084C301.971 66.1084 301.695 66.1084 301.787 66.3841C301.971 66.9356 302.246 67.3951 302.89 67.3951C303.074 67.3951 303.349 67.3032 303.257 67.1194C302.982 66.7517 302.798 66.1084 302.155 66.1084Z" fill="#223A70" stroke="#223A70" stroke-width="0.75" stroke-miterlimit="10"/>
<path d="M53.9585 122.274C54.9245 122.274 55.8905 122.302 56.6185 122.33C56.7445 122.33 56.8285 122.274 56.8285 122.092C56.8425 121.91 56.8425 121.196 56.8285 121.014C56.8285 120.818 56.8145 120.734 56.6745 120.734C55.8485 120.79 55.0365 120.818 53.9445 120.818H47.6585C46.8465 120.818 46.0625 120.818 45.2785 120.748C45.2785 121.168 45.3205 121.7 45.3905 122.092C45.4045 122.274 45.4465 122.372 45.5725 122.358C46.2865 122.316 46.9725 122.274 47.6725 122.274H50.3325C50.2765 123.604 50.1365 124.36 49.6185 125.284C49.0305 126.348 48.2045 127.034 46.8325 127.776C47.3225 127.958 47.7985 128.238 48.0785 128.518C48.1765 128.616 48.2745 128.658 48.3725 128.658C48.4985 128.658 48.6385 128.588 48.7925 128.49C49.6885 127.958 50.6965 126.936 51.2565 125.844C51.8025 124.78 51.9985 123.842 52.0825 122.274H53.9585ZM52.4465 119.026C53.2165 119.026 54.0425 119.04 54.7985 119.068C54.9525 119.068 54.9805 118.998 54.9805 118.802C55.0085 118.466 55.0085 118.116 54.9805 117.78C54.9805 117.598 54.9525 117.514 54.8125 117.514C54.1125 117.556 53.2305 117.57 52.4465 117.57H49.3105C48.6805 117.57 47.9665 117.556 46.9865 117.5C47.0285 118.004 47.0425 118.508 47.0845 118.844C47.0985 119.012 47.1405 119.082 47.3225 119.082C48.1065 119.054 48.6665 119.026 49.3105 119.026H52.4465ZM65.0885 119.054C65.2565 118.802 65.3965 118.592 65.5505 118.354C65.6625 118.214 65.7605 118.06 65.9005 117.976C66.0125 117.906 66.0545 117.822 66.0545 117.738C66.0545 117.654 66.0125 117.57 65.9145 117.5C65.6065 117.276 65.0745 117.038 64.2765 116.758C64.1225 117.43 63.9125 117.864 63.4505 118.648C62.5825 120.02 61.5045 121.322 59.6845 122.806C60.1605 122.904 60.6785 123.156 61.0285 123.408C61.0985 123.464 61.1685 123.492 61.2385 123.492C61.3365 123.492 61.4345 123.436 61.5325 123.338C62.3305 122.68 63.0305 121.882 64.1785 120.468L67.5665 120.37C66.7265 122.162 66.0825 123.114 64.9765 124.346C63.6045 125.83 62.4985 126.712 60.3145 127.916C60.8605 128.07 61.2945 128.28 61.6445 128.56C61.7565 128.658 61.8545 128.714 61.9665 128.714C62.0365 128.714 62.1065 128.7 62.1905 128.644C63.5765 127.874 65.2425 126.516 66.4465 125.158C67.3845 124.094 68.2805 122.736 69.2185 120.832C69.3445 120.58 69.4845 120.384 69.6805 120.23C69.7785 120.146 69.8485 120.048 69.8485 119.936C69.8485 119.838 69.7925 119.726 69.6665 119.614C69.3865 119.348 69.0645 119.082 68.7145 118.858C68.6305 118.802 68.5605 118.774 68.4905 118.774C68.4205 118.774 68.3645 118.788 68.3085 118.83C68.1545 118.928 67.9725 118.984 67.6085 118.998L65.0885 119.054ZM79.9415 117.318C79.8435 118.13 79.7035 118.466 79.4375 119.152C78.8215 120.636 78.0375 122.008 77.1275 123.184C75.9935 124.668 74.5795 126.012 72.6055 127.244C73.1235 127.426 73.5995 127.706 73.9355 127.958C74.0335 128.042 74.1315 128.084 74.2295 128.084C74.3275 128.084 74.4255 128.042 74.5235 127.972C76.0215 127.006 77.4495 125.592 78.6395 124.038C79.5075 122.932 80.5575 121.14 81.2295 119.6C81.4535 119.124 81.5795 118.9 81.8315 118.648C81.8875 118.564 81.9295 118.494 81.9295 118.41C81.9295 118.326 81.8735 118.242 81.7615 118.172C81.2435 117.85 80.5995 117.57 79.9415 117.318ZM94.6555 126.362V127.104C94.6555 127.3 94.6695 127.328 94.8375 127.328C95.2575 127.342 95.7055 127.342 96.1255 127.328C96.3215 127.328 96.3915 127.286 96.3915 127.09C96.3635 126.334 96.3215 125.648 96.3215 124.43V121.084C96.3215 120.258 96.3355 119.502 96.3355 118.816C96.3495 118.606 96.3075 118.536 96.1535 118.536C95.4955 118.564 94.4315 118.564 93.5215 118.564H90.1895C89.2515 118.564 88.4255 118.564 87.6835 118.522C87.5855 118.522 87.5295 118.578 87.5295 118.718C87.5715 119.53 87.5575 120.286 87.5575 121.042V124.472C87.5575 125.536 87.5295 126.53 87.5155 127.258C87.5015 127.426 87.5715 127.454 87.8095 127.468C88.1595 127.482 88.5655 127.482 88.9155 127.468C89.1675 127.454 89.2235 127.426 89.2235 127.188V126.362H94.6555ZM94.6555 124.878H89.2095V120.048H94.6555V124.878ZM100.325 122.05C101.347 122.456 102.257 122.918 103.153 123.576C103.223 123.632 103.265 123.66 103.321 123.66C103.377 123.66 103.433 123.604 103.503 123.52C103.727 123.198 103.965 122.834 104.119 122.456C104.147 122.4 104.175 122.344 104.175 122.302C104.175 122.218 104.119 122.162 104.021 122.092C103.223 121.518 102.383 121.07 101.333 120.72C101.207 120.692 101.137 120.762 101.067 120.86C100.899 121.084 100.675 121.49 100.325 122.05ZM102.019 118.76C102.915 119.166 104.007 119.88 104.735 120.482C104.805 120.538 104.875 120.58 104.945 120.58C104.987 120.58 105.043 120.566 105.085 120.496C105.323 120.244 105.603 119.796 105.799 119.446C105.841 119.376 105.855 119.32 105.855 119.264C105.855 119.208 105.827 119.138 105.743 119.082C104.973 118.41 104.007 117.892 103.111 117.528C102.943 117.444 102.859 117.472 102.761 117.64C102.523 118.004 102.257 118.396 102.019 118.76ZM101.431 126.74C101.795 127.328 102.173 127.874 102.467 128.168C102.551 128.28 102.649 128.336 102.747 128.336C102.817 128.336 102.887 128.308 102.971 128.224C103.111 128.084 103.447 127.93 103.783 127.748C105.449 126.838 106.751 126.04 107.969 125.116C109.341 124.052 110.223 123.282 111.525 121.882C111.637 121.77 111.679 121.672 111.679 121.56C111.679 121.476 111.651 121.392 111.609 121.294C111.399 120.692 111.287 120.342 111.203 119.726C109.789 121.434 108.291 122.778 107.171 123.632C105.813 124.696 104.665 125.354 103.335 126.054C102.509 126.474 102.019 126.628 101.431 126.74ZM108.431 117.724C108.977 118.172 109.425 118.704 109.845 119.348C109.915 119.446 109.985 119.46 110.083 119.39L110.671 118.956C110.769 118.886 110.769 118.816 110.713 118.732C110.321 118.13 109.817 117.57 109.383 117.234C109.299 117.164 109.243 117.15 109.173 117.206L108.431 117.724ZM109.719 116.8C110.293 117.276 110.741 117.808 111.119 118.41C111.175 118.494 111.245 118.536 111.357 118.452L111.917 118.018C112.029 117.934 112.015 117.85 111.959 117.766C111.651 117.276 111.147 116.716 110.629 116.324C110.545 116.254 110.503 116.24 110.419 116.296L109.719 116.8ZM122.039 123.674C123.075 123.674 124.111 123.688 125.161 123.702C125.357 123.716 125.413 123.66 125.413 123.492C125.441 123.072 125.441 122.596 125.413 122.176C125.413 122.008 125.371 121.966 125.161 121.98C124.083 121.994 123.005 122.022 121.941 122.022H117.433C116.019 122.022 115.319 121.994 114.409 121.854C114.465 122.568 114.549 123.226 114.619 123.548C114.661 123.758 114.773 123.842 114.941 123.842C115.081 123.842 115.613 123.674 116.999 123.674H122.039Z" fill="#282E33"/>
<path opacity="0.2" d="M126.449 58.5625C125.923 58.5625 125.528 58.5625 125.002 58.6941C123.949 59.0888 123.554 58.6941 123.159 57.773C122.238 55.5361 121.317 53.2992 119.212 51.8518C118.817 51.5886 118.817 51.0623 119.08 50.7991C120.133 49.4833 120.396 47.5095 121.712 46.3253C122.502 45.5358 122.502 44.8778 121.449 44.2199C119.607 43.0357 119.607 43.0357 118.554 45.0094C118.028 45.7989 117.633 46.5884 117.765 47.6411C117.896 48.1674 117.896 48.5622 117.37 48.6938C116.843 48.9569 116.449 48.6938 116.054 48.299C115.659 47.7727 115.264 47.3779 114.607 47.1148C112.633 46.1937 110.527 45.4042 108.291 45.4042C107.238 45.4042 106.712 45.141 106.58 43.9568C106.448 42.5094 105.922 41.1935 105.396 39.8777C105.133 39.0882 104.475 38.4303 103.685 38.825C102.764 39.3514 101.054 38.5619 101.185 40.6672C101.185 42.2462 101.58 43.6936 101.711 45.141C101.711 45.7989 102.369 46.5884 102.238 47.1148C101.843 48.0358 101.054 46.72 100.527 47.2463C100.396 47.3779 100.132 47.3779 99.8693 47.3779C98.2903 48.299 96.5797 48.8253 95.527 50.4043C95.0007 51.1938 94.6059 51.0623 94.0796 50.4043C93.2901 49.4833 93.0269 48.299 92.1059 47.3779C90.79 46.0621 90.1321 46.0621 88.6847 47.1148C88.1584 47.5095 88.0268 47.9043 88.5531 48.4306C89.6058 49.3517 90.3953 50.5359 91.5795 51.3254C92.369 51.8518 92.369 52.5097 91.8427 53.036C89.6058 55.4045 89.211 58.2993 89.211 61.3257C89.211 61.5889 89.211 61.9836 89.211 62.2468C89.4742 63.6942 88.9479 64.089 87.632 63.5626C86.7109 63.2995 85.7899 63.2995 84.8688 63.4311C84.2109 63.4311 83.9477 63.6942 83.9477 64.3521C83.6845 67.5101 84.8688 68.5628 87.8952 67.7733C88.6847 67.5101 89.0794 67.6417 89.7374 68.4312C91.5795 70.405 92.8954 73.0366 95.6586 74.0893C96.8428 74.484 96.4481 75.4051 95.9218 76.1946C95.2638 77.1157 94.6059 77.9052 93.948 78.8263C92.2374 81.0632 92.2374 81.0632 94.8691 82.2474C95.7902 82.6422 96.4481 82.6422 96.8428 81.5895C97.2376 80.5369 97.7639 79.6158 98.1587 78.5631C98.2903 78.1684 98.5534 77.7736 99.0798 78.1684C101.317 79.8789 103.948 79.4842 106.317 79.3526C108.027 79.221 108.291 79.8789 108.422 81.1948C108.554 82.2474 108.554 83.4317 108.685 84.4844C108.948 85.8002 110.001 85.4054 110.791 85.4054C111.317 85.4054 112.37 85.6686 112.238 84.4844C112.106 83.1685 112.106 81.8527 111.843 80.6684C111.58 79.7474 112.238 79.0894 112.633 79.0894C115.001 78.9579 116.317 77.3789 117.633 75.6683C118.028 75.142 118.422 75.0104 118.817 75.6683C119.475 76.5894 120.265 77.3789 120.923 78.1684C122.765 80.0105 122.896 80.0105 124.738 78.5631C125.791 77.7736 125.923 77.1157 125.133 76.063C124.081 74.7472 123.028 73.2998 121.975 71.984C121.58 71.4576 121.186 70.7997 121.975 70.405C122.765 70.0102 122.765 69.2207 123.028 68.5628C123.554 66.9838 123.554 65.4048 123.686 63.6942C123.686 62.7731 123.949 62.2468 125.133 62.51C126.054 62.7731 127.107 62.7731 128.16 62.7731C129.081 62.9047 129.475 62.51 129.475 61.4573C129.344 58.4309 129.344 58.2993 126.449 58.5625ZM118.686 69.6155C118.422 70.1418 118.159 70.6681 117.37 70.405H117.238C114.738 72.5103 111.712 75.2735 104.869 74.6156C101.185 74.2209 98.5534 72.3787 96.3165 69.6155C95.2638 68.2996 94.4743 66.8522 93.948 65.2732C93.6849 64.4837 93.4217 63.6942 93.4217 63.0363C93.6849 59.7467 93.6848 56.194 96.5797 53.9571C101.317 50.4043 106.448 48.8253 112.238 51.1938C113.949 51.9833 115.922 52.1149 117.37 53.6939C119.344 56.0624 120.396 58.6941 120.396 61.7205C120.659 64.3521 120.001 67.1154 118.686 69.6155Z" fill="#2655BD"/>
<path d="M66.222 106.196C64.9062 106.722 64.643 105.933 64.643 104.617C64.643 103.038 64.2483 102.117 62.4061 101.722C61.0903 101.459 59.5113 101.459 58.4586 100.406C58.1955 100.143 57.8007 100.275 57.5375 100.67C57.2744 100.933 57.1428 101.064 56.8796 101.328C54.9059 103.17 53.0637 102.775 52.4058 100.143C52.1426 99.3538 52.9321 98.959 53.3269 98.5643C54.3796 97.5116 54.6427 96.459 53.5901 95.2747C53.3269 94.88 53.1953 94.4852 52.9321 94.0905C52.0111 92.3799 51.6163 92.2483 49.7741 92.7746C48.1951 93.301 47.932 93.1694 47.6688 91.4588C47.5372 90.5377 46.6162 89.6166 47.1425 88.8271C47.6688 87.9061 48.8531 88.4324 49.7741 88.1692C50.8268 87.9061 51.2216 87.2481 51.6163 86.3271C53.0637 83.6954 51.7479 81.9848 49.9057 80.2742C49.6426 80.0111 49.511 79.7479 49.2478 79.6163C48.1951 78.8268 48.5899 78.5637 49.511 78.1689C49.9057 78.0373 50.1689 77.9057 50.4321 77.6426C52.0111 76.3267 52.0111 76.3267 53.3269 78.0373C54.5111 79.7479 55.4322 79.8795 56.8796 78.4321C57.406 77.9057 58.0639 77.3794 58.8534 77.1162C60.0376 76.8531 60.0376 76.1952 59.7745 75.2741C59.5113 74.4846 59.5113 73.5635 59.3797 72.774C59.1165 70.9318 59.7745 70.2739 61.7482 70.2739C63.1956 70.2739 64.2483 70.8003 64.3799 72.5108C64.3799 73.1688 64.643 73.6951 64.7746 74.353C64.9062 75.0109 65.1694 75.6688 65.9589 75.8004C67.4063 76.0636 68.8537 76.5899 70.3011 77.2478C70.6959 77.3794 71.0906 77.3794 71.3538 76.9847C71.4854 76.7215 71.6169 76.5899 71.8801 76.3267C74.117 73.6951 75.3013 73.6951 77.1434 76.7215C77.5382 77.3794 77.275 78.3005 76.7487 79.09C75.3013 81.1953 75.4328 81.7217 77.0118 83.827C77.275 84.2217 77.6698 84.3533 78.0645 84.2217C78.3277 84.0901 78.4593 83.9586 78.7224 83.827C80.5646 83.1691 80.9593 83.3007 81.6173 85.1428C81.8804 85.9323 81.8804 86.7218 82.1436 87.3797C82.4068 88.3008 82.012 88.8271 81.0909 88.9587C80.433 89.0903 79.9067 89.3535 79.2488 89.4851C78.854 89.6166 78.3277 89.7482 78.3277 90.143C78.1961 91.5904 77.5382 92.9062 77.275 94.222C77.1434 95.0115 78.0645 95.4063 78.7224 95.6695C80.5646 96.8537 80.8278 98.5643 79.2488 100.143C78.7224 100.67 78.1961 100.67 77.8013 100.143C75.9592 98.1695 74.117 97.9064 72.2749 100.143C71.7485 100.801 70.959 101.064 70.1695 101.328C69.1169 101.591 68.8537 102.512 68.9853 103.564C68.4589 105.933 68.4589 105.933 66.222 106.196ZM80.1698 87.1166C80.0383 84.8796 79.1172 84.3533 77.5382 85.5376C76.7487 86.0639 76.2223 85.9323 75.8276 85.1428C75.3013 83.9586 74.6433 82.9059 73.7223 81.9848C73.1959 81.4585 73.1959 80.9322 73.8539 80.4058C74.5118 79.8795 75.0381 79.2216 75.3013 78.4321C75.5644 77.3794 75.0381 76.7215 74.3802 76.0636C73.5907 75.4057 73.3275 76.4583 72.9328 76.7215C72.4064 76.9847 72.0117 77.511 71.6169 78.0373C71.0906 78.5637 70.3011 78.9584 69.6432 78.4321C68.3274 77.511 66.8799 77.2478 65.3009 77.2478C64.643 77.2478 63.9851 76.8531 63.9851 76.1952C63.9851 75.0109 63.3272 74.0898 63.1956 73.0372C63.064 71.9845 62.5377 71.5898 61.485 71.8529C60.3008 72.1161 60.564 72.774 60.6955 73.5635C61.3535 76.1952 61.7482 78.5637 58.327 79.4847C58.0639 79.4847 57.9323 79.8795 57.8007 80.0111C56.0901 81.4585 54.7743 81.4585 53.0637 79.8795C52.8006 79.6163 52.5374 79.3532 52.2742 79.09C51.8795 78.5637 51.3531 78.6952 50.9584 79.09C50.4321 79.6163 50.9584 79.8795 51.2216 80.0111C52.0111 80.8006 52.8006 81.7217 53.7216 82.3796C54.248 83.0375 54.248 83.6954 53.7216 84.3533C53.0637 85.0112 52.8006 85.8007 52.5374 86.5902C52.0111 88.1692 51.6163 89.8798 49.3794 89.4851C49.2478 89.4851 49.1162 89.6166 48.9846 89.6166C48.5899 89.7482 48.3267 89.8798 48.3267 90.4061C48.3267 90.8009 48.5899 91.1956 49.1162 91.3272C50.0373 91.4588 50.8268 91.1956 51.6163 90.9325C52.2742 90.6693 52.9321 90.8009 53.1953 91.722C53.5901 93.301 54.3796 94.7484 55.3006 96.0642C55.9586 96.9853 56.0901 97.7748 54.9059 98.4327C54.3796 98.6959 54.1164 99.0906 53.9848 99.617C53.7216 100.275 53.9848 100.801 54.3796 101.196C54.9059 101.722 55.3006 101.064 55.6954 100.801C56.2217 100.275 56.748 99.7485 57.1428 99.2222C57.5375 98.5643 58.0639 98.6959 58.4586 99.0906C59.906 100.538 61.6166 100.801 63.4588 100.538C65.1694 100.275 65.6957 101.064 65.6957 102.643C65.6957 103.433 65.3009 105.012 66.6168 104.88C67.9326 104.749 67.2747 103.301 67.1431 102.38C67.0115 101.459 67.2747 101.064 68.0642 100.933C70.1695 100.538 71.7485 99.3538 72.9328 97.6432C73.4591 96.9853 73.8539 96.8537 74.6433 97.38C75.4328 98.038 76.4855 98.4327 77.4066 98.8274C77.8013 98.959 78.1961 99.2222 78.4593 98.6959C78.5908 98.1695 78.5908 97.7748 78.0645 97.5116C77.275 96.9853 76.4855 96.459 75.696 95.9326C75.1697 95.6695 75.0381 95.4063 75.4328 94.7484C76.3539 93.4325 76.3539 91.8536 76.4855 90.4061C76.6171 89.0903 76.8803 88.3008 78.4593 88.4324C79.2488 88.3008 80.1698 87.9061 80.1698 87.1166Z" fill="#223A70" stroke="#223A70" stroke-width="0.5" stroke-miterlimit="10"/>
<path d="M71.88 89.88C71.88 94.8802 67.2746 98.3013 62.5376 96.7223C58.4585 95.4065 55.9584 92.6432 55.5637 88.1694C55.1689 84.2219 58.3269 80.6692 62.2744 80.5376C68.4588 80.5376 71.6168 84.0903 71.88 89.88ZM56.7479 88.1694C56.7479 89.2221 56.7479 90.0116 57.0111 90.6695C59.1164 95.4065 64.5113 96.9855 68.8535 94.2222C69.643 93.6959 70.1694 93.038 70.5641 91.9853C71.6168 89.0905 70.1694 85.0114 67.5377 83.1693C65.3008 81.4587 62.5376 81.1955 60.1691 82.2482C57.9322 83.3008 56.6163 85.5378 56.7479 88.1694Z" fill="#223A70" stroke="#223A70" stroke-width="0.5" stroke-miterlimit="10"/>
<path d="M113.422 81.9851C113.291 82.9062 113.422 83.8273 113.817 84.6168C114.212 85.4063 113.949 85.9326 112.896 86.1958C111.58 86.4589 110.133 86.1958 108.817 86.7221C108.29 86.8537 107.764 86.3274 107.633 85.5379C107.369 84.0904 107.106 82.643 106.843 81.1956C106.711 80.2745 106.054 80.2745 105.396 80.2745C103.29 80.4061 101.317 80.5377 99.3428 79.8798C98.8165 79.7482 98.8165 80.0114 98.5533 80.4061C98.027 81.3272 97.5007 82.2483 97.1059 83.1694C96.7112 83.9589 96.1848 83.9589 95.5269 83.6957C94.3427 83.1694 93.0268 82.5114 91.8426 81.9851C91.0531 81.5904 90.9215 81.1956 91.5794 80.2745C92.5005 78.9587 93.1584 77.5113 94.0795 76.327C94.4743 75.8007 94.7374 75.1428 93.6848 74.6165C91.9742 73.6954 90.7899 71.9848 89.7373 70.4058C88.6846 68.9584 87.5004 68.6952 85.9214 69.4847C84.7371 70.0111 83.9476 69.8795 83.5529 68.3005C83.1581 66.7215 83.1581 65.0109 82.7634 63.4319C82.6318 62.774 82.8949 62.3792 83.5529 62.5108C84.8687 62.6424 86.1845 62.6424 87.2372 62.1161C88.2899 61.5897 87.7635 60.0107 88.1583 58.8265C88.6846 56.8527 88.9478 54.7474 90.2636 53.0368C90.6584 52.5105 90.5268 52.1158 90.132 51.721C89.0794 50.6683 88.1583 49.4841 87.1056 48.4314C86.4477 47.6419 86.4477 47.2472 87.3688 46.8524C88.4214 46.4577 89.0794 45.5366 89.8689 44.7471C90.3952 44.2208 90.7899 44.0892 91.1847 44.8787C91.9742 46.3261 93.4216 47.2472 94.3427 48.563C94.7374 49.0893 95.0006 48.9578 95.5269 48.6946C96.1848 48.1683 96.9743 47.6419 97.7638 47.2472C100.79 45.6682 100.79 45.6682 100.264 42.6418C100.264 42.3786 100.264 42.247 100.264 41.9839C99.8692 38.1679 99.8692 38.1679 103.553 37.7732C104.211 37.6416 105.001 36.8521 105.527 37.51C106.317 38.4311 106.975 39.4838 106.975 40.7996C106.975 41.5891 107.369 42.3786 107.633 43.0365C108.027 43.9576 108.685 44.7471 110.001 44.7471C111.975 44.7471 113.949 45.405 115.659 46.4577C116.449 46.984 116.58 46.5893 116.843 45.9314C117.37 44.7471 118.028 43.5629 118.686 42.247C119.08 41.4575 119.607 41.3259 120.265 41.9839C121.054 42.7734 121.975 43.1681 122.896 43.6944C124.344 44.4839 124.475 45.1419 123.291 46.3261C122.238 47.2472 121.58 48.2998 121.054 49.6157C120.659 50.7999 120.659 51.5894 121.317 52.5105C122.238 53.8263 123.159 55.2738 123.949 56.7212C124.344 57.5107 124.87 57.6422 125.659 57.5107C130.396 56.458 130.396 56.9843 130.528 61.195C130.528 61.3266 130.528 61.4582 130.528 61.7213C130.791 63.9582 129.739 64.7477 127.502 64.0898C127.107 63.9582 126.712 63.6951 126.317 63.6951C125.396 63.5635 124.607 63.5635 124.607 65.0109C124.475 66.8531 124.344 68.8268 123.423 70.5374C122.896 71.3269 123.159 71.9848 123.817 72.6427C124.738 73.5638 125.659 74.6165 126.449 75.8007C127.37 77.2481 127.37 77.906 126.054 78.9587C125.265 79.6166 124.344 80.143 123.686 81.064C123.028 81.9851 122.37 81.7219 121.975 81.064C121.186 79.7482 119.87 79.2219 119.08 78.0376C118.554 77.3797 118.028 77.3797 117.37 77.906C116.58 78.564 115.659 79.2219 114.738 79.6166C113.817 80.143 113.027 80.6693 113.422 81.9851ZM89.3425 61.195C89.3425 61.4582 89.3425 61.8529 89.3425 62.1161C89.6057 63.5635 89.0794 63.9582 87.7635 63.4319C86.8424 63.1687 85.9214 63.1687 85.0003 63.3003C84.3424 63.3003 84.0792 63.5635 84.0792 64.2214C83.816 67.3794 85.0003 68.4321 88.0267 67.6426C88.8162 67.3794 89.2109 67.511 89.8689 68.3005C91.711 70.2742 93.0268 72.9059 95.7901 73.9585C96.9743 74.3533 96.5796 75.2744 96.0533 76.0639C95.3953 76.985 94.7374 77.7745 94.0795 78.6955C92.3689 80.9324 92.3689 80.9325 95.0006 82.1167C95.9217 82.5115 96.5796 82.5115 96.9743 81.4588C97.3691 80.4061 97.8954 79.485 98.2902 78.4324C98.4218 78.0376 98.6849 77.6429 99.2113 78.0376C101.448 79.7482 104.08 79.3535 106.448 79.2219C108.159 79.0903 108.422 79.7482 108.554 81.064C108.685 82.1167 108.685 83.3009 108.817 84.3536C109.08 85.6694 110.133 85.2747 110.922 85.2747C111.448 85.2747 112.501 85.5379 112.37 84.3536C112.238 83.0378 112.238 81.722 111.975 80.5377C111.712 79.6166 112.37 78.9587 112.764 78.9587C115.133 78.8271 116.449 77.2481 117.764 75.5375C118.159 75.0112 118.554 74.8796 118.949 75.5375C119.607 76.4586 120.396 77.2481 121.054 78.0376C122.896 79.8798 123.028 79.8798 124.87 78.4324C125.923 77.6429 126.054 76.985 125.265 75.9323C124.212 74.6165 123.159 73.169 122.107 71.8532C121.712 71.3269 121.317 70.669 122.107 70.2742C122.896 69.8795 122.896 69.09 123.159 68.4321C123.686 66.8531 123.686 65.2741 123.817 63.5635C123.817 62.6424 124.08 62.1161 125.265 62.3792C126.186 62.6424 127.238 62.6424 128.291 62.6424C129.212 62.774 129.607 62.3792 129.607 61.3266C129.475 58.5633 129.475 58.4317 126.581 58.5633C126.054 58.5633 125.659 58.5633 125.133 58.6949C124.08 59.0897 123.686 58.6949 123.291 57.7738C122.37 55.5369 121.449 53.3 119.343 51.8526C118.949 51.5894 118.949 51.0631 119.212 50.7999C120.265 49.4841 120.528 47.5103 121.844 46.3261C122.633 45.5366 122.633 44.8787 121.58 44.2208C119.738 43.0365 119.738 43.0365 118.686 45.0103C118.159 45.7998 117.764 46.5893 117.896 47.6419C117.896 48.1683 117.896 48.563 117.37 48.6946C116.843 48.9578 116.449 48.6946 116.054 48.2998C115.659 47.7735 115.264 47.3788 114.606 47.1156C112.633 46.1945 110.527 45.405 108.29 45.405C107.238 45.405 106.711 45.1419 106.58 43.9576C106.448 42.5102 105.922 41.1944 105.396 39.8785C105.132 39.089 104.475 38.4311 103.685 38.8259C102.764 39.3522 101.053 38.5627 101.185 40.668C101.185 42.247 101.58 43.6944 101.711 45.1419C101.711 45.7998 102.369 46.5893 102.238 47.1156C101.843 48.0367 101.053 46.7208 100.527 47.2472C100.395 47.3788 100.132 47.3788 99.8692 47.3788C98.2902 48.2998 96.5796 48.8262 95.5269 50.4052C95.0006 51.1947 94.6058 51.0631 94.0795 50.4052C93.29 49.4841 93.0268 48.2998 92.1058 47.3788C90.7899 46.0629 90.132 46.0629 88.6846 47.1156C88.1583 47.5103 88.0267 47.9051 88.553 48.4314C89.6057 49.3525 90.3952 50.5368 91.5794 51.3263C92.3689 51.8526 92.3689 52.5105 91.8426 53.0368C89.8689 55.2738 89.4741 58.1686 89.3425 61.195Z" fill="#223A70" stroke="#223A70" stroke-width="0.5" stroke-miterlimit="10"/>
<path d="M105.001 74.6159C101.317 74.2211 98.685 72.379 96.4481 69.6157C95.3954 68.2999 94.6059 66.8525 94.0796 65.2735C93.8164 64.484 93.5532 63.6945 93.5532 63.0366C93.8164 59.747 93.8164 56.1942 96.7112 53.9573C101.448 50.4046 106.58 48.8256 112.37 51.1941C114.08 51.9836 116.054 52.1152 117.501 53.6942C119.475 56.0627 120.528 58.6943 120.528 61.7207C120.528 64.484 120.001 67.2472 118.554 69.7473C118.291 70.2736 118.028 70.8 117.238 70.5368H117.107C118.291 67.7735 119.344 65.0103 119.212 61.8523C119.08 58.4311 118.159 55.2732 114.87 53.6942C111.185 51.852 107.501 50.1414 103.159 51.852C101.58 52.5099 100.132 53.1678 98.685 54.0889C95.7901 55.7995 93.4216 60.7996 94.3427 64.0892C95.3954 67.7735 97.106 71.0631 100.922 72.9053C102.369 73.1685 103.685 73.958 105.001 74.6159Z" fill="#223A70" stroke="#223A70" stroke-width="0.5" stroke-miterlimit="10"/>
<path d="M117.238 70.2744C117.238 70.2744 117.37 70.406 117.238 70.2744C117.764 70.406 117.896 70.6692 117.633 71.0639C116.449 72.9061 115.264 74.6167 112.896 74.8798C110.791 75.143 108.817 75.5377 106.712 75.4062C106.054 75.4062 102.501 73.6956 103.948 74.0903C101.975 72.9061 107.501 74.6167 108.685 74.4851C110.264 74.6167 110.791 74.0903 111.185 74.0903C113.159 73.6956 115.001 73.3008 116.054 71.3271C116.317 70.9323 116.712 70.406 117.238 70.2744Z" fill="#223A70" stroke="#223A70" stroke-width="0.5" stroke-miterlimit="10"/>
</svg>
