<svg width="375" height="286" viewBox="0 0 375 286" fill="none" xmlns="http://www.w3.org/2000/svg">
<rect width="375" height="285" fill="#FAFAFA"/>
<path d="M106.698 114.459C110.275 109.349 111.553 108.966 113.469 107.56C115.258 106.155 117.302 105.389 119.218 104.494C122.923 102.961 126.627 101.684 130.971 100.023C127.138 96.957 126.116 93.38 126.883 89.1643C128.033 83.4156 131.993 80.8606 137.486 83.1601C140.041 84.1821 140.935 83.5433 142.213 81.6271C145.023 77.5391 149.75 76.3893 155.499 78.1778C157.798 78.9443 160.481 84.0543 160.226 87.759C160.098 91.9748 159.076 95.6795 153.966 98.2345C160.226 99.512 165.336 102.067 170.829 102.45C183.859 103.345 190.119 109.732 191.524 122.89C192.163 128.383 193.057 133.749 192.802 139.37C192.802 139.753 192.93 140.264 192.802 140.647C190.502 145.502 193.057 147.674 197.018 150.229C202.894 154.061 207.493 159.043 209.409 166.453C212.603 178.717 208.771 187.659 197.273 192.642C191.141 195.324 184.881 197.752 178.494 199.796C168.529 202.989 158.182 204.267 147.706 203.884C137.358 203.5 126.883 204.011 116.535 201.84C106.571 199.796 96.6062 197.752 87.7915 192.131C77.316 185.615 77.1883 173.351 82.6815 164.281C85.8753 159.043 90.4743 156.233 95.5842 153.55C99.9277 151.251 99.9277 150.995 98.6502 146.141C98.0115 143.586 98.5225 141.158 98.6502 138.731C99.4167 131.194 100.95 123.784 105.038 117.141L106.698 114.459ZM111.553 110.754C110.531 111.393 107.593 115.608 107.593 115.608C105.932 120.974 102.994 126.084 101.972 131.705C100.95 137.07 100.055 142.436 101.716 147.801C102.355 149.59 102.866 151.889 105.293 151.889C107.976 152.017 110.148 150.867 111.425 148.312C113.852 143.202 115.385 137.837 117.046 132.471C118.835 126.212 121.645 120.335 128.16 118.163C135.57 115.608 143.618 114.842 151.411 114.203C156.01 113.82 160.098 115.864 164.314 116.886C173.384 119.058 178.494 125.701 179.133 135.026C179.516 140.009 179.644 144.991 179.771 149.973C179.899 151.634 180.41 153.167 181.943 153.678C183.221 154.061 184.243 152.911 185.265 152.145C187.692 150.101 188.714 147.035 189.48 144.224C192.546 134.26 189.736 124.551 187.564 114.842C186.925 111.776 184.626 108.838 181.815 107.816C177.089 105.9 171.979 104.75 166.869 103.728C159.459 102.195 152.05 100.79 146.173 95.6795C144.896 94.6575 144.64 94.913 144.001 96.446C142.852 99.1288 141.446 102.195 137.997 102.067C132.887 101.812 128.416 104.111 123.817 105.389C120.24 106.411 116.791 107.944 113.214 109.349C113.341 108.966 112.703 110.115 111.553 110.754ZM150.517 201.84C151.155 201.84 151.794 201.84 152.433 201.84C162.27 200.945 171.979 199.923 181.304 196.219C186.67 194.175 192.163 192.386 197.273 189.959C200.85 188.298 204.427 186.51 205.705 182.422C208.004 175.14 208.771 167.986 204.683 160.832C202.128 156.488 198.04 153.933 194.335 150.867C192.035 148.951 190.119 148.823 188.458 152.017C187.947 153.167 186.542 153.933 185.392 154.828C181.815 157.51 178.622 156.361 177.983 151.889C177.727 150.74 177.472 149.462 177.6 148.312C177.983 142.308 177.089 136.432 175.939 130.683C175.3 127.489 173.767 124.679 171.084 122.507C167.507 119.824 163.292 118.419 158.948 117.525C149.239 115.608 139.786 117.141 130.46 119.696C125.605 120.974 122.539 124.679 120.623 129.278C118.068 135.282 117.429 141.797 114.491 147.674C111.808 153.167 107.848 155.722 102.099 153.422C101.461 153.167 100.822 152.911 100.311 153.295C95.8397 156.488 89.8355 157.255 86.2585 162.109C79.7433 170.924 78.849 182.805 89.4523 190.214C96.8617 195.324 105.293 197.624 113.852 199.157C125.989 201.456 138.253 201.456 150.517 201.84ZM157.926 87.3758C157.926 83.2878 155.499 80.7328 151.411 80.6051C147.962 80.4773 144.257 84.4376 144.129 88.3978C144.129 91.5915 147.706 95.2963 151.028 95.2963C155.499 95.2963 157.926 92.4858 157.926 87.3758ZM134.037 85.8428C132.248 85.7151 131.354 86.2261 130.332 87.5035C126.883 91.9748 130.588 98.6178 136.081 98.8733C139.786 99.001 143.363 94.913 142.213 91.336C142.085 90.825 141.83 90.314 141.191 90.314C139.402 90.314 138.891 89.0365 138.125 87.8868C137.103 86.4816 135.698 85.4596 134.037 85.8428Z" fill="#223A70" stroke="#223A70" stroke-width="0.5" stroke-miterlimit="10"/>
<path opacity="0.2" d="M150.133 201.584C150.772 201.584 151.41 201.584 152.049 201.584C161.886 200.689 171.595 199.667 180.921 195.963C186.286 193.919 191.779 192.13 196.889 189.703C200.466 188.042 204.043 186.254 205.321 182.166C207.62 174.884 208.387 167.73 204.299 160.576C201.744 156.232 197.656 153.677 193.951 150.611C191.651 148.695 189.735 148.567 188.075 151.761C187.564 152.911 186.158 153.677 185.009 154.572C181.432 157.254 178.238 156.105 177.599 151.633C177.344 150.484 177.088 149.206 177.216 148.056C177.599 142.052 176.705 136.176 175.555 130.427C174.916 127.233 173.383 124.423 170.701 122.251C167.124 119.568 162.908 118.163 158.564 117.269C148.855 115.352 139.402 116.885 130.076 119.44C125.222 120.718 122.156 124.423 120.239 129.022C117.684 135.026 117.046 141.541 114.107 147.418C111.425 152.911 107.464 155.466 101.716 153.166C101.077 152.911 100.438 152.655 99.9272 153.039C95.4559 156.232 89.4517 156.999 85.8747 161.853C79.3594 170.668 78.4652 182.549 89.0684 189.958C96.4779 195.068 104.909 197.368 113.469 198.901C125.605 201.2 137.869 201.073 150.133 201.584Z" fill="#2655BD"/>
<path d="M127.182 94.5576C126.561 92.8043 126.496 90.9027 126.873 88.8273C127.439 85.9971 128.688 83.9975 130.427 82.9758C132.16 81.9568 134.437 81.878 137.134 83.0069L137.134 83.0069L137.137 83.0084C138.432 83.5262 139.37 83.6512 140.163 83.3448C140.946 83.0422 141.526 82.3399 142.164 81.3834C143.536 79.3886 145.369 78.1165 147.56 77.5572C149.755 76.9968 152.325 77.1482 155.166 78.032C155.681 78.2043 156.244 78.6308 156.8 79.2592C157.354 79.8847 157.886 80.6922 158.341 81.5954C159.255 83.4065 159.844 85.5646 159.72 87.3581L159.72 87.358L159.72 87.3677C159.656 89.4605 159.371 91.3973 158.486 93.1216C157.603 94.8401 156.113 96.3698 153.598 97.6271L152.951 97.9509L153.66 98.0957C156.255 98.6253 158.65 99.3751 160.97 100.101C161.435 100.247 161.896 100.391 162.355 100.533C165.103 101.38 167.778 102.122 170.556 102.316L170.556 102.316C177.035 102.761 181.791 104.568 185.104 107.865C188.418 111.163 190.321 115.986 191.02 122.533L191.02 122.535C191.14 123.567 191.269 124.592 191.397 125.614C191.954 130.051 192.503 134.427 192.296 138.975L192.296 138.975V138.986C192.296 139.121 192.311 139.281 192.326 139.431C192.333 139.505 192.34 139.578 192.345 139.643C192.36 139.855 192.356 140.032 192.313 140.171C191.146 142.642 191.193 144.485 192.09 146.041C192.971 147.57 194.652 148.781 196.625 150.054C202.466 153.864 207.015 158.8 208.911 166.132L208.911 166.132C210.499 172.228 210.332 177.467 208.367 181.791C206.403 186.112 202.625 189.555 196.918 192.028L196.917 192.029C190.791 194.709 184.54 197.133 178.162 199.174L178.162 199.174C168.227 202.358 157.908 203.632 147.459 203.25C144.858 203.154 142.252 203.114 139.646 203.074C131.859 202.954 124.063 202.834 116.331 201.211L116.33 201.211C106.358 199.165 96.4396 197.128 87.6701 191.536L87.6677 191.535C82.4958 188.318 79.8856 183.69 79.2403 178.748C78.594 173.798 79.9176 168.521 82.6395 164.027C85.7955 158.851 90.3409 156.067 95.4446 153.388L95.4454 153.387C96.5285 152.814 97.3582 152.359 97.9651 151.924C98.5748 151.488 98.9847 151.054 99.2014 150.513C99.4171 149.973 99.4268 149.362 99.3123 148.602C99.1981 147.844 98.9546 146.903 98.6366 145.695C98.3259 144.451 98.2934 143.234 98.3566 142.017C98.3882 141.408 98.4437 140.802 98.4996 140.193L98.5011 140.177C98.5562 139.576 98.6117 138.972 98.6437 138.367C99.4089 130.846 100.937 123.483 104.995 116.889C104.995 116.889 104.995 116.889 104.995 116.889L106.651 114.213C108.432 111.669 109.632 110.314 110.618 109.422C111.297 108.808 111.869 108.416 112.477 107.999C112.759 107.806 113.049 107.607 113.361 107.378L113.361 107.378L113.368 107.373C114.777 106.266 116.343 105.565 117.907 104.864C118.293 104.691 118.679 104.518 119.063 104.339C121.41 103.368 123.752 102.502 126.262 101.573C127.71 101.037 129.213 100.481 130.804 99.8728L131.212 99.7168L130.871 99.444C128.985 97.9347 127.803 96.3105 127.182 94.5576ZM107.337 115.225L107.132 115.082L107.11 115.114L107.098 115.151C106.447 117.253 105.6 119.314 104.745 121.394C104.515 121.955 104.283 122.518 104.055 123.084C102.984 125.737 101.986 128.439 101.47 131.275C100.449 136.636 99.5402 142.059 101.222 147.492L101.221 147.492L101.225 147.502C101.286 147.673 101.347 147.852 101.409 148.036C101.663 148.782 101.941 149.601 102.368 150.267C102.638 150.689 102.974 151.063 103.414 151.332C103.855 151.601 104.386 151.755 105.031 151.756C106.41 151.82 107.67 151.558 108.754 150.94C109.84 150.322 110.735 149.356 111.393 148.04L111.395 148.036C113.549 143.502 115.001 138.767 116.455 134.029C116.646 133.406 116.837 132.784 117.029 132.162L117.029 132.162L117.031 132.156C118.816 125.91 121.595 120.146 127.984 118.017L127.986 118.016C135.362 115.473 143.38 114.708 151.175 114.069L151.176 114.069C153.432 113.881 155.571 114.287 157.683 114.875C158.567 115.12 159.441 115.397 160.318 115.674C160.49 115.728 160.663 115.782 160.835 115.836C161.883 116.166 162.936 116.488 163.999 116.745L164 116.745C168.487 117.82 171.982 119.996 174.434 123.046C176.888 126.098 178.311 130.038 178.627 134.66L178.627 134.662C179.01 139.637 179.138 144.613 179.266 149.596L179.265 149.596L179.266 149.609C179.395 151.284 179.918 152.968 181.608 153.531L181.608 153.531L181.615 153.534C182.351 153.754 183.003 153.525 183.575 153.172C183.861 152.995 184.134 152.783 184.395 152.572C184.47 152.512 184.544 152.452 184.617 152.392C184.801 152.242 184.979 152.096 185.159 151.961L185.159 151.961L185.17 151.952C187.661 149.854 188.698 146.719 189.465 143.91C192.252 134.847 190.214 125.993 188.198 117.236C187.981 116.291 187.763 115.348 187.553 114.405C186.899 111.27 184.55 108.256 181.649 107.199C176.9 105.274 171.772 104.121 166.663 103.099C166.442 103.053 166.222 103.008 166.002 102.962C158.804 101.477 151.727 100.016 146.081 95.1071L146.081 95.1069L146.073 95.1005C145.751 94.8427 145.475 94.6502 145.231 94.5407C144.983 94.4292 144.734 94.3896 144.495 94.4905C144.268 94.5859 144.102 94.7865 143.96 95.0237C143.816 95.2643 143.675 95.5826 143.515 95.9644C142.939 97.3104 142.313 98.712 141.416 99.7644C140.529 100.804 139.385 101.493 137.752 101.433C135.157 101.304 132.73 101.824 130.387 102.53C129.346 102.844 128.317 103.196 127.297 103.545C127.17 103.588 127.044 103.631 126.918 103.674C125.772 104.066 124.636 104.447 123.494 104.764L123.492 104.764C120.766 105.543 118.111 106.619 115.431 107.704C114.622 108.032 113.811 108.36 112.996 108.681C112.944 108.67 112.899 108.676 112.869 108.683C112.812 108.697 112.768 108.727 112.747 108.742C112.72 108.761 112.695 108.782 112.673 108.803C112.611 108.86 112.528 108.948 112.435 109.048C112.401 109.084 112.366 109.122 112.329 109.16C112.045 109.461 111.647 109.856 111.165 110.158C110.872 110.341 110.474 110.754 110.058 111.235C109.634 111.725 109.167 112.317 108.735 112.886C108.302 113.455 107.901 114.004 107.609 114.41C107.463 114.613 107.344 114.781 107.261 114.898C107.22 114.957 107.187 115.002 107.165 115.034L107.14 115.069L107.134 115.079L107.132 115.081L107.132 115.082L107.132 115.082L107.337 115.225ZM150.123 201.833L150.123 201.834H150.133H150.137H150.141H150.144H150.148H150.152H150.155H150.159H150.163H150.167H150.17H150.174H150.178H150.182H150.185H150.189H150.193H150.197H150.2H150.204H150.208H150.212H150.215H150.219H150.223H150.227H150.23H150.234H150.238H150.242H150.245H150.249H150.253H150.257H150.26H150.264H150.268H150.272H150.275H150.279H150.283H150.286H150.29H150.294H150.298H150.301H150.305H150.309H150.313H150.316H150.32H150.324H150.328H150.331H150.335H150.339H150.343H150.346H150.35H150.354H150.358H150.361H150.365H150.369H150.373H150.376H150.38H150.384H150.388H150.391H150.395H150.399H150.403H150.406H150.41H150.414H150.417H150.421H150.425H150.429H150.432H150.436H150.44H150.444H150.447H150.451H150.455H150.459H150.462H150.466H150.47H150.474H150.477H150.481H150.485H150.489H150.492H150.496H150.5H150.504H150.507H150.511H150.515H150.519H150.522H150.526H150.53H150.534H150.537H150.541H150.545H150.548H150.552H150.556H150.56H150.563H150.567H150.571H150.575H150.578H150.582H150.586H150.59H150.593H150.597H150.601H150.605H150.608H150.612H150.616H150.62H150.623H150.627H150.631H150.635H150.638H150.642H150.646H150.65H150.653H150.657H150.661H150.664H150.668H150.672H150.676H150.679H150.683H150.687H150.691H150.694H150.698H150.702H150.706H150.709H150.713H150.717H150.721H150.724H150.728H150.732H150.736H150.739H150.743H150.747H150.751H150.754H150.758H150.762H150.766H150.769H150.773H150.777H150.781H150.784H150.788H150.792H150.795H150.799H150.803H150.807H150.81H150.814H150.818H150.822H150.825H150.829H150.833H150.837H150.84H150.844H150.848H150.852H150.855H150.859H150.863H150.867H150.87H150.874H150.878H150.882H150.885H150.889H150.893H150.897H150.9H150.904H150.908H150.912H150.915H150.919H150.923H150.926H150.93H150.934H150.938H150.941H150.945H150.949H150.953H150.956H150.96H150.964H150.968H150.971H150.975H150.979H150.983H150.986H150.99H150.994H150.998H151.001H151.005H151.009H151.013H151.016H151.02H151.024H151.028H151.031H151.035H151.039H151.043H151.046H151.05H151.054H151.057H151.061H151.065H151.069H151.072H151.076H151.08H151.084H151.087H151.091H151.095H151.099H151.102H151.106H151.11H151.114H151.117H151.121H151.125H151.129H151.132H151.136H151.14H151.144H151.147H151.151H151.155H151.159H151.162H151.166H151.17H151.174H151.177H151.181H151.185H151.188H151.192H151.196H151.2H151.203H151.207H151.211H151.215H151.218H151.222H151.226H151.23H151.233H151.237H151.241H151.245H151.248H151.252H151.256H151.26H151.263H151.267H151.271H151.275H151.278H151.282H151.286H151.29H151.293H151.297H151.301H151.304H151.308H151.312H151.316H151.319H151.323H151.327H151.331H151.334H151.338H151.342H151.346H151.349H151.353H151.357H151.361H151.364H151.368H151.372H151.376H151.379H151.383H151.387H151.391H151.394H151.398H151.402H151.406H151.409H151.413H151.417H151.421H151.424H151.428H151.432H151.435H151.439H151.443H151.447H151.45H151.454H151.458H151.462H151.465H151.469H151.473H151.477H151.48H151.484H151.488H151.492H151.495H151.499H151.503H151.507H151.51H151.514H151.518H151.522H151.525H151.529H151.533H151.537H151.54H151.544H151.548H151.552H151.555H151.559H151.563H151.566H151.57H151.574H151.578H151.581H151.585H151.589H151.593H151.596H151.6H151.604H151.608H151.611H151.615H151.619H151.623H151.626H151.63H151.634H151.638H151.641H151.645H151.649H151.653H151.656H151.66H151.664H151.668H151.671H151.675H151.679H151.683H151.686H151.69H151.694H151.697H151.701H151.705H151.709H151.712H151.716H151.72H151.724H151.727H151.731H151.735H151.739H151.742H151.746H151.75H151.754H151.757H151.761H151.765H151.769H151.772H151.776H151.78H151.784H151.787H151.791H151.795H151.799H151.802H151.806H151.81H151.813H151.817H151.821H151.825H151.828H151.832H151.836H151.84H151.843H151.847H151.851H151.855H151.858H151.862H151.866H151.87H151.873H151.877H151.881H151.885H151.888H151.892H151.896H151.9H151.903H151.907H151.911H151.915H151.918H151.922H151.926H151.93H151.933H151.937H151.941H151.944H151.948H151.952H151.956H151.959H151.963H151.967H151.971H151.974H151.978H151.982H151.986H151.989H151.993H151.997H152.001H152.004H152.008H152.012H152.016H152.019H152.023H152.027H152.031H152.034H152.038H152.042H152.046H152.049H152.061L152.072 201.833C161.906 200.939 171.648 199.915 181.012 196.195C182.504 195.627 184.009 195.077 185.514 194.528C189.406 193.106 193.303 191.683 196.996 189.929C200.56 188.274 204.245 186.447 205.559 182.241C207.868 174.93 208.654 167.694 204.516 160.452L204.514 160.449C203.218 158.245 201.535 156.5 199.72 154.926C198.813 154.139 197.87 153.393 196.926 152.654C196.788 152.546 196.649 152.438 196.511 152.33C195.704 151.7 194.899 151.071 194.111 150.419C192.95 149.451 191.824 148.88 190.741 149.022C189.645 149.166 188.697 150.023 187.853 151.646L187.849 151.653L187.846 151.66C187.616 152.178 187.175 152.627 186.625 153.067C186.352 153.286 186.057 153.498 185.756 153.714L185.692 153.759C185.413 153.958 185.128 154.162 184.857 154.373C183.104 155.687 181.504 156.019 180.292 155.552C179.085 155.087 178.159 153.787 177.847 151.598L177.845 151.589L177.843 151.579C177.587 150.425 177.342 149.187 177.464 148.084L177.465 148.084L177.465 148.072C177.851 142.035 176.951 136.132 175.8 130.378C175.151 127.133 173.591 124.269 170.858 122.057L170.858 122.057L170.851 122.051C167.232 119.337 162.976 117.922 158.615 117.024L158.613 117.023C148.848 115.096 139.351 116.64 130.011 119.199C125.055 120.504 121.942 124.286 120.009 128.925C118.843 131.666 118.073 134.513 117.31 137.338C117.232 137.626 117.154 137.914 117.076 138.202C116.23 141.316 115.341 144.392 113.884 147.306L113.883 147.308C112.554 150.029 110.925 151.988 108.948 152.991C106.982 153.99 104.632 154.063 101.809 152.934L101.794 152.928C101.485 152.805 101.144 152.668 100.813 152.616C100.467 152.562 100.105 152.594 99.7798 152.837C98.1224 154.02 96.259 154.863 94.3632 155.72C93.7296 156.006 93.0924 156.295 92.458 156.598C89.9405 157.8 87.4995 159.227 85.6737 161.705C82.3895 166.148 80.5113 171.378 80.8028 176.447C81.0948 181.525 83.5636 186.416 88.9254 190.163L88.9267 190.164C96.3799 195.304 104.853 197.612 113.424 199.147C123.056 200.972 132.772 201.271 142.481 201.57C145.029 201.649 147.577 201.727 150.123 201.833ZM143.623 88.1337L143.623 88.1337V88.1418C143.623 89.8253 144.561 91.6095 145.899 92.9644C147.238 94.3196 149.023 95.2902 150.772 95.2904L150.779 95.2901C153.005 95.2247 154.801 94.4692 156.037 93.0657C157.271 91.6655 157.92 89.6515 157.92 87.1198C157.92 85.0261 157.298 83.2982 156.126 82.0763C154.954 80.8541 153.258 80.1648 151.164 80.0992C149.343 80.032 147.49 81.0402 146.086 82.5417C144.68 84.0461 143.69 86.0818 143.623 88.1337ZM137.937 87.3468C136.916 86.0716 135.561 84.8134 133.636 85.2072C132.732 85.1464 132.025 85.2444 131.407 85.5364C130.783 85.8311 130.275 86.3114 129.753 86.9636L129.753 86.9636L129.751 86.9671C127.956 89.2938 128.03 92.1802 129.248 94.5017C130.465 96.8205 132.838 98.6068 135.686 98.7392L135.689 98.7393C137.634 98.8064 139.524 97.7693 140.776 96.2704C142.026 94.7732 142.674 92.7731 142.07 90.8836C142.002 90.6166 141.895 90.3217 141.702 90.0896C141.498 89.8443 141.205 89.6803 140.807 89.6803C139.986 89.6803 139.475 89.3924 139.071 88.9741C138.864 88.7595 138.682 88.5075 138.502 88.2307C138.428 88.1172 138.348 87.9909 138.267 87.8615C138.162 87.6943 138.054 87.5217 137.949 87.3643L137.943 87.3553L137.937 87.3468Z" fill="#223A70" stroke="#223A70" stroke-width="0.5"/>
<path d="M256.421 145.757C251.822 148.312 247.223 149.462 242.241 148.696C241.73 148.568 241.091 148.568 240.708 148.312C235.726 144.863 229.594 143.202 226.017 137.837C223.59 134.388 222.057 130.555 222.44 126.34C223.079 120.463 223.845 114.587 226.528 109.093C232.021 97.2126 249.906 94.7853 257.443 100.79C259.871 102.706 262.426 103.856 265.364 104.622C268.047 105.389 268.813 107.816 269.707 109.988C271.113 113.565 271.368 117.397 270.602 121.23C270.218 122.89 270.346 123.785 272.646 123.018C275.712 122.124 278.65 123.401 281.46 124.423C284.271 125.445 287.081 126.595 289.253 128.895C294.491 134.26 296.79 140.903 295.896 148.185C295.257 153.422 292.958 158.405 288.614 161.982C286.698 163.515 284.271 164.026 281.971 164.537C280.949 164.792 280.566 164.92 280.694 166.197C281.46 171.818 278.394 175.523 273.923 178.078C265.236 183.188 255.655 184.849 245.69 184.466C240.325 184.21 236.62 180.25 236.237 175.779C235.981 172.329 236.109 168.497 237.898 165.175C239.558 162.109 242.113 160.193 245.052 158.66C249.14 156.616 253.228 154.444 257.699 153.678C259.487 153.295 259.487 152.656 258.465 151.378C257.188 149.59 256.421 147.929 256.421 145.757ZM239.686 142.564C241.858 142.691 244.413 142.053 246.84 141.158C252.717 138.987 258.082 135.793 261.02 129.917C263.959 123.657 264.725 117.142 262.298 110.371C260.509 105.389 256.932 102.323 252.206 100.406C248.884 99.0011 245.563 100.279 242.241 100.534C236.62 100.917 232.532 103.6 229.466 108.071C225.123 114.331 224.101 121.613 224.228 128.895C224.228 137.454 231.255 143.33 239.686 142.564ZM281.333 156.488C289.125 156.616 291.042 155.85 292.575 152.145C293.724 149.334 294.874 146.396 293.724 142.947C292.447 138.987 291.936 134.771 289.125 131.577C284.654 126.467 278.905 124.423 272.135 125.19C270.474 125.318 269.963 126.084 269.324 127.489C268.302 130.044 268.302 132.982 266.386 135.154C265.108 136.559 264.342 138.092 264.597 140.009C264.725 140.647 264.725 141.414 264.214 142.053C263.32 142.947 263.703 143.841 264.214 144.608C268.941 151.634 275.328 155.977 281.333 156.488ZM260.126 161.343C260.893 160.193 260.637 158.916 261.02 157.766C262.042 154.828 262.042 154.828 258.849 155.339C258.593 155.339 258.338 155.339 258.082 155.339C250.928 157.127 243.646 158.788 239.303 165.814C236.492 170.541 238.536 174.884 244.03 175.651C250.162 176.545 256.421 175.779 262.553 175.268C267.663 174.884 271.624 172.202 274.306 167.858C275.712 165.559 275.201 163.642 272.901 163.004C270.602 162.365 268.43 161.343 266.514 159.81C265.619 159.043 264.981 159.043 264.342 160.321C263.064 162.876 263.703 164.664 266.897 165.814C267.791 166.197 268.43 166.581 268.302 167.603C268.174 168.625 267.408 168.625 266.641 168.88C265.108 169.519 263.959 168.752 262.809 168.114C261.659 167.603 260.509 166.708 260.509 169.008C260.509 169.519 260.254 170.03 259.615 170.158C258.849 170.285 258.465 169.774 258.21 169.263C257.954 168.625 257.571 167.858 257.571 167.092C257.443 165.942 256.932 165.686 255.91 165.942C253.611 166.325 254.122 167.73 254.761 169.263C255.144 170.285 255.399 171.435 254.122 171.946C253.355 172.329 252.461 171.691 252.333 170.796C252.078 167.858 250.289 169.008 248.884 169.391C248.118 169.647 247.479 170.03 246.712 170.285C246.074 170.541 245.307 170.669 244.924 169.902C244.541 169.136 244.668 168.369 245.307 167.73C245.69 167.347 246.329 167.219 246.84 166.964C249.012 165.686 252.206 165.303 251.311 161.471C251.184 160.832 251.567 160.193 252.333 160.193C253.483 160.065 253.866 160.96 253.866 161.854C253.866 163.515 255.016 163.259 256.038 163.131C257.316 163.004 257.188 161.982 256.932 161.215C256.805 160.321 256.421 159.554 256.166 158.788C255.91 157.766 256.294 156.999 257.188 156.744C258.338 156.361 258.338 157.383 258.593 158.149C259.232 159.043 258.849 160.321 260.126 161.343ZM239.558 144.991C239.942 146.141 240.708 146.141 241.219 146.396C246.329 148.312 251.311 146.779 255.272 143.969C264.725 137.326 269.196 127.617 268.941 115.992C268.813 113.309 268.558 110.499 266.641 108.199C265.875 107.177 264.853 106.027 263.703 106.538C262.426 107.177 263.575 108.582 263.959 109.477C266.769 115.609 265.364 121.868 264.214 128C263.703 130.555 262.17 132.982 260.254 134.771C256.294 138.476 252.206 141.797 246.712 143.075C244.285 143.586 241.858 144.352 239.558 144.991ZM262.426 140.903C258.082 143.33 257.188 146.652 259.998 150.356C264.086 155.466 268.43 160.065 275.201 161.982C279.8 163.387 283.377 162.237 287.209 160.193C287.976 159.81 288.998 159.427 288.87 158.277C286.315 158.277 283.76 158.405 281.205 158.277C275.328 157.894 271.113 154.317 266.897 150.74C263.831 148.185 261.404 145.374 262.426 140.903ZM277.883 166.325C276.734 168.497 275.456 170.285 273.795 171.946C270.218 175.523 265.875 176.928 261.02 177.312C253.483 177.823 245.818 179.611 238.409 175.906C238.792 179.1 240.836 181.144 243.902 182.038C249.906 183.571 255.783 182.677 261.531 181.144C267.152 179.611 272.646 177.567 276.606 172.84C278.267 170.924 278.522 168.752 277.883 166.325Z" fill="#223A70" stroke="#223A70" stroke-width="0.5" stroke-miterlimit="10"/>
<path d="M248.501 116.247C249.395 117.78 250.8 118.036 251.95 118.291C253.228 118.547 253.611 119.313 253.483 120.463C253.228 121.868 252.206 121.229 251.439 121.102C249.906 120.846 248.373 120.846 246.84 120.335C245.563 119.952 244.924 119.952 244.541 121.357C244.03 122.762 244.924 123.273 245.946 123.657C247.096 124.168 248.629 123.784 249.651 124.679C250.289 125.19 252.078 124.679 251.439 126.467C250.928 128 249.906 128.894 248.501 128.894C247.096 128.894 245.563 128.767 244.541 128C241.986 126.212 241.347 128.128 240.453 129.661C239.942 130.427 240.197 132.216 238.792 131.705C237.259 131.194 237.259 129.661 237.642 128.128C238.153 126.467 238.92 124.679 236.365 123.784C235.854 123.529 235.215 122.379 235.47 121.485C235.854 120.463 236.748 120.846 237.514 120.846C238.281 120.846 239.047 120.974 239.814 120.974C240.964 120.974 241.219 120.08 241.602 119.313C241.986 118.419 241.602 117.78 240.836 117.397C240.58 117.269 240.197 117.014 239.942 116.758C239.175 115.864 237.259 115.992 237.642 114.331C238.025 112.67 239.686 113.309 241.091 113.053C240.197 111.009 239.814 109.093 239.942 106.921C239.942 106.283 240.069 105.644 240.836 105.516C241.475 105.261 241.602 105.899 241.986 106.283C243.646 107.816 244.03 109.86 244.796 111.776C245.563 113.437 246.201 113.437 247.479 112.798C248.884 112.159 250.289 111.52 251.695 110.882C252.333 110.626 252.972 109.987 253.483 110.626C253.994 111.265 253.866 112.159 253.355 112.798C252.461 114.842 250.673 115.736 248.501 116.247Z" fill="#223A70" stroke="#223A70" stroke-width="0.5" stroke-miterlimit="10"/>
<path d="M275.073 138.859C273.156 138.092 270.729 138.348 269.452 136.304C269.068 135.665 268.43 135.026 268.813 134.26C269.196 133.493 269.963 132.982 270.729 133.238C274.434 134.26 276.989 133.749 277.628 129.278C277.755 128.256 279.416 127.489 280.31 127.617C281.588 127.872 280.821 129.405 280.821 130.3C280.821 131.066 280.694 131.833 280.438 132.599C279.927 134.004 279.799 135.026 281.843 134.388C282.482 134.132 283.249 134.26 283.504 135.154C283.76 136.048 283.504 136.687 282.865 137.326C282.354 137.837 281.46 138.348 282.099 139.242C282.61 140.009 283.376 139.881 284.143 139.498C284.909 139.114 285.548 139.242 285.931 139.881C286.442 140.647 286.059 141.286 285.548 141.669C284.398 142.691 284.271 143.713 285.037 144.991C285.42 145.757 285.676 146.779 284.782 147.29C283.887 147.801 283.121 147.163 282.738 146.268C282.227 145.246 281.716 145.374 280.949 146.141C280.566 146.652 279.927 146.652 279.288 146.779C278.65 146.907 277.883 147.163 277.5 146.268C277.117 145.502 277.372 144.863 278.011 144.224C278.777 143.458 280.566 142.691 279.799 141.542C278.777 140.009 277.372 141.542 276.222 142.053C275.328 142.436 274.434 143.075 273.667 142.308C272.773 141.414 273.923 140.775 274.306 140.136C274.434 139.881 274.689 139.37 275.073 138.859Z" fill="#223A70" stroke="#223A70" stroke-width="0.5" stroke-miterlimit="10"/>
<path d="M0 218.585C14.9071 230.514 31.45 239.606 48.9984 244.481C117.279 263.447 271.095 276.818 375 284.088" stroke="#223A70" stroke-width="2"/>
</svg>
