<svg width="375" height="305" viewBox="0 0 375 305" fill="none" xmlns="http://www.w3.org/2000/svg">
    <rect width="375" height="304" fill="#FAFAFA"/>
    <path d="M45.3103 149.443C45.3103 149.865 45.3103 150.119 45.3103 150.456C44.2916 151.132 43.8671 153.242 44.5463 154.255C44.716 154.508 45.0556 154.677 45.3103 154.677C46.329 154.761 47.3477 154.761 48.4513 154.761C48.8758 154.761 49.2154 154.677 49.6399 154.677C49.7247 154.761 49.7247 154.846 49.8096 154.846C49.555 155.268 49.3003 155.774 49.0456 156.196C48.2816 157.293 48.9607 158.728 50.4039 159.319C51.5075 159.741 52.5262 159.572 53.5449 159.319C53.7996 159.235 54.0543 159.235 54.3939 159.15C54.1392 160.079 52.0169 160.501 50.4039 160.079C48.706 159.657 47.6873 157.884 48.1967 155.774C47.3477 155.69 46.4988 155.521 45.6499 155.436C44.2916 155.268 43.952 155.099 43.7822 153.748C43.6124 152.735 43.7822 151.638 43.7822 150.456C43.3577 150.288 42.6786 150.119 42.0843 149.865C40.9807 149.528 39.8771 149.106 38.8584 148.684C38.2641 148.431 37.7548 147.924 37.8397 147.164C37.9246 146.236 38.0944 145.223 38.1792 144.295C38.2641 144.295 38.349 144.295 38.4339 144.295C38.2641 144.21 38.0944 144.041 37.8397 143.957C35.7173 143.282 34.6137 140.496 35.1231 138.386C35.2929 137.626 35.5476 136.782 35.7173 136.023C35.972 135.01 36.7361 134.419 37.7548 134.166C38.4339 133.997 38.4339 133.659 38.4339 133.068C38.4339 132.309 38.5188 131.549 38.6037 130.789C38.7735 129.861 39.198 129.101 40.0469 128.595C38.7735 127.835 37.7548 126.822 37.0756 125.556C35.972 123.53 36.821 122.433 38.6886 121.251C38.9433 121.082 39.198 120.998 39.5375 120.829C39.1131 120.238 38.7735 119.648 38.349 119.057C37.2454 117.537 37.7548 115.765 39.6224 115.174C40.3865 114.921 40.4714 114.499 40.3865 113.908C40.3016 112.811 40.2167 111.713 40.3016 110.616C40.4714 108.421 42.1692 107.577 43.8671 107.071C44.3765 106.902 45.1405 106.986 45.3952 106.649C45.6499 106.311 45.2254 105.636 45.3103 105.045C45.3952 104.032 45.3952 103.019 45.7348 102.091C46.0743 100.993 47.0082 100.74 48.0269 100.656C48.7909 100.571 49.4701 100.571 50.2341 100.571C50.7435 100.571 50.9133 100.318 50.9981 99.8117C51.1679 97.6171 51.8471 95.5913 53.2054 93.7344C54.1392 92.4683 55.8371 92.0462 57.1954 92.7215C57.6198 92.9747 58.1292 93.1435 58.5537 93.3967C59.1479 93.7344 59.4026 93.5656 59.7422 92.9747C60.2515 91.8774 60.9307 90.7801 61.6098 89.7672C61.9494 89.1764 62.4588 89.092 63.1379 89.3452C63.9019 89.6828 64.7509 89.8516 65.5149 90.2737C66.1092 90.5269 66.3638 90.3581 66.7034 89.8516C67.3826 88.6699 68.0617 87.5726 68.9106 86.4753C69.3351 85.8001 69.5898 85.8845 70.4387 86.4753C70.7783 86.7285 71.1179 86.8974 71.4575 87.1506C71.7121 87.4038 72.0517 87.657 72.2215 87.9103C73.0704 87.5726 73.9194 87.1506 74.8532 86.9818C76.9755 86.5597 78.5885 87.5726 79.4374 89.5984C79.6921 90.1893 79.9468 90.7801 80.2015 91.371C81.2202 90.7801 82.154 90.1893 83.0878 89.6828C83.5123 89.4296 83.9368 89.1764 84.3612 89.0075C85.9742 88.4167 87.3325 88.8387 88.4361 90.1048C88.6059 90.2737 88.7757 90.4425 88.7757 90.4425C89.4548 90.3581 89.9642 90.2737 90.4736 90.1893C91.0678 90.0204 91.747 89.936 92.3412 89.6828C93.1053 89.2608 93.6995 89.5984 94.2089 90.0204C94.8031 90.4425 95.3125 91.0333 95.9067 91.4554C96.0765 91.6242 96.501 91.6242 96.7557 91.5398C98.0291 91.2866 99.3025 90.8645 100.576 90.6113C101.934 90.4425 104.566 92.2994 104.736 93.9032C106.434 93.3967 108.046 92.8059 109.829 93.8188C111.612 94.8317 111.867 96.5198 111.952 98.0392C113.48 98.63 114.923 99.0521 116.281 99.6429C117.724 100.234 117.979 100.993 117.724 102.091C117.555 102.682 117.555 103.357 117.385 103.948C117.215 104.454 117.385 104.707 117.809 104.876C118.488 105.129 119.083 105.551 119.762 105.72C121.545 106.396 121.969 107.746 121.884 109.434C121.884 110.785 121.29 111.966 120.526 113.148C120.95 113.486 121.29 113.823 121.714 114.161C122.818 114.921 123.922 115.68 124.94 116.524C126.044 117.369 126.129 118.128 125.365 119.394C125.365 119.479 125.28 119.479 125.28 119.563C124.346 120.407 124.686 121.336 125.28 122.095C126.808 124.037 125.704 127.497 123.837 128.595C123.412 128.848 123.327 129.186 123.497 129.523C123.752 130.367 123.837 131.211 124.176 132.055C124.94 134.25 124.346 135.854 122.478 137.289C121.375 138.133 121.12 138.977 121.29 140.327C121.629 142.353 120.95 144.21 120.101 145.983C119.847 146.489 119.252 146.911 118.658 147.164C117.979 147.502 117.809 147.924 117.809 148.599C117.894 149.443 117.894 150.288 117.809 151.132C117.809 152.482 116.791 153.073 115.687 153.411C115.178 153.579 114.923 153.833 114.838 154.339C114.583 155.268 114.329 156.196 113.989 157.04C113.819 157.462 113.395 157.884 112.97 157.969C112.036 158.222 111.867 158.897 111.782 159.572C111.612 160.501 111.103 161.007 110.339 161.429C109.659 161.851 109.15 162.358 108.895 163.117C108.556 163.962 108.046 164.721 107.792 165.565C107.282 167.169 106.179 167.76 104.651 167.676C103.972 167.676 103.547 167.929 103.123 168.351C102.528 169.026 101.764 169.532 100.661 169.195C100.406 169.11 100.067 169.195 99.6421 169.279C99.5572 168.942 99.4723 168.604 99.5572 168.266C99.5572 168.098 99.8118 167.844 99.9816 167.76C100.151 167.676 100.406 167.929 100.576 168.013C100.915 168.182 101.34 168.688 101.595 168.604C102.019 168.435 102.444 168.013 102.613 167.507C102.953 166.663 102.868 166.663 103.717 166.916C105.075 167.422 106.349 166.916 106.943 165.65C107.452 164.384 107.877 163.033 108.386 161.767C108.471 161.514 108.811 161.345 109.065 161.261C109.999 161.092 110.763 160.501 110.933 159.572C111.018 159.15 111.103 158.728 111.188 158.306C111.357 157.8 111.527 157.378 112.291 157.462C112.546 157.462 113.055 157.125 113.225 156.871C113.565 156.112 113.734 155.352 113.904 154.592C113.989 154.255 113.989 153.833 114.074 153.495C114.159 153.242 114.498 152.904 114.668 152.904C116.706 152.651 117.045 151.638 116.875 149.865C116.791 149.106 116.706 148.431 116.621 147.755C116.621 147.586 116.791 147.249 116.96 147.249C119.168 146.996 119.507 145.307 119.932 143.619C120.356 142.1 120.356 140.581 120.101 139.146C120.016 138.808 119.847 138.555 119.762 138.133C119.932 138.048 120.101 137.88 120.271 137.795C122.733 137.036 123.837 134.925 123.073 132.478C122.733 131.38 122.393 130.283 122.054 129.186C121.884 128.764 122.139 128.595 122.563 128.51C122.903 128.426 123.242 128.342 123.412 128.088C124.77 126.569 125.535 124.628 124.261 122.686C123.922 122.264 123.667 121.758 123.412 121.251C123.327 121.082 123.327 120.745 123.412 120.492C123.752 119.901 124.176 119.31 124.516 118.719C124.855 118.213 124.686 117.875 124.261 117.537C123.158 116.693 122.139 115.934 121.035 115.174C120.441 114.752 119.762 114.414 119.083 113.992C118.658 113.739 118.743 113.486 119.083 113.233C120.526 111.966 121.12 109.687 120.526 107.915C120.356 107.493 120.016 107.155 119.677 106.986C118.828 106.48 117.979 106.142 117.13 105.805C117.045 105.805 117.045 105.72 116.96 105.72C116.621 105.636 116.111 105.551 116.026 105.383C115.942 105.129 116.111 104.707 116.196 104.285C116.366 103.526 116.451 102.766 116.621 102.006C116.706 101.331 116.366 100.825 115.772 100.571C114.413 99.9805 113.055 99.1365 111.442 99.5585C111.018 99.6429 110.763 99.3053 110.763 98.8832C110.763 98.2924 110.763 97.7859 110.678 97.1951C110.593 95.7602 109.744 94.8317 108.386 94.4096C107.028 93.9876 105.839 94.4096 104.736 95.1693C104.481 95.3381 104.226 95.4225 103.887 95.5069C103.802 95.2537 103.547 94.9161 103.547 94.6629C103.462 93.2279 102.104 91.793 100.576 91.7086C99.4723 91.2866 98.114 91.7086 96.9255 92.5527C96.1614 93.0591 96.0765 92.9747 95.4823 92.2994C94.888 91.7086 94.2938 91.1177 93.5297 90.6113C92.7657 90.1048 91.9168 90.6957 91.2376 90.8645C90.4736 91.0333 89.6246 91.1177 89.37 92.1306C89.37 92.215 88.9455 92.215 88.7757 92.1306C88.6059 91.9618 88.4361 91.793 88.3512 91.5398C87.5023 89.5984 86.0591 89.0075 84.1066 90.0204C82.9181 90.6113 81.8144 91.4554 80.7957 92.215C80.2015 92.6371 79.9468 92.6371 79.6072 91.9618C79.1827 90.9489 78.7583 89.936 78.2489 88.9231C77.8245 88.0791 77.0604 87.7414 76.2115 87.7414C75.1928 87.657 74.174 87.8258 73.3251 88.5855C73.1553 88.7543 72.9855 89.092 72.8157 89.2608C72.646 89.4296 72.3913 89.7672 72.1366 89.7672C71.8819 89.7672 71.5423 89.4296 71.5423 89.1764C71.4574 87.9947 70.6085 87.657 69.7596 87.235C69.5898 87.1506 69.0804 87.3194 68.9955 87.4882C68.4013 88.3323 67.8919 89.2608 67.2977 90.1893C66.9581 90.8645 66.5336 91.4554 66.3638 91.8774C65.0056 91.4554 63.9019 90.9489 62.7983 90.6957C62.4588 90.6113 61.9494 90.7801 61.7796 91.0333C61.2702 91.793 60.8458 92.6371 60.3364 93.4812C60.0817 93.9876 59.9968 94.6629 59.5724 94.9161C59.3177 95.0849 58.6386 94.5785 58.1292 94.4096C57.6198 94.2408 57.1954 93.9876 56.686 93.8188C55.4126 92.9747 54.309 93.3967 53.4601 94.5785C52.2715 96.1822 51.5924 97.9548 51.6773 99.9805C51.6773 100.403 51.5075 100.825 51.5075 101.247C50.6586 101.247 49.8096 101.247 48.9607 101.247C46.0743 101.247 45.565 103.188 46.0743 105.467C46.2441 106.142 46.4139 106.818 46.5837 107.493C45.7348 107.577 45.0556 107.577 44.3765 107.746C43.1031 107.915 41.9146 108.506 41.3203 109.687C40.9807 110.363 40.9807 111.291 40.9807 112.135C40.9807 113.148 41.1505 114.161 41.3203 115.174C41.4052 115.596 41.2354 115.68 40.8109 115.765C40.3865 115.849 40.0469 115.934 39.6224 116.102C38.6037 116.524 38.2641 117.706 38.9433 118.55C39.2829 118.972 39.6224 119.479 40.0469 119.816C40.4714 120.238 40.8109 120.745 40.726 121.167C39.7073 121.758 38.8584 122.095 38.1792 122.686C37.0756 123.784 37.1605 124.965 38.2641 126.063C38.7735 126.569 39.2829 127.16 39.962 127.497C40.4714 127.751 41.2354 127.666 41.8297 127.582C42.5937 127.497 43.3577 127.329 44.1218 127.16C44.4614 127.075 44.8009 126.822 44.9707 126.485C45.565 125.556 46.0743 124.543 46.6686 123.615C47.6024 122.264 49.2154 122.095 50.5737 123.193C50.9981 123.53 51.4226 123.952 51.932 124.374C52.1018 123.868 52.2715 123.361 52.3564 122.939C52.7809 121.758 53.9694 120.998 55.2428 121.251C55.4975 121.336 55.7522 121.505 55.922 121.758C56.0069 121.842 56.0069 122.18 55.922 122.264C55.8371 122.349 55.5824 122.433 55.4126 122.349C53.9694 121.927 53.2054 122.349 52.8658 123.868C52.7809 124.459 52.5262 124.965 52.2715 125.472C51.7622 125.134 51.3377 124.796 50.8284 124.543C50.2341 124.206 49.7247 123.699 49.1305 123.446C48.1967 123.108 47.5175 123.277 47.0082 124.206C46.329 125.303 45.7348 126.485 45.1405 127.751C44.8858 128.257 44.716 128.173 44.3765 128.004C44.0369 127.835 43.6124 127.835 43.2728 127.751C43.1031 127.751 42.9333 127.919 42.8484 128.004C42.5088 128.173 42.2541 128.51 41.9146 128.595C40.6412 128.764 39.5375 129.608 39.2829 130.874C39.198 131.465 39.198 132.14 39.198 132.815C39.198 133.406 39.2829 133.912 39.3678 134.588C38.8584 134.588 38.4339 134.588 38.0944 134.672C37.1605 134.925 36.5663 135.516 36.2267 136.445C35.8022 137.795 35.3778 139.146 35.7173 140.581C36.0569 142.016 37.1605 142.944 38.6037 143.113C38.9433 143.113 39.3678 143.282 39.7073 143.366C39.8771 144.041 39.6224 144.379 39.1131 144.717C37.9246 145.561 38.1792 147.586 39.4526 148.177C40.8109 148.853 42.2541 149.359 43.7822 149.443C44.3765 149.528 44.8009 149.443 45.3103 149.443Z" fill="#223A70" stroke="#223A70" stroke-miterlimit="10"/>
    <path d="M65.1752 167.928C63.3076 168.688 61.2701 167.844 60.1665 165.818C59.9118 165.396 59.6571 164.89 59.5723 164.383C59.4874 163.877 59.2327 163.792 58.8082 163.877C57.9593 164.046 57.1952 164.383 56.3463 163.961C54.4786 163.033 53.6297 161.007 54.988 159.066C55.0729 158.897 55.2427 158.728 55.4125 158.728C55.6672 158.728 55.8369 158.812 56.0916 158.897C56.0067 159.066 56.0067 159.319 55.9218 159.488C54.988 160.416 54.9031 161.091 55.4974 162.273C56.0067 163.286 56.7708 163.624 57.9593 163.37C58.2988 163.286 58.6384 163.286 58.978 163.117C59.2327 163.033 59.5722 162.864 59.6571 162.611C60.0816 161.513 60.5061 160.416 59.742 159.234C59.4874 158.897 59.4874 158.39 59.3176 158.053C58.8931 156.702 60.2514 154.761 61.6097 154.508C61.8644 154.423 62.1191 154.508 62.3737 154.592C62.3737 154.676 62.4586 154.761 62.4586 154.845C62.1191 155.098 61.7795 155.352 61.4399 155.521C59.4874 156.449 59.6571 158.053 60.4212 159.319C60.5061 159.403 60.5061 159.572 60.591 159.656C61.2701 160.416 61.355 161.091 60.6759 162.02C60.1665 162.611 60.3363 163.117 60.591 163.539C60.5061 164.13 60.4212 164.468 60.5061 164.805C60.8456 165.987 61.6097 166.831 62.7133 167.506C63.5622 168.013 64.1565 167.928 64.7507 167.169C64.8356 167.084 64.9205 166.916 65.0054 166.831C65.1752 166.747 65.4299 166.578 65.5997 166.662C65.7695 166.662 65.8544 167 65.8544 167.169C66.0241 168.604 66.7033 169.617 68.0616 170.123C69.0803 170.545 69.6746 170.461 70.5235 169.701C71.2875 168.941 71.4573 169.026 71.712 170.039C71.9667 171.136 72.9005 171.558 73.7494 172.064C74.7682 172.655 75.7869 173.077 76.9754 172.655C77.1452 172.571 77.3999 172.486 77.5696 172.318C77.9092 172.064 78.1639 171.98 78.5035 172.318C79.2675 173.077 80.2013 172.908 81.1352 172.74C82.2388 172.486 83.1726 171.98 84.2762 171.642C84.5309 171.558 84.8705 171.474 85.0403 171.642C86.1439 172.402 87.5022 172.318 88.6907 172.318C88.9454 172.318 89.2 172.064 89.3698 171.811C89.6245 171.136 90.049 170.798 90.813 171.22C90.8979 170.967 90.8979 170.798 90.9828 170.629C91.2375 170.207 91.6619 170.123 92.0864 170.461C92.1713 170.545 92.2562 170.629 92.2562 170.714C92.6807 171.136 93.19 171.558 93.7843 171.22C94.3785 170.883 94.6332 170.292 94.6332 169.532C94.5483 168.773 94.6332 168.688 95.3973 168.773C95.9066 168.857 96.5009 168.857 97.0102 168.857C97.6045 168.857 97.8592 168.35 97.9441 167.844C98.0289 167.422 97.9441 167 97.9441 166.578C97.9441 166.409 98.0289 166.156 98.1987 166.071C98.3685 165.987 98.6232 166.071 98.793 166.24C99.557 166.916 99.8966 166.831 100.406 165.903C100.83 165.143 101 164.383 100.406 163.539C100.321 163.455 100.491 163.117 100.576 162.864C100.83 162.948 101.255 162.948 101.34 163.117C101.934 164.299 101.594 166.325 100.576 167.253C100.321 167.506 99.8966 167.506 99.557 167.506C99.1326 167.506 98.8779 167.591 98.793 168.097C98.6232 168.688 98.1987 169.195 97.9441 169.701C97.6894 170.123 97.4347 170.545 97.18 170.967C95.3973 174.259 93.6145 177.467 91.9166 180.758C90.813 183.037 89.8792 185.401 89.0303 187.764C88.6907 188.693 88.6907 189.706 88.5209 190.634C88.1813 193.082 87.8417 195.53 87.5022 197.978C87.1626 200.51 86.9079 203.042 86.6532 205.574C86.4834 207.178 86.3137 208.782 86.2288 210.386C86.1439 213.424 86.823 216.294 88.7756 218.742C89.6245 219.839 90.5583 220.852 91.2375 222.034C92.0015 223.3 92.5958 224.65 93.19 226.001C93.6145 226.845 93.9541 227.605 94.2936 228.449C94.3785 228.618 94.2936 228.786 94.2936 229.04C94.1239 229.04 93.8692 229.04 93.6994 228.955C91.9166 228.28 90.1339 227.52 88.3511 226.929C87.8417 226.761 87.1626 226.676 86.7381 226.592C86.7381 227.942 86.7381 229.124 86.7381 230.306C86.7381 230.728 87.0777 231.15 87.0777 231.572C87.0777 233.851 87.0777 236.214 86.9928 238.493C86.9928 238.662 86.6532 239 86.5683 239C86.3137 238.915 86.059 238.746 85.9741 238.578C85.4647 237.312 84.9554 235.961 84.6158 234.695C83.9366 232.416 83.2575 230.221 81.8143 228.364C81.0503 227.436 80.456 226.423 79.7769 225.494C79.5222 225.157 79.2675 224.735 79.0128 224.397C78.843 224.482 78.7582 224.566 78.5884 224.65C77.8243 227.098 77.8243 229.715 77.0603 232.331C76.8056 232.078 76.466 231.994 76.3811 231.741C75.1926 229.377 74.0041 227.014 72.9005 224.65C72.8156 224.482 72.7307 224.397 72.7307 224.228C72.3911 223.047 72.3063 222.962 71.2026 223.469C68.3163 224.65 65.345 224.904 62.2888 225.41C61.7795 225.494 61.1852 225.326 60.6759 225.241C60.5061 225.241 60.2514 224.988 60.2514 224.819C60.2514 224.65 60.4212 224.397 60.591 224.313C62.2039 222.878 63.9018 221.443 65.5148 220.008C67.4673 218.32 69.1652 216.463 70.3537 214.184C71.1177 212.58 71.7969 210.976 72.3911 209.288C73.2401 207.009 73.9192 204.646 74.7682 202.367C75.6171 200.003 76.3811 197.724 76.8905 195.277C77.9941 190.296 78.1639 185.316 78.2488 180.252C78.3337 178.142 78.3337 175.947 78.3337 173.837C78.3337 173.415 78.079 173.162 77.6545 173.331C74.938 174.006 72.8156 172.908 71.0329 170.967C70.948 170.798 70.5235 170.798 70.3537 170.883C69.5048 171.474 68.7407 171.305 67.8918 170.967C66.7882 170.123 65.5148 169.448 65.1752 167.928ZM93.0202 227.605C91.9166 224.735 90.7281 222.203 88.7756 220.008C87.5871 218.657 86.4835 217.223 86.059 215.366C85.6345 213.846 85.2949 212.242 85.3798 210.723C85.5496 208.191 85.8043 205.574 86.059 203.042C86.3137 200.847 86.5683 198.568 86.9079 196.374C87.1626 194.432 87.5871 192.575 87.7569 190.634C87.9266 188.608 88.1813 186.751 89.1151 184.979C90.8979 181.434 92.5958 177.804 94.2936 174.259C95.0577 172.74 95.9066 171.22 96.8404 169.617C96.3311 169.701 95.9066 169.701 95.567 169.785C95.3124 170.798 95.0577 171.811 94.2087 172.064C93.4447 172.318 92.5109 171.811 91.5771 171.642C91.5771 171.642 91.4922 171.811 91.4073 171.98C91.4073 172.655 91.0677 172.908 90.3885 172.908C90.1339 172.908 89.7094 173.077 89.5396 173.331C89.0303 174.175 88.6058 175.019 88.0964 175.863C87.5871 176.707 86.9079 177.551 86.3137 178.395C86.2288 178.564 85.8043 178.733 85.7194 178.648C85.5496 178.564 85.4647 178.226 85.3798 177.973C85.2949 177.635 85.2101 177.298 85.2101 177.044C85.1252 175.778 85.0403 174.512 85.0403 173.246C85.0403 172.486 84.8705 172.233 84.1064 172.571C83.5122 172.824 82.9179 173.077 82.2388 173.246C81.2201 173.499 80.2862 173.584 79.0977 173.837C79.0977 174.512 79.0977 175.272 79.0977 176.032C79.0977 177.635 79.0977 179.239 79.0977 180.843C79.0977 182.531 79.0128 184.304 78.9279 185.992C78.843 187.005 78.7582 188.017 78.6733 189.115C78.5884 189.874 78.5884 190.55 78.5035 191.309C78.4186 191.9 78.2488 192.491 78.1639 193.082C77.7394 196.121 76.9754 199.075 75.8718 201.945C75.2775 203.38 74.938 204.899 74.4286 206.418C74.3437 206.756 74.3437 207.178 74.2588 207.431C74.0041 208.022 73.5797 208.529 73.4099 209.119C72.476 211.652 71.6271 214.268 69.9292 216.378C69.1652 217.391 68.1465 218.32 67.2127 219.248C65.7695 220.599 64.1565 221.865 62.7133 223.215C62.3737 223.553 62.0342 223.891 61.4399 224.313C61.9493 224.397 62.2888 224.397 62.5435 224.397C66.0241 224.313 69.4199 223.722 72.476 222.034C72.6458 221.949 73.0703 222.118 73.1552 222.287C73.9192 224.228 74.6833 226.254 75.4473 228.196C75.702 228.871 76.1265 229.377 76.5509 230.137C76.6358 229.968 76.7207 229.884 76.7207 229.799C77.0603 227.858 77.3999 225.917 77.8243 223.975C77.9092 223.638 78.079 223.3 78.2488 222.793C79.0128 223.384 79.692 223.806 80.2013 224.397C81.1352 225.663 82.069 226.929 82.9179 228.196C83.682 229.377 84.5309 230.643 84.8705 232.078C85.1252 233.26 85.6345 234.357 86.059 235.539C86.2288 234.695 86.3986 233.935 86.3137 233.091C85.9741 230.812 86.3137 228.364 85.3798 226.17C85.21 225.748 85.2949 225.326 85.8892 225.494C87.2475 225.832 88.6058 226.254 89.8792 226.592C90.9828 226.845 91.9166 227.183 93.0202 227.605ZM89.0303 172.908C87.9266 172.824 87.0777 172.824 86.1439 172.74C85.9741 174.175 85.8043 175.61 86.3986 177.213C87.2475 175.694 88.0964 174.343 89.0303 172.908Z" fill="#223A70" stroke="#223A70" stroke-miterlimit="10"/>
    <path d="M73.4101 130.705C73.3252 130.283 73.2403 130.114 73.2403 129.861C73.3252 129.777 73.3252 129.692 73.4101 129.777C74.0044 130.03 74.5137 129.777 74.8533 129.27C75.3627 128.51 75.872 127.835 75.6173 126.822C75.5324 126.569 75.5324 126.316 75.6173 126.147C75.872 125.894 76.2116 125.809 76.3814 126.231C77.0605 127.413 78.3339 127.92 79.7771 127.666C81.3052 127.329 82.3239 126.316 83.2577 125.303C83.9369 124.459 83.6822 123.362 83.6822 122.349C83.6822 122.18 83.5973 121.927 83.6822 121.758C83.7671 121.589 84.0218 121.336 84.1916 121.336C84.3614 121.336 84.616 121.505 84.7009 121.673C84.8707 122.095 85.0405 122.602 85.2103 123.024C85.7197 124.206 87.5873 124.965 88.7758 124.543C89.0305 124.459 89.2003 124.037 89.2852 123.784C89.6247 122.686 89.8794 121.589 90.3888 120.576C90.8981 119.479 91.832 118.804 93.2752 118.888C95.0579 118.972 96.5011 119.732 97.8594 120.661C98.8781 121.336 99.7271 122.264 100.746 123.024C100.916 123.193 101.17 123.277 101.425 123.362C102.104 123.615 102.274 124.121 101.849 124.628C101.085 125.641 100.236 126.485 99.0479 126.991C98.5386 127.16 98.199 127.582 98.2839 128.173C98.5386 129.608 97.6896 130.283 96.586 130.789C95.2277 131.465 93.7845 132.056 92.4262 132.731C92.2564 132.815 92.0867 132.815 92.0018 132.815C91.0679 132.478 90.6435 133.068 90.3888 133.744C89.8794 135.094 89.455 136.529 88.9456 137.964C88.1816 137.795 87.3326 137.626 86.4837 137.458C85.9743 137.373 85.5499 137.373 85.2103 137.88C85.1254 137.964 84.7009 138.133 84.616 138.048C83.7671 137.289 83.4275 138.133 82.9182 138.471C82.6635 138.639 82.5786 138.977 82.4937 139.23C82.239 139.652 81.9843 139.821 81.5599 139.315C81.3901 139.146 81.2203 138.977 81.0505 138.808C79.6922 137.542 78.249 137.542 76.8907 138.808C76.6361 138.977 76.2965 139.061 76.0418 139.146C76.0418 138.808 75.9569 138.471 76.0418 138.217C76.3814 137.289 76.2965 136.36 75.7022 135.601C75.4476 135.347 75.108 135.179 74.6835 135.094C74.1742 135.01 74.0044 134.757 74.0893 134.25C74.1742 133.322 74.259 132.309 73.3252 131.634C73.0705 131.465 72.731 131.296 72.3914 131.296C71.7971 131.211 71.2029 131.211 70.8633 130.536C70.7784 130.452 70.4388 130.452 70.2691 130.367C70.0993 130.283 69.9295 130.114 69.6748 129.945C69.8446 129.861 70.0993 129.608 70.1842 129.692C70.7784 129.861 71.4576 130.03 72.0518 130.199C72.4763 130.283 72.8159 130.536 73.4101 130.705ZM90.983 131.634C92.7658 131.718 94.3788 131.043 95.9069 130.03C96.6709 129.523 97.1803 129.017 97.35 127.92C97.4349 127.244 97.1803 126.738 97.1803 126.231C97.2652 124.712 97.4349 123.277 97.5198 121.758C97.5198 121.589 97.4349 121.251 97.35 121.167C96.4162 120.661 95.4824 120.07 94.4637 119.732C92.7658 119.226 91.5773 119.648 91.0679 121.083C90.5586 122.433 90.1341 123.868 90.1341 125.219C90.1341 127.413 90.6435 129.523 90.983 131.634ZM81.5599 138.133C82.4088 137.626 83.1729 137.204 83.9369 136.698C84.1067 136.614 84.1916 136.36 84.1916 136.192C84.2765 134.841 84.2765 133.49 84.3614 132.14C84.5311 129.692 84.1916 127.16 85.0405 124.712C85.1254 124.543 84.9556 124.29 84.8707 124.037C84.1916 126.653 82.0692 127.329 79.9469 128.51C79.7771 129.439 79.6073 130.621 79.5224 131.887C79.5224 132.224 79.5224 132.562 79.6073 132.9C79.862 133.49 79.3526 133.744 79.0131 133.997C78.8433 134.081 78.5037 134.081 78.4188 133.997C77.1454 133.068 75.9569 132.056 74.6835 131.127C74.5137 131.043 74.259 131.043 74.0893 130.958C74.0893 131.043 74.0893 131.127 74.0044 131.127C74.7684 131.718 74.9382 132.562 75.0231 133.406C75.0231 133.659 75.1929 134.166 75.4476 134.166C76.1267 134.419 76.5512 134.841 76.8058 135.516C76.9756 136.023 77.1454 136.614 77.3152 137.12C80.2016 137.204 80.2016 137.204 81.5599 138.133ZM85.0405 136.445C85.9743 136.529 86.7384 136.614 87.5873 136.782C88.3513 136.951 88.4362 136.614 88.606 136.023C88.8607 135.094 89.2003 134.166 89.6247 133.237C89.8794 132.646 90.1341 132.224 90.0492 131.549C89.7945 129.608 89.6248 127.582 89.455 125.556C89.3701 125.641 89.2852 125.641 89.2003 125.725C88.8607 125.556 88.5211 125.303 88.1816 125.219C87.6722 125.134 87.0779 125.134 86.5686 125.05C86.1441 124.965 85.8045 125.05 85.7197 125.556C85.5499 126.653 85.2952 127.751 85.2103 128.932C85.1254 130.705 85.2103 132.478 85.2103 134.25C85.1254 135.01 85.0405 135.685 85.0405 136.445ZM78.9282 128.51C78.0793 128.342 77.2303 128.088 76.6361 127.92C76.0418 128.848 75.6173 129.608 75.108 130.367C76.1267 131.127 77.2303 131.887 78.4188 132.731C78.5886 131.127 78.7584 129.777 78.9282 128.51ZM100.491 123.952C99.7271 123.362 99.0479 122.855 98.2839 122.264C98.199 123.277 98.1141 124.037 98.1141 124.796C98.199 124.881 98.2839 124.965 98.3688 124.965C99.0479 124.712 99.7271 124.374 100.491 123.952Z" fill="#223A70" stroke="#223A70" stroke-miterlimit="10"/>
    <path d="M92.9355 143.366C93.2751 142.691 93.6147 142.606 94.1241 142.775C94.8032 143.028 95.4823 143.281 96.0766 143.535C96.3313 143.619 96.5011 143.872 96.586 144.041C96.7557 144.463 96.9255 144.885 96.8406 145.307C96.7557 146.658 96.7557 146.658 97.9443 147.08C98.8781 147.417 99.3025 148.262 99.3025 149.359C99.3025 149.696 99.3025 150.119 99.1328 150.372C98.7083 151.131 98.963 151.638 99.6421 152.06C100.321 152.482 100.321 153.073 100.236 153.748C100.151 154.254 100.151 154.761 99.9817 155.267C99.9817 155.436 99.727 155.605 99.5572 155.689C99.4723 155.689 99.2177 155.521 99.2177 155.436C99.1328 155.183 99.0479 154.93 99.1328 154.761C99.5572 153.41 99.4723 153.073 98.3687 152.313C97.8594 151.975 97.8594 151.722 98.114 151.131C98.3687 150.625 98.4536 149.95 98.4536 149.274C98.4536 148.177 97.8594 147.671 96.7557 147.839C95.9917 147.924 95.737 147.586 95.9917 146.911C96.6709 144.548 95.9068 144.126 93.8694 143.619C93.5298 143.45 93.2751 143.45 92.9355 143.366Z" fill="#223A70" stroke="#223A70" stroke-miterlimit="10"/>
    <path d="M82.5787 104.37C83.2578 104.707 83.8521 105.045 84.4463 105.382C85.5499 106.142 85.7197 107.071 84.9557 108.168C84.6161 108.59 84.3614 109.096 84.1067 109.518C85.0406 110.362 85.2103 111.629 84.6161 112.641C84.5312 112.81 84.1916 112.895 84.0218 112.979C83.9369 112.726 83.7672 112.473 83.7672 112.304C83.7672 112.051 83.9369 111.713 84.0218 111.46C84.1067 110.953 84.1067 110.531 83.5125 110.447C82.9182 110.278 82.9182 109.94 83.2578 109.518C83.5974 109.096 83.937 108.59 84.1916 108.168C84.9557 106.986 84.5312 105.973 83.2578 105.636C82.9182 105.551 82.5787 105.467 82.324 105.382C81.7297 105.214 81.6448 104.876 81.8995 104.37C81.9844 104.201 82.1542 104.032 82.2391 103.863C82.8333 102.344 82.6635 101.753 81.3053 100.74C81.1355 100.656 80.9657 100.571 80.8808 100.487C80.7959 100.318 80.7959 100.065 80.7959 99.8115C80.9657 99.8115 81.2204 99.8115 81.3902 99.8959C81.8995 100.318 82.4089 100.824 82.9182 101.246C83.7672 101.922 83.4276 102.766 83.088 103.525C82.9182 103.61 82.7484 103.947 82.5787 104.37Z" fill="#223A70" stroke="#223A70" stroke-miterlimit="10"/>
    <path d="M95.0579 122.602C94.8032 122.433 94.4636 122.18 94.2089 122.011C93.9543 122.433 93.6996 122.77 93.5298 123.192C93.5298 123.277 93.7845 123.614 94.0392 123.699C94.3787 123.699 94.8881 123.108 95.0579 122.602Z" fill="#223A70" stroke="#223A70" stroke-miterlimit="10"/>
    <path d="M74.2591 215.619C73.7498 217.561 72.3915 218.995 71.8821 220.852C71.4576 219.671 73.1555 215.788 74.2591 215.619Z" fill="#223A70" stroke="#223A70" stroke-miterlimit="10"/>
    <path d="M81.0503 190.803C81.305 189.621 81.4748 188.44 81.7294 187.258C81.8143 187.005 82.069 186.836 82.2388 186.667C82.3237 186.92 82.4935 187.173 82.4935 187.427C82.4935 187.68 82.4086 188.018 82.4086 188.355C82.2388 189.284 81.9841 190.297 81.7294 191.225C81.6445 191.394 81.4748 191.647 81.305 191.816C81.2201 191.563 81.1352 191.309 81.0503 191.141C81.1352 190.887 81.1352 190.803 81.0503 190.803C81.1352 190.803 81.1352 190.803 81.0503 190.803Z" fill="#223A70"/>
    <path d="M81.0503 190.803C81.305 189.621 81.4748 188.44 81.7294 187.258C81.8143 187.005 82.069 186.836 82.2388 186.667C82.3237 186.92 82.4935 187.173 82.4935 187.427C82.4935 187.68 82.4086 188.018 82.4086 188.355C82.2388 189.284 81.9841 190.297 81.7294 191.225C81.6445 191.394 81.4748 191.647 81.305 191.816C81.2201 191.563 81.1352 191.309 81.0503 191.141C81.1352 190.887 81.1352 190.803 81.0503 190.803ZM81.0503 190.803C81.1352 190.803 81.1352 190.803 81.0503 190.803Z" stroke="#223A70" stroke-miterlimit="10"/>
    <path d="M80.0317 179.492C80.1166 178.479 80.2015 177.551 80.3712 176.538C80.3712 176.285 80.7108 176.116 80.8806 175.947C80.9655 176.116 81.1353 176.369 81.2202 176.538C81.3051 176.791 81.2202 177.129 81.1353 177.382C80.9655 178.395 80.7957 179.492 80.541 180.505C80.541 180.674 80.3712 180.843 80.2863 180.927C80.2015 180.758 79.9468 180.59 79.9468 180.421C79.9468 180.168 80.0317 179.83 80.0317 179.492Z" fill="#223A70" stroke="#223A70" stroke-miterlimit="10"/>
    <path d="M82.5786 206.756C82.1542 205.152 82.5786 203.717 83.2578 202.283C83.3427 202.114 83.6822 202.114 83.852 202.029C83.852 202.198 83.852 202.451 83.852 202.62C83.5974 203.802 83.3427 204.899 83.088 206.081C83.0031 206.334 82.9182 206.587 82.8333 206.841C82.7484 206.841 82.6635 206.841 82.5786 206.756Z" fill="#223A70" stroke="#223A70" stroke-miterlimit="10"/>
    <path d="M80.371 211.483C80.1163 213.002 80.2012 214.606 79.607 216.125C79.5221 216.125 79.4372 216.125 79.3523 216.21C79.2674 215.956 79.0127 215.619 79.0127 215.45C79.2674 214.268 79.5221 213.087 79.8616 211.905C79.8616 211.736 80.0314 211.567 80.1163 211.398C80.2012 211.483 80.2861 211.483 80.371 211.483Z" fill="#223A70" stroke="#223A70" stroke-miterlimit="10"/>
    <path d="M80.1167 199.835C79.862 200.426 79.6922 201.017 79.5224 201.523C79.2677 202.198 79.098 202.958 78.9282 203.633C78.8433 203.802 78.6735 203.971 78.5037 204.14C78.4188 203.886 78.1641 203.633 78.249 203.464C78.5037 202.367 78.8433 201.354 79.1828 200.257C79.2677 200.004 79.6073 199.835 79.7771 199.666C79.862 199.666 80.0318 199.75 80.1167 199.835Z" fill="#223A70" stroke="#223A70" stroke-miterlimit="10"/>
    <path d="M85.3799 185.232C85.7195 183.797 85.9741 182.362 86.3986 180.927C86.4835 180.759 86.7382 180.674 86.9929 180.59C86.908 182.278 86.3137 183.797 85.8043 185.401C85.6346 185.317 85.5497 185.317 85.3799 185.232Z" fill="#223A70" stroke="#223A70" stroke-miterlimit="10"/>
    <path d="M95.0578 122.602C94.9729 123.192 94.3787 123.783 93.9542 123.699C93.7844 123.699 93.4448 123.277 93.4448 123.192C93.6146 122.77 93.8693 122.348 94.124 122.011C94.4635 122.18 94.7182 122.348 95.0578 122.602Z" fill="#223A70" stroke="#223A70" stroke-miterlimit="10"/>
    <path d="M297 170.687C296.178 170.753 295.494 170.613 294.948 170.132C294.47 169.788 294.403 169.377 294.61 168.829C294.887 168.077 295.232 167.393 295.508 166.641C295.716 166.162 295.717 165.82 295.032 165.749C294.553 165.679 294.074 165.54 293.871 164.991C293.735 164.648 293.736 164.374 293.874 164.032C294.013 163.622 294.288 163.212 294.563 162.871C294.701 162.734 294.907 162.598 294.771 162.392C294.703 162.186 294.429 162.185 294.292 162.185C293.333 162.181 292.512 161.836 291.83 161.08C291.012 160.118 291.155 158.543 292.184 157.862C292.528 157.658 292.528 157.453 292.324 157.109C292.12 156.835 291.915 156.491 291.642 156.216C291.165 155.598 291.099 154.982 291.444 154.367C291.72 153.82 292.2 153.547 292.885 153.618C293.159 153.619 293.228 153.483 293.228 153.277C293.233 152.044 293.306 150.88 293.379 149.648C293.38 149.374 293.243 149.373 293.106 149.236C291.875 148.752 291.539 147.039 292.501 146.152C293.051 145.674 292.984 145.263 292.712 144.714C292.372 144.028 292.032 143.41 291.76 142.724C291.081 141.215 291.221 140.462 292.661 139.851C293.759 139.376 294.309 138.761 294.108 137.528C293.973 137.048 294.181 136.364 294.32 135.748C294.737 134.106 295.765 133.835 297.134 134.114C297.681 134.253 297.887 134.186 298.026 133.57C298.165 133.022 298.441 132.544 298.717 131.997C299.061 131.382 299.541 131.247 300.157 131.386C300.773 131.594 301.389 131.733 302.004 131.94C302.346 132.079 302.621 131.943 302.759 131.669C303.173 130.917 303.859 130.509 304.545 130.169C305.3 129.761 305.847 129.9 306.462 130.381C307.487 131.139 307.487 131.139 308.243 130.251C308.381 130.114 308.518 129.978 308.656 129.773C309.618 128.818 310.303 128.82 311.121 129.851C311.667 130.469 312.487 130.883 312.552 131.91C312.551 132.184 312.825 132.117 313.031 131.981C314.061 131.437 314.95 131.782 315.769 132.539C316.247 132.951 316.796 132.611 317.275 132.75C317.48 132.819 317.754 132.751 317.96 132.752C318.508 132.754 318.781 132.96 318.847 133.509C318.913 134.194 319.05 134.263 319.531 133.922C320.767 133.036 321.999 133.109 323.16 134.141C323.296 134.278 323.501 134.416 323.637 134.622C324.252 135.104 324.8 135.106 325.486 134.834C326.172 134.563 326.787 134.907 326.99 135.662C327.125 136.073 327.192 136.553 327.053 137.032C326.914 137.51 327.119 137.648 327.53 137.718C328.489 137.79 329.446 138.205 330.335 138.55C330.951 138.758 331.018 139.169 330.948 139.648C330.877 140.196 330.533 140.743 330.189 141.152C329.982 141.426 329.981 141.631 330.392 141.701C331.145 141.841 331.828 142.323 332.512 142.736C333.331 143.287 333.668 144.795 333.117 145.752C332.91 146.094 332.909 146.299 333.182 146.574C333.524 146.918 333.727 147.466 333.862 147.946C333.997 148.495 334.064 149.111 333.446 149.452C333.034 149.655 333.102 149.861 333.443 150.136C333.853 150.48 334.331 150.825 334.603 151.305C335.012 151.991 335.009 152.676 334.528 153.291C334.252 153.632 333.909 153.905 333.839 154.316C333.769 154.726 334.316 154.865 334.452 155.277C334.52 155.483 334.656 155.62 334.792 155.826C335.406 156.719 335.335 157.335 334.51 158.017C334.373 158.153 334.236 158.29 334.03 158.426C333.686 158.63 333.617 158.904 333.89 159.247C334.094 159.59 334.161 160.002 334.091 160.344C334.021 160.823 333.951 161.234 333.881 161.713C333.602 163.082 333.052 163.627 331.613 163.622C331.203 163.621 330.997 163.757 331.132 164.168C331.199 164.58 331.061 164.921 330.649 165.057C330.238 165.261 329.894 165.602 329.414 165.669C329.072 165.736 329.071 165.942 329.344 166.148C329.754 166.492 329.889 166.903 329.408 167.381C328.927 167.859 328.719 168.611 327.965 168.746C327.759 168.813 327.896 168.951 327.964 169.088C328.439 170.117 328.301 170.459 327.204 170.661C326.862 170.728 326.861 170.865 326.86 171.139C326.859 171.55 326.858 171.892 326.719 172.303C326.235 173.465 325.824 173.669 324.592 173.459C324.181 173.389 323.771 173.182 323.36 173.249C322.88 173.316 322.946 173.933 322.808 174.274C322.532 174.89 321.983 175.162 321.366 175.365C321.091 175.433 320.886 175.5 321.021 175.843C321.359 177.077 321.149 178.378 321.282 179.611C321.615 182.215 321.468 184.817 321.527 187.42C321.522 188.858 321.448 190.296 321.58 191.666C321.579 192.009 321.509 192.351 321.508 192.693C321.293 195.158 320.942 197.691 320.796 200.156C320.721 201.8 320.578 203.443 320.572 205.087C320.567 206.593 320.63 208.1 320.898 209.608C321.032 210.431 321.441 211.117 322.124 211.599C322.67 212.012 323.011 212.561 323.351 213.11C323.487 213.316 323.624 213.522 323.417 213.727C323.211 213.863 323.006 213.931 322.801 213.793C322.048 213.516 321.295 213.582 320.542 213.442C320.2 213.373 320.062 213.509 320.061 213.92C320.058 214.742 320.26 215.564 320.326 216.387C320.324 216.866 320.118 217.071 319.708 216.864C318.682 216.244 317.519 215.965 316.425 215.413C316.083 215.275 315.878 215.274 315.671 215.616C315.258 216.231 314.64 216.708 314.295 217.392C314.088 217.802 313.678 217.595 313.474 217.252C313.064 216.771 312.655 216.29 312.383 215.673C312.18 215.261 311.906 215.123 311.358 215.258C310.123 215.664 308.958 216.003 307.724 216.409C307.449 216.477 307.244 216.544 307.039 216.27C306.835 215.995 307.041 215.79 307.178 215.654C307.66 215.039 308.21 214.425 308.692 213.81C309.793 212.444 310.141 210.802 310.284 209.09C310.501 206.146 310.717 203.201 310.522 200.256C310.329 196.762 310.411 193.201 310.013 189.706C309.814 187.857 309.821 185.939 309.554 184.089C309.286 182.307 309.087 180.457 308.82 178.675C308.686 177.921 308.62 177.168 308.623 176.414C308.625 175.798 308.147 175.522 307.805 175.247C307.669 175.11 307.462 175.314 307.325 175.382C306.982 175.655 306.571 175.722 306.16 175.584C305.271 175.375 304.45 174.961 303.905 174.274C303.428 173.656 302.948 173.723 302.262 173.994C301.85 174.198 301.37 174.402 300.823 174.263C299.728 173.985 299.252 173.093 298.776 172.201C298.64 171.926 298.504 171.583 298.437 171.241C297.959 170.759 297.618 170.484 297 170.687ZM294.157 161.568C295.048 161.503 295.116 161.571 295.045 162.256C295.045 162.324 295.044 162.461 295.044 162.461C295.454 162.874 295.042 163.146 294.835 163.42C294.56 163.761 294.216 164.102 294.352 164.582C294.486 165.199 295.103 165.133 295.513 165.271C295.582 165.271 295.65 165.272 295.719 165.272C296.267 165.274 296.471 165.48 296.333 166.028C296.263 166.301 296.194 166.507 296.056 166.78C295.78 167.395 295.503 168.011 295.227 168.626C294.882 169.31 295.086 169.722 295.839 169.93C296.386 170.069 297.002 170.139 297.551 169.936C298.443 169.597 298.442 169.734 298.507 170.624C298.572 171.72 298.98 172.544 299.73 173.368C300.003 173.712 300.345 173.85 300.756 173.852C301.372 173.785 302.058 173.651 302.607 173.173C302.951 172.832 303.156 172.97 303.361 173.245C303.838 173.863 304.384 174.413 304.999 174.757C305.819 175.24 306.298 175.242 306.78 174.695C307.398 174.081 307.467 174.082 307.944 174.768C308.285 175.18 308.626 175.661 309.173 175.731C310.679 176.011 311.982 175.399 312.672 174.032C312.88 173.553 313.085 173.554 313.426 173.966C313.767 174.378 314.108 174.722 314.449 175.134C314.79 175.478 315.201 175.548 315.544 175.275C316.094 174.798 316.712 174.389 316.989 173.637C317.127 173.295 317.333 173.159 317.675 173.365C318.563 173.985 319.382 174.673 320.547 174.609C321.094 174.611 321.506 174.544 321.85 174.134C322.125 173.793 322.332 173.314 322.334 172.834C322.404 172.218 322.542 172.15 323.089 172.358C323.705 172.565 324.32 172.773 324.937 172.775C325.211 172.776 325.485 172.64 325.691 172.367C326.036 171.821 326.038 171.273 325.971 170.725C325.972 170.451 325.494 170.243 325.769 169.833C326.045 169.423 326.385 169.904 326.728 169.837L326.797 169.837C327.207 169.907 327.208 169.77 327.14 169.427C327.004 169.153 326.869 168.81 326.596 168.604C326.391 168.397 326.392 168.192 326.529 167.987C326.598 167.85 326.804 167.714 327.009 167.783C327.693 168.06 328.037 167.719 328.381 167.24C328.725 166.831 328.726 166.488 328.248 166.281C327.838 166.074 327.634 165.662 327.155 165.524C326.949 165.454 326.882 165.18 327.088 165.044C327.637 164.704 327.776 164.088 327.984 163.54C328.122 163.13 328.398 162.652 328.057 162.376C327.715 162.101 327.58 161.621 327.101 161.414C326.828 161.276 326.829 161.002 327.035 160.797C327.241 160.593 327.447 160.593 327.651 160.8C327.856 161.006 328.13 161.144 328.334 161.35C328.743 161.831 329.084 162.312 328.876 163.064C328.668 163.748 328.392 164.364 328.184 165.048C328.115 165.185 328.046 165.321 328.182 165.459C328.319 165.596 328.456 165.528 328.593 165.46C328.936 165.256 329.28 165.052 329.691 164.916C330.309 164.576 330.446 164.371 330.243 163.686C330.176 163.48 329.971 163.342 330.177 163.138C330.383 163.001 330.588 163.071 330.793 163.14C331.546 163.279 332.231 163.213 332.781 162.668C333.331 162.122 333.339 159.93 332.862 159.38C332.385 158.762 332.453 158.831 333.071 158.422C334.307 157.536 334.72 156.922 333.629 155.685C333.356 155.341 333.014 155.066 332.673 154.791C332.332 154.516 332.47 154.242 332.744 154.175C333.429 154.04 333.637 153.425 333.913 152.946C334.051 152.604 334.189 152.194 333.848 151.85C333.439 151.301 332.824 150.888 332.278 150.475C332.141 150.337 331.867 150.405 331.8 150.13C331.801 149.788 332.075 149.72 332.281 149.653C332.761 149.381 333.173 149.04 333.039 148.423C332.904 147.806 332.564 147.257 332.017 146.912C331.538 146.636 331.539 146.431 331.951 146.159C332.569 145.681 332.711 144.449 332.165 143.899C331.414 143.143 330.526 142.66 329.498 142.657C328.95 142.655 328.882 142.586 329.09 142.039C329.366 141.423 329.642 140.876 329.918 140.261C330.125 139.782 330.126 139.44 329.511 139.232C328.69 138.955 327.801 138.61 326.91 138.606C326.089 138.603 325.953 138.329 326.093 137.507C326.163 137.097 326.232 136.755 326.165 136.343C326.098 135.932 325.894 135.658 325.345 135.793C324.934 135.928 324.455 135.926 323.975 135.993C323.632 135.992 323.359 135.922 323.154 135.648C322.133 134.069 320.901 133.79 319.39 134.949C318.978 135.221 319.388 135.497 319.456 135.703C319.592 135.977 319.798 135.772 319.935 135.636C320.142 135.363 320.416 135.295 320.759 135.228C320.964 135.16 321.238 135.161 321.237 135.504C321.305 135.778 321.372 136.052 321.029 136.119C320.55 136.186 320.206 136.527 319.862 136.868C319.656 137.073 319.313 137.14 319.178 136.797C318.906 136.248 318.84 135.495 318.225 135.15C318.225 135.15 318.225 135.082 318.225 135.013C318.094 133.574 318.026 133.437 316.792 133.775C315.969 133.978 315.627 133.908 315.081 133.221C314.536 132.534 313.645 132.599 312.89 133.144C312.478 133.485 312.067 133.415 312 133.004C311.867 131.976 311.184 131.358 310.57 130.67C309.957 129.915 309.682 129.982 308.995 130.665C308.582 131.143 308.238 131.621 307.894 132.099C307.619 132.509 307.344 132.576 307.003 132.164C306.869 131.479 306.527 131.272 306.186 130.928C305.708 130.516 305.229 130.514 304.68 130.786C304.062 131.126 303.581 131.604 303.305 132.288C303.097 132.766 302.891 132.971 302.276 132.695C301.592 132.418 300.907 132.279 300.155 132.071C299.744 132.001 299.401 132.136 299.263 132.547C298.918 133.162 298.642 133.846 298.639 134.531C298.637 135.01 298.432 135.078 297.953 134.939C297.542 134.801 297.132 134.731 296.721 134.661C295.968 134.59 295.281 134.998 295.005 135.75C294.728 136.434 294.589 137.119 294.723 137.872C294.789 138.421 294.788 138.9 294.717 139.448C294.648 139.721 294.647 139.858 294.305 139.926C293.688 140.06 293.07 140.332 292.589 140.741C291.764 141.56 291.764 141.697 292.239 142.863C292.647 143.755 293.329 144.511 293.737 145.403C293.873 145.677 293.94 145.951 293.871 146.225C293.87 146.431 293.528 146.292 293.391 146.36C292.636 146.632 292.291 147.521 292.699 148.207C293.108 148.825 294.065 149.171 294.82 148.831C295.163 148.695 295.506 148.56 295.78 148.561C296.464 148.769 296.397 148.289 296.398 147.947C296.399 147.81 296.4 147.604 296.4 147.467C296.472 146.509 296.953 146.099 297.912 146.034C298.46 146.036 298.939 146.175 299.487 146.246C299.966 146.384 300.24 146.248 300.31 145.769C300.59 144.263 302.166 143.927 303.192 144.341C303.466 144.479 303.534 144.411 303.672 144.206C304.429 143.182 304.703 143.114 305.935 143.461C306.414 143.6 306.481 143.942 306.548 144.285C306.548 144.422 306.616 144.559 306.478 144.696C306.341 144.764 306.136 144.763 305.999 144.626C305.862 144.557 305.794 144.419 305.726 144.351C305.248 143.938 304.563 144.072 304.287 144.619C304.218 144.756 304.149 144.961 304.08 145.098C303.803 145.713 303.598 145.713 303.12 145.3C302.437 144.75 301.752 144.816 301.202 145.498C300.926 145.84 300.925 146.251 300.855 146.662C300.785 147.004 300.578 147.414 300.168 147.138C299.485 146.725 298.8 146.791 298.115 146.72C297.43 146.718 297.224 146.922 297.222 147.607C297.22 148.087 297.218 148.634 297.148 149.114C297.146 149.525 296.872 149.661 296.598 149.454C295.847 148.972 295.229 149.312 294.543 149.652C294.131 149.856 293.994 150.061 293.992 150.472C293.988 151.568 293.984 152.664 294.186 153.76C294.252 154.24 294.115 154.445 293.636 154.306C293.499 154.306 293.362 154.237 293.293 154.236C292.883 154.166 292.472 154.233 292.196 154.643C291.921 155.053 291.919 155.533 292.26 155.876C292.669 156.357 293.01 156.906 293.625 157.251C293.967 157.389 293.829 157.731 293.828 157.937C293.758 158.279 293.553 158.278 293.347 158.277C292.731 158.275 292.251 158.479 291.975 159.026C291.698 159.641 291.765 160.258 292.242 160.876C292.856 161.632 293.609 161.703 294.157 161.568ZM321.982 212.968C321.777 212.693 321.573 212.419 321.3 212.212C320.276 211.318 319.869 210.152 319.805 208.851C319.744 206.933 319.477 205.014 319.758 203.097C320.037 201.523 319.701 199.878 319.981 198.304C320.051 197.893 320.121 197.414 320.191 196.935C320.264 195.771 320.405 194.607 320.478 193.443C320.621 191.731 320.696 190.019 320.702 188.307C320.643 185.841 320.788 183.445 320.523 180.978C320.324 179.265 320.33 177.553 320.062 175.908C319.995 175.565 319.859 175.291 319.448 175.221C319.243 175.22 319.038 175.083 318.901 175.014C317.466 174.323 317.466 174.323 316.434 175.553C315.677 176.44 314.718 176.505 313.899 175.612C313.763 175.406 313.558 175.268 313.353 175.062C313.217 174.856 313.012 174.787 312.874 175.06C312.117 176.085 310.951 176.423 309.787 176.556C308.896 176.689 308.896 176.689 308.961 177.58C308.961 177.648 308.96 177.785 309.028 177.854C309.16 179.224 309.566 180.596 309.63 181.966C309.758 184.295 310.298 186.557 310.358 188.954C310.353 190.324 310.622 191.626 310.617 192.996C310.604 196.421 311.071 199.847 310.853 203.339C310.708 205.599 310.905 207.791 310.623 210.05C310.411 211.967 309.788 213.677 308.413 215.042C308.276 215.178 308.001 215.314 308.068 215.725C309.234 215.387 310.4 215.049 311.497 214.642C311.908 214.507 312.045 214.507 312.25 214.85C312.59 215.399 312.93 215.949 313.339 216.498C313.476 216.704 313.612 216.841 313.819 216.568C314.232 215.885 314.919 215.408 315.264 214.724C315.47 214.314 315.744 214.315 316.154 214.591C316.974 215.21 318 215.556 318.957 215.971C319.094 216.04 319.368 216.041 319.301 215.766C319.098 214.944 319.238 214.122 319.104 213.3C319.037 213.026 319.037 212.889 319.243 212.684C319.449 212.548 319.655 212.549 319.86 212.618C320.407 212.962 321.16 212.965 321.982 212.968Z" fill="#223A70" stroke="#223A70" stroke-miterlimit="10"/>
    <path d="M321.19 148.517C321.191 148.311 321.123 148.105 321.192 147.9C321.469 147.011 320.376 146.185 319.553 146.524C319.142 146.66 318.73 146.932 318.387 147.136C318.043 147.409 317.701 147.339 317.566 146.86L317.566 146.791C317.023 145.488 316.612 145.418 315.513 146.304C315.445 146.372 315.376 146.509 315.238 146.577C315.101 146.645 314.964 146.576 314.828 146.507C314.691 146.438 314.76 146.301 314.829 146.165C315.036 145.617 316.683 144.733 317.23 144.941C317.572 145.079 317.777 145.422 317.913 145.696C318.116 146.314 318.527 146.247 319.007 146.043C319.556 145.771 320.173 145.705 320.788 145.912C321.746 146.19 322.017 146.944 322.014 147.835C322.012 148.314 322.08 148.52 322.628 148.522C323.313 148.524 324.066 148.732 324.75 148.872C325.024 148.941 325.229 149.079 325.296 149.353C325.363 149.696 325.499 150.039 325.566 150.45C325.633 150.793 325.496 150.929 325.222 150.997C324.948 150.996 324.674 150.858 324.744 150.516C324.952 149.763 324.611 149.556 323.926 149.417C323.242 149.277 322.626 149.138 321.94 149.41C321.529 149.545 321.324 149.407 321.325 148.928C321.189 148.79 321.189 148.653 321.19 148.517Z" fill="#223A70" stroke="#223A70" stroke-miterlimit="10"/>
    <path d="M313.12 182.869C313.05 183.142 313.322 183.623 312.911 183.621C312.432 183.688 312.571 183.141 312.503 182.866C312.437 182.318 312.37 181.702 312.304 181.154C312.305 180.88 312.306 180.537 312.649 180.538C312.991 180.54 312.99 180.814 312.989 181.088C313.055 181.704 313.053 182.321 313.12 182.869Z" fill="#223A70" stroke="#223A70" stroke-miterlimit="10"/>
    <path d="M316.212 180.072C316.213 179.661 316.215 179.319 316.148 178.907C316.08 178.633 316.15 178.359 316.424 178.36C316.698 178.293 316.765 178.567 316.833 178.773C316.899 179.458 316.759 180.211 316.894 180.896C316.962 181.102 316.824 181.307 316.55 181.374C316.276 181.373 316.276 181.168 316.209 180.962C316.278 180.689 316.279 180.415 316.212 180.072Z" fill="#223A70" stroke="#223A70" stroke-miterlimit="10"/>
    <path d="M312.465 193.414C312.466 193.072 312.33 192.797 312.468 192.524C312.537 192.387 312.606 192.25 312.811 192.319C312.948 192.32 313.016 192.457 313.015 192.594C313.081 193.416 313.146 194.307 313.349 195.13C313.417 195.267 313.347 195.472 313.142 195.471C312.936 195.47 312.868 195.402 312.8 195.196C312.597 194.647 312.462 194.03 312.465 193.414Z" fill="#223A70" stroke="#223A70" stroke-miterlimit="10"/>
    <path d="M313.57 209.581C313.504 209.033 313.437 208.553 313.37 208.005C313.371 207.8 313.304 207.525 313.578 207.458C313.852 207.39 313.851 207.733 313.919 207.87C314.053 208.624 314.187 209.309 314.253 210.063C314.252 210.269 314.183 210.474 313.909 210.473C313.704 210.472 313.499 210.403 313.5 210.129C313.5 209.992 313.501 209.786 313.57 209.581C313.57 209.581 313.502 209.581 313.57 209.581Z" fill="#223A70"/>
    <path d="M313.57 209.581C313.504 209.033 313.437 208.553 313.37 208.005C313.371 207.8 313.304 207.525 313.578 207.458C313.852 207.39 313.851 207.733 313.919 207.87C314.053 208.624 314.187 209.309 314.253 210.063C314.252 210.269 314.183 210.474 313.909 210.473C313.704 210.472 313.499 210.403 313.5 210.129C313.5 209.992 313.501 209.786 313.57 209.581ZM313.57 209.581C313.502 209.581 313.57 209.581 313.57 209.581Z" stroke="#223A70" stroke-miterlimit="10"/>
    <path d="M316.713 192.95C316.711 193.292 316.71 193.703 316.64 194.046C316.64 194.251 316.433 194.456 316.228 194.386C315.954 194.317 315.887 194.111 315.956 193.906C316.095 193.222 316.098 192.537 316.032 191.92C316.032 191.715 315.965 191.509 316.239 191.51C316.513 191.442 316.58 191.717 316.58 191.854C316.647 192.196 316.646 192.539 316.713 192.95Z" fill="#223A70" stroke="#223A70" stroke-miterlimit="10"/>
    <path d="M315.162 186.301C315.163 185.958 315.096 185.547 315.234 185.205C315.303 185.068 315.304 184.863 315.509 184.864C315.715 184.864 315.714 185.07 315.782 185.207C315.849 185.755 315.846 186.372 315.913 186.92C315.912 187.194 315.843 187.33 315.569 187.329C315.295 187.328 315.159 187.191 315.16 186.917C315.16 186.712 315.161 186.506 315.162 186.301Z" fill="#223A70" stroke="#223A70" stroke-miterlimit="10"/>
    <path d="M318.168 188.366C318.237 188.024 318.17 187.613 318.377 187.203C318.446 187.066 318.584 186.861 318.789 186.999C318.994 187.068 318.925 187.273 318.856 187.41C318.717 187.957 318.715 188.505 318.987 189.054C319.123 189.26 318.986 189.465 318.78 189.533C318.574 189.6 318.369 189.463 318.301 189.257C318.234 188.983 318.235 188.709 318.168 188.366Z" fill="#223A70" stroke="#223A70" stroke-miterlimit="10"/>
    <path d="M315.244 201.3C315.175 201.505 315.243 201.643 315.31 201.848C315.378 202.122 315.24 202.327 314.966 202.395C314.692 202.462 314.487 202.256 314.557 201.914C314.627 201.435 314.629 200.887 314.562 200.407C314.563 200.202 314.564 199.928 314.906 199.929C315.18 199.93 315.179 200.204 315.179 200.409C315.177 200.752 315.245 201.026 315.244 201.3Z" fill="#223A70" stroke="#223A70" stroke-miterlimit="10"/>
    <path d="M317.16 201.718C317.299 201.171 317.438 200.555 317.646 199.871C317.647 199.734 317.784 199.666 317.921 199.735C318.057 199.804 318.126 199.873 318.125 200.009C318.054 200.626 317.983 201.31 317.844 201.926C317.844 202.063 317.706 202.337 317.432 202.336C317.158 202.266 317.09 202.06 317.16 201.718Z" fill="#223A70" stroke="#223A70" stroke-miterlimit="10"/>
    <path d="M315.699 207.945C315.769 207.672 315.564 207.328 315.566 206.986C315.566 206.781 315.567 206.644 315.772 206.644C315.978 206.645 316.115 206.714 316.114 206.92C316.249 207.399 316.384 207.948 316.451 208.428C316.518 208.633 316.449 208.838 316.244 208.838C315.97 208.905 315.765 208.767 315.697 208.493C315.629 208.356 315.698 208.219 315.699 207.945Z" fill="#223A70" stroke="#223A70" stroke-miterlimit="10"/>
    <path opacity="0.2" d="M265.989 151.481C265.989 151.264 265.773 151.264 265.773 151.156C265.125 150.181 264.261 149.423 263.396 148.557C261.02 146.065 258.752 143.466 256.267 141.083C254.107 139.025 252.163 136.75 250.11 134.475C246.87 131.009 243.413 127.652 240.389 123.969C236.284 118.986 231.532 114.437 227.103 109.671C224.835 107.18 222.35 105.013 220.082 102.63C217.922 100.464 216.085 98.0812 214.033 96.0232C210.36 92.3404 207.228 88.2244 203.771 84.4333C203.123 83.6751 202.583 83.5668 201.827 84.325C201.719 84.4333 201.611 84.5416 201.503 84.65C199.991 86.383 198.479 88.2244 196.75 89.7408C194.59 91.7988 192.646 93.9652 190.702 96.2398C189.297 97.8645 187.569 99.1643 185.949 100.789C183.789 102.955 181.412 105.013 179.252 107.288C177.74 108.913 176.011 110.213 174.391 111.621C171.907 113.787 169.638 115.953 167.262 118.12C164.562 120.503 162.077 123.102 159.485 125.702C157.109 127.976 154.84 130.468 152.572 132.742C150.087 135.234 147.711 137.725 145.443 140.324C144.579 141.299 144.039 142.491 143.066 143.357C141.122 145.199 139.178 147.148 137.45 149.423C136.801 150.181 136.369 151.156 135.505 151.698C135.181 151.914 135.289 152.239 135.505 152.564C135.937 152.997 136.369 153.322 136.693 153.647C138.854 155.38 141.122 156.897 143.39 158.63C143.931 159.063 144.255 158.955 144.579 158.63C146.523 156.897 148.359 154.947 149.979 152.997C152.788 149.531 155.38 145.957 158.297 142.599C161.753 138.591 165.102 134.367 168.99 130.793C171.367 128.518 173.527 126.027 175.795 123.752C178.388 121.153 180.98 118.445 183.572 115.737C186.057 113.137 188.433 110.321 190.918 107.721C192.862 105.555 195.13 103.714 196.75 101.222C196.966 100.897 197.291 100.572 197.615 100.356C198.911 99.9225 199.991 99.1643 200.855 98.1895C201.287 97.6479 201.611 97.6479 202.043 98.1895C203.123 99.5976 204.42 100.789 205.716 101.981C208.092 104.039 210.144 106.422 212.305 108.696C214.897 111.296 217.598 113.895 220.082 116.712C222.026 118.878 224.079 120.719 225.807 122.994C226.239 123.535 226.671 124.185 227.211 124.51C228.399 125.269 229.371 126.352 230.127 127.435C230.451 127.976 230.776 128.41 231.208 128.843C234.664 131.984 237.581 135.775 241.253 138.7C242.657 139.783 243.629 141.299 245.034 142.491C246.654 143.791 248.166 145.199 249.57 146.715C250.867 148.123 252.595 149.206 253.891 150.506C255.619 152.239 257.672 153.756 259.508 155.489C259.94 155.922 260.588 156.355 261.236 155.814C262.64 154.622 264.044 153.322 265.449 152.131C265.773 151.914 265.989 151.806 265.989 151.481Z" fill="#2655BD"/>
    <path d="M235.636 117.036C235.636 114.003 235.636 111.187 235.312 108.371C234.772 102.847 234.448 97.2143 234.448 91.6902C234.448 90.8236 234.34 90.607 233.476 90.932C232.396 91.3652 231.208 91.3652 230.235 90.4987C229.371 89.6322 228.831 88.4407 229.371 87.1409C229.587 86.491 229.371 86.2744 228.831 86.0577C227.103 85.2995 225.915 83.9997 225.375 82.1583C224.943 80.5336 225.915 79.1255 227.535 79.0172H227.643C228.399 78.9089 229.371 79.1255 229.911 78.6922C230.451 78.259 229.803 77.3924 229.803 76.6342C229.695 74.2513 231.532 71.0018 234.556 71.8683C234.88 71.9766 234.988 71.76 234.88 71.5433C234.88 71.2184 234.88 70.8934 234.88 70.5685C234.664 68.9438 235.42 67.8606 236.392 66.7774C237.04 66.0192 237.905 65.9109 238.877 66.1275C240.173 66.3442 241.037 67.2107 242.117 67.8606C242.657 68.2939 242.981 68.0772 243.197 67.5356C243.521 66.8857 243.737 66.2359 244.169 65.586C245.25 64.1778 246.87 64.2862 247.95 65.3693C248.49 65.9109 249.03 66.5608 249.462 67.1024C249.786 67.4273 250.002 67.5356 250.542 67.319C253.135 66.0192 254.431 66.8857 255.619 69.4853C255.835 69.9186 255.943 70.0269 256.375 70.0269C257.996 70.0269 259.4 70.4602 260.048 72.0849C260.804 73.9263 260.804 75.7677 259.184 77.2841C258.644 77.8257 258.428 78.1506 259.076 78.8005C260.156 79.7754 259.94 82.5916 258.752 83.5664C256.915 85.0829 254.971 86.491 252.487 85.9494C251.19 85.6245 250.758 86.166 250.326 87.1409C249.786 88.224 248.706 88.8739 247.734 89.6322C247.194 89.9571 246.546 90.1737 246.006 89.8488C245.25 89.5238 245.142 89.8488 245.142 90.4987C245.034 93.2066 245.034 95.9145 245.142 98.6224C245.25 100.572 245.25 102.522 245.25 104.471C245.142 108.696 245.574 112.812 245.466 117.036C245.358 119.961 245.466 122.777 245.574 125.701C245.574 126.46 246.006 127.218 245.466 127.976C245.25 128.193 245.682 128.409 245.79 128.626C248.49 131.334 250.974 134.15 253.567 136.858C256.051 139.458 258.752 141.841 261.128 144.548C263.072 146.823 265.233 148.881 267.285 150.939C267.825 151.481 268.041 151.806 267.285 152.456C265.773 153.755 264.044 154.839 262.64 156.247C262.1 156.897 261.56 157.33 260.588 157.438C259.832 157.546 259.508 157.33 259.184 156.897C256.807 154.08 253.891 151.806 251.082 149.314C250.974 149.206 250.866 148.989 250.65 149.098C250.434 149.206 250.542 149.423 250.542 149.639C250.65 151.589 250.974 153.647 250.974 155.597C250.866 159.171 251.19 162.637 250.866 166.212C250.758 167.187 250.974 168.27 250.974 169.353C251.082 172.277 250.758 175.094 251.19 178.018C251.623 181.268 251.082 184.409 251.19 187.658C251.299 190.583 250.974 193.616 251.082 196.54C251.082 198.598 251.299 200.765 251.407 202.823C251.407 206.18 251.299 209.538 251.407 212.896C251.515 216.254 251.407 219.612 252.163 222.969C252.271 223.619 252.379 224.594 251.839 225.352C251.623 225.677 251.299 225.894 250.974 225.786C248.814 225.352 246.654 225.569 244.493 226.002C242.333 226.436 240.173 226.436 238.013 226.652C233.908 227.085 229.803 227.194 225.699 227.627C223.646 227.844 221.486 227.844 219.326 227.844C217.705 227.844 215.977 228.06 214.357 228.06C211.873 228.06 209.496 227.844 207.012 227.735C203.987 227.627 200.963 227.952 198.047 228.385C196.966 228.494 195.886 228.277 194.806 228.385C192.862 228.602 190.917 228.385 188.973 228.494C186.705 228.71 184.437 228.71 182.168 228.927C179.684 229.143 177.091 228.819 174.607 228.71C170.286 228.71 165.858 228.169 161.537 228.385C157.865 228.602 154.192 228.277 150.627 228.06C149.979 228.06 149.871 227.627 149.871 227.085C149.871 224.161 149.979 221.345 149.979 218.42C149.979 216.037 149.979 213.654 149.763 211.271C149.655 209.863 149.763 208.455 149.763 207.047C149.763 204.772 149.871 202.389 149.871 200.115C149.871 196.432 149.979 192.749 149.871 189.175C149.655 184.084 149.547 178.885 149.331 173.794C149.223 170.869 149.007 167.836 149.223 164.912C149.331 162.204 148.899 159.604 148.791 156.788C147.711 157.763 146.631 158.63 145.659 159.496C144.363 160.579 144.471 160.579 143.174 159.388C142.31 158.521 141.446 157.763 140.366 157.113C138.53 155.922 137.233 154.189 135.505 152.889C135.181 152.672 134.749 152.456 134.425 152.131C133.777 151.589 133.885 150.939 134.641 150.723C135.289 150.506 135.721 150.181 136.045 149.639C137.882 146.823 140.474 144.657 142.634 142.166C144.363 140.216 146.091 138.158 147.927 136.208C151.06 132.742 154.624 129.601 157.757 126.135C160.673 123.102 163.697 120.177 166.722 117.253C169.53 114.545 172.447 111.945 175.363 109.346C177.523 107.504 179.576 105.338 181.628 103.388C184.22 100.789 187.029 98.4058 189.621 95.8062C191.782 93.6399 193.726 91.3652 195.67 89.0906C197.831 86.7076 199.991 84.3247 202.151 81.9417C202.475 81.5084 202.907 81.1835 203.339 80.8585C203.555 80.6419 203.879 80.7502 204.095 80.8585C204.42 80.9669 204.203 81.1835 204.095 81.4001C203.987 81.9417 204.203 82.375 204.528 82.6999C205.392 83.9997 206.472 85.1912 207.444 86.3827C208.416 87.6825 209.604 88.8739 210.576 90.1737C211.225 91.0403 212.089 91.7985 212.845 92.665C215.221 95.1563 217.597 97.6476 219.866 100.247C221.81 102.522 224.294 104.363 226.239 106.529C227.967 108.479 229.911 110.321 231.532 112.27C232.504 114.328 234.124 115.52 235.636 117.036ZM206.472 227.194C208.092 227.194 209.604 227.194 211.225 227.194C211.765 227.194 211.981 227.085 211.981 226.544C212.305 223.619 212.413 220.803 212.305 217.879C212.305 214.737 212.197 211.596 212.629 208.455C213.169 204.122 213.169 199.79 213.277 195.457C213.385 192.424 213.493 189.283 213.925 186.25C214.141 184.517 214.681 182.784 214.897 180.943C215.221 178.235 216.085 175.635 217.381 173.252C218.786 170.653 221.378 170.436 223.754 169.678C223.862 169.678 223.97 169.678 224.078 169.678C225.267 170.328 226.671 170.436 227.643 171.303C230.343 173.469 231.64 176.393 232.396 179.643C232.828 181.376 232.612 183.217 232.936 185.059C233.26 187.333 233.584 189.716 233.368 191.991C233.152 194.591 233.368 197.19 233.26 199.681C233.152 202.281 233.26 204.881 233.26 207.48C233.152 211.163 233.044 214.846 233.26 218.528C233.476 220.803 233.584 222.969 233.584 225.244C233.584 225.677 233.8 225.894 234.232 225.786C234.988 225.677 235.636 225.677 236.392 225.569C239.201 225.352 242.009 225.244 244.71 224.594C245.79 224.378 246.87 224.161 247.95 224.269C248.814 224.378 249.57 224.161 250.434 224.053C250.758 224.053 250.974 223.944 250.866 223.403C250.542 221.128 250.326 218.853 250.326 216.579C250.326 208.997 250.218 201.306 250.11 193.724C250.002 189.608 250.218 185.492 250.11 181.376C250.002 176.393 249.786 171.519 249.786 166.537C249.786 162.637 249.894 158.738 249.786 154.73C249.786 152.456 249.246 150.181 249.462 147.906C249.462 147.581 249.246 147.365 249.03 147.04C247.842 145.848 246.546 144.765 245.358 143.574C242.549 140.649 239.525 138.05 236.716 135.233C234.664 133.067 232.396 131.117 230.451 128.843C228.183 126.243 225.699 123.643 223.322 121.044C219.11 116.495 214.789 111.945 210.468 107.504C207.66 104.688 204.744 101.872 201.827 99.164C201.395 98.839 201.179 98.839 200.855 99.0557C199.559 100.139 198.263 101.114 196.966 102.197C194.806 104.038 193.186 106.313 191.134 108.263C189.297 110.104 187.677 112.162 185.841 114.112C184.869 115.195 183.788 116.278 182.708 117.361C180.656 119.419 178.82 121.694 176.659 123.643C173.635 126.568 170.935 129.709 167.91 132.634C164.67 135.775 161.969 139.458 158.837 142.815C156.892 144.873 155.488 147.473 153.544 149.531C152.356 150.831 151.492 152.456 150.303 153.864C149.547 154.73 148.683 155.272 149.007 156.897C149.331 158.521 149.439 160.146 149.547 161.771C149.655 166.32 149.763 170.869 149.871 175.419C149.871 178.56 149.979 181.593 150.087 184.734C150.195 187.767 150.303 190.8 150.411 193.832C150.519 196.974 150.735 200.115 150.303 203.364C150.195 203.906 150.411 204.556 150.519 205.097C150.627 205.639 150.627 206.072 150.519 206.505C150.195 207.697 150.303 208.888 150.411 210.08C150.627 213.113 150.411 216.146 150.627 219.178C150.735 221.345 150.735 223.511 150.735 225.677C150.735 226.436 151.168 226.869 151.924 226.869C153.652 226.977 155.272 227.194 157 227.194C162.617 226.977 168.234 227.41 173.851 227.519C177.091 227.627 180.332 227.844 183.68 227.519C185.625 227.302 187.569 227.194 189.621 227.194C192.538 227.302 195.454 227.085 198.371 226.977C200.855 227.194 203.663 226.869 206.472 227.194ZM265.989 151.481C265.989 151.264 265.773 151.264 265.773 151.156C265.125 150.181 264.26 149.423 263.396 148.556C261.02 146.065 258.752 143.465 256.267 141.082C254.107 139.024 252.163 136.75 250.11 134.475C246.87 131.009 243.413 127.651 240.389 123.968C236.284 118.986 231.532 114.437 227.103 109.671C224.835 107.179 222.35 105.013 220.082 102.63C217.922 100.464 216.085 98.0808 214.033 96.0228C210.36 92.3401 207.228 88.224 203.771 84.433C203.123 83.6748 202.583 83.5664 201.827 84.3247C201.719 84.433 201.611 84.5413 201.503 84.6496C199.991 86.3827 198.479 88.224 196.75 89.7405C194.59 91.7985 192.646 93.9648 190.701 96.2394C189.297 97.8642 187.569 99.164 185.949 100.789C183.788 102.955 181.412 105.013 179.252 107.288C177.74 108.912 176.011 110.212 174.391 111.62C171.907 113.787 169.638 115.953 167.262 118.119C164.562 120.502 162.077 123.102 159.485 125.701C157.108 127.976 154.84 130.467 152.572 132.742C150.087 135.233 147.711 137.725 145.443 140.324C144.579 141.299 144.038 142.49 143.066 143.357C141.122 145.198 139.178 147.148 137.45 149.423C136.801 150.181 136.369 151.156 135.505 151.697C135.181 151.914 135.289 152.239 135.505 152.564C135.937 152.997 136.369 153.322 136.693 153.647C138.854 155.38 141.122 156.897 143.39 158.63C143.93 159.063 144.255 158.955 144.579 158.63C146.523 156.897 148.359 154.947 149.979 152.997C152.788 149.531 155.38 145.957 158.297 142.599C161.753 138.591 165.102 134.367 168.99 130.792C171.367 128.518 173.527 126.026 175.795 123.752C178.388 121.152 180.98 118.444 183.572 115.736C186.057 113.137 188.433 110.321 190.917 107.721C192.862 105.555 195.13 103.713 196.75 101.222C196.966 100.897 197.29 100.572 197.614 100.355C198.911 99.9222 199.991 99.164 200.855 98.1891C201.287 97.6476 201.611 97.6476 202.043 98.1891C203.123 99.5973 204.42 100.789 205.716 101.98C208.092 104.038 210.144 106.421 212.305 108.696C214.897 111.295 217.597 113.895 220.082 116.711C222.026 118.878 224.078 120.719 225.807 122.994C226.239 123.535 226.671 124.185 227.211 124.51C228.399 125.268 229.371 126.351 230.127 127.435C230.451 127.976 230.775 128.409 231.208 128.843C234.664 131.984 237.58 135.775 241.253 138.699C242.657 139.783 243.629 141.299 245.034 142.49C246.654 143.79 248.166 145.198 249.57 146.715C250.866 148.123 252.595 149.206 253.891 150.506C255.619 152.239 257.671 153.755 259.508 155.488C259.94 155.922 260.588 156.355 261.236 155.813C262.64 154.622 264.044 153.322 265.449 152.131C265.773 151.914 265.989 151.806 265.989 151.481ZM232.612 226.111C232.288 225.569 232.18 225.136 232.18 224.594C232.18 217.879 232.072 211.163 232.072 204.447C232.18 197.84 232.396 191.233 231.748 184.625C231.316 180.509 230.883 176.502 227.967 173.252C226.455 171.519 224.294 170.544 222.134 171.303C221.054 171.628 219.866 171.736 219.11 172.711C217.705 174.66 216.625 176.827 216.085 179.101C215.221 182.567 214.681 186.142 214.357 189.716C214.033 193.074 214.141 196.432 214.033 199.79C213.925 202.389 214.033 204.881 213.709 207.48C213.493 209.647 213.169 211.813 213.277 214.088C213.385 215.604 212.953 217.229 213.061 218.745C213.385 221.345 213.169 223.836 212.845 226.327C212.737 227.302 213.061 227.302 213.709 227.302C216.517 227.194 219.434 227.085 222.242 227.085C225.915 226.869 229.155 226.002 232.612 226.111ZM253.459 84.9746C255.079 84.9746 257.347 83.8914 258.212 82.8082C258.536 82.375 258.752 81.9417 258.752 81.4001C258.968 80.1003 258.104 79.4504 257.239 78.8005C256.483 78.1506 256.375 78.0423 257.239 77.3924C257.347 77.2841 257.563 77.1758 257.779 77.0675C259.4 75.9843 259.832 74.5762 259.184 72.7348C258.644 71.435 256.267 70.4602 255.079 71.3267C254.755 71.5433 254.431 71.5433 254.107 71.3267C253.783 71.1101 253.891 70.7851 254.107 70.5685C254.647 69.8103 254.215 69.2687 253.783 68.7271C253.243 68.0772 252.487 67.4273 251.623 67.8606C250.866 68.1855 249.786 68.2939 250.002 69.702C250.11 70.0269 249.786 70.6768 249.354 70.5685C249.03 70.5685 248.706 70.2436 248.706 69.702C248.706 69.2687 248.598 68.8354 248.706 68.4022C248.922 67.644 248.058 67.1024 247.518 66.6691C246.438 65.586 245.142 65.8026 244.493 67.2107C244.169 67.9689 243.737 68.6188 243.521 69.377C243.305 70.0269 242.981 69.9186 242.657 69.4853C242.009 68.5105 241.037 68.0772 240.065 67.644C239.201 67.319 238.121 66.8857 237.256 67.644C236.176 68.6188 235.636 69.9186 236.068 71.435C236.176 71.9766 236.284 72.4099 236.5 72.9515C236.608 73.493 236.068 73.7097 236.068 74.1429C236.068 74.2513 235.744 74.0346 235.528 73.818C233.476 72.1932 231.64 72.8431 231.099 75.4427C230.883 76.5259 230.991 77.5007 231.532 78.4756C231.856 79.0172 231.64 79.5587 231.532 79.992C231.424 80.2086 230.883 79.8837 230.559 79.7754C229.371 79.6671 228.183 79.7754 226.995 80.2086C226.671 80.317 226.347 80.6419 226.347 81.0752C226.347 83.0249 228.507 85.4078 230.559 84.8662C231.099 84.7579 231.64 84.6496 231.856 85.2995C232.072 85.8411 231.748 86.2744 231.099 86.491C230.235 86.9243 230.127 87.7908 230.343 88.549C230.559 89.3072 230.991 90.0654 231.964 90.1737C232.72 90.2821 234.232 89.7405 234.34 89.1989C234.556 88.3324 235.096 88.4407 235.636 88.549C237.688 88.8739 239.741 88.7656 241.793 88.4407C242.981 88.224 244.061 88.549 245.25 88.224C245.574 88.1157 245.682 88.3324 245.898 88.549C246.222 88.8739 246.762 88.9823 247.194 88.7656C248.706 87.7908 250.11 86.8159 250.002 84.7579C250.002 84.433 250.218 84.2163 250.434 83.9997C250.65 83.7831 250.866 83.8914 251.082 84.108C251.731 84.8662 252.595 84.9746 253.459 84.9746ZM243.953 95.9145C243.953 94.0731 243.953 92.1234 243.953 90.2821C243.953 89.9571 244.061 89.6322 243.521 89.5238C241.037 89.4155 238.661 90.0654 236.176 89.9571C235.744 89.9571 235.528 90.1737 235.636 90.607C235.744 91.6902 235.744 92.7733 235.636 93.8565C235.528 97.5392 235.852 101.33 236.176 105.013C236.5 109.021 236.716 113.028 236.608 117.036C236.608 117.794 236.824 118.336 237.256 118.878C238.337 120.286 239.633 121.585 240.713 122.994C241.685 124.185 242.765 125.268 243.737 126.46C243.845 126.568 243.953 126.893 244.277 126.785C244.493 126.676 244.385 126.351 244.385 126.135C244.277 124.185 244.385 122.235 244.385 120.286C244.277 112.162 244.061 104.038 243.953 95.9145Z" fill="#223A70" stroke="#223A70" stroke-width="0.75" stroke-miterlimit="10"/>
    <path d="M279.167 64.3948C279.059 64.3948 278.843 64.3948 278.627 64.2865C277.979 64.0698 277.547 64.2865 277.222 64.8281C276.142 66.5611 273.766 66.1278 272.686 65.2613C271.714 64.5031 271.066 63.4199 270.85 62.2285C270.742 61.6869 270.633 61.5786 270.093 61.6869C268.797 62.1201 267.501 62.1201 266.205 62.0118C264.801 61.9035 264.153 60.9287 263.828 59.3039C263.396 57.5709 263.72 57.1376 265.341 56.2711C265.773 56.0544 266.421 55.9461 265.557 55.2962C263.396 53.6715 263.288 50.2054 265.449 48.4723C265.881 48.1474 266.097 47.4975 266.745 47.2808C267.393 47.0642 268.041 47.0642 268.581 47.6058C269.229 48.1474 269.445 47.8224 269.553 47.0642C269.661 46.1977 269.985 45.3311 270.309 44.5729C271.066 43.0565 272.686 42.5149 274.09 43.4898C275.278 44.248 276.358 45.2228 276.79 46.6309C277.006 47.1725 277.331 46.9559 277.655 46.8476C278.303 46.5226 278.951 46.1977 279.599 45.981C280.571 45.6561 281.435 46.0893 281.651 47.0642C281.975 48.039 282.191 49.1222 281.543 50.097C281.219 50.6386 281.435 50.8553 281.975 51.0719C283.163 51.5052 284.244 52.1551 284.784 53.4548C284.892 53.6715 285 53.8881 285 54.1047C284.46 55.7295 284.244 57.4625 282.515 58.4374C282.299 58.5457 281.975 58.654 282.083 58.979C282.407 59.7372 282.083 60.4954 282.083 61.3619C282.191 63.095 280.895 64.3948 279.167 64.3948ZM267.933 56.1628C268.041 56.3794 268.041 56.921 267.501 56.8126C266.853 56.7043 266.421 57.1376 265.989 57.2459C265.233 57.5709 264.477 58.0041 264.693 58.979C264.801 60.0621 265.881 61.037 266.745 61.1453C268.473 61.2536 270.201 61.3619 271.282 59.4122C271.39 59.1956 271.606 58.979 271.93 59.0873C272.146 59.1956 272.146 59.5206 272.038 59.7372C271.39 61.1453 272.038 62.4451 272.686 63.6366C273.226 64.6114 274.198 64.7197 275.062 64.8281C275.926 64.8281 276.25 64.0698 276.574 63.4199C276.898 62.77 276.574 62.2285 276.466 61.5786C276.358 61.037 276.466 60.6037 277.006 60.4954C277.547 60.3871 277.547 60.9287 277.763 61.2536C277.871 61.4702 277.871 61.6869 277.979 61.9035C278.303 63.095 279.491 63.4199 280.463 62.5534C281.543 61.5786 281.651 59.7372 280.787 58.5457C280.571 58.2208 279.923 57.8958 280.247 57.4625C280.571 56.921 281.111 57.2459 281.543 57.4625C281.651 57.4625 281.759 57.4625 281.867 57.4625C282.839 57.4625 284.568 54.538 284.136 53.6715C283.595 52.5883 281.759 51.6135 280.679 51.8301C280.139 51.9384 279.599 51.9384 279.491 51.3968C279.275 50.8553 279.923 50.6386 280.247 50.422C281.003 49.8804 281.435 48.5806 281.111 47.7141C280.895 47.0642 280.463 46.9559 279.923 47.1725C279.059 47.4975 278.303 47.8224 277.547 48.4723C277.33 48.6889 277.114 49.0139 276.682 48.7972C276.358 48.5806 276.358 48.2557 276.358 47.9307C276.358 46.0893 275.278 45.1145 273.874 44.3563C272.902 43.8147 271.93 44.3563 271.606 45.3311C271.174 46.4143 271.174 47.4975 270.85 48.5806C270.525 49.8804 270.417 49.7721 269.337 49.1222C268.797 48.6889 268.041 47.9307 267.285 48.5806C266.205 49.4471 265.341 50.5303 265.233 52.1551C265.233 53.8881 266.421 54.538 267.609 55.1879C267.717 55.5129 268.149 55.5129 267.933 56.1628Z" fill="#223A70" stroke="#223A70" stroke-width="0.75" stroke-miterlimit="10"/>
    <path d="M181.412 154.297C181.412 152.239 181.52 150.072 181.412 148.014C181.304 145.956 181.412 143.898 181.628 141.84C181.736 140.649 181.736 139.457 181.52 138.374C181.304 137.616 181.628 136.966 181.628 136.316C181.628 135.883 182.168 135.775 182.492 135.775C185.301 135.775 188.001 135.666 190.809 135.341C191.89 135.233 192.97 135.341 194.05 135.233C194.59 135.233 195.13 135.233 195.778 134.908C196.318 134.583 196.966 135.125 197.614 135.233C200.639 135.341 203.555 135.341 206.58 135.341C207.768 135.341 209.064 135.341 210.252 135.558C211.116 135.775 211.224 136.1 210.792 136.858C210.684 136.966 210.684 137.075 210.684 137.183C211.116 140.757 210.792 144.332 210.792 147.906C210.792 149.856 211.224 151.806 211.332 153.755C211.332 154.297 211.765 154.73 211.657 155.488C211.548 156.03 211.548 156.03 211.116 156.03C206.796 156.247 202.583 156.138 198.263 156.571C197.29 156.68 196.21 156.571 195.238 156.571C191.457 156.571 187.677 156.896 183.788 157.113C183.572 157.113 183.248 157.113 183.032 157.221C182.276 157.438 182.06 157.005 181.952 156.355C181.844 155.705 181.952 155.055 181.952 154.405C181.628 154.297 181.52 154.297 181.412 154.297ZM196.426 155.272C195.454 154.73 195.67 153.972 195.67 153.214C195.562 151.589 195.562 149.856 195.454 148.231C195.346 146.281 195.346 146.281 193.402 146.281C193.078 146.281 192.862 146.281 192.538 146.281C189.405 146.281 186.273 146.823 183.032 146.498C182.276 146.39 182.168 146.606 182.168 147.256C182.384 149.856 182.708 152.455 182.924 154.947C182.924 155.488 183.248 155.597 183.68 155.597C184.977 155.597 186.273 155.597 187.569 155.597C190.593 155.922 193.402 155.38 196.426 155.272ZM196.858 155.272C198.587 155.705 200.207 155.38 201.827 155.272C204.203 155.055 206.58 154.947 208.956 154.73C209.604 154.73 209.928 154.513 209.928 153.647C209.928 151.589 209.604 149.423 209.604 147.365C209.604 145.74 209.388 145.632 207.768 145.632C204.311 145.523 200.855 146.498 197.29 146.173C196.75 146.065 196.534 146.39 196.534 146.931C196.426 148.448 196.75 149.964 196.75 151.589C196.75 152.239 196.642 152.889 196.858 153.43C197.182 154.08 197.182 154.622 196.858 155.272ZM195.562 142.49C195.67 140.649 195.346 138.808 195.346 136.966C195.346 136.208 195.022 136.208 194.482 136.1C192.106 135.991 189.729 136.425 187.353 136.533C185.949 136.641 184.652 136.75 183.248 136.858C182.708 136.858 182.492 137.075 182.6 137.724C182.708 138.266 182.708 138.808 182.6 139.457C182.384 141.515 182.276 143.465 182.06 145.523C182.06 145.74 182.276 146.173 182.384 145.848C182.816 144.873 183.68 145.307 184.22 145.307C187.137 145.74 190.053 145.198 192.97 145.307C193.726 145.307 194.698 145.415 195.238 145.09C195.778 144.657 195.454 143.574 195.454 142.815C195.562 142.707 195.562 142.599 195.562 142.49ZM206.688 144.44C206.688 144.44 206.688 144.548 206.688 144.44C207.228 144.44 207.876 144.44 208.416 144.44C209.28 144.44 209.496 143.898 209.496 143.14C209.388 141.299 209.604 139.457 209.28 137.616C209.172 137.075 208.956 136.641 208.308 136.533C207.228 136.316 206.148 136.425 205.068 136.425C202.367 136.316 199.667 136.208 197.074 135.991C196.642 135.991 196.534 136.208 196.318 136.533C195.994 137.183 196.426 137.616 196.426 138.158C196.318 140.216 196.858 142.274 196.318 144.44C196.21 144.657 196.102 145.198 196.642 145.09C197.83 144.873 199.127 145.198 200.315 145.09C202.475 144.873 204.527 144.657 206.688 144.44Z" fill="#223A70" stroke="#223A70" stroke-width="0.75" stroke-miterlimit="10"/>
    <path d="M166.722 196.865C166.722 193.291 166.29 189.717 165.75 186.142C165.642 185.492 165.858 184.842 165.642 184.084C165.534 183.759 165.75 183.434 166.29 183.434C170.178 183.109 174.175 182.784 178.064 182.568C181.844 182.351 185.625 182.351 189.405 182.243C189.837 182.243 190.269 182.134 190.701 182.026C191.674 181.809 192.106 182.134 192.106 183.109C191.89 186.9 192.43 190.583 192.322 194.374C192.322 195.782 192.646 197.19 192.754 198.598C192.754 199.573 192.862 200.548 192.97 201.523C192.97 201.956 192.862 202.065 192.43 201.956C189.837 201.848 187.245 201.956 184.653 201.956C181.52 202.065 178.28 201.848 175.147 201.956C172.663 201.956 170.286 201.956 167.802 202.065C166.938 202.065 166.614 201.848 166.614 200.981C166.722 199.682 166.722 198.274 166.722 196.865ZM175.795 200.981C176.983 201.09 178.172 201.09 179.36 201.09C179.9 201.09 180.008 200.873 179.9 200.44C179.792 198.273 179.684 196.107 179.468 193.833C179.468 193.074 179.036 192.641 178.172 192.858C177.632 192.966 177.091 193.074 176.551 193.074C173.851 193.074 171.151 193.183 168.45 192.749C168.018 192.641 167.586 192.533 167.586 193.183C167.37 195.132 167.694 197.082 167.586 199.032C167.586 199.573 167.586 200.44 168.342 200.765C168.882 200.981 169.53 200.981 170.07 200.981C171.907 200.981 173.851 200.981 175.795 200.981ZM168.666 184.409V184.301C168.234 184.301 167.694 184.301 167.262 184.301C166.938 184.301 166.722 184.409 166.83 184.842C167.154 186.684 167.262 188.633 167.37 190.475C167.37 191.016 167.694 191.45 168.342 191.558C171.691 192.424 175.039 192.099 178.496 191.991C179.36 191.991 179.468 191.558 179.468 190.8C179.468 188.633 179.036 186.467 179.36 184.301C179.36 183.976 179.252 183.867 178.928 183.867C177.632 183.759 176.335 183.759 175.039 183.867C172.879 184.084 170.719 184.301 168.666 184.409ZM185.409 192.641C184.004 192.641 182.6 192.641 181.196 192.641C180.548 192.641 180.44 192.858 180.44 193.508C180.548 194.374 180.548 195.241 180.548 196.107C180.656 196.974 180.656 197.949 180.98 198.815C181.196 199.465 181.412 200.007 181.196 200.656C181.088 200.981 181.196 201.09 181.628 201.09C184.545 200.981 187.353 200.765 190.269 201.09C190.593 201.09 190.918 201.09 191.242 201.09C191.674 201.09 191.89 200.873 191.782 200.44C191.35 198.273 191.458 195.999 191.458 193.833C191.458 193.183 191.134 192.966 190.593 192.858C188.757 192.533 187.137 192.533 185.409 192.641ZM180.332 188.958C180.332 189.608 180.332 190.366 180.332 191.016C180.332 191.558 180.44 191.666 180.98 191.666C182.06 191.666 183.032 191.558 184.113 191.558C185.517 191.45 186.921 191.775 188.325 191.45C189.081 191.233 189.945 191.125 190.701 191.45C191.35 191.666 191.35 191.558 191.35 191.016C191.35 188.742 190.918 186.467 190.918 184.084C190.918 183.651 190.701 183.434 190.269 183.434C187.137 183.326 184.004 183.542 180.872 183.651C180.332 183.651 180.224 184.084 180.116 184.517C179.792 185.925 180.332 187.442 180.332 188.958Z" fill="#223A70" stroke="#223A70" stroke-width="0.75" stroke-miterlimit="10"/>
    <path d="M226.671 199.248C226.455 199.248 226.239 199.248 226.131 199.248C225.051 199.14 224.079 198.815 223.646 197.84C223.322 196.757 223.538 195.674 224.187 194.699C224.727 193.941 226.023 193.724 226.995 194.266C227.859 194.699 228.291 195.674 228.075 196.649C227.967 197.299 227.535 197.84 227.751 198.707C227.967 199.248 227.211 199.357 226.671 199.248ZM224.619 196.757C224.619 197.732 224.943 198.057 225.807 198.057C226.131 198.057 227.103 196.865 227.103 196.324C227.103 195.565 226.779 195.241 226.023 195.132C225.267 195.132 224.619 195.89 224.619 196.757Z" fill="#223A70" stroke="#223A70" stroke-width="0.75" stroke-miterlimit="10"/>
    <path d="M375 203.899C341.753 217.142 292.148 228.816 210.998 243.481C115.271 260.782 59.9151 258.268 0 303.284" stroke="#223A70" stroke-width="2"/>
</svg>
