<svg width="960" height="855" viewBox="0 0 960 855" fill="none" xmlns="http://www.w3.org/2000/svg">
<rect width="960" height="855" fill="#FAFAFA"/>
<circle opacity="0.02" cx="480.5" cy="427.5" r="403" fill="#282E33" stroke="#282E33"/>
<circle opacity="0.02" cx="480.5" cy="427.5" r="338" fill="#282E33" stroke="#282E33"/>
<circle opacity="0.02" cx="480.5" cy="427.5" r="253" fill="#282E33" stroke="#282E33"/>
<path d="M115.429 260.184C117.085 260.184 118.741 260.232 119.989 260.28C120.205 260.28 120.349 260.184 120.349 259.872C120.373 259.56 120.373 258.336 120.349 258.024C120.349 257.688 120.325 257.544 120.085 257.544C118.669 257.64 117.277 257.688 115.405 257.688H104.629C103.237 257.688 101.893 257.688 100.549 257.568C100.549 258.288 100.621 259.2 100.741 259.872C100.765 260.184 100.837 260.352 101.053 260.328C102.277 260.256 103.453 260.184 104.653 260.184H109.213C109.117 262.464 108.877 263.76 107.989 265.344C106.981 267.168 105.565 268.344 103.213 269.616C104.053 269.928 104.869 270.408 105.349 270.888C105.517 271.056 105.685 271.128 105.853 271.128C106.069 271.128 106.309 271.008 106.573 270.84C108.109 269.928 109.837 268.176 110.797 266.304C111.733 264.48 112.069 262.872 112.213 260.184H115.429ZM112.837 254.616C114.157 254.616 115.573 254.64 116.869 254.688C117.133 254.688 117.181 254.568 117.181 254.232C117.229 253.656 117.229 253.056 117.181 252.48C117.181 252.168 117.133 252.024 116.893 252.024C115.693 252.096 114.181 252.12 112.837 252.12H107.461C106.381 252.12 105.157 252.096 103.477 252C103.549 252.864 103.573 253.728 103.645 254.304C103.669 254.592 103.741 254.712 104.053 254.712C105.397 254.664 106.357 254.616 107.461 254.616H112.837ZM134.509 254.664C134.797 254.232 135.037 253.872 135.301 253.464C135.493 253.224 135.661 252.96 135.901 252.816C136.093 252.696 136.165 252.552 136.165 252.408C136.165 252.264 136.093 252.12 135.925 252C135.397 251.616 134.485 251.208 133.117 250.728C132.853 251.88 132.493 252.624 131.701 253.968C130.213 256.32 128.365 258.552 125.245 261.096C126.061 261.264 126.949 261.696 127.549 262.128C127.669 262.224 127.789 262.272 127.909 262.272C128.077 262.272 128.245 262.176 128.413 262.008C129.781 260.88 130.981 259.512 132.949 257.088L138.757 256.92C137.317 259.992 136.213 261.624 134.317 263.736C131.965 266.28 130.069 267.792 126.325 269.856C127.261 270.12 128.005 270.48 128.605 270.96C128.797 271.128 128.965 271.224 129.157 271.224C129.277 271.224 129.397 271.2 129.541 271.104C131.917 269.784 134.773 267.456 136.837 265.128C138.445 263.304 139.981 260.976 141.589 257.712C141.805 257.28 142.045 256.944 142.381 256.68C142.549 256.536 142.669 256.368 142.669 256.176C142.669 256.008 142.573 255.816 142.357 255.624C141.877 255.168 141.325 254.712 140.725 254.328C140.581 254.232 140.461 254.184 140.341 254.184C140.221 254.184 140.125 254.208 140.029 254.28C139.765 254.448 139.453 254.544 138.829 254.568L134.509 254.664ZM159.971 251.688C159.803 253.08 159.563 253.656 159.107 254.832C158.051 257.376 156.707 259.728 155.147 261.744C153.203 264.288 150.779 266.592 147.395 268.704C148.283 269.016 149.099 269.496 149.675 269.928C149.843 270.072 150.011 270.144 150.179 270.144C150.347 270.144 150.515 270.072 150.683 269.952C153.251 268.296 155.699 265.872 157.739 263.208C159.227 261.312 161.027 258.24 162.179 255.6C162.563 254.784 162.779 254.4 163.211 253.968C163.307 253.824 163.379 253.704 163.379 253.56C163.379 253.416 163.283 253.272 163.091 253.152C162.203 252.6 161.099 252.12 159.971 251.688ZM185.195 267.192V268.464C185.195 268.8 185.219 268.848 185.507 268.848C186.227 268.872 186.995 268.872 187.715 268.848C188.051 268.848 188.171 268.776 188.171 268.44C188.123 267.144 188.051 265.968 188.051 263.88V258.144C188.051 256.728 188.075 255.432 188.075 254.256C188.099 253.896 188.027 253.776 187.763 253.776C186.635 253.824 184.811 253.824 183.251 253.824H177.539C175.931 253.824 174.515 253.824 173.243 253.752C173.075 253.752 172.979 253.848 172.979 254.088C173.051 255.48 173.027 256.776 173.027 258.072V263.952C173.027 265.776 172.979 267.48 172.955 268.728C172.931 269.016 173.051 269.064 173.459 269.088C174.059 269.112 174.755 269.112 175.355 269.088C175.787 269.064 175.883 269.016 175.883 268.608V267.192H185.195ZM185.195 264.648H175.859V256.368H185.195V264.648ZM194.915 259.8C196.667 260.496 198.227 261.288 199.763 262.416C199.883 262.512 199.955 262.56 200.051 262.56C200.147 262.56 200.243 262.464 200.363 262.32C200.747 261.768 201.155 261.144 201.419 260.496C201.467 260.4 201.515 260.304 201.515 260.232C201.515 260.088 201.419 259.992 201.251 259.872C199.883 258.888 198.443 258.12 196.643 257.52C196.427 257.472 196.307 257.592 196.187 257.76C195.899 258.144 195.515 258.84 194.915 259.8ZM197.819 254.16C199.355 254.856 201.227 256.08 202.475 257.112C202.595 257.208 202.715 257.28 202.835 257.28C202.907 257.28 203.003 257.256 203.075 257.136C203.483 256.704 203.963 255.936 204.299 255.336C204.371 255.216 204.395 255.12 204.395 255.024C204.395 254.928 204.347 254.808 204.203 254.712C202.883 253.56 201.227 252.672 199.691 252.048C199.403 251.904 199.259 251.952 199.091 252.24C198.683 252.864 198.227 253.536 197.819 254.16ZM196.811 267.84C197.435 268.848 198.083 269.784 198.587 270.288C198.731 270.48 198.899 270.576 199.067 270.576C199.187 270.576 199.307 270.528 199.451 270.384C199.691 270.144 200.267 269.88 200.843 269.568C203.699 268.008 205.931 266.64 208.019 265.056C210.371 263.232 211.883 261.912 214.115 259.512C214.307 259.32 214.379 259.152 214.379 258.96C214.379 258.816 214.331 258.672 214.259 258.504C213.899 257.472 213.707 256.872 213.563 255.816C211.139 258.744 208.571 261.048 206.651 262.512C204.323 264.336 202.355 265.464 200.075 266.664C198.659 267.384 197.819 267.648 196.811 267.84ZM208.811 252.384C209.747 253.152 210.515 254.064 211.235 255.168C211.355 255.336 211.475 255.36 211.643 255.24L212.651 254.496C212.819 254.376 212.819 254.256 212.723 254.112C212.051 253.08 211.187 252.12 210.443 251.544C210.299 251.424 210.203 251.4 210.083 251.496L208.811 252.384ZM211.019 250.8C212.003 251.616 212.771 252.528 213.419 253.56C213.515 253.704 213.635 253.776 213.827 253.632L214.787 252.888C214.979 252.744 214.955 252.6 214.859 252.456C214.331 251.616 213.467 250.656 212.579 249.984C212.435 249.864 212.363 249.84 212.219 249.936L211.019 250.8ZM232.139 262.584C233.915 262.584 235.691 262.608 237.491 262.632C237.827 262.656 237.923 262.56 237.923 262.272C237.971 261.552 237.971 260.736 237.923 260.016C237.923 259.728 237.851 259.656 237.491 259.68C235.643 259.704 233.795 259.752 231.971 259.752H224.243C221.819 259.752 220.619 259.704 219.059 259.464C219.155 260.688 219.299 261.816 219.419 262.368C219.491 262.728 219.683 262.872 219.971 262.872C220.211 262.872 221.123 262.584 223.499 262.584H232.139Z" fill="#282E33"/>
<path opacity="0.2" d="M230.414 150.042C229.537 150.042 228.879 150.042 228.002 150.262C226.248 150.922 225.59 150.262 224.932 148.722C223.397 144.983 221.862 141.244 218.353 138.825C217.695 138.385 217.695 137.505 218.133 137.065C219.888 134.866 220.326 131.567 222.519 129.587C223.835 128.267 223.835 127.168 222.081 126.068C219.011 124.088 219.011 124.088 217.256 127.388C216.379 128.707 215.721 130.027 215.94 131.787C216.16 132.666 216.16 133.326 215.282 133.546C214.405 133.986 213.747 133.546 213.089 132.886C212.431 132.007 211.773 131.347 210.677 130.907C207.387 129.367 203.878 128.047 200.15 128.047C198.396 128.047 197.519 127.608 197.299 125.628C197.08 123.209 196.203 121.009 195.326 118.81C194.887 117.49 193.79 116.39 192.475 117.05C190.939 117.93 188.089 116.61 188.308 120.129C188.308 122.769 188.966 125.188 189.185 127.608C189.185 128.707 190.282 130.027 190.062 130.907C189.404 132.446 188.089 130.247 187.211 131.127C186.992 131.347 186.553 131.347 186.115 131.347C183.483 132.886 180.632 133.766 178.878 136.405C178 137.725 177.343 137.505 176.465 136.405C175.15 134.866 174.711 132.886 173.176 131.347C170.983 129.147 169.886 129.147 167.474 130.907C166.597 131.567 166.377 132.226 167.255 133.106C169.009 134.646 170.325 136.625 172.299 137.945C173.614 138.825 173.614 139.925 172.737 140.804C169.009 144.763 168.351 149.602 168.351 154.661C168.351 155.101 168.351 155.761 168.351 156.2C168.79 158.62 167.912 159.28 165.719 158.4C164.184 157.96 162.649 157.96 161.114 158.18C160.017 158.18 159.579 158.62 159.579 159.72C159.14 164.998 161.114 166.758 166.158 165.438C167.474 164.998 168.132 165.218 169.228 166.538C172.299 169.837 174.492 174.236 179.097 175.995C181.071 176.655 180.413 178.195 179.536 179.515C178.439 181.054 177.343 182.374 176.246 183.913C173.395 187.653 173.395 187.653 177.781 189.632C179.316 190.292 180.413 190.292 181.071 188.532C181.729 186.773 182.606 185.233 183.264 183.474C183.483 182.814 183.922 182.154 184.799 182.814C188.527 185.673 192.913 185.013 196.861 184.793C199.712 184.573 200.15 185.673 200.37 187.872C200.589 189.632 200.589 191.612 200.808 193.371C201.247 195.571 203.001 194.911 204.317 194.911C205.194 194.911 206.949 195.351 206.729 193.371C206.51 191.172 206.51 188.972 206.072 186.993C205.633 185.453 206.729 184.353 207.387 184.353C211.335 184.133 213.528 181.494 215.721 178.635C216.379 177.755 217.037 177.535 217.695 178.635C218.791 180.174 220.107 181.494 221.204 182.814C224.274 185.893 224.493 185.893 227.563 183.474C229.318 182.154 229.537 181.054 228.221 179.295C226.467 177.095 224.712 174.676 222.958 172.476C222.3 171.597 221.642 170.497 222.958 169.837C224.274 169.177 224.274 167.858 224.712 166.758C225.59 164.118 225.59 161.479 225.809 158.62C225.809 157.08 226.248 156.2 228.221 156.64C229.757 157.08 231.511 157.08 233.265 157.08C234.801 157.3 235.458 156.64 235.458 154.881C235.239 149.822 235.239 149.602 230.414 150.042ZM217.475 168.517C217.037 169.397 216.598 170.277 215.282 169.837H215.063C210.896 173.356 205.852 177.975 194.448 176.875C188.308 176.215 183.922 173.136 180.194 168.517C178.439 166.318 177.123 163.898 176.246 161.259C175.807 159.939 175.369 158.62 175.369 157.52C175.807 152.021 175.807 146.083 180.632 142.344C188.527 136.405 197.08 133.766 206.729 137.725C209.58 139.045 212.87 139.265 215.282 141.904C218.572 145.863 220.326 150.262 220.326 155.321C220.765 159.72 219.668 164.338 217.475 168.517Z" fill="#2655BD"/>
<path d="M130.036 229.663C127.843 230.543 127.405 229.223 127.405 227.024C127.405 224.384 126.747 222.845 123.677 222.185C121.483 221.745 118.852 221.745 117.097 219.986C116.659 219.546 116.001 219.766 115.562 220.425C115.124 220.865 114.904 221.085 114.466 221.525C111.176 224.604 108.106 223.945 107.009 219.546C106.571 218.226 107.887 217.566 108.544 216.906C110.299 215.147 110.738 213.387 108.983 211.408C108.544 210.748 108.325 210.088 107.887 209.428C106.351 206.569 105.694 206.349 102.623 207.229C99.9916 208.108 99.553 207.889 99.1144 205.029C98.8951 203.49 97.3599 201.95 98.2371 200.63C99.1144 199.091 101.088 199.971 102.623 199.531C104.378 199.091 105.036 197.991 105.694 196.451C108.106 192.053 105.913 189.193 102.843 186.334C102.404 185.894 102.185 185.454 101.746 185.234C99.9916 183.915 100.65 183.475 102.185 182.815C102.843 182.595 103.281 182.375 103.72 181.935C106.351 179.736 106.351 179.736 108.544 182.595C110.518 185.454 112.053 185.674 114.466 183.255C115.343 182.375 116.439 181.495 117.755 181.055C119.729 180.615 119.729 179.516 119.29 177.976C118.852 176.656 118.852 175.117 118.633 173.797C118.194 170.718 119.29 169.618 122.58 169.618C124.992 169.618 126.747 170.498 126.966 173.357C126.966 174.457 127.405 175.337 127.624 176.436C127.843 177.536 128.282 178.636 129.598 178.856C132.01 179.296 134.422 180.176 136.835 181.275C137.493 181.495 138.151 181.495 138.589 180.835C138.809 180.395 139.028 180.176 139.467 179.736C143.195 175.337 145.168 175.337 148.239 180.395C148.897 181.495 148.458 183.035 147.581 184.354C145.168 187.874 145.388 188.753 148.019 192.272C148.458 192.932 149.116 193.152 149.774 192.932C150.212 192.712 150.432 192.492 150.87 192.272C153.941 191.173 154.599 191.393 155.695 194.472C156.134 195.792 156.134 197.111 156.572 198.211C157.011 199.751 156.353 200.63 154.818 200.85C153.721 201.07 152.844 201.51 151.748 201.73C151.09 201.95 150.212 202.17 150.212 202.83C149.993 205.249 148.897 207.449 148.458 209.648C148.239 210.968 149.774 211.628 150.87 212.068C153.941 214.047 154.379 216.906 151.748 219.546C150.87 220.425 149.993 220.425 149.335 219.546C146.265 216.246 143.195 215.807 140.124 219.546C139.247 220.645 137.931 221.085 136.616 221.525C134.861 221.965 134.422 223.505 134.642 225.264C133.765 229.223 133.765 229.223 130.036 229.663ZM153.283 197.771C153.063 194.032 151.528 193.152 148.897 195.132C147.581 196.012 146.704 195.792 146.046 194.472C145.168 192.492 144.072 190.733 142.537 189.193C141.66 188.313 141.66 187.434 142.756 186.554C143.853 185.674 144.73 184.574 145.168 183.255C145.607 181.495 144.73 180.395 143.633 179.296C142.317 178.196 141.879 179.956 141.221 180.395C140.344 180.835 139.686 181.715 139.028 182.595C138.151 183.475 136.835 184.135 135.738 183.255C133.545 181.715 131.133 181.275 128.501 181.275C127.405 181.275 126.308 180.615 126.308 179.516C126.308 177.536 125.212 175.997 124.992 174.237C124.773 172.477 123.896 171.818 122.141 172.258C120.168 172.697 120.606 173.797 120.826 175.117C121.922 179.516 122.58 183.475 116.878 185.014C116.439 185.014 116.22 185.674 116.001 185.894C113.15 188.313 110.957 188.313 108.106 185.674C107.667 185.234 107.229 184.794 106.79 184.354C106.132 183.475 105.255 183.695 104.597 184.354C103.72 185.234 104.597 185.674 105.036 185.894C106.351 187.214 107.667 188.753 109.202 189.853C110.08 190.953 110.08 192.053 109.202 193.152C108.106 194.252 107.667 195.572 107.229 196.891C106.351 199.531 105.694 202.39 101.965 201.73C101.746 201.73 101.527 201.95 101.307 201.95C100.65 202.17 100.211 202.39 100.211 203.27C100.211 203.93 100.65 204.589 101.527 204.809C103.062 205.029 104.378 204.589 105.694 204.149C106.79 203.71 107.887 203.93 108.325 205.469C108.983 208.109 110.299 210.528 111.834 212.727C112.931 214.267 113.15 215.587 111.176 216.686C110.299 217.126 109.86 217.786 109.641 218.666C109.202 219.766 109.641 220.645 110.299 221.305C111.176 222.185 111.834 221.085 112.492 220.645C113.369 219.766 114.246 218.886 114.904 218.006C115.562 216.906 116.439 217.126 117.097 217.786C119.51 220.205 122.361 220.645 125.431 220.205C128.282 219.766 129.159 221.085 129.159 223.725C129.159 225.044 128.501 227.684 130.694 227.464C132.887 227.244 131.791 224.824 131.572 223.285C131.352 221.745 131.791 221.085 133.107 220.865C136.616 220.205 139.247 218.226 141.221 215.367C142.098 214.267 142.756 214.047 144.072 214.927C145.388 216.027 147.142 216.686 148.677 217.346C149.335 217.566 149.993 218.006 150.432 217.126C150.651 216.246 150.651 215.587 149.774 215.147C148.458 214.267 147.142 213.387 145.826 212.507C144.949 212.068 144.73 211.628 145.388 210.528C146.923 208.328 146.923 205.689 147.142 203.27C147.361 201.07 147.8 199.751 150.432 199.971C151.748 199.751 153.283 199.091 153.283 197.771Z" fill="#223A70" stroke="#223A70" stroke-width="0.5" stroke-miterlimit="10"/>
<path d="M139.466 202.39C139.466 210.748 131.791 216.466 123.896 213.827C117.097 211.628 112.93 207.009 112.272 199.531C111.615 192.932 116.878 186.994 123.457 186.774C133.764 186.774 139.028 192.712 139.466 202.39ZM114.246 199.531C114.246 201.29 114.246 202.61 114.685 203.71C118.194 211.628 127.185 214.267 134.422 209.648C135.738 208.768 136.615 207.669 137.273 205.909C139.028 201.07 136.615 194.252 132.229 191.173C128.501 188.314 123.896 187.874 119.948 189.633C116.22 191.393 114.027 195.132 114.246 199.531Z" fill="#223A70" stroke="#223A70" stroke-width="0.5" stroke-miterlimit="10"/>
<path d="M208.704 189.193C208.484 190.733 208.704 192.273 209.362 193.592C210.02 194.912 209.581 195.792 207.826 196.232C205.633 196.672 203.221 196.232 201.028 197.111C200.151 197.331 199.274 196.452 199.054 195.132C198.616 192.713 198.177 190.293 197.738 187.874C197.519 186.334 196.423 186.334 195.326 186.334C191.817 186.554 188.528 186.774 185.238 185.674C184.361 185.454 184.361 185.894 183.922 186.554C183.045 188.094 182.168 189.633 181.51 191.173C180.852 192.493 179.975 192.493 178.878 192.053C176.904 191.173 174.711 190.073 172.738 189.193C171.422 188.534 171.203 187.874 172.299 186.334C173.834 184.135 174.931 181.715 176.466 179.736C177.124 178.856 177.562 177.756 175.808 176.877C172.957 175.337 170.983 172.478 169.229 169.838C167.474 167.419 165.501 166.979 162.869 168.299C160.895 169.178 159.579 168.959 158.921 166.319C158.264 163.68 158.264 160.821 157.606 158.181C157.386 157.082 157.825 156.422 158.921 156.642C161.114 156.862 163.308 156.862 165.062 155.982C166.816 155.102 165.939 152.463 166.597 150.483C167.474 147.184 167.913 143.665 170.106 140.806C170.764 139.926 170.545 139.266 169.887 138.606C168.132 136.847 166.597 134.867 164.843 133.108C163.746 131.788 163.746 131.128 165.281 130.468C167.036 129.808 168.132 128.269 169.448 126.949C170.325 126.069 170.983 125.849 171.641 127.169C172.957 129.588 175.369 131.128 176.904 133.327C177.562 134.207 178.001 133.987 178.878 133.547C179.975 132.668 181.291 131.788 182.606 131.128C187.65 128.489 187.65 128.489 186.773 123.43C186.773 122.99 186.773 122.77 186.773 122.33C186.115 115.952 186.115 115.952 192.256 115.292C193.352 115.072 194.668 113.752 195.545 114.852C196.861 116.392 197.958 118.151 197.958 120.351C197.958 121.67 198.616 122.99 199.054 124.09C199.712 125.629 200.809 126.949 203.002 126.949C206.291 126.949 209.581 128.049 212.432 129.808C213.748 130.688 213.967 130.028 214.406 128.929C215.283 126.949 216.379 124.97 217.476 122.77C218.134 121.45 219.011 121.231 220.108 122.33C221.423 123.65 222.959 124.31 224.494 125.19C226.906 126.509 227.125 127.609 225.152 129.588C223.397 131.128 222.301 132.888 221.423 135.087C220.765 137.067 220.765 138.386 221.862 139.926C223.397 142.125 224.932 144.545 226.248 146.964C226.906 148.284 227.783 148.504 229.099 148.284C236.994 146.524 236.994 147.404 237.213 154.442C237.213 154.662 237.213 154.882 237.213 155.322C237.652 159.061 235.898 160.381 232.169 159.281C231.511 159.061 230.854 158.621 230.196 158.621C228.66 158.401 227.345 158.401 227.345 160.821C227.125 163.9 226.906 167.199 225.371 170.058C224.494 171.378 224.932 172.478 226.029 173.577C227.564 175.117 229.099 176.877 230.415 178.856C231.95 181.275 231.95 182.375 229.757 184.135C228.441 185.234 226.906 186.114 225.81 187.654C224.713 189.193 223.616 188.754 222.959 187.654C221.643 185.454 219.45 184.575 218.134 182.595C217.257 181.495 216.379 181.495 215.283 182.375C213.967 183.475 212.432 184.575 210.897 185.234C209.362 186.114 208.046 186.994 208.704 189.193ZM168.571 154.442C168.571 154.882 168.571 155.542 168.571 155.982C169.009 158.401 168.132 159.061 165.939 158.181C164.404 157.741 162.869 157.741 161.334 157.961C160.237 157.961 159.799 158.401 159.799 159.501C159.36 164.78 161.334 166.539 166.378 165.219C167.694 164.78 168.352 165 169.448 166.319C172.518 169.618 174.711 174.017 179.317 175.777C181.291 176.437 180.633 177.976 179.755 179.296C178.659 180.836 177.562 182.155 176.466 183.695C173.615 187.434 173.615 187.434 178.001 189.413C179.536 190.073 180.633 190.073 181.291 188.314C181.948 186.554 182.826 185.015 183.484 183.255C183.703 182.595 184.142 181.935 185.019 182.595C188.747 185.454 193.133 184.795 197.081 184.575C199.931 184.355 200.37 185.454 200.589 187.654C200.809 189.413 200.809 191.393 201.028 193.152C201.467 195.352 203.221 194.692 204.537 194.692C205.414 194.692 207.169 195.132 206.949 193.152C206.73 190.953 206.73 188.754 206.291 186.774C205.853 185.234 206.949 184.135 207.607 184.135C211.555 183.915 213.748 181.275 215.941 178.416C216.599 177.536 217.257 177.316 217.915 178.416C219.011 179.956 220.327 181.275 221.423 182.595C224.494 185.674 224.713 185.674 227.783 183.255C229.538 181.935 229.757 180.836 228.441 179.076C226.687 176.877 224.932 174.457 223.178 172.258C222.52 171.378 221.862 170.278 223.178 169.618C224.494 168.959 224.494 167.639 224.932 166.539C225.809 163.9 225.809 161.26 226.029 158.401C226.029 156.862 226.467 155.982 228.441 156.422C229.976 156.862 231.731 156.862 233.485 156.862C235.02 157.082 235.678 156.422 235.678 154.662C235.459 150.043 235.459 149.823 230.634 150.043C229.757 150.043 229.099 150.043 228.222 150.263C226.467 150.923 225.809 150.263 225.152 148.724C223.616 144.985 222.081 141.246 218.572 138.826C217.915 138.386 217.915 137.506 218.353 137.067C220.108 134.867 220.546 131.568 222.739 129.588C224.055 128.269 224.055 127.169 222.301 126.069C219.23 124.09 219.23 124.09 217.476 127.389C216.599 128.709 215.941 130.028 216.16 131.788C216.16 132.668 216.16 133.327 215.283 133.547C214.406 133.987 213.748 133.547 213.09 132.888C212.432 132.008 211.774 131.348 210.677 130.908C207.388 129.368 203.879 128.049 200.151 128.049C198.396 128.049 197.519 127.609 197.3 125.629C197.081 123.21 196.203 121.011 195.326 118.811C194.887 117.491 193.791 116.392 192.475 117.052C190.94 117.931 188.089 116.612 188.308 120.131C188.308 122.77 188.966 125.19 189.186 127.609C189.186 128.709 190.282 130.028 190.063 130.908C189.405 132.448 188.089 130.248 187.212 131.128C186.992 131.348 186.554 131.348 186.115 131.348C183.484 132.888 180.633 133.767 178.878 136.407C178.001 137.726 177.343 137.506 176.466 136.407C175.15 134.867 174.711 132.888 173.176 131.348C170.983 129.149 169.887 129.149 167.474 130.908C166.597 131.568 166.378 132.228 167.255 133.108C169.009 134.647 170.325 136.627 172.299 137.946C173.615 138.826 173.615 139.926 172.738 140.806C169.448 144.545 168.79 149.383 168.571 154.442Z" fill="#223A70" stroke="#223A70" stroke-width="0.5" stroke-miterlimit="10"/>
<path d="M194.668 176.875C188.528 176.216 184.142 173.136 180.414 168.518C178.659 166.318 177.343 163.899 176.466 161.259C176.027 159.94 175.589 158.62 175.589 157.52C176.027 152.022 176.027 146.083 180.852 142.344C188.747 136.406 197.3 133.766 206.949 137.725C209.8 139.045 213.09 139.265 215.502 141.904C218.792 145.863 220.546 150.262 220.546 155.321C220.546 159.94 219.669 164.559 217.257 168.737C216.818 169.617 216.38 170.497 215.064 170.057H214.844C216.818 165.438 218.573 160.819 218.353 155.541C218.134 149.822 216.599 144.544 211.116 141.904C204.976 138.825 198.835 135.966 191.598 138.825C188.966 139.925 186.554 141.024 184.142 142.564C179.317 145.423 175.37 153.781 176.905 159.28C178.659 165.438 181.51 170.937 187.87 174.016C190.282 174.456 192.475 175.776 194.668 176.875Z" fill="#223A70" stroke="#223A70" stroke-width="0.5" stroke-miterlimit="10"/>
<path d="M215.063 169.619C215.063 169.619 215.282 169.839 215.063 169.619C215.94 169.839 216.159 170.278 215.721 170.938C213.747 174.018 211.773 176.877 207.826 177.317C204.317 177.757 201.027 178.416 197.519 178.196C196.422 178.196 190.501 175.337 192.913 175.997C189.624 174.018 198.834 176.877 200.808 176.657C203.44 176.877 204.317 175.997 204.975 175.997C208.264 175.337 211.335 174.677 213.089 171.378C213.528 170.718 214.186 169.839 215.063 169.619Z" fill="#223A70" stroke="#223A70" stroke-width="0.5" stroke-miterlimit="10"/>
<path d="M770.269 251.328C771.133 252.168 771.805 253.152 772.429 254.328C772.525 254.496 772.645 254.544 772.813 254.448L773.893 253.8C774.085 253.68 774.085 253.56 774.013 253.416C773.437 252.336 772.669 251.28 771.973 250.632C771.853 250.512 771.757 250.488 771.637 250.56L770.269 251.328ZM772.621 249.96C773.533 250.872 774.205 251.856 774.757 252.936C774.829 253.08 774.949 253.176 775.165 253.056L776.173 252.408C776.389 252.264 776.365 252.12 776.293 251.976C775.837 251.088 775.069 250.056 774.253 249.288C774.133 249.168 774.061 249.12 773.917 249.216L772.621 249.96ZM765.733 254.736C767.053 254.736 768.469 254.76 769.765 254.808C770.029 254.808 770.077 254.688 770.077 254.352C770.125 253.776 770.125 253.176 770.077 252.6C770.077 252.288 770.029 252.144 769.789 252.144C768.589 252.216 767.077 252.24 765.733 252.24H761.317C760.237 252.24 759.013 252.216 757.333 252.12C757.405 252.984 757.429 253.848 757.501 254.424C757.525 254.712 757.597 254.832 757.909 254.832C759.253 254.784 760.213 254.736 761.317 254.736H765.733ZM769.285 260.304C770.941 260.304 772.597 260.352 773.845 260.4C774.061 260.4 774.205 260.304 774.205 259.992C774.229 259.68 774.229 258.456 774.205 258.144C774.205 257.808 774.181 257.664 773.941 257.664C772.525 257.76 771.133 257.808 769.261 257.808H758.485C757.093 257.808 755.749 257.808 754.405 257.688C754.405 258.408 754.477 259.32 754.597 259.992C754.621 260.304 754.693 260.472 754.909 260.448C756.133 260.376 757.309 260.304 758.509 260.304H763.069C762.973 262.584 762.733 263.88 761.845 265.464C760.837 267.288 759.421 268.464 757.069 269.736C757.909 270.048 758.725 270.528 759.205 271.008C759.373 271.176 759.541 271.248 759.709 271.248C759.925 271.248 760.165 271.128 760.429 270.96C761.965 270.048 763.693 268.296 764.653 266.424C765.589 264.6 765.925 262.992 766.069 260.304H769.285ZM792.756 256.752V254.472C792.756 253.44 792.78 252.816 792.948 252.36C793.02 252.168 793.044 252.024 793.044 251.928C793.044 251.736 792.948 251.616 792.612 251.544C792.036 251.376 790.716 251.232 789.804 251.136C789.972 251.976 790.044 253.08 790.02 254.424L789.996 256.776H784.836V255.024C784.836 253.392 784.836 253.152 785.004 252.72C785.076 252.528 785.148 252.36 785.148 252.216C785.148 252.048 785.052 251.928 784.788 251.88C784.284 251.736 783.108 251.616 781.86 251.496C782.1 252.888 782.148 253.488 782.148 255.024V256.776H781.428C779.58 256.776 778.02 256.728 777.012 256.656C777.06 257.64 777.084 258.48 777.18 258.984C777.204 259.296 777.276 259.44 777.468 259.44C778.212 259.392 780.132 259.32 781.428 259.32H782.148V260.232C782.148 261.744 782.1 262.92 782.028 264.168C782.004 264.432 782.148 264.48 782.46 264.504C783.108 264.552 783.9 264.552 784.524 264.504C784.788 264.48 784.956 264.432 784.932 264.168C784.86 262.896 784.86 261.6 784.86 260.184V259.32H789.972C789.876 262.248 789.492 263.904 788.556 265.44C787.332 267.408 785.484 268.632 782.076 269.688C782.892 270.048 783.348 270.384 784.068 271.128C784.26 271.32 784.38 271.392 784.524 271.392C784.668 271.392 784.86 271.32 785.196 271.176C787.716 270.144 789.66 268.704 790.86 266.712C792.036 264.768 792.564 262.752 792.708 259.32H793.692C794.868 259.32 796.332 259.344 797.148 259.344C797.484 259.368 797.532 259.272 797.556 258.96C797.604 258.36 797.604 257.664 797.556 257.064C797.532 256.8 797.508 256.656 797.22 256.68C796.116 256.728 794.772 256.752 793.596 256.752H792.756ZM793.5 251.544C794.316 252.456 794.916 253.464 795.444 254.664C795.54 254.856 795.66 254.904 795.852 254.808L796.836 254.304C797.028 254.208 797.052 254.112 796.98 253.944C796.476 252.816 795.78 251.736 795.132 251.04C795.012 250.896 794.916 250.896 794.796 250.944L793.5 251.544ZM795.804 250.464C796.644 251.424 797.268 252.456 797.748 253.584C797.82 253.728 797.916 253.8 798.132 253.704L799.092 253.224C799.308 253.128 799.308 252.96 799.236 252.816C798.852 251.904 798.156 250.824 797.388 250.008C797.268 249.864 797.196 249.84 797.052 249.912L795.804 250.464ZM813.275 257.568C814.259 256.608 815.147 255.672 816.083 254.544C816.731 253.848 817.115 253.488 817.523 253.224C817.715 253.104 817.859 252.888 817.859 252.696C817.859 252.576 817.811 252.432 817.667 252.336C817.139 251.904 816.083 251.256 815.003 250.656C814.619 251.688 814.307 252.168 813.491 253.128C812.003 254.904 810.275 256.584 808.379 258.144C806.171 259.968 804.131 261.36 800.819 263.064C801.539 263.448 802.331 263.928 802.883 264.48C803.051 264.648 803.195 264.72 803.387 264.72C803.507 264.72 803.627 264.696 803.747 264.624C805.667 263.616 808.235 261.792 810.347 260.016V265.608C810.347 267.24 810.275 268.8 810.251 270.528C810.227 270.816 810.323 270.912 810.587 270.912C811.355 270.96 812.219 270.96 812.987 270.912C813.251 270.912 813.371 270.816 813.347 270.504C813.299 268.584 813.275 267.168 813.275 265.512V257.568ZM825.755 255.048C827.483 256.104 829.211 257.472 830.651 258.96C830.771 259.08 830.867 259.152 830.963 259.152C831.059 259.152 831.131 259.08 831.251 258.96C831.587 258.6 832.379 257.64 832.739 257.16C832.835 257.04 832.883 256.944 832.883 256.848C832.883 256.752 832.811 256.656 832.667 256.512C831.299 255.216 829.307 253.752 828.083 253.104C827.963 253.032 827.867 252.984 827.771 252.984C827.651 252.984 827.531 253.056 827.435 253.176C826.979 253.656 826.283 254.4 825.755 255.048ZM826.283 267.024C826.859 268.032 827.603 269.016 828.203 269.688C828.347 269.856 828.491 269.952 828.611 269.952C828.755 269.952 828.899 269.856 829.043 269.712C829.259 269.496 829.571 269.256 830.651 268.608C833.891 266.808 835.907 265.464 837.899 263.904C840.083 262.224 842.147 260.304 843.419 258.816C843.683 258.504 843.803 258.312 843.803 258.096C843.803 257.952 843.755 257.808 843.683 257.64C843.371 256.848 843.155 256.032 843.011 254.832C840.971 257.448 839.363 258.984 836.435 261.36C834.011 263.304 832.451 264.312 829.523 265.824C828.251 266.472 827.507 266.688 826.283 267.024Z" fill="#282E33"/>
<path d="M822.946 208.233C822.946 213.274 822.383 218.128 823.696 223.169C823.884 223.729 823.696 224.103 823.321 224.476C822.57 224.849 822.195 224.663 821.819 224.103C821.632 223.916 821.632 223.916 821.444 223.729C819.191 220.182 815.813 219.995 812.246 219.995C806.239 220.182 800.42 221.489 794.226 220.929C787.844 220.369 781.462 219.995 775.08 219.062C767.008 217.942 759.124 218.128 751.053 219.248C748.613 219.622 746.172 219.435 743.92 219.622C742.981 219.622 741.855 219.435 741.855 220.555C741.855 221.862 742.043 223.356 743.92 223.543C747.674 224.103 751.428 224.663 755.182 224.849C765.131 225.223 774.892 225.783 784.841 225.596C789.721 225.409 794.602 226.156 799.482 226.156C806.239 225.97 813.185 225.596 819.942 225.223C820.693 225.223 821.256 225.036 822.007 225.036C822.758 225.036 823.321 225.223 823.133 225.97C822.946 226.53 822.946 227.463 821.819 227.463C816 226.903 810.369 227.463 804.738 227.65C798.543 227.837 792.537 227.276 786.342 227.463C774.704 227.65 763.066 226.53 751.241 226.156C748.613 225.97 745.985 225.223 743.169 225.596C741.667 225.783 741.667 223.729 741.104 222.796C740.541 221.676 740.729 220.182 738.664 220.182C737.725 220.182 737.913 218.688 737.913 217.942C738.664 203.566 738.289 189.19 738.101 174.814C737.913 161.186 736.787 147.557 734.91 134.114C733.971 128.7 734.91 123.659 733.971 118.432C733.784 117.312 733.784 116.378 732.47 116.191C731.531 116.191 731.343 115.445 731.156 114.885C730.593 112.084 729.842 109.284 730.029 106.483C730.029 103.869 730.968 103.309 733.596 103.309C742.981 103.309 752.179 104.99 761.565 105.736C764.756 105.923 768.134 105.55 771.326 105.176C780.711 104.243 789.909 102.936 799.294 103.496C803.048 103.683 806.803 103.496 810.557 103.123C813.372 102.936 816 102.936 818.628 103.309C820.318 103.683 821.444 104.43 822.007 106.11C823.133 109.844 822.758 113.578 823.133 117.498C823.884 124.966 824.072 132.434 824.072 140.089C824.072 144.009 827.263 145.13 829.14 147.37C829.14 147.37 829.328 147.557 829.328 147.37C831.58 145.503 832.519 148.117 834.021 148.864C836.273 149.797 838.526 154.278 837.024 156.331C834.021 160.812 836.273 165.106 836.648 169.587C836.836 172.014 837.399 174.254 837.399 176.681C837.212 181.162 839.84 184.709 842.092 188.443C842.655 189.377 843.969 189.564 844.908 190.31C850.351 195.538 855.232 201.512 860.675 206.926C862.365 208.793 864.617 210.1 866.494 211.594C867.057 211.967 867.433 212.341 867.621 212.901C867.808 213.461 868.371 214.208 867.621 214.768C866.87 215.328 866.494 214.394 866.119 214.021C862.74 210.847 858.798 208.607 855.983 204.873C853.542 201.512 850.164 198.898 847.723 195.538C846.597 194.044 845.095 193.484 843.781 192.177C843.218 191.431 842.843 191.991 842.28 192.364C839.464 193.858 837.212 196.285 834.959 198.525C832.894 200.392 830.829 202.632 828.389 204.126C825.574 205.993 825.574 206.926 828.202 209.167C832.143 212.714 835.334 216.821 837.775 221.489C839.652 225.223 841.529 228.957 844.72 231.944C844.908 232.131 845.095 232.504 844.908 232.691C844.72 233.064 844.345 233.064 843.969 232.877C842.655 232.504 841.717 231.57 840.966 230.637C839.276 228.77 837.962 226.716 837.024 224.476C834.959 218.502 830.454 214.208 826.137 209.914C825.574 209.353 825.198 208.98 824.635 208.607C823.321 207.3 823.133 206.18 824.823 205.059C825.761 204.499 826.512 203.566 826.137 202.446C825.761 201.139 824.635 200.205 823.509 199.459C822.758 199.085 822.758 199.832 822.758 200.392C822.946 203.192 822.946 205.62 822.946 208.233ZM747.111 114.885C744.108 114.885 741.292 115.258 738.476 115.631C737.35 115.818 736.036 116.191 736.036 117.498C736.036 121.046 735.285 124.593 735.473 127.953C736.036 135.608 736.787 143.449 737.725 151.104C738.664 159.692 739.227 168.28 739.227 177.055C739.227 190.124 740.541 203.379 739.039 216.448C738.852 217.755 739.415 218.502 741.104 218.315C748.237 217.381 755.37 217.568 762.691 216.635C770.012 215.701 777.145 217.942 784.465 217.942C789.346 217.942 794.038 219.435 798.919 219.062C803.987 218.688 809.055 218.128 814.123 218.315C815.813 218.315 816.564 217.755 816.188 215.701C815.062 209.54 815.437 203.192 814.874 196.845C814.499 196.845 813.936 196.845 813.372 196.845C809.243 197.031 805.301 196.845 802.11 193.671C800.984 192.551 800.608 193.671 800.233 194.418C797.793 199.645 793.475 202.446 787.844 203.379C782.588 204.126 777.52 202.819 772.452 200.952C765.131 198.152 760.814 191.991 761.189 184.336C761.377 180.789 762.879 177.428 764.756 174.254C765.694 172.761 765.319 172.014 763.817 171.641C760.251 170.707 757.435 168.84 754.807 166.04C749.176 160.065 748.237 152.784 750.49 145.503C752.742 137.662 762.503 130.194 771.138 133.741C771.513 133.928 771.889 133.928 772.264 133.928C776.394 134.488 779.585 136.728 782.213 139.902C784.465 142.702 785.404 145.876 786.53 149.61C788.219 147.557 790.096 146.25 791.786 144.756C792.349 144.383 792.537 144.009 792.349 143.263C791.41 137.288 791.41 131.314 789.721 125.34C789.533 124.406 789.909 124.033 790.472 123.659C791.035 123.099 791.41 123.473 791.786 123.846C792.724 124.593 793.663 124.593 794.789 124.593C797.98 124.593 801.171 124.966 804.175 124.219C806.239 123.846 806.803 124.593 806.99 126.46C806.99 129.26 807.178 132.061 807.178 134.675C807.178 138.222 808.867 139.715 811.683 141.022C813.185 141.769 814.123 141.022 815.062 140.649C816.188 140.275 816.376 139.342 816.188 138.222C815.625 131.314 815.813 124.406 814.874 117.685C814.686 116.378 815.062 115.071 814.499 113.951C813.936 112.831 812.434 113.764 811.12 113.391H810.932C805.301 111.711 799.67 112.084 794.038 112.644L747.111 114.885ZM783.339 111.897C790.472 112.271 797.229 110.964 804.175 110.964C808.492 110.964 808.304 110.777 808.304 107.23C808.304 105.923 807.929 105.736 806.615 105.736C802.673 105.736 798.731 105.55 794.977 105.55C788.407 105.55 782.025 105.55 775.455 106.483C769.824 107.417 764.193 107.79 758.374 107.043C753.305 106.483 748.237 105.55 743.169 105.55C736.224 105.363 736.975 104.803 736.975 112.084C736.975 113.578 737.725 113.951 739.039 113.951C743.357 114.324 747.674 112.831 751.991 113.764C753.118 113.951 754.995 113.578 756.496 113.204C757.81 113.018 759.312 112.831 760.626 112.644C761.94 112.644 763.254 112.458 764.568 112.644L783.339 111.897ZM781.462 171.827C781.65 174.441 782.964 176.495 784.277 178.735C786.342 182.096 788.97 184.149 793.288 183.776C794.038 183.776 794.789 183.963 795.165 184.523C797.605 188.07 801.547 190.124 804.362 193.111C805.113 193.858 806.052 194.418 807.178 194.418C809.618 194.418 812.058 195.164 814.499 194.791C817.69 194.231 820.881 194.044 823.696 196.658C824.823 197.778 826.324 198.712 827.263 200.019C828.577 201.886 829.515 201.139 830.829 200.019C834.021 197.592 836.085 194.418 839.464 192.177C841.153 191.057 841.153 189.937 840.027 188.443C837.962 185.643 836.085 182.842 835.898 179.295C835.522 173.134 834.208 167.16 833.833 161.186C833.833 160.439 834.208 159.319 832.894 159.319C831.205 159.319 829.515 158.945 827.826 159.319C822.007 160.812 816.188 162.306 810.369 163.799C807.929 164.359 806.052 165.48 805.489 168.28C805.301 169.4 804.55 170.894 803.424 171.081C799.67 171.641 795.728 171.641 791.974 170.707C787.469 169.587 785.404 165.853 783.902 161.932C783.151 159.879 782.025 159.319 780.148 159.879C777.895 160.439 778.834 161.932 779.209 163.239C779.96 165.853 780.336 169.027 781.462 171.827ZM750.865 153.904C750.865 155.398 750.677 156.892 751.053 158.198C753.493 164.359 757.81 168.84 764.193 170.894C765.319 171.267 766.445 171.081 767.196 170.147C767.947 169.214 768.51 168.28 769.261 167.347C770.762 165.48 770.95 162.119 774.517 162.492C776.206 162.679 777.145 161.932 777.145 160.065C777.145 159.692 777.332 158.945 777.708 158.945C779.96 158.945 780.523 156.705 781.837 155.585C784.09 153.531 784.841 151.291 783.714 148.117C781.462 141.956 777.708 137.662 771.138 136.168C764.943 134.675 758.561 136.355 755.182 140.836C752.179 144.196 750.114 148.49 750.865 153.904ZM785.591 201.699C789.158 201.699 793.1 200.579 795.915 197.218C799.107 193.484 800.233 192.177 796.291 188.63C794.977 187.51 794.226 185.456 792.349 185.456C785.967 184.896 782.964 180.789 780.899 175.748C779.585 172.761 779.772 172.761 776.769 173.881C774.329 174.814 771.889 175.561 769.636 173.134C768.698 172.201 767.759 172.387 766.82 173.508C765.507 175.188 764.568 177.242 763.817 179.108C761.565 184.896 762.879 192.177 767.947 196.098C773.203 200.019 778.834 201.512 785.591 201.699ZM791.786 168.093C793.288 167.72 795.165 167.72 796.854 166.973C800.796 165.293 804.926 163.799 809.055 162.492C815.25 160.625 821.444 159.132 827.638 157.452C828.952 157.078 828.952 156.518 828.577 155.585C828.014 154.278 827.638 152.784 828.014 151.477C828.389 149.797 827.451 149.797 826.512 150.357C824.635 151.477 822.195 152.037 820.318 152.597C817.127 153.344 813.936 154.464 810.745 155.398C803.987 157.452 797.042 159.692 790.096 161.372C785.779 162.119 785.591 162.306 788.407 166.04C789.158 166.973 790.096 168.093 791.786 168.093ZM797.229 150.544C797.605 150.917 798.168 151.104 798.543 151.477C802.11 155.025 806.052 155.771 810.557 153.158C811.871 152.411 811.495 152.224 810.745 151.477C807.741 148.864 804.926 146.063 801.734 143.449C800.796 142.702 799.67 141.582 798.168 142.516C793.851 144.943 790.096 148.117 786.905 151.664C785.591 152.971 785.028 154.838 783.151 155.771C782.213 156.331 782.025 157.265 783.339 157.825C783.714 158.012 784.09 158.012 784.277 158.385C785.028 159.319 785.591 160.252 787.093 159.879C788.407 159.505 789.346 158.758 790.096 157.825C792.161 155.585 794.038 153.158 796.103 150.917C796.479 150.917 796.854 150.73 797.229 150.544ZM821.256 113.578C821.632 110.964 820.693 108.724 820.318 106.483C820.13 105.176 819.004 104.803 817.877 104.43C816.751 104.056 816 104.43 816.376 105.923C816.939 107.977 816.751 109.844 816.564 111.897C816.376 113.204 816.188 114.698 816.564 115.818C818.441 122.726 817.127 129.82 817.69 136.728C817.877 139.155 818.441 140.836 820.318 142.142C820.693 142.516 821.069 142.889 821.632 142.702C822.195 142.329 822.57 141.956 822.57 141.209C821.819 138.035 822.57 134.675 822.383 131.501C821.632 125.526 822.007 119.365 821.256 113.578ZM817.127 208.98C817.314 216.075 817.502 216.635 819.755 219.062C820.13 219.435 820.318 220.369 821.069 219.995C821.819 219.622 821.444 218.875 821.444 218.315C821.069 211.781 820.693 205.246 821.632 198.712C822.007 196.285 819.379 196.845 817.877 196.658C816.376 196.285 816.376 197.592 816.376 198.712C816.564 202.446 817.314 205.993 817.127 208.98ZM776.394 163.239C774.892 163.239 773.578 163.239 772.827 164.546C771.701 166.226 770.762 167.907 769.636 169.774C769.448 170.147 769.448 170.52 769.824 170.894C771.326 172.761 777.52 172.761 779.022 170.707C779.209 170.52 779.209 170.334 779.209 170.147C778.834 168.093 778.458 166.226 778.083 164.173C777.895 163.239 776.957 163.239 776.394 163.239ZM795.352 136.728C798.731 136.728 798.731 136.728 798.543 133.928C798.356 131.501 796.479 132.994 795.54 132.994C794.789 132.994 794.038 133.368 793.851 132.434C793.663 131.314 794.601 131.314 795.352 131.314C795.915 131.314 796.479 131.127 797.042 131.127C798.168 131.127 798.543 130.567 798.543 129.447C798.731 127.58 798.356 126.46 796.103 126.833C795.352 127.02 794.602 126.833 793.851 126.647C792.349 126.273 791.41 126.46 791.974 128.327C792.349 130.194 792.724 132.247 793.1 134.301C793.1 135.981 792.912 137.848 795.352 136.728ZM814.874 151.664C814.874 151.664 815.25 151.477 815.625 151.477C818.065 150.917 818.065 150.917 816.376 149.05C814.874 147.37 813.372 145.503 811.871 144.009C810.932 143.076 809.994 142.329 808.68 142.142C807.366 141.956 806.803 142.889 806.052 143.636C805.489 144.009 806.052 144.383 806.24 144.756C808.304 147.183 811.308 148.864 813.185 151.477C813.56 151.664 813.936 151.664 814.874 151.664ZM829.703 153.158C829.515 154.091 830.454 155.025 831.205 156.145C831.956 157.265 832.894 157.078 834.021 156.892C835.147 156.705 835.522 155.958 835.522 155.025C835.71 152.784 834.771 151.291 832.894 149.984C831.58 149.05 830.642 149.237 830.079 150.73C829.891 151.477 829.891 152.037 829.703 153.158ZM735.285 109.844C735.285 108.91 735.285 107.977 735.285 107.23C735.473 105.55 734.534 104.99 733.033 104.99C731.343 104.99 731.343 106.296 731.343 107.417C731.531 109.284 731.906 111.151 732.282 113.018C732.47 113.578 732.845 114.138 733.22 114.511C734.534 115.445 735.098 115.071 735.285 113.764C735.285 112.458 735.285 111.151 735.285 109.844ZM822.57 149.05C820.881 146.436 819.567 143.823 816.939 142.329C816.188 141.769 815.625 142.889 815.062 143.076C814.499 143.263 814.686 143.823 815.062 144.196C816.751 145.876 818.441 147.557 819.755 149.424C820.318 150.357 821.256 149.797 822.007 149.424C822.383 149.424 822.758 149.424 822.57 149.05ZM792.537 158.385C795.54 158.572 797.793 157.078 800.42 156.518C800.608 156.518 800.984 155.958 800.984 155.958C800.42 155.025 799.67 154.278 798.731 153.904C797.98 153.718 797.042 152.784 796.291 153.718C795.165 155.211 793.475 156.331 792.537 158.385ZM810.557 108.35C810.932 108.91 809.806 110.964 812.246 110.777C813.56 110.591 815.062 110.404 814.874 108.35C814.686 106.857 814.686 105.176 812.622 105.176C811.308 105.363 809.806 105.923 810.557 108.35ZM800.233 134.488C800.233 136.541 800.421 137.102 801.547 136.728C802.861 136.355 805.113 137.848 805.301 135.421C805.301 134.488 806.239 132.247 803.799 132.434C802.298 132.434 799.67 131.501 800.233 134.488ZM802.861 130.38C804.738 130.941 804.926 129.634 804.926 128.327C804.926 127.207 804.926 126.086 803.236 126.273C801.547 126.46 799.857 126.086 800.045 128.887C800.045 131.687 801.734 130.38 802.861 130.38ZM796.103 138.408C793.1 138.222 793.1 138.408 793.851 141.396C794.226 142.702 794.789 142.516 795.54 141.956C795.915 141.769 796.103 141.396 796.479 141.022C797.229 140.275 799.107 140.649 798.731 139.155C798.356 137.848 796.854 138.969 796.103 138.408ZM803.424 138.595C802.298 138.595 800.796 138.035 801.171 139.902C801.359 141.022 802.673 142.142 803.987 142.329C804.738 142.516 805.864 141.769 805.676 140.462C805.676 138.969 805.113 138.035 803.424 138.595ZM800.42 169.027C800.984 169.027 801.547 169.027 802.11 168.84C803.048 168.467 803.799 167.72 803.424 166.786C803.048 165.853 802.485 166.973 801.734 167.16C801.171 167.347 800.608 167.347 800.045 167.72C799.482 167.907 798.356 167.72 798.731 168.84C798.919 169.4 799.67 169.027 800.42 169.027ZM824.26 145.876C823.884 145.876 823.321 145.876 823.509 146.436C823.884 147.557 824.447 148.49 825.761 148.49C826.137 148.49 826.7 148.303 826.512 147.93C825.949 147.183 825.574 145.876 824.26 145.876Z" fill="#223A70" stroke="#223A70" stroke-miterlimit="10"/>
<path d="M390.6 771.16C388.44 771.16 387.696 771.112 387.552 771.112C387.312 771.112 387.288 771.136 387.288 771.376V773.056C387.288 773.296 387.312 773.32 387.552 773.32C387.624 773.32 387.912 773.296 388.488 773.296C389.208 775.12 390.24 776.704 391.512 778.048C389.736 779.224 387.552 780.136 385.128 780.712C385.464 781.096 385.8 781.648 386.04 782.2C386.232 782.656 386.304 782.8 386.52 782.8C386.64 782.8 386.808 782.752 387.072 782.68C389.448 781.96 391.56 780.976 393.36 779.68C395.112 781 397.152 781.984 399.456 782.656C399.696 782.728 399.864 782.752 399.984 782.752C400.224 782.752 400.32 782.608 400.488 782.128C400.728 781.48 401.088 780.832 401.424 780.4C399 779.944 396.936 779.2 395.232 778.12C396.48 776.92 397.536 775.528 398.352 773.944C398.64 773.344 398.76 773.152 399 773.032C399.216 772.864 399.288 772.768 399.288 772.576C399.288 772.408 399.12 772.096 398.592 771.616C398.088 771.136 397.824 770.968 397.632 770.968C397.512 770.968 397.44 770.992 397.344 771.04C397.224 771.112 397.056 771.16 396.768 771.16H390.6ZM395.928 773.272C395.328 774.496 394.44 775.624 393.336 776.632C392.328 775.672 391.512 774.544 390.912 773.272H395.928ZM384.624 773.752L386.088 773.128C386.64 772.888 386.64 772.888 386.64 772.144C386.64 771.52 386.64 770.8 386.688 770.368C386.016 770.728 385.32 771.04 384.624 771.304V767.824C386.28 767.824 386.784 767.872 386.928 767.872C387.192 767.872 387.216 767.848 387.216 767.608V765.784C387.216 765.544 387.192 765.52 386.928 765.52C386.784 765.52 386.28 765.568 384.624 765.568V764.416C384.624 762.784 384.624 762.28 384.768 761.992C384.84 761.824 384.912 761.68 384.912 761.488C384.912 761.368 384.768 761.248 384.528 761.224C383.712 761.128 382.896 761.08 382.008 761.056C382.152 762.16 382.2 762.928 382.2 764.464V765.568H381.792C380.064 765.568 379.512 765.52 379.392 765.52C379.152 765.52 379.128 765.544 379.128 765.784V767.608C379.128 767.848 379.152 767.872 379.392 767.872C379.512 767.872 380.064 767.824 381.792 767.824H382.2V772.192C381.888 772.312 381.6 772.384 381.312 772.48C380.472 772.744 379.728 772.912 378.96 773.008C379.08 773.824 379.248 774.76 379.416 775.432C379.464 775.648 379.56 775.72 379.704 775.72C379.824 775.72 379.968 775.648 380.088 775.552C380.208 775.48 380.448 775.312 380.856 775.168C381.312 775.024 381.744 774.88 382.2 774.712V779.44C382.2 780.112 381.984 780.352 381.432 780.352C380.904 780.352 380.136 780.328 379.512 780.28C379.752 780.688 379.968 781.312 380.136 782.08C380.304 782.824 380.304 782.824 381.072 782.824C382.704 782.824 383.352 782.704 383.88 782.32C384.504 781.864 384.648 781.24 384.648 780.016C384.648 778.84 384.624 776.848 384.624 775.168V773.752ZM394.296 763.96V767.68C394.296 768.472 394.536 769.048 394.968 769.312C395.4 769.576 396.192 769.696 397.344 769.696C399.072 769.696 399.768 769.552 400.248 769.072C400.704 768.64 400.896 768.184 401.04 766.576C401.112 765.856 401.112 765.856 400.512 765.688C399.912 765.544 399.264 765.328 398.952 765.088C398.928 766.312 398.832 766.816 398.64 767.128C398.496 767.368 398.304 767.464 397.632 767.464C397.176 767.464 396.96 767.392 396.864 767.272C396.744 767.128 396.72 766.96 396.72 766.504V763.864C396.72 762.664 396.768 762.064 396.768 761.92C396.768 761.68 396.744 761.656 396.48 761.656C396.336 761.656 395.808 761.704 394.152 761.704H391.656C390.024 761.704 389.52 761.656 389.376 761.656C389.112 761.656 389.088 761.68 389.088 761.92C389.088 762.064 389.136 762.424 389.136 763C389.136 766.072 388.416 767.68 386.256 769.096C386.712 769.288 387.216 769.696 387.672 770.2C387.936 770.512 388.08 770.656 388.224 770.656C388.368 770.656 388.512 770.536 388.8 770.296C390.744 768.688 391.608 766.936 391.608 763.96H394.296ZM417.936 779.272C420.168 779.272 421.008 779.32 421.152 779.32C421.392 779.32 421.416 779.296 421.416 779.032C421.416 778.888 421.368 778.216 421.368 776.68V772.576C421.368 771.376 421.392 770.704 421.416 770.392C422.016 770.584 422.64 770.752 423.312 770.872C424.032 771.016 424.056 771.016 424.272 770.272C424.416 769.744 424.656 769.096 424.944 768.712C421.728 768.424 418.416 767.44 417.36 764.656H420.912C420.6 765.112 420.072 765.736 419.544 766.24C419.88 766.312 420.36 766.48 420.888 766.72C421.2 766.864 421.392 766.936 421.536 766.936C421.728 766.936 421.848 766.792 422.112 766.456C422.52 765.904 422.88 765.424 423.288 764.752C423.432 764.512 423.552 764.416 423.72 764.32C423.84 764.248 423.912 764.152 423.912 764.008C423.912 763.816 423.768 763.6 423.12 763.168C422.544 762.76 422.4 762.688 422.232 762.688C422.112 762.688 421.992 762.736 421.896 762.784C421.776 762.856 421.608 762.88 421.296 762.88H414.192L414.456 762.424C414.624 762.088 414.744 761.896 414.936 761.776C415.104 761.656 415.152 761.584 415.152 761.44C415.152 761.32 415.032 761.248 414.744 761.176C414.192 761.032 413.592 760.912 412.848 760.792C412.728 761.2 412.56 761.584 412.392 761.872C411.672 763.144 410.616 764.248 409.248 765.232C409.608 765.4 409.992 765.688 410.304 766.024C410.568 766.336 410.688 766.504 410.856 766.504C410.976 766.504 411.12 766.384 411.408 766.168C411.984 765.712 412.488 765.208 412.944 764.656H414.96C414.144 766.864 412.2 767.896 408.744 768.496C409.008 768.712 409.344 769.192 409.584 769.6C409.656 769.768 409.728 769.888 409.8 769.984C407.616 769.984 406.824 769.936 406.656 769.936C406.416 769.936 406.392 769.96 406.392 770.2C406.392 770.368 406.44 771.016 406.44 772.576V776.68C406.44 778.216 406.392 778.888 406.392 779.032C406.392 779.296 406.416 779.32 406.656 779.32C406.8 779.32 407.568 779.272 409.56 779.272C409.176 779.56 408.816 779.728 408.48 779.872C407.16 780.4 405.264 780.832 403.08 781.048C403.44 781.384 403.824 781.84 404.16 782.44C404.4 782.848 404.472 782.944 404.76 782.944C404.88 782.944 405.048 782.92 405.24 782.896C407.304 782.584 409.248 781.96 410.712 781.216C411.12 781 411.432 780.832 411.696 780.784C411.912 780.736 412.056 780.64 412.056 780.496C412.056 780.352 411.96 780.232 411.72 780.16C411.048 779.848 410.544 779.608 409.68 779.272H417.744L415.92 780.136C415.584 780.256 415.584 780.352 415.8 780.496C417.552 781.6 420.216 782.536 422.352 782.848C422.688 782.896 422.832 782.896 422.928 782.896C423.144 782.896 423.24 782.8 423.48 782.44C423.864 781.84 424.248 781.336 424.656 780.952C421.968 780.688 419.76 780.184 418.104 779.344L417.936 779.272ZM411.48 769.984C413.808 769.336 415.416 768.28 416.28 766.672C417.144 768.184 418.56 769.24 420.288 769.96C419.76 769.984 418.992 769.984 417.84 769.984H411.48ZM419.04 777.568H408.744V776.536H419.04V777.568ZM408.744 775.12V774.112H419.04V775.12H408.744ZM419.04 771.688V772.696H408.744V771.688H419.04ZM409.44 765.664C408.048 766.48 406.368 767.128 404.976 767.584C404.352 767.776 403.8 767.896 403.2 768.016C403.44 768.712 403.728 769.48 404.04 770.056C404.136 770.248 404.232 770.32 404.376 770.32C404.496 770.32 404.592 770.248 404.712 770.128C404.832 770.008 405.048 769.912 405.36 769.792C406.536 769.36 407.928 768.808 409.104 768.184C409.776 767.824 409.776 767.824 409.608 767.032C409.536 766.552 409.464 766.072 409.44 765.664ZM404.136 762.616C404.016 762.736 403.968 762.808 403.968 762.88C403.968 762.952 404.04 763 404.16 763.072C405.24 763.528 406.368 764.248 407.424 765.088C407.616 765.256 407.712 765.232 407.928 764.968L408.96 763.792C409.08 763.672 409.128 763.6 409.128 763.552C409.128 763.48 409.08 763.432 408.96 763.336C407.904 762.592 406.68 761.896 405.648 761.464C405.408 761.368 405.36 761.392 405.144 761.608L404.136 762.616ZM437.976 769.48C436.656 769.48 435.576 770.56 435.576 771.88C435.576 773.2 436.656 774.28 437.976 774.28C439.296 774.28 440.376 773.2 440.376 771.88C440.376 770.56 439.296 769.48 437.976 769.48ZM456.24 770.728V777.832C455.544 777.232 454.968 776.536 454.488 775.696C454.584 775.048 454.656 774.4 454.704 773.776C454.752 773.368 454.776 773.032 454.872 772.84C454.92 772.72 454.992 772.6 454.992 772.48C454.992 772.336 454.872 772.264 454.584 772.192C454.008 772.072 453.192 771.904 452.568 771.856C452.616 772.336 452.616 772.912 452.592 773.392C452.52 776.032 451.848 778.72 450.624 780.808C451.104 781.168 451.464 781.552 451.824 782.104C452.016 782.392 452.136 782.56 452.256 782.56C452.4 782.56 452.52 782.368 452.712 781.96C453.216 780.88 453.696 779.464 454.032 778.024C454.872 779.416 455.76 780.232 457.104 781C458.832 782.008 461.16 782.416 464.424 782.416C467.16 782.416 469.344 782.368 471.84 782.176C472.584 782.128 472.584 782.128 472.728 781.36C472.872 780.712 473.112 779.92 473.424 779.488C470.352 779.872 467.472 780.04 464.232 780.04C461.712 780.04 459.912 779.776 458.496 779.2V775.552H459.936C461.016 775.552 461.448 775.6 461.592 775.6C461.832 775.6 461.856 775.576 461.856 775.36V773.608C461.856 773.368 461.832 773.344 461.592 773.344C461.448 773.344 461.016 773.392 459.936 773.392H458.496V770.728H459.024C461.088 770.728 461.808 770.776 461.952 770.776C462.192 770.776 462.216 770.752 462.216 770.536V768.76C462.216 768.52 462.192 768.496 461.952 768.496C461.808 768.496 461.088 768.544 459.024 768.544H458.352V766.216H458.712C460.656 766.216 461.256 766.264 461.4 766.264C461.664 766.264 461.688 766.24 461.688 766V764.272C461.688 764.032 461.664 764.008 461.4 764.008C461.256 764.008 460.656 764.056 458.712 764.056H458.352V763.576C458.352 762.448 458.4 761.992 458.472 761.752C458.544 761.584 458.592 761.464 458.592 761.344C458.592 761.2 458.472 761.128 458.232 761.08C457.488 760.984 456.696 760.936 455.832 760.912C455.976 761.848 456 762.496 456 764.056H455.016C453.096 764.056 452.448 764.008 452.304 764.008C452.064 764.008 452.04 764.032 452.04 764.272V766C452.04 766.24 452.064 766.264 452.304 766.264C452.448 766.264 453.096 766.216 455.016 766.216H456V768.544H454.392C452.328 768.544 451.608 768.496 451.464 768.496C451.248 768.496 451.224 768.52 451.224 768.76V770.536C451.224 770.752 451.248 770.776 451.464 770.776C451.608 770.776 452.328 770.728 454.392 770.728H456.24ZM469.128 764.584V768.592H465.504C464.16 768.592 463.536 768.544 463.392 768.544C463.152 768.544 463.128 768.568 463.128 768.832C463.128 768.976 463.176 769.696 463.176 771.136V776.176C463.176 777.184 463.296 777.688 463.776 778.072C464.232 778.48 465.216 778.696 467.64 778.696C470.04 778.696 471 778.408 471.624 777.856C472.2 777.352 472.584 776.536 472.728 775.048C472.752 774.28 472.752 774.28 472.008 774.088C471.456 773.944 470.88 773.68 470.4 773.416C470.352 774.976 470.208 775.624 469.896 775.936C469.512 776.296 468.864 776.368 467.784 776.368C466.584 776.368 466.032 776.296 465.744 776.056C465.576 775.888 465.576 775.624 465.576 775.12V770.752H469.08C470.544 770.752 471.144 770.8 471.288 770.8C471.552 770.8 471.576 770.776 471.576 770.56C471.576 770.416 471.528 769.72 471.528 768.208V764.992C471.528 763.48 471.576 762.784 471.576 762.64C471.576 762.4 471.552 762.376 471.288 762.376C471.144 762.376 470.544 762.424 469.08 762.424H465.6C463.776 762.424 463.224 762.376 463.08 762.376C462.84 762.376 462.816 762.4 462.816 762.64V764.368C462.816 764.608 462.84 764.632 463.08 764.632C463.224 764.632 463.776 764.584 465.6 764.584H469.128ZM482.568 776.992C480.552 778.552 478.104 779.536 474.912 780.328C475.224 780.64 475.56 781.144 475.872 781.768C476.088 782.224 476.184 782.392 476.4 782.392C476.52 782.392 476.688 782.344 476.952 782.248C480.144 781.216 482.64 779.872 484.656 777.952C484.632 780.808 484.56 782.2 484.56 782.608C484.56 782.848 484.584 782.872 484.8 782.872H486.84C487.08 782.872 487.104 782.848 487.104 782.608C487.104 782.2 486.984 780.712 486.984 777.856C488.952 779.632 491.808 781.216 495.048 782.152C495.312 782.224 495.48 782.272 495.6 782.272C495.84 782.272 495.936 782.104 496.128 781.648C496.416 781 496.752 780.496 497.064 780.112C493.608 779.344 491.088 778.408 489.072 776.992H493.344C495.504 776.992 496.224 777.04 496.368 777.04C496.608 777.04 496.632 777.016 496.632 776.776V775.36C496.632 775.096 496.608 775.072 496.368 775.072C496.224 775.072 495.504 775.12 493.344 775.12H487.032V773.824H490.848C493.2 773.824 494.016 773.872 494.16 773.872C494.4 773.872 494.424 773.848 494.424 773.608V772.24C494.424 771.976 494.4 771.952 494.16 771.952C494.016 771.952 493.2 772 490.848 772H487.032V770.728H491.88C494.184 770.728 494.952 770.776 495.096 770.776C495.336 770.776 495.36 770.752 495.36 770.536V769.12C495.36 768.88 495.336 768.856 495.096 768.856C494.952 768.856 494.184 768.904 491.88 768.904H490.32L490.752 768.136C490.848 767.968 490.968 767.704 491.088 767.632C491.232 767.56 491.352 767.44 491.352 767.272C491.352 767.128 491.232 767.032 491.04 766.984C490.32 766.792 489.768 766.672 489.144 766.552H493.344C495.504 766.552 496.224 766.6 496.368 766.6C496.608 766.6 496.632 766.576 496.632 766.336V764.848C496.632 764.584 496.608 764.56 496.368 764.56C496.224 764.56 495.504 764.608 493.344 764.608H493.008C493.344 764.128 493.68 763.648 493.992 763.144C494.112 762.976 494.232 762.832 494.4 762.688C494.544 762.568 494.64 762.472 494.64 762.28C494.64 762.16 494.544 762.04 494.328 761.968C493.68 761.752 492.84 761.512 492 761.344C491.904 761.92 491.76 762.28 491.592 762.64C491.256 763.336 490.92 763.936 490.488 764.608H489V763.024C489 762.232 489.072 761.872 489.144 761.704C489.192 761.584 489.24 761.44 489.24 761.32C489.24 761.2 489.144 761.128 488.928 761.104C488.28 761.008 487.344 760.96 486.624 760.936C486.768 761.608 486.768 762.184 486.768 763.048V764.608H484.824V763.024C484.824 762.232 484.896 761.872 484.968 761.704C485.016 761.56 485.064 761.44 485.064 761.296C485.064 761.176 484.968 761.104 484.776 761.08C484.128 761.008 483.192 760.96 482.448 760.936C482.592 761.608 482.592 762.184 482.592 763.024V764.608H480.36L480.936 764.32C481.248 764.152 481.248 764.128 481.128 763.912C480.696 763.096 480.096 762.28 479.52 761.584C479.376 761.392 479.304 761.368 479.064 761.488L477.672 762.136C477.384 762.28 477.336 762.376 477.48 762.544C478.032 763.24 478.464 763.84 478.848 764.608H478.68C476.52 764.608 475.8 764.56 475.656 764.56C475.392 764.56 475.368 764.584 475.368 764.848V766.336C475.368 766.576 475.392 766.6 475.656 766.6C475.8 766.6 476.52 766.552 478.68 766.552H482.52L480.96 766.984C480.648 767.08 480.672 767.176 480.792 767.392C481.056 767.848 481.296 768.328 481.56 768.904H480.096C477.792 768.904 477.024 768.856 476.88 768.856C476.616 768.856 476.592 768.88 476.592 769.12V770.536C476.592 770.752 476.616 770.776 476.88 770.776C477.024 770.776 477.792 770.728 480.096 770.728H484.608V772H481.224C478.896 772 478.056 771.952 477.912 771.952C477.672 771.952 477.672 771.976 477.672 772.24V773.608C477.672 773.848 477.672 773.872 477.912 773.872C478.056 773.872 478.896 773.824 481.224 773.824H484.608V775.12H478.68C476.52 775.12 475.8 775.072 475.656 775.072C475.392 775.072 475.368 775.096 475.368 775.36V776.776C475.368 777.016 475.392 777.04 475.656 777.04C475.8 777.04 476.52 776.992 478.68 776.992H482.568ZM484.008 768.904C483.672 768.064 483.288 767.344 482.928 766.744C482.856 766.648 482.808 766.576 482.736 766.552H488.856C488.76 767.008 488.712 767.248 488.592 767.512C488.352 768.088 488.16 768.496 487.944 768.904H484.008ZM511.176 768.712C512.568 774.16 514.776 778.216 518.832 781.192C519.096 781.36 519.24 781.48 519.336 781.48C519.504 781.48 519.6 781.312 519.816 780.928C520.176 780.256 520.608 779.776 521.112 779.272C518.76 777.904 517.008 776.296 515.712 774.304C516.408 773.752 517.152 773.08 517.872 772.384C518.376 771.88 518.616 771.544 518.928 771.424C519.072 771.376 519.24 771.256 519.24 771.064C519.24 770.92 519.144 770.776 518.88 770.584C518.4 770.152 517.872 769.744 517.128 769.24C516.864 769.672 516.504 770.224 516.096 770.68C515.52 771.352 515.064 771.808 514.608 772.24C514.128 771.184 513.744 770.008 513.432 768.712C515.664 768.712 516.456 768.76 516.6 768.76C516.84 768.76 516.864 768.736 516.864 768.472V766.96C516.864 766.696 516.84 766.672 516.6 766.672C516.456 766.672 515.664 766.72 513.36 766.72H506.544C504.264 766.72 503.472 766.672 503.328 766.672C503.064 766.672 503.04 766.696 503.04 766.96V768.472C503.04 768.736 503.064 768.76 503.328 768.76C503.472 768.76 504.264 768.712 506.544 768.712H507.792C505.776 769.792 503.448 770.608 500.28 771.28C500.76 771.712 501 771.976 501.384 772.696C501.648 773.152 501.672 773.176 502.368 772.984C504.24 772.408 505.872 771.76 507.528 770.896C507.792 771.232 508.008 771.568 508.224 771.904C505.632 773.56 503.16 774.688 499.488 775.504C499.872 775.864 500.232 776.296 500.544 776.848C500.736 777.208 500.832 777.352 501 777.352C501.12 777.352 501.288 777.28 501.576 777.184C504.384 776.2 506.832 775.096 509.16 773.56C509.352 773.944 509.496 774.328 509.64 774.712C506.568 777.136 503.28 778.768 498.984 780.016C499.488 780.448 499.752 780.736 500.112 781.408C500.304 781.792 500.4 781.936 500.592 781.936C500.712 781.936 500.88 781.864 501.168 781.768C504.504 780.52 507.288 779.056 510.12 776.896C510.168 777.304 510.192 777.76 510.192 778.192C510.192 780.208 509.736 780.496 508.728 780.496C508.224 780.496 507.288 780.472 506.232 780.352C506.544 780.784 506.76 781.384 506.928 782.08C507.048 782.68 507.048 782.68 507.696 782.728C508.128 782.776 508.536 782.776 508.944 782.776C511.752 782.776 512.568 781.648 512.568 778.288C512.568 775.336 511.56 772.408 509.424 769.792C509.952 769.48 510.504 769.12 511.056 768.712H511.176ZM511.032 762.904V762.856C511.032 762.16 511.08 761.848 511.152 761.656C511.224 761.464 511.296 761.344 511.296 761.176C511.296 761.08 511.176 760.984 510.936 760.96C510.096 760.888 509.208 760.84 508.344 760.816C508.488 761.416 508.512 762.064 508.512 762.856V762.904H503.256C501.048 762.904 500.256 762.856 500.088 762.856C499.848 762.856 499.824 762.88 499.824 763.12C499.824 763.288 499.872 763.672 499.872 764.464V765.256C499.872 767.296 499.824 767.68 499.824 767.824C499.824 768.064 499.848 768.088 500.088 768.088H502.056C502.296 768.088 502.32 768.064 502.32 767.824V764.992H517.584V767.824C517.584 768.064 517.608 768.088 517.848 768.088H519.816C520.056 768.088 520.08 768.064 520.08 767.824C520.08 767.68 520.032 767.296 520.032 765.256V764.272C520.032 763.672 520.08 763.264 520.08 763.12C520.08 762.88 520.056 762.856 519.816 762.856C519.648 762.856 518.856 762.904 516.648 762.904H511.032ZM541.2 773.896C541.2 772.048 541.248 771.088 541.248 770.944C541.248 770.68 541.224 770.656 540.984 770.656C540.84 770.656 540 770.704 537.696 770.704H530.352C528.024 770.704 527.208 770.656 527.04 770.656C526.8 770.656 526.776 770.68 526.776 770.944C526.776 771.088 526.824 771.904 526.824 773.704V779.824C526.824 781.6 526.776 782.368 526.776 782.512C526.776 782.752 526.8 782.776 527.04 782.776H528.984C529.224 782.776 529.248 782.752 529.248 782.512C529.248 782.392 529.2 781.552 529.2 779.8V778.72H538.8V779.68C538.8 780.28 538.608 780.472 537.984 780.472C537.336 780.472 536.736 780.448 535.704 780.376C535.992 780.928 536.184 781.408 536.328 782.128C536.448 782.704 536.52 782.68 537.264 782.68C539.4 782.68 540.216 782.488 540.648 782.104C541.104 781.672 541.272 780.88 541.272 780.112C541.272 779.536 541.2 778.216 541.2 777.088V773.896ZM538.8 772.672V773.92H529.2V772.672H538.8ZM529.2 776.944V775.696H538.8V776.944H529.2ZM529.632 765.184C529.248 765.904 528.696 766.672 528.072 767.488C527.616 767.512 527.136 767.512 526.728 767.512C525.912 767.536 525.12 767.512 524.256 767.464C524.352 768.16 524.496 769.072 524.64 769.624C524.688 769.84 524.76 769.936 524.928 769.936C525.048 769.936 525.168 769.888 525.264 769.84C525.432 769.744 525.6 769.72 526.08 769.696C530.376 769.552 536.256 769.264 540.336 768.88C540.864 769.408 541.392 769.96 541.872 770.536C542.04 770.728 542.136 770.68 542.352 770.488L543.528 769.432C543.672 769.288 543.72 769.216 543.72 769.12C543.72 769.048 543.672 768.976 543.6 768.904C542.496 767.656 540.696 766.192 539.16 765.184H541.392C543.528 765.184 544.248 765.232 544.392 765.232C544.656 765.232 544.68 765.208 544.68 764.968V763.36C544.68 763.12 544.656 763.096 544.392 763.096C544.248 763.096 543.528 763.144 541.392 763.144H535.056V763.072C535.056 762.184 535.104 761.872 535.176 761.68C535.224 761.488 535.32 761.344 535.32 761.2C535.32 761.08 535.2 760.984 534.96 760.96C534.12 760.888 533.256 760.84 532.392 760.84C532.512 761.416 532.56 762.04 532.56 763.072V763.144H526.608C524.472 763.144 523.752 763.096 523.608 763.096C523.368 763.096 523.344 763.12 523.344 763.384V764.968C523.344 765.208 523.368 765.232 523.608 765.232C523.752 765.232 524.472 765.184 526.608 765.184H529.632ZM537.648 765.184L537.024 765.76C536.808 765.976 536.808 766.024 537.024 766.168C537.456 766.48 537.888 766.768 538.296 767.104C535.968 767.248 533.28 767.368 530.808 767.44C531.336 766.768 531.84 766.024 532.368 765.184H537.648ZM565.08 767.152C567.336 767.152 568.128 767.2 568.272 767.2C568.512 767.2 568.536 767.176 568.536 766.936V765.112C568.536 764.848 568.512 764.824 568.272 764.824C568.128 764.824 567.336 764.872 565.08 764.872H561.48V764.296C561.456 762.688 561.504 762.184 561.6 761.896C561.648 761.776 561.72 761.632 561.72 761.44C561.72 761.296 561.6 761.176 561.36 761.152C560.496 761.056 559.68 761.032 558.768 760.984C558.936 762.184 558.936 762.76 558.96 764.368V764.872H552.576C550.296 764.872 549.504 764.824 549.36 764.824C549.096 764.824 549.072 764.848 549.072 765.112C549.072 765.256 549.12 766.672 549.12 769.936C549.12 772.576 549 774.256 548.784 775.744C548.496 777.544 548.016 779.44 546.912 781.048C547.368 781.336 547.944 781.864 548.4 782.392C548.616 782.656 548.76 782.776 548.88 782.776C549 782.776 549.12 782.632 549.288 782.32C550.344 780.376 550.848 778.48 551.16 776.704C551.376 775.504 551.52 774.16 551.592 772.504H554.952C554.88 774.424 554.784 775.744 554.592 776.368C554.4 777.088 553.992 777.232 553.44 777.232C552.84 777.232 552.336 777.184 551.472 777.04C551.736 777.472 551.928 778.072 552.048 778.768C552.168 779.512 552.192 779.512 552.744 779.56C553.176 779.608 553.536 779.608 553.968 779.608C555.408 779.608 556.32 778.864 556.752 777.616C557.112 776.488 557.184 775.192 557.304 773.152C557.352 772.432 557.376 771.424 557.424 770.512C557.424 770.248 557.376 770.2 557.136 770.2C556.992 770.2 556.56 770.248 555.096 770.248H551.64V767.152H559.032C559.248 770.92 559.776 773.776 560.784 776.344C559.272 778.12 557.4 779.704 555.216 780.856C555.624 781.168 556.056 781.576 556.44 782.128C556.68 782.488 556.8 782.632 556.944 782.632C557.064 782.632 557.232 782.536 557.52 782.368C559.152 781.408 560.592 780.184 561.864 778.792C563.064 781.024 564.648 782.56 566.304 782.56C567.768 782.56 568.632 781.384 569.016 778.816C569.136 778.072 569.136 778.072 568.44 777.712C567.936 777.448 567.408 777.136 567.096 776.776C566.952 779.008 566.664 779.728 566.112 779.728C565.512 779.728 564.408 778.576 563.544 776.728C564.624 775.216 565.536 773.56 566.28 771.856C566.568 771.136 566.712 770.848 566.88 770.68C567.048 770.488 567.216 770.344 567.216 770.176C567.216 770.032 567.096 769.912 566.856 769.792C566.328 769.528 565.464 769.168 564.624 768.928C564.48 769.744 564.24 770.44 563.976 771.136C563.592 772.072 563.112 773.008 562.536 773.944C562.008 772.024 561.672 769.84 561.552 767.152H565.08ZM563.256 761.992C563.136 762.088 563.064 762.136 563.064 762.208C563.064 762.28 563.112 762.328 563.208 762.424C563.88 762.976 564.576 763.648 565.152 764.536C565.224 764.632 565.272 764.704 565.344 764.704C565.416 764.704 565.512 764.632 565.656 764.536L566.808 763.672C567.072 763.504 567.072 763.408 566.928 763.216C566.304 762.4 565.56 761.728 564.864 761.2C564.672 761.056 564.6 761.056 564.36 761.224L563.256 761.992Z" fill="#282E33"/>
<path opacity="0.2" d="M399.061 628.909C398.512 630.92 397.962 632.383 397.596 633.845C391.006 628.178 383.684 626.716 375.446 628.361C375.446 628.178 375.446 628.178 375.263 627.995C375.812 627.63 376.178 627.081 376.727 626.716C377.093 626.167 377.643 625.801 378.192 625.07C380.755 627.264 382.951 626.35 384.965 624.522C385.331 624.339 386.063 624.522 386.43 624.522C386.613 624.522 386.613 624.887 386.796 625.07C388.992 627.63 389.542 627.812 392.471 626.35C392.837 626.167 393.203 625.984 393.752 625.619C394.667 627.63 395.217 630.555 399.061 628.909Z" fill="#2655BD"/>
<path opacity="0.2" d="M368.123 626.533C370.137 627.081 372.151 627.447 374.531 628.178C372.7 629.275 371.235 630.189 369.588 631.103C368.856 629.641 368.306 628.178 367.574 626.898C367.757 626.716 367.94 626.533 368.123 626.533Z" fill="#2655BD"/>
<path d="M400.159 723.062C398.878 723.245 397.413 722.879 396.864 724.524C396.681 724.89 395.949 724.89 395.4 724.89C390.823 724.89 386.246 724.707 381.67 721.965C381.67 723.062 381.67 723.793 381.67 724.341C381.67 728.363 381.487 732.568 381.853 736.59C382.036 737.687 383.684 738.967 384.965 739.698C386.063 740.43 386.979 741.344 387.162 742.623C387.162 742.989 386.796 743.355 386.613 743.72C386.246 743.537 385.88 743.355 385.514 743.172C384.233 742.258 382.951 741.161 381.67 740.247C381.121 741.892 380.571 742.989 380.022 744.269C379.839 744.634 379.473 744.817 379.107 745C378.741 744.634 378.192 744.269 378.192 743.903C378.009 742.441 378.192 740.978 378.192 739.15C377.093 739.698 376.544 740.064 375.812 740.43C375.263 740.612 374.53 740.978 373.981 741.161C373.615 741.161 373.066 740.795 372.883 740.43C372.7 740.247 373.066 739.515 373.432 739.333C374.713 738.601 375.995 737.687 377.459 737.139C379.107 736.408 380.022 735.128 380.022 733.3C379.839 729.826 379.839 726.17 379.656 722.696C379.656 721.599 379.107 721.051 378.192 720.502C375.446 719.04 372.334 717.577 370.32 715.383C363.913 708.802 361.533 700.758 362.997 691.617C363.547 688.326 364.462 685.035 365.377 681.745C367.025 676.26 367.391 670.958 365.011 665.657C364.096 663.646 363.364 661.817 362.265 659.806C361.899 659.075 360.984 658.344 360.068 657.978C357.689 656.881 355.126 656.15 352.746 655.236C352.38 655.053 351.831 655.236 351.281 655.053C350.732 654.87 350 654.505 350 654.322C350 653.773 350.366 653.042 350.732 652.859C352.563 651.945 354.394 651.214 356.224 650.3C357.872 649.386 359.336 648.472 360.801 647.558C360.984 647.375 361.167 646.826 361.167 646.643C360.984 643.353 362.265 640.61 363.913 638.051C364.645 636.406 366.11 634.943 367.025 633.298C367.391 632.749 367.574 631.652 367.391 630.921C366.842 629.458 366.11 627.813 365.377 626.351C364.828 624.888 365.194 624.157 366.842 624.157C367.757 624.157 368.672 624.34 369.405 624.522C370.869 624.888 372.334 625.436 373.798 625.619C375.263 625.802 375.812 624.522 376.361 623.425C377.276 621.414 378.009 621.232 379.473 622.877C380.755 624.34 382.036 623.243 383.134 622.877C383.5 622.877 383.684 622.511 383.867 622.329C386.063 620.5 386.246 620.5 387.894 622.694C389.542 624.888 389.725 625.071 392.104 623.608C392.287 623.425 392.471 623.425 392.654 623.243C395.216 621.963 395.4 622.146 395.949 624.888C396.498 626.899 396.864 627.082 399.061 626.716C400.708 626.351 401.441 626.899 401.074 628.544C400.525 630.555 399.976 632.566 399.244 634.395C398.878 635.309 398.512 636.223 399.427 637.137C401.624 640.062 401.624 643.536 401.99 647.009C402.356 651.031 401.624 654.687 399.61 658.161C398.695 659.806 397.596 661.452 397.047 663.28C395.949 666.388 397.047 669.313 398.878 671.69C400.525 673.883 402.539 676.077 404.736 677.905C406.2 679.185 408.214 679.916 410.045 680.648C412.607 681.745 414.987 683.024 417.55 683.756C420.845 684.853 424.14 685.584 427.619 686.315C431.28 687.046 434.941 687.778 438.602 688.509C439.701 688.692 440.616 690.703 440.433 692.531C440.067 694.908 439.335 696.736 436.955 698.016C434.392 699.478 432.195 701.489 429.632 703.317C428.9 703.866 428.168 704.414 427.252 704.597C425.788 705.145 425.788 705.694 426.886 706.608C427.252 706.974 427.619 707.157 427.985 707.522C428.9 708.436 428.717 709.716 427.619 710.264C425.971 711.179 424.14 711.91 422.31 712.275C420.479 712.824 418.648 713.007 416.818 713.372C416.818 713.555 416.818 713.738 416.818 713.738C417.184 714.652 418.099 715.566 418.099 716.48C418.099 717.76 416.635 717.76 415.536 717.943C411.509 718.674 407.482 719.588 403.454 720.319C401.99 720.685 401.441 721.416 402.173 722.879C403.271 725.804 404.187 728.729 405.285 731.654C406.017 733.665 407.299 734.397 409.312 734.397C410.411 734.397 411.692 734.214 411.875 735.493C411.875 736.773 410.594 736.773 409.495 736.773C408.946 736.773 408.214 736.773 407.482 736.773C407.482 737.87 407.482 738.967 407.299 739.881C407.116 740.43 406.749 740.978 406.566 741.526C406.017 740.978 405.468 740.612 405.285 739.881C404.919 738.967 404.919 737.687 404.736 736.408C403.637 737.139 402.905 737.87 401.99 738.236C401.441 738.419 400.891 738.236 400.159 738.236C400.342 737.687 400.525 737.139 400.708 736.773C400.708 736.773 400.708 736.773 400.891 736.59C404.187 733.482 404.187 733.482 402.722 729.278C402.356 727.998 401.99 726.901 401.441 725.621C400.891 725.438 400.525 724.341 400.159 723.062ZM425.605 709.35C424.873 708.071 424.14 707.157 423.408 706.06C422.859 705.328 423.225 704.597 423.957 704.414C426.52 704.049 428.534 702.403 430.548 700.758C432.561 699.112 434.941 697.467 437.138 695.822C439.151 694.176 438.785 691.251 436.589 690.52C435.307 690.154 434.026 689.972 432.744 689.606C427.252 688.326 421.944 687.046 416.452 685.584C413.889 684.853 411.509 683.939 409.129 682.842C406.932 681.927 404.736 680.831 402.905 679.368C400.891 677.723 399.244 675.529 397.596 673.335C396.681 672.238 396.132 670.593 395.583 669.313C395.216 668.216 394.484 666.936 394.667 665.839C395.033 663.828 395.949 661.817 396.681 659.806C398.329 656.15 400.159 652.676 399.976 648.289C399.793 640.428 395.216 631.469 386.429 630.19C381.121 629.458 376.361 629.641 371.601 632.384C367.208 635.126 365.011 639.148 363.73 643.718C362.814 647.009 363.364 650.483 362.997 653.773C362.814 655.784 365.194 657.43 363.913 659.624C363.913 659.624 363.913 659.806 364.096 659.989C366.11 663.097 367.208 666.754 368.123 670.227C369.222 674.249 368.672 678.271 367.208 681.927C365.011 687.412 363.913 692.897 364.462 698.747C364.645 701.306 365.011 703.866 365.926 706.06C367.025 708.619 369.039 710.813 370.686 713.007C371.418 714.104 372.7 714.835 373.798 715.566C374.897 716.297 375.995 716.846 377.276 717.577C381.487 719.588 385.331 721.965 390.274 722.33C393.935 722.513 397.047 721.234 400.159 720.137C403.637 718.857 407.116 717.577 410.777 717.394C412.241 717.212 413.523 716.663 415.17 716.297C414.804 715.749 414.621 715.566 414.438 715.201C413.523 713.007 413.889 712.458 416.269 712.275C418.648 711.91 421.028 711.361 423.591 710.813C424.506 710.447 425.056 709.716 425.605 709.35ZM399.061 628.91C395.216 630.555 394.85 627.63 393.752 625.619C393.203 625.985 392.837 626.168 392.471 626.351C389.542 627.813 388.992 627.63 386.796 625.071C386.613 624.888 386.613 624.522 386.429 624.522C385.88 624.522 385.148 624.157 384.965 624.522C382.951 626.351 380.755 627.265 378.192 625.071C377.642 625.619 377.276 626.168 376.727 626.716C376.361 627.265 375.812 627.63 375.263 627.996C375.263 628.179 375.263 628.179 375.446 628.362C383.684 626.716 391.006 628.179 397.596 633.846C397.962 632.384 398.329 630.921 399.061 628.91ZM360.984 650.3C358.604 651.397 356.224 652.494 354.027 653.408C354.027 653.591 354.027 653.773 354.027 653.956C356.59 654.87 359.336 655.784 361.899 656.516C361.533 654.505 361.167 652.494 360.984 650.3ZM368.123 626.533C367.94 626.533 367.757 626.716 367.757 626.899C368.306 628.179 369.039 629.641 369.771 631.104C371.418 630.19 372.883 629.276 374.713 628.179C372.151 627.447 370.137 626.899 368.123 626.533Z" fill="#223A70" stroke="#223A70" stroke-width="0.5" stroke-miterlimit="10"/>
<path d="M372.15 645.364C371.967 644.085 372.882 643.536 374.347 643.536C375.628 643.719 376.91 643.719 377.093 645.364C377.276 647.01 375.994 648.472 374.713 648.289C373.249 648.107 372.15 646.827 372.15 645.364Z" fill="#223A70" stroke="#223A70" stroke-width="0.5" stroke-miterlimit="10"/>
<path d="M450.684 704.963C451.05 699.296 451.05 693.446 453.43 688.144C455.077 684.488 456.725 681.014 459.471 678.089C460.386 677.175 462.034 676.626 461.851 674.615C461.851 674.067 462.949 674.067 463.132 674.615C463.681 676.261 464.963 677.175 465.695 678.82C466.793 681.197 468.258 683.391 469.539 685.767C470.821 687.961 472.285 689.607 473.933 691.435C474.848 692.349 475.764 693.263 476.13 694.543C476.496 695.274 477.045 695.274 477.777 695.274C483.086 694.177 488.761 694.36 494.07 693.08C496.45 692.532 498.829 693.08 501.209 692.532C501.941 692.349 502.674 692.349 503.406 691.983C503.955 691.618 504.87 691.618 505.237 691.983C505.603 692.532 506.152 693.263 505.786 694.177C505.237 695.457 505.42 697.102 504.87 698.565C503.406 703.501 502.857 708.62 501.941 713.556C501.758 714.653 502.308 714.836 503.223 714.836C506.152 714.653 509.264 714.287 512.193 714.104C514.39 713.921 515.305 715.201 514.39 717.212C513.108 720.686 511.644 723.977 509.63 727.084C508.532 728.913 507.616 730.741 505.42 731.838C504.321 732.386 503.223 733.483 502.308 734.397C499.928 736.591 496.816 737.139 493.887 737.688C489.127 738.236 484.184 738.785 479.242 738.054C473.384 737.322 468.258 735.311 463.498 732.021C459.288 729.278 456.908 725.256 454.528 721.234C452.148 716.298 450.135 710.814 450.684 704.963ZM486.93 736.225C488.578 736.225 490.225 736.043 491.873 736.043C497.731 735.86 502.674 733.117 506.518 728.73C509.447 725.622 511.095 721.417 512.742 717.395C513.108 716.664 512.742 716.298 512.01 716.298C511.278 716.298 510.728 716.115 509.996 716.298C507.433 716.481 504.687 716.298 502.125 716.847C500.66 717.212 500.111 716.481 500.294 714.836C500.66 711.91 501.392 708.985 501.941 705.877C502.674 702.587 503.406 699.296 503.955 696.005C504.138 694.908 504.321 693.994 502.674 694.177C501.941 694.36 501.026 694.36 500.294 694.36C492.422 694.908 484.734 696.005 476.862 696.919C476.13 696.919 475.58 696.919 475.397 696.371C474.482 693.994 472.651 692.349 471.553 690.155C470.272 687.596 468.624 685.219 466.977 682.659C466.061 681.014 465.146 679.369 464.048 677.906C463.315 676.992 462.583 676.444 461.851 677.723C460.569 679.917 458.739 681.563 457.64 683.756C456.908 685.036 456.542 686.499 455.993 687.778C452.698 693.811 452.881 700.393 452.881 706.974C452.881 712.093 454.894 716.664 457.823 720.869C460.02 724.159 462.034 727.633 465.512 730.01C468.258 731.838 471.187 733.483 474.482 734.397C478.326 735.86 482.537 736.225 486.93 736.225Z" fill="#223A70" stroke="#223A70" stroke-width="0.5" stroke-miterlimit="10"/>
<path d="M585.784 698.93C586.516 702.587 585.235 706.243 584.137 709.717C583.221 712.459 581.757 715.018 579.926 717.212C577.546 720.503 575.533 724.159 571.871 726.17C569.125 727.633 566.196 728.913 563.084 729.461C559.789 730.009 556.677 731.289 553.199 731.106C544.412 730.558 536.723 727.998 530.316 721.234C525.556 716.115 522.444 710.448 520.431 703.866C519.882 702.221 520.065 700.393 521.163 698.93C521.712 698.199 522.261 698.016 523.177 698.382C527.021 699.479 530.682 700.941 534.71 701.673C535.625 701.855 535.991 701.49 535.991 700.758C535.808 695.822 536.723 690.886 536.357 685.767C535.991 682.111 536.54 681.928 539.835 682.842C545.144 684.488 550.27 685.95 555.579 687.595C556.86 687.961 557.776 687.961 557.959 686.316C558.874 681.014 560.338 675.895 561.986 670.776C562.718 668.582 563.084 668.582 565.098 669.496C569.308 671.507 572.97 674.25 576.265 677.175C579.56 679.917 581.94 683.756 583.587 687.778C585.418 691.069 586.15 694.725 585.784 698.93ZM537.822 698.747C537.822 700.027 537.822 701.124 538.005 702.404C538.005 703.318 537.822 704.415 536.357 703.866C532.879 702.587 529.218 702.221 525.74 700.941C524.641 700.576 523.36 699.479 522.444 700.576C521.529 701.49 521.895 703.135 522.261 704.415V704.598C524.641 709.899 526.838 715.384 531.414 719.406C535.259 722.697 538.554 726.536 543.863 727.45C547.158 727.998 550.453 729.095 553.931 728.913C558.874 728.73 563.817 727.633 568.393 725.805C570.59 724.891 572.604 723.794 574.068 721.965C576.082 719.04 578.462 716.481 580.109 713.373C584.32 706.06 584.686 698.382 582.672 690.338C581.391 685.767 578.645 681.928 575.35 678.637C574.251 677.723 573.153 676.809 572.054 676.078C569.858 674.433 567.661 672.787 565.281 671.507C564.549 671.142 564.183 671.142 563.817 671.873C561.254 677.358 559.789 683.025 559.789 688.875C559.789 689.972 559.24 690.703 558.142 690.155C555.579 689.058 553.016 688.51 550.453 687.595C546.975 686.499 543.497 685.584 540.018 684.488C538.92 684.122 538.371 684.305 538.371 685.584C538.188 689.789 538.005 694.36 537.822 698.747Z" fill="#223A70" stroke="#223A70" stroke-width="0.5" stroke-miterlimit="10"/>
<path d="M543.497 628.545C543.314 628.91 543.314 629.459 543.13 630.007C540.568 636.954 537.456 643.536 535.259 650.666C535.076 651.031 535.625 652.128 534.343 651.763C533.428 651.397 533.245 650.483 533.794 649.752C535.259 646.827 536.54 643.902 537.639 640.976C538.92 637.137 540.568 633.298 541.666 629.459C541.849 628.91 542.032 628.545 542.215 628.179C542.398 627.813 542.581 627.448 542.947 627.631C543.497 627.448 543.497 627.996 543.497 628.545Z" fill="#223A70" stroke="#223A70" stroke-width="0.5" stroke-miterlimit="10"/>
<path d="M481.072 640.062C481.072 639.514 480.889 639.148 481.438 638.965C481.988 638.965 482.171 639.148 482.537 639.697C483.635 642.073 484.917 644.267 486.015 646.644C486.93 648.838 487.846 651.214 489.493 653.225C490.042 653.774 490.408 654.322 490.958 654.871C491.141 655.053 491.69 655.419 491.507 655.602C491.507 656.333 491.507 657.247 490.775 657.613C490.225 657.978 489.859 657.064 489.493 656.516C486.015 651.945 484.184 646.827 481.621 641.708C481.438 641.159 481.072 640.611 481.072 640.062Z" fill="#223A70" stroke="#223A70" stroke-width="0.5" stroke-miterlimit="10"/>
<path d="M511.278 633.298C510.912 637.869 511.827 642.439 512.559 646.827C512.742 647.558 513.475 648.289 512.742 649.204C512.559 649.569 513.109 650.666 512.01 650.118C511.644 649.935 510.363 650.118 510.912 648.655C511.461 647.01 510.546 645.182 510.363 643.353C509.996 639.697 509.447 636.041 509.264 632.201C509.264 631.47 508.898 630.19 510.18 630.19C511.461 630.19 511.095 631.47 511.095 632.201C511.278 632.75 511.278 632.933 511.278 633.298Z" fill="#223A70" stroke="#223A70" stroke-width="0.5" stroke-miterlimit="10"/>
<path d="M570.938 411.843C571.659 411.41 572.092 411.987 572.668 412.131C573.822 412.564 574.543 412.131 574.975 410.978C575.552 409.68 575.119 408.383 574.398 407.373C573.677 406.364 572.668 406.797 571.659 406.941C570.938 407.085 570.506 407.373 570.361 408.094C570.073 409.392 569.496 410.689 569.208 411.987C568.92 413.573 568.343 415.159 567.622 416.745C567.189 417.61 567.478 417.754 568.487 417.754C571.659 417.466 574.687 416.312 577.426 414.726C579.3 413.717 580.021 411.41 581.031 409.536C583.914 404.057 582.472 398.723 580.166 393.388C578.58 389.639 577.138 385.891 575.408 382.142C573.966 379.114 572.092 376.375 568.92 374.645C566.757 373.491 565.171 374.356 563.441 375.077C563.152 375.221 563.008 375.366 562.576 375.221C564.018 371.617 560.413 373.203 559.404 372.194C560.99 371.184 562.576 372.05 564.018 372.482C564.45 372.626 564.738 373.059 565.315 372.915C568.631 371.905 570.938 373.78 572.957 375.942C575.263 378.393 576.705 381.421 578.003 384.449C579.877 388.63 581.751 392.811 583.049 397.281C584.058 400.597 584.491 403.769 583.193 407.085C582.04 410.113 581.319 413.429 578.58 415.592C577.426 416.601 575.84 416.889 574.543 417.466C572.668 418.331 570.65 418.619 568.775 418.908C564.594 419.484 564.306 419.773 564.594 423.954C564.738 424.963 564.738 425.828 564.594 426.837C564.594 427.558 564.306 428.568 565.748 428.423C565.892 428.423 566.036 428.568 566.036 428.568C568.199 432.316 572.38 433.614 575.119 436.497C578.435 439.958 580.598 443.851 581.175 448.753C581.896 455.673 580.886 462.738 581.319 469.659C581.607 474.561 581.463 479.607 582.472 484.509C582.617 485.086 582.761 485.807 581.896 485.807C581.175 485.807 581.031 485.374 580.886 484.653C580.166 477.3 579.877 469.947 580.166 462.45C580.31 457.692 580.454 453.078 579.733 448.32C578.868 443.418 576.994 438.948 572.38 436.209C570.65 435.2 569.496 433.326 567.622 432.172C566.901 431.74 566.613 431.307 566.18 432.605C564.883 436.93 558.971 438.083 555.799 434.479C554.934 433.614 554.502 433.326 553.637 434.191C552.339 435.488 550.609 435.921 549.167 436.642C545.274 438.804 543.544 442.265 542.679 446.302C541.67 451.78 541.381 457.115 541.958 462.738C542.102 464.901 541.67 467.208 541.958 469.514C542.102 470.235 541.67 470.956 542.391 471.533C542.535 471.533 542.535 471.677 542.535 471.821C541.237 475.137 542.679 478.598 542.535 481.914C542.391 484.365 542.535 486.816 542.535 489.267C542.535 489.844 542.679 490.564 541.814 490.564C540.949 490.564 541.237 489.844 541.237 489.267C541.526 484.941 541.814 480.472 541.093 476.147C540.228 469.514 540.805 462.882 540.372 456.394C540.084 452.645 540.372 448.897 541.381 445.292C542.247 441.688 543.977 438.804 546.86 436.497C548.158 435.488 549.455 434.767 550.897 434.191C554.934 432.605 556.376 429.288 556.664 425.251C556.809 424.386 556.52 423.521 555.078 423.666C552.916 423.81 551.041 422.8 549.455 421.07C548.59 420.061 547.437 419.196 546.428 418.187C544.409 416.168 544.121 413.573 543.832 410.834C543.832 410.257 543.688 409.68 543.688 409.103C543.688 408.527 543.4 408.383 542.823 408.383C539.795 408.238 538.354 406.22 539.075 403.192C539.507 400.885 539.651 400.741 542.102 401.029C542.967 401.174 543.256 400.885 543.256 400.02C543.256 398.434 543.256 396.848 543.4 395.262C543.544 393.821 543.544 392.667 544.842 391.225C548.158 387.765 552.051 385.026 555.944 382.43C556.52 382.142 556.953 381.854 557.529 382.286C558.106 382.719 557.818 383.151 557.818 383.728C557.674 385.747 557.097 387.621 556.376 389.639C556.232 390.072 555.655 390.504 556.232 390.793C556.809 391.081 556.953 390.36 557.385 390.216C559.404 388.63 560.701 386.612 561.566 384.016C562.143 382.575 563.873 382.286 564.738 383.872C566.757 387.332 569.929 390.072 571.082 393.965C571.947 396.56 572.092 399.299 572.236 401.895C572.236 403.048 571.515 404.057 570.938 405.066C570.794 405.355 570.65 405.643 570.938 406.076C571.226 406.364 571.515 406.076 571.659 405.932C573.822 405.211 575.552 405.932 575.984 407.806C576.705 410.257 575.552 413.14 573.533 413.573C572.38 413.861 571.659 412.852 570.938 411.843ZM555.655 422.512C560.125 423.233 565.748 418.475 566.901 414.15C567.91 410.257 569.064 406.508 570.073 402.76C570.938 399.732 570.65 396.992 569.785 394.109C568.775 390.649 565.892 388.486 564.306 385.458C563.441 384.016 562.864 384.737 562.432 385.891C560.846 389.495 558.539 392.379 554.358 393.244C553.925 393.388 553.492 393.821 552.916 393.244C552.339 392.523 552.916 392.09 553.348 391.802C555.078 390.216 555.223 388.053 556.088 386.179C556.232 385.747 556.232 385.17 555.944 384.881C555.511 384.593 555.223 385.026 554.934 385.17C552.051 386.9 549.455 389.063 546.86 391.369C545.707 392.379 544.986 393.821 544.698 395.406C544.265 398.867 544.986 402.183 544.842 405.643C544.842 406.508 546.139 406.364 545.707 407.229C544.698 409.248 545.418 411.266 545.707 413.285C546.428 417.754 551.33 422.224 555.655 422.512ZM563.008 421.935C561.422 422.656 559.836 423.666 558.106 423.81C557.385 423.81 557.529 424.386 557.674 424.963C557.674 427.126 557.674 429.433 556.809 431.307C556.088 432.605 556.52 433.326 557.241 434.046C558.395 435.2 561.422 435.632 562.864 434.911C564.018 434.335 565.459 431.451 564.738 431.019C563.152 430.298 563.729 429.144 563.585 427.991C563.297 426.117 563.585 424.098 563.008 421.935ZM540.372 404.346C540.228 405.932 541.093 407.373 542.247 407.518C542.823 407.518 543.4 407.518 543.4 406.508C543.4 404.49 542.535 402.615 541.381 402.615C540.084 402.615 540.661 403.769 540.372 404.346Z" fill="#223A70" stroke="#223A70" stroke-miterlimit="10"/>
<path d="M547.87 420.926C543.544 421.935 537.922 419.196 535.903 415.592C532.875 410.257 534.029 404.922 535.47 399.444C536.48 395.407 539.219 392.09 540.084 387.909C540.661 384.016 542.247 380.412 544.842 377.384C547.726 374.068 551.042 371.617 555.511 371.04C556.521 370.896 557.674 371.185 558.827 371.185C558.251 372.338 557.53 372.194 556.665 372.194C552.772 372.05 549.888 373.924 547.149 376.519C542.968 380.556 541.814 385.747 540.228 390.937C540.084 391.658 539.796 392.235 539.507 392.811C537.056 397.137 535.615 401.895 535.326 406.797C534.894 411.122 536.047 414.727 539.363 417.61C540.949 418.908 542.679 419.484 544.554 419.629C545.851 419.629 546.861 420.205 547.87 420.926Z" fill="#223A70" stroke="#223A70" stroke-miterlimit="10"/>
<path d="M550.321 484.797C550.609 482.49 550.897 480.183 551.186 477.876C551.474 475.281 551.042 472.542 551.042 469.802C551.042 466.054 549.311 462.882 548.302 459.422C547.581 456.538 547.87 453.799 549.167 451.059C549.311 450.627 549.456 449.906 550.177 450.194C550.753 450.483 550.321 451.059 550.177 451.348C550.032 452.789 549.167 453.943 549.167 455.529C549.167 457.98 549.744 460.142 550.753 462.305C551.907 464.9 552.051 467.64 552.195 470.379C552.339 473.407 552.339 476.579 552.339 479.607C552.339 480.904 551.763 482.202 551.618 483.499C551.474 484.941 551.33 486.383 551.618 487.825C551.763 488.402 551.474 488.978 550.897 488.978C550.177 488.978 550.177 488.402 550.177 487.825C550.177 486.816 550.177 485.806 550.321 484.797Z" fill="#223A70" stroke="#223A70" stroke-miterlimit="10"/>
<path d="M576.273 451.492C576.129 455.241 576.705 458.701 575.264 461.873C573.245 466.631 572.38 471.677 573.101 476.868C573.533 479.751 574.11 482.635 574.543 485.518C574.543 485.951 574.831 486.672 574.11 486.816C573.389 486.96 573.245 486.528 573.101 485.951C572.236 481.626 571.371 477.3 571.515 472.975C571.515 469.226 572.092 465.622 573.822 462.161C575.119 459.566 574.975 456.827 574.975 454.087C574.975 453.078 574.975 452.213 576.273 451.492Z" fill="#223A70" stroke="#223A70" stroke-miterlimit="10"/>
<path d="M556.665 414.438C554.791 414.294 553.926 413.573 553.493 412.276C553.349 411.987 553.349 411.555 553.637 411.266C554.07 410.978 554.214 411.266 554.502 411.555C556.953 413.285 557.53 413.285 559.404 410.978C559.693 410.545 560.125 410.401 560.558 410.69C560.99 410.978 560.99 411.41 560.702 411.987C560.125 413.141 557.819 414.438 556.665 414.438Z" fill="#223A70" stroke="#223A70" stroke-miterlimit="10"/>
<path d="M550.898 400.597C550.753 401.318 550.753 402.471 549.744 402.327C548.735 402.183 548.591 401.029 548.447 400.164C548.302 399.299 549.167 399.011 549.888 399.011C550.753 399.011 551.042 399.732 550.898 400.597Z" fill="#223A70" stroke="#223A70" stroke-miterlimit="10"/>
<path d="M565.315 400.598C565.027 401.463 564.739 402.184 563.729 402.039C563.008 402.039 562.432 401.463 562.576 400.598C562.576 399.732 563.153 399.156 564.018 399.156C564.594 399.444 565.171 399.732 565.315 400.598Z" fill="#223A70" stroke="#223A70" stroke-miterlimit="10"/>
<path d="M473.709 479.977C472.682 479.585 471.399 479.585 470.373 478.669C469.089 477.361 468.833 475.661 469.089 473.961C469.859 468.075 470.244 462.189 470.373 456.434C470.501 451.857 470.886 447.41 470.629 442.832C470.501 440.216 470.758 437.47 470.629 434.854C470.629 432.892 470.758 430.799 472.682 429.622C473.965 428.837 475.377 428.968 476.788 429.099C480.381 429.36 483.974 430.145 487.567 430.538C489.363 430.799 491.16 430.668 493.085 430.799C494.496 430.93 495.779 430.93 497.062 431.061C499.629 431.453 501.682 433.677 501.938 436.554C501.938 437.077 501.938 437.731 502.708 437.731C502.837 437.731 503.093 437.993 502.965 438.124C501.938 439.301 502.452 440.87 502.58 442.047C503.093 447.933 502.195 453.557 501.554 459.312C501.297 461.928 501.169 464.674 500.912 467.29C500.527 470.691 500.655 474.091 499.757 477.492C499.757 477.753 499.757 478.015 499.629 478.277C499.372 480.762 498.346 481.808 495.779 481.939C492.443 482.2 489.107 481.546 485.771 481.416C482.691 481.285 479.611 480.762 476.66 480.631C475.89 480.5 474.864 480.239 473.709 479.977ZM471.527 468.86C472.426 468.99 473.067 469.121 473.709 469.252C477.045 469.644 480.381 469.644 483.589 470.168C488.465 471.083 493.213 470.952 498.089 471.083C499.5 471.083 499.885 470.56 500.014 469.383C500.014 468.99 500.142 468.729 500.142 468.336C500.27 464.02 500.912 459.704 501.425 455.388C501.938 450.941 502.323 446.494 501.938 442.047C501.938 441.786 502.067 441.263 501.682 441.132C501.04 440.87 500.912 440.478 501.169 439.824C501.425 439.301 501.04 439.039 500.527 438.908C499.757 438.777 498.987 439.039 498.217 438.908C491.545 438.385 485.129 436.946 478.585 435.9C476.532 435.508 474.479 435.246 472.426 434.985C472.041 434.985 471.656 434.985 471.656 435.508C471.784 437.077 471.399 438.647 471.399 440.216C471.527 442.832 471.399 445.317 471.399 447.933C471.271 451.072 471.142 454.211 471.142 457.35C471.142 460.489 470.886 463.759 470.629 466.898C470.373 468.336 470.373 469.121 471.527 468.86ZM499.5 472.26C497.447 472.129 495.523 472.26 493.47 472.129C490.903 471.868 488.209 472.129 485.642 471.606C480.766 470.56 475.89 470.691 471.014 469.906C470.373 469.775 470.116 470.037 470.116 470.691C469.988 471.868 469.859 472.914 469.731 474.091C469.474 477.1 470.758 478.669 473.709 479.323C475.12 479.585 476.532 479.585 477.943 479.846C483.461 480.369 489.107 480.762 494.624 481.154C497.062 481.285 498.217 480.239 498.731 477.884C499.244 475.792 499.372 474.091 499.5 472.26ZM483.718 436.031C488.209 437.077 492.186 437.208 496.164 437.862C497.447 437.993 498.731 437.993 500.014 437.862C500.527 437.862 501.169 437.862 501.169 436.946C501.169 434.985 499.629 432.761 497.704 432.238C495.779 431.715 493.726 431.846 491.801 431.715C487.952 431.453 484.231 431.061 480.51 430.276C478.2 429.884 475.89 429.622 473.581 430.276C472.554 430.668 471.527 431.976 471.656 433.284C471.784 434.331 472.939 433.938 473.581 434.331C473.709 434.461 473.965 434.461 474.222 434.461C477.43 434.985 480.895 435.508 483.718 436.031Z" fill="#223A70" stroke="#223A70" stroke-miterlimit="10"/>
<path d="M485.95 476.814C485.691 478.261 484.528 479.129 483.495 478.984C481.815 478.55 480.781 476.959 481.039 475.367C481.298 474.499 482.978 473.775 484.399 474.065C485.433 474.209 486.208 475.512 485.95 476.814ZM483.107 477.682C483.882 477.971 484.528 477.537 484.787 476.669C485.045 475.946 484.528 475.222 483.882 475.222C483.236 475.222 482.202 474.788 481.944 475.946C481.815 476.669 482.202 477.393 483.107 477.682Z" fill="#223A70" stroke="#223A70" stroke-miterlimit="10"/>
<path d="M450.813 386C452.246 386.521 453.549 387.043 454.852 387.955C455.764 388.606 456.415 389.388 456.546 390.561C457.197 396.816 457.849 403.072 457.979 409.327C458.109 412.976 457.588 416.755 457.718 420.404C457.849 429.396 456.806 438.258 456.546 447.12C456.415 449.075 455.894 450.899 456.024 452.854C456.285 455.851 455.373 458.458 454.2 461.064C453.158 463.67 450.813 464.973 447.946 465.234C446.513 465.364 445.21 465.495 443.777 465.625C437.913 465.886 432.05 466.277 426.187 466.016C423.32 465.886 420.454 466.016 417.587 465.886C416.936 465.886 416.545 466.146 416.414 466.798C415.893 469.795 416.154 472.923 417.587 475.66C418.499 477.614 420.323 478.657 422.669 478.657C422.538 479.96 422.017 480.091 420.975 479.96C415.502 479.178 409.9 479.309 404.427 479.439C401.43 479.569 398.434 479.83 395.437 479.96C394.916 479.96 394.264 479.96 394.134 479.439C394.004 478.657 394.785 478.918 395.307 478.787C398.564 478.136 400.258 476.442 400.649 473.053C400.909 471.098 401.17 469.013 401.43 467.059C401.561 466.016 400.779 466.146 400.258 466.016C396.349 465.625 392.44 465.886 388.531 465.755C380.974 465.495 373.417 465.625 366.381 462.367C363.775 461.194 362.342 458.979 361.56 456.372C360.127 451.811 359.996 447.12 359.866 442.559C359.605 437.867 358.954 433.045 358.563 428.223C358.042 422.88 357.912 417.668 358.042 412.194C358.172 407.503 357.912 402.942 357.13 398.38C356.739 396.295 357.26 394.601 358.302 393.168C359.345 391.473 361.039 390.561 362.993 389.91C366.12 388.867 369.378 388.085 372.635 387.434C374.459 387.043 376.283 387.043 378.238 387.043C378.498 387.043 378.889 386.912 379.02 387.303C379.02 387.694 378.759 387.694 378.368 387.824C377.326 388.346 376.283 387.955 375.241 387.955C371.593 388.085 368.075 389.258 364.557 389.91C362.733 390.301 360.908 391.213 359.605 392.386C357.912 393.949 357.912 396.165 358.042 398.25C358.172 400.856 358.693 403.463 358.824 406.069C358.954 410.239 358.693 414.54 358.824 418.71C358.824 423.011 359.345 427.181 359.866 431.481C360.387 434.87 360.648 438.128 360.648 441.516C360.648 445.556 361.169 449.596 361.82 453.505C361.951 454.027 362.081 454.287 362.602 454.548C363.905 455.069 365.208 455.2 366.772 454.809C368.726 454.287 370.811 454.678 372.765 454.548C380.974 454.157 389.183 454.548 397.391 454.418C402.864 454.287 408.336 454.157 413.678 454.287C419.542 454.418 425.275 454.418 431.138 454.157C434.004 454.027 436.871 453.114 439.737 453.245C443.255 453.375 446.773 453.375 450.291 453.114C451.334 453.114 452.506 453.505 453.679 453.375C454.331 453.375 454.461 453.245 454.591 452.463C455.634 443.08 456.155 433.697 456.546 424.314C456.806 418.319 457.197 412.324 456.806 406.46C456.546 401.378 456.024 396.426 455.634 391.343C455.503 388.867 453.679 388.085 451.855 387.303C451.073 387.043 450.422 386.912 450.813 386ZM375.502 464.322C379.801 463.931 383.971 464.713 388.271 464.713C394.394 464.713 400.649 464.973 406.773 464.973C408.597 464.973 410.421 464.713 412.115 464.713C415.112 464.713 417.978 464.973 420.975 464.973C426.578 464.973 432.311 464.973 437.913 464.713C441.04 464.583 444.168 464.322 447.164 464.061C448.467 463.931 449.77 463.54 450.943 462.628C453.158 461.194 453.419 458.848 454.2 456.633C454.591 455.46 454.2 455.069 453.028 455.069C451.334 455.069 449.64 454.939 447.946 454.809C446.383 454.678 444.819 454.548 443.125 454.678C441.562 454.939 440.128 455.2 438.565 455.46C436.35 455.851 434.004 455.069 431.789 455.46C427.75 456.112 423.581 455.33 419.542 455.721C416.675 455.981 413.809 455.33 410.942 455.33C406.382 455.46 401.821 455.33 397.391 455.2C393.873 455.069 390.486 455.721 386.968 455.59C383.58 455.33 380.322 455.59 376.935 455.59C373.026 455.59 369.117 454.939 365.208 455.981C364.557 456.112 364.296 455.721 363.905 455.46C363.514 455.33 362.993 455.2 362.733 455.46C362.211 455.721 362.602 456.242 362.733 456.503C363.254 458.327 364.426 459.63 365.86 460.673C368.726 463.019 372.374 462.628 375.502 464.322ZM399.737 478.136C399.997 478.266 400.127 478.396 400.127 478.396C405.73 479.048 411.333 478.005 416.936 478.657C417.196 478.657 417.587 478.787 417.717 478.396C417.848 478.005 417.587 477.745 417.327 477.614C416.284 476.572 415.893 475.138 415.502 473.705C414.851 471.489 415.242 469.274 415.372 467.059C415.372 465.886 415.112 465.625 413.939 465.625C410.291 465.755 406.642 466.277 402.864 466.016C402.473 466.016 401.952 466.016 402.082 466.537C402.473 467.71 401.821 468.753 401.821 469.926C402.082 472.793 401.821 475.66 399.737 478.136Z" fill="#223A70" stroke="#223A70" stroke-miterlimit="10"/>
<path d="M422 384.606C421.478 385.236 420.826 384.984 420.304 384.984C417.435 384.354 414.565 384.732 411.565 384.858C408.304 384.984 405.043 384.984 401.783 385.488C399.174 385.866 396.435 385.866 393.826 386.244C389.913 386.748 386 386.874 382.087 387C381.174 387 380.913 385.866 380 386.37C381.696 385.614 383.522 386.244 385.217 386.118C390.043 385.866 394.87 385.614 399.696 385.11C403.217 384.732 406.739 384.606 410.261 384.228C413.783 383.85 417.304 383.976 420.826 384.354C421.217 384.228 421.609 384.228 422 384.606Z" fill="#223A70" stroke="#223A70" stroke-miterlimit="10"/>
<path d="M452 385.152C451.167 386.078 450.335 386.078 449.224 385.924C446.032 385.461 442.979 384.844 439.648 384.998C435.901 385.152 432.153 384.226 428.406 384.844C426.602 385.152 424.659 385.615 422.854 385.615C422.577 385.615 422.161 385.769 422.022 385.306C421.883 384.689 422.438 384.689 422.854 384.689C428.406 384.535 433.958 383.764 439.509 384.072C443.534 384.226 447.698 384.689 452 385.152Z" fill="#223A70" stroke="#223A70" stroke-miterlimit="10"/>
</svg>
