<svg width="375" height="321" viewBox="0 0 375 321" fill="none" xmlns="http://www.w3.org/2000/svg">
    <path opacity="0.2" d="M234.028 118.321C233.33 116.623 232.806 115.148 232.282 113.672C231.679 116.118 230.394 118.379 230.871 121.058C231.651 120.448 232.419 119.938 233.187 119.427C233.732 119.091 234.03 119.128 234.354 119.772C234.728 120.826 235.313 121.805 236.01 122.697C236.55 119.942 237.177 117.297 237.717 114.542C237.617 114.53 237.419 114.505 237.332 114.394C236.256 115.773 235.216 116.855 234.028 118.321Z" fill="#2655BD"/>
    <path opacity="0.2" d="M273.182 187.536L274.323 187.273C274.323 187.273 273.637 185.475 274.591 185.089C275.546 184.702 276.068 185.371 276.178 184.477C276.188 183.571 276.606 181.809 276.606 181.809L278.05 184.002L279.868 181.504L281.607 182.927L282.528 184.451L284.594 181.581L285.611 181.504L287.129 183.908L288.182 183.534L289.399 184.288C289.399 184.288 290.033 184.87 289.861 185.454C289.688 186.037 289.046 187.167 289.046 187.167L291.968 190.449C291.968 190.449 292.168 191.28 291.785 191.939C291.401 192.597 289.244 192.937 289.244 192.937L291.358 195.414L287.913 197.208L286.311 196.305L286.614 198.761L285.315 200.315L283.628 200.108C283.628 200.108 282.435 204.899 280.984 205.225C279.534 205.551 277.16 203.546 277.16 203.546C277.16 203.546 274.251 205.909 273.096 205.465C271.954 204.921 270.524 203.436 270.784 202.964C271.043 202.491 271.043 202.491 271.043 202.491C271.043 202.491 270.225 202.592 268.724 202.509C267.211 202.524 264.287 198.436 264.287 198.436C264.287 198.436 261.726 195.501 262.901 194.133C263.965 192.853 265.702 192.663 265.702 192.663C265.702 192.663 264.183 190.26 264.504 189.291C264.824 188.323 266.263 188.096 266.263 188.096L266.989 185.464L269.272 185.745L270.992 184.041L272.57 185.142L273.182 187.536Z" fill="#2655BD"/>
    <path opacity="0.2" d="M261.841 31.3346C262.386 30.9985 263.316 30.8104 263.316 30.8104C263.316 30.8104 268.851 32.4986 269.884 33.9358C270.843 35.9686 271.79 38.1007 272.924 40.3565C273.873 37.5504 276.239 36.3295 278.245 34.7619C278.245 34.7619 280.612 33.541 281.815 33.5881C283.018 33.6352 285.301 33.9158 285.959 34.2991C287.612 35.6108 288.731 37.1594 288.066 39.2949C287.524 41.244 286.983 43.1932 285.969 44.8827C283.152 49.7772 280.147 54.5481 277.243 59.3311C274.857 63.1701 271.651 66.3035 268.358 69.3255C268.024 69.5867 267.776 69.9595 267.318 70.4071C266.26 68.3621 265.189 66.4163 264.416 64.5072C262.957 60.8004 261.299 57.0692 260.262 53.2126C259.087 48.8352 257.725 44.3341 258.088 39.7425C258.18 36.5287 258.868 33.3881 261.841 31.3346Z" fill="#2655BD"/>
    <path d="M287.246 180.496C288.71 175.133 290.274 169.782 291.64 164.407C292.76 160.211 294.09 155.94 293.436 151.425C293.184 149.378 293.043 147.244 292.79 145.198C292.74 144.788 292.479 144.454 292.23 144.02C292.341 143.933 292.44 143.945 292.552 143.858C292.789 144.391 293.236 144.849 293.374 145.37C294.46 148.829 294.319 152.44 293.991 155.928C293.639 159.613 292.493 163.202 291.558 166.715C291.177 168.18 290.609 169.521 290.24 170.887C289.698 172.836 289.268 174.698 288.825 176.659C288.383 178.62 287.829 180.669 287.374 182.73C287.66 182.865 287.846 182.989 288.045 183.013C290.204 183.48 290.801 184.36 290.124 186.595C290.087 186.893 290.324 187.426 290.585 187.76C291.107 188.429 291.741 189.011 292.264 189.68C292.873 190.46 292.763 191.354 291.971 192.063C291.302 192.585 290.546 192.996 289.791 193.407C290.165 194.461 292.387 195.238 290.579 196.83C290.954 197.884 291.34 198.839 291.627 199.781C292.228 202.274 292.94 204.679 293.33 207.247C293.934 211.353 294.736 215.483 294.82 219.726C294.915 223.87 294.403 228.04 294.102 232.135C293.742 238.339 292.006 244.274 290.381 250.121C289.322 253.821 288.263 257.521 287.192 261.32C286.699 262.872 286.206 264.424 285.912 266C285.151 269.736 285.208 273.372 285.65 277.155C286.078 280.231 287.25 282.996 289.264 285.461C289.886 286.142 289.614 286.713 288.759 287.112C288.199 285.934 287.737 284.769 287.177 283.591C285.197 280.022 284.557 276.214 284.747 272.206C284.853 269.7 285.059 267.205 285.562 264.748C285.929 262.576 286.781 260.564 287.446 258.428C288.148 255.995 288.862 253.462 289.465 251.017C290.561 247.019 291.768 242.934 292.764 238.925C293.17 237.261 293.191 235.45 293.41 233.662C294.363 226.725 294.72 219.714 293.763 212.743C293.145 207.93 292.217 203.179 290.558 198.642C290.421 198.121 290.01 197.365 289.625 197.217C288.545 196.983 287.245 197.731 287.048 198.513C286.308 200.437 285.428 201.035 283.877 200.542C283.321 201.784 282.853 203.137 282.198 204.367C281.308 205.87 279.671 206.072 278.404 204.908C277.683 204.215 277.298 204.067 276.419 204.664C273.606 206.234 271.471 205.568 270.883 202.976C267.547 203.07 266.976 202.798 265.358 200.382C264.686 199.292 263.902 198.288 263.23 197.198C261.712 194.794 262.316 193.155 265.031 192.38C264.632 191.525 264.333 190.682 263.934 189.826C261.146 191.197 259.241 193.583 257.075 195.635C253.993 198.582 252.127 202.283 250.921 206.368C250.071 209.186 249.618 212.054 248.867 214.884C247.698 219.477 247.212 224.255 247.235 228.995C247.22 234.032 247.715 239.032 247.8 244.081C247.86 249.33 247.611 254.641 247.374 259.852C247.184 263.86 246.025 267.548 243.8 270.903C241.957 273.599 239.504 274.708 236.34 274.219C234.466 273.888 233.199 272.724 232.067 271.275C229.89 268.488 228.259 265.364 227.892 261.792C227.664 259.546 227.734 257.338 227.494 255.192C226.851 250.577 226.717 245.925 226.881 241.309C226.972 237.289 227.162 233.28 227.439 229.384C227.8 223.986 228.26 218.6 228.919 213.238C229.675 207.083 230.729 200.964 231.783 194.844C232.481 190.798 233.18 186.752 233.977 182.718C234.199 181.737 234.606 180.88 234.827 179.899C235.318 177.541 235.71 175.17 236.301 172.824C237.212 169.509 238.321 166.219 239.232 162.904C240.267 159.403 241.115 155.778 242.149 152.277C243.22 148.478 244.589 144.716 245.462 140.892C246.15 137.752 246.453 134.463 246.856 131.187C247.343 127.215 246.591 123.494 244.6 120.024C243.355 117.856 242.42 115.624 241.386 113.381C240.975 112.625 240.886 111.707 240.586 110.864C240.698 110.777 240.797 110.789 240.909 110.702C240.996 110.813 241.083 110.925 241.071 111.024C242.429 113.912 243.675 116.887 245.244 119.7C246.9 122.625 247.836 125.663 247.645 128.865C247.331 133.059 246.62 137.205 246.12 141.275C246.035 141.97 246.111 142.988 245.678 143.237C244.798 143.834 245.011 144.566 244.814 145.348C244.617 146.13 244.631 146.837 244.335 147.607C243.264 151.406 242.093 155.193 241.022 158.992C239.631 163.759 238.152 168.415 236.959 173.207C235.384 179.464 233.996 185.844 232.819 192.15C231.605 198.753 230.589 205.381 229.574 212.009C228.314 220.622 227.96 229.246 227.495 237.957C227.163 245.576 227.973 252.932 228.757 260.487C228.909 261.715 228.75 263.006 229.224 264.072C230.258 266.315 231.404 268.472 232.871 270.466C233.643 271.569 234.86 272.323 235.978 273.066C237.282 273.931 238.621 273.693 239.835 272.834C240.714 272.237 241.867 271.874 242.572 271.054C244.441 268.966 245.564 266.383 246.092 263.726C246.681 260.573 247.083 257.297 247.176 254.083C247.313 248.859 247.141 243.698 246.969 238.537C246.938 235.51 246.597 232.545 246.665 229.53C246.752 223.896 247.237 218.312 248.813 212.862C249.343 211.012 249.686 209.038 250.116 207.176C250.694 204.929 251.757 202.843 252.831 200.657C254.005 198.483 255.44 196.643 257.073 194.829C259.388 192.392 261.765 190.265 264.427 188.274C264.873 187.926 265.505 187.701 266.05 187.365C266.172 186.372 266.318 185.181 266.453 184.089C266.646 181.694 266.319 179.436 265.892 177.166C265.215 173.656 265.046 170.108 264.766 166.647C264.563 164.203 264.359 161.759 264.366 159.241C264.359 156.015 264.762 152.738 266.132 149.782C267.331 147.41 268.541 144.938 270.025 142.702C270.902 141.298 272.327 140.364 273.49 139.096C273.577 139.208 273.764 139.331 273.851 139.443C273.603 139.816 273.356 140.188 273.022 140.45C272.44 141.084 271.672 141.594 271.178 142.34C267.355 147.211 265.072 152.675 265.209 158.941C265.317 162.986 265.424 167.03 265.731 171.099C266.124 175.28 266.716 179.485 267.32 183.591C267.37 184 267.694 184.644 267.992 184.681C268.575 184.853 269.233 185.237 269.839 184.404C270.693 183.199 271.685 183.321 272.766 184.361C272.953 184.484 273.028 184.695 273.214 184.819C273.883 184.296 274.452 183.762 275.022 183.227C275.244 183.053 275.194 182.643 275.33 182.358C275.502 181.774 275.687 181.091 275.959 180.52C276.366 179.663 276.85 179.823 277.273 180.48C277.522 180.914 277.87 181.36 278.107 181.893C279.086 181.308 278.921 179.372 280.535 180.175C281.379 180.682 282.076 181.574 282.896 182.28C284.491 179.956 285.818 179.817 287.098 180.881C287.098 180.881 287.221 180.695 287.246 180.496ZM285.511 181.493C284.456 181.061 283.826 182.092 283.418 182.949C283.159 183.421 282.812 183.781 282.441 184.34C281.931 183.572 281.619 182.828 281.085 182.259C280.115 181.132 279.706 181.182 279.039 182.511C278.903 182.797 278.755 183.182 278.619 183.468C278.483 183.753 278.459 183.952 278.187 184.523C277.515 183.433 277.116 182.577 276.618 181.71C276.519 181.698 276.42 181.685 276.321 181.673C276.247 182.269 276.075 182.852 276.213 183.373C276.326 184.093 276.388 184.403 275.57 184.504C274.442 184.667 274.158 185.338 274.532 186.392C274.744 187.124 274.645 187.111 273.195 187.437C272.97 186.805 272.857 186.085 272.521 185.54C272.26 185.206 271.713 184.735 271.304 184.786C271.006 184.749 270.437 185.284 270.301 185.569C270.017 186.24 269.794 186.414 269.037 186.019C268.565 185.759 267.945 185.885 267.349 185.811C267.351 186.618 267.154 187.4 267.255 188.219C267.38 188.839 267.828 189.297 268.052 189.929C267.941 190.016 267.929 190.116 267.805 190.302C267.433 190.055 267.048 189.907 266.787 189.572C266.351 189.015 265.904 188.557 265.334 189.091C265.111 189.265 265.026 189.96 265.077 190.37C265.115 190.878 265.463 191.324 265.712 191.758C265.961 192.192 266.222 192.526 266.657 193.084C266.149 193.122 265.938 193.197 265.641 193.16C264.45 193.014 263.396 193.388 263.187 194.27C262.99 195.052 263.676 196.85 264.347 197.133C264.533 197.257 264.756 197.083 264.954 197.107C265.451 197.168 265.947 197.229 266.741 197.327C266.159 197.961 265.701 198.409 265.355 198.769C266.814 202.476 269.965 203.065 271.052 200.78C271.301 201.213 271.463 201.536 271.526 201.846C271.602 202.863 271.134 204.216 272.697 204.61C273.864 204.955 275.661 204.269 276.502 203.163C276.626 202.976 276.762 202.691 276.898 202.405C277.42 203.074 277.954 203.644 278.489 204.213C279.856 205.389 281.009 205.027 281.811 203.412C282.738 201.611 282.647 199.887 281.862 198.077C281.974 197.99 282.085 197.903 282.184 197.915C282.644 198.274 282.992 198.72 283.452 199.079C283.812 199.425 284.645 200.031 284.657 199.932C285.214 199.497 285.684 198.95 285.869 198.267C286.078 197.386 285.89 196.455 285.913 195.45C286.658 195.945 287.255 196.825 287.95 196.91C288.645 196.996 289.437 196.287 290.614 195.726C289.707 194.909 289.085 194.228 288.34 193.733C287.781 193.362 287.631 192.94 287.903 192.369C288.027 192.183 288.15 191.996 288.076 191.786C287.839 191.253 287.701 190.732 287.353 190.286C287.266 190.174 286.522 190.486 286.188 190.747C285.742 191.096 285.483 191.568 285.013 192.115C284.776 191.582 284.602 191.359 284.539 191.049C284.177 189.895 283.296 189.686 282.255 189.961C281.225 190.137 280.929 190.907 280.919 191.813C280.896 192.818 280.675 193.799 281.471 194.703C281.819 195.149 281.685 196.241 281.413 196.812C280.561 198.824 281.159 199.704 277.883 199.301C277.586 199.265 277.35 199.538 277.128 199.712C275.889 200.769 274.587 200.71 273.419 199.559C273.145 199.324 272.884 198.989 272.586 198.952C271.134 198.472 270.636 197.604 270.831 196.016C270.892 195.519 270.767 194.899 270.629 194.378C270.441 193.448 270.34 192.629 271.232 191.933C271.455 191.758 271.504 191.361 271.627 191.175C271.875 190.802 272.122 190.429 272.456 190.168C273.67 189.31 275.568 189.442 276.674 190.283C276.947 190.519 277.356 190.468 277.753 190.517C277.852 190.529 277.976 190.343 278.075 190.355C280.024 190.897 281.447 189.157 283.27 189.078C283.679 189.028 284.052 189.275 284.424 189.523C284.797 189.77 284.947 190.192 285.319 190.439C287.945 188.746 288.219 188.981 288.934 193C289.578 192.676 290.31 192.463 290.855 192.127C291.846 191.443 291.88 190.338 290.973 189.521C290.165 188.717 289.246 187.999 288.327 187.281C289.008 186.659 289.863 186.26 289.488 185.207C288.989 183.533 287.737 183.883 286.906 184.083C286.457 182.818 286.194 181.677 285.511 181.493ZM272.64 195.23C271.947 195.951 271.329 196.883 272.125 197.787C272.299 198.01 273.018 197.897 273.725 197.883C274.16 198.44 274.275 199.966 275.813 199.752C277.04 199.601 277.485 198.446 277.73 197.267C278.004 197.502 278.19 197.626 278.277 197.737C278.637 198.084 279.172 198.653 279.482 198.591C279.891 198.54 280.262 197.981 280.621 197.521C280.856 197.248 281.004 196.863 281.152 196.478C281.596 195.323 281.347 194.889 280.093 194.433C279.708 194.285 279.435 194.05 278.864 193.778C279.992 193.614 280.637 193.29 280.25 192.336C280.013 191.803 279.9 191.083 279.515 190.935C278.944 190.663 278.312 190.888 278.016 191.658C277.732 192.328 277.26 192.069 276.912 191.623C276.402 190.855 275.88 190.186 274.652 190.337C272.594 190.689 272.383 190.764 272.735 192.823C271.16 193.335 271.124 193.633 272.64 195.23Z" fill="#223A70" stroke="#223A70" stroke-width="0.75" stroke-miterlimit="10"/>
    <path d="M189.917 264.179C191.678 263.79 193.675 263.935 194.713 262.047C196.11 259.699 197.506 257.351 198.617 254.867C201.407 248.558 203.031 241.904 203.872 235.053C204.762 227.805 205.839 220.681 206.729 213.433C207.461 207.476 208.106 201.407 208.738 195.438C209.395 189.27 209.841 183.177 210.386 177.096C210.616 174.403 210.549 171.674 210.679 168.969C210.728 168.571 210.988 168.099 211.136 167.714C211.284 167.329 211.42 167.044 211.468 166.647C211.631 161.224 211.694 155.79 211.856 150.367C211.912 147.451 212.266 144.572 212.321 141.656C212.33 139.944 212.24 138.219 212.149 136.495C212.002 131.135 212.362 125.737 214.287 120.733C215.335 117.939 217.489 115.986 220.154 114.802C222.297 113.755 224.603 113.031 226.759 111.885C228.58 111 230.315 110.004 231.863 108.884C233.299 107.851 234.065 106.534 232.995 104.588C231.675 102.209 230.467 99.7422 229.469 97.2007C228.609 95.1801 228.059 93.0967 227.409 91.0012C227.134 89.9596 226.959 88.9301 226.485 87.864C226.436 88.2612 226.189 88.6339 226.239 89.0433C226.669 92.926 227.433 96.5474 229.847 99.8675C230.966 101.416 231.541 103.301 232.227 105.099C232.763 106.475 232.159 108.114 230.548 108.924C227.946 110.418 225.171 111.689 222.407 112.862C219.222 114.183 216.112 115.716 214.32 118.822C213.418 120.424 212.591 122.237 212.371 124.025C211.772 128.083 211.383 132.067 211.181 136.174C210.989 139.376 211.282 142.738 211.189 145.951C211.038 150.468 210.687 154.96 210.436 159.465C210.351 160.16 210.575 160.792 210.49 161.487C210.433 163.597 210.176 165.682 210.131 167.692C209.866 171.489 209.8 175.311 209.423 179.195C208.963 184.581 208.503 189.967 207.944 195.34C206.543 207.565 205.143 219.789 203.642 232.002C202.899 238.058 201.857 244.078 199.736 249.864C198.49 253.44 196.761 256.856 194.933 260.26C194.13 261.874 192.768 263.118 190.671 262.961C190.274 262.912 189.903 263.471 189.569 263.733C189.755 263.856 189.83 264.067 189.917 264.179Z" fill="#223A70" stroke="#223A70" stroke-width="0.75" stroke-miterlimit="10"/>
    <path d="M289.837 91.3173C289.254 91.1448 288.77 90.9845 288.385 90.8364C287.155 90.1814 286.038 89.4393 284.808 88.7843C284.523 88.6484 284.113 88.6989 283.804 88.7616C280.431 89.1533 277.916 90.7592 275.974 93.4433C273.798 96.4009 272.105 99.5187 271.641 103.292C271.263 106.37 270.588 109.411 270.309 112.501C270.018 115.69 270.136 118.829 269.944 122.031C269.583 127.429 269.31 132.938 267.262 138.129C266.805 139.383 266.163 140.514 265.781 141.978C266.116 141.717 266.537 141.567 266.673 141.282C267.932 138.413 269.39 135.569 269.581 132.367C269.846 128.57 270.719 124.746 270.587 120.9C270.413 114.933 271.43 109.111 272.249 103.266C272.922 98.6113 274.923 94.6242 278.625 91.5518C280.532 89.972 282.762 89.0367 285.27 89.9496C286.139 90.258 286.884 90.7527 287.617 91.3468C288.474 91.7544 288.994 91.6169 289.837 91.3173Z" fill="#223A70" stroke="#223A70" stroke-width="0.75" stroke-miterlimit="10"/>
    <path d="M299.538 145.22C299.461 144.202 299.273 143.272 299.296 142.267C299.315 139.649 299.248 136.92 299.478 134.227C299.73 130.529 300.082 126.843 300.534 123.169C300.838 120.687 301.627 118.365 301.932 115.883C302.458 112.42 302.885 108.945 303.114 105.446C303.45 100.246 301.902 95.6215 298.025 91.9198C296.036 90.0628 293.642 89.8693 291.162 90.3708C293.506 90.155 295.752 90.7334 297.579 92.2681C299.405 93.8028 300.662 95.8723 301.399 98.0793C302.647 101.861 302.469 105.77 301.994 109.642C301.713 111.926 301.619 114.333 300.954 116.468C299.304 122.514 299.131 128.843 298.475 135.01C298.196 138.101 298.513 141.264 298.631 144.403C298.594 144.701 298.967 144.948 299.029 145.258C299.327 145.295 299.427 145.307 299.538 145.22Z" fill="#223A70" stroke="#223A70" stroke-width="0.75" stroke-miterlimit="10"/>
    <path d="M238.803 112.256C238.424 114.528 238.056 116.7 237.577 118.959C237.21 121.131 236.755 123.192 236.288 125.351C236.189 125.339 235.99 125.315 235.891 125.303C235.243 124.014 234.484 122.812 234.035 121.547C233.562 120.481 233.041 120.619 232.372 121.141C231.703 121.664 231.035 122.186 230.044 122.871C229.167 118.53 231.516 114.989 231.88 111.204C233.409 112.702 233.041 114.874 234.347 116.546C235.833 115.116 237.219 113.674 238.605 112.232C238.716 112.145 238.803 112.256 238.803 112.256ZM234.028 118.321C233.33 116.623 232.806 115.147 232.282 113.672C231.679 116.117 230.394 118.378 230.871 121.057C231.651 120.448 232.419 119.937 233.187 119.427C233.732 119.091 234.03 119.128 234.354 119.772C234.728 120.826 235.313 121.805 236.01 122.697C236.55 119.941 237.177 117.297 237.717 114.541C237.617 114.529 237.419 114.505 237.332 114.393C236.256 115.773 235.216 116.854 234.028 118.321Z" fill="#223A70" stroke="#223A70" stroke-width="0.75" stroke-miterlimit="10"/>
    <path d="M234.857 63.9995C232.464 64.6125 229.91 64.9033 227.766 65.95C225.189 67.2458 223.507 69.4579 223.315 72.6595C223.148 75.6625 222.285 78.5801 223.024 81.5936C223.299 82.6352 223.673 83.6891 223.936 84.83C224.035 84.8422 224.146 84.7551 224.246 84.7673C224.27 84.5688 224.394 84.3824 224.319 84.1716C223.034 80.6878 223.473 77.1135 223.813 73.527C223.984 72.1369 224.254 70.7591 224.809 69.5172C225.76 67.5176 227.432 66.2113 229.614 65.6732C230.866 65.3231 232.156 65.4817 233.384 65.3302C234.103 65.2171 234.944 64.111 234.857 63.9995Z" fill="#223A70" stroke="#223A70" stroke-width="0.75" stroke-miterlimit="10"/>
    <path d="M250.015 93.9816C249.695 94.9501 249.498 95.7321 249.139 96.192C247.716 97.932 246.194 99.6599 244.784 101.301C243.027 103.302 241.381 105.216 239.723 107.23C239.129 107.963 239.53 109.625 240.312 109.822C240.009 107.366 241.519 105.737 243.016 104.208C244.984 102.132 247.039 100.167 248.82 97.9669C250.119 96.4133 250.577 95.9656 250.015 93.9816Z" fill="#223A70" stroke="#223A70" stroke-width="0.75" stroke-miterlimit="10"/>
    <path d="M240.636 63.7021C240.636 63.7021 249.193 68.6844 251.559 73.2083C252.543 75.0425 253.526 76.8768 254.609 78.7232C255.194 79.7022 255.903 80.4948 256.774 81.6097C256.946 81.0261 257.082 80.7405 256.995 80.629C254.958 79.1692 254.035 76.8385 252.988 74.6942C251.294 71.2608 249.031 68.3622 245.876 66.1603C244.571 65.2945 243.814 64.899 242.51 64.0332C242.224 63.8973 240.636 63.7021 240.636 63.7021Z" fill="#223A70" stroke="#223A70" stroke-width="0.75" stroke-miterlimit="10"/>
    <path d="M294.859 120.154C294.425 120.403 294.326 120.391 294.215 120.478C292.583 123.1 289.981 124.594 287.455 126.299C285.696 127.494 284.298 129.035 284.613 131.392C284.687 131.603 284.862 131.826 285.036 132.049C285.159 131.863 285.481 131.701 285.506 131.502C285.252 128.649 287.321 127.391 289.302 126.022C291.284 124.653 293.266 123.284 294.539 121.123C294.662 120.936 294.699 120.638 294.859 120.154Z" fill="#223A70" stroke="#223A70" stroke-width="0.75" stroke-miterlimit="10"/>
    <path d="M273.929 117.481C274.204 118.522 274.169 119.627 274.667 120.494C275.227 121.672 276.21 122.7 276.981 123.802C278.212 125.264 279.121 126.887 278.976 128.885C278.94 129.183 279.3 129.53 279.462 129.852C279.61 129.467 279.845 129.194 279.894 128.796C279.838 125.968 278.395 123.774 276.629 121.743C275.834 120.839 275.384 119.575 274.824 118.397C274.662 118.075 274.5 117.753 274.35 117.331C274.239 117.418 274.028 117.493 273.929 117.481Z" fill="#223A70" stroke="#223A70" stroke-width="0.75" stroke-miterlimit="10"/>
    <path d="M295.118 131.172C294.947 132.562 294.788 133.853 294.618 135.243C294.52 136.037 294.633 136.756 294.536 137.551C294.109 141.026 295.009 144.361 296.033 147.511C296.107 147.722 296.405 147.758 296.592 147.882C296.628 147.584 296.764 147.298 296.578 147.175C295.618 145.142 295.167 143.071 295.138 140.85C295.145 138.331 295.239 135.924 295.346 133.417C295.332 132.71 295.429 131.916 295.415 131.208C295.316 131.196 295.217 131.184 295.118 131.172Z" fill="#223A70" stroke="#223A70" stroke-width="0.75" stroke-miterlimit="10"/>
    <path d="M258.066 47.2998C258.542 49.1724 258.695 51.2069 259.158 53.1787C259.645 54.952 260.244 56.6382 260.942 58.3366C262.575 62.2663 264.32 66.109 266.077 69.8524C266.488 70.6084 266.414 71.2042 265.746 71.7267C263.417 73.4562 260.915 74.9628 258.176 75.9364C257.854 76.0983 257.694 76.5826 257.458 76.856C257.855 76.9048 258.34 77.0651 258.662 76.9031C261.263 75.4088 263.766 73.9022 266.367 72.4078C267.024 71.9846 267.273 72.4183 267.51 72.9513C268.941 75.2437 270.248 77.7225 271.89 79.94C273.694 82.4798 275.709 84.9447 277.624 87.3974C277.798 87.6203 278.207 87.5699 278.505 87.6065C278.442 87.2964 278.491 86.8993 278.317 86.6763C275.892 83.4554 273.454 80.3338 271.028 77.1129C269.909 75.5643 269.111 73.8537 267.992 72.3051C267.482 71.5369 267.828 71.1764 268.398 70.6417C270.7 68.3042 273.201 65.9911 275.329 63.4307C277.11 61.2308 278.618 58.7958 280.114 56.46C281.857 53.7515 283.613 50.9437 285.269 48.1237C286.282 46.4341 286.923 44.4972 287.751 42.6839C288.047 41.914 288.355 41.0448 288.663 40.1757C289.6 37.4688 288.641 35.436 286.356 34.3489C281.117 31.8908 278.17 34.5522 278.17 34.5522C276.312 35.7348 274.566 36.8304 272.696 38.1123C271.949 36.8111 270.293 33.8863 270.293 33.8863C270.293 33.8863 269.321 31.9528 267.608 31.1375C265.894 30.3222 262.224 30.6773 262.224 30.6773C260.601 31.5865 259.35 32.743 258.535 34.457C256.622 38.5555 256.891 42.9224 258.066 47.2998ZM261.841 31.3357C262.386 30.9996 263.316 30.8115 263.316 30.8115C263.316 30.8115 268.851 32.4997 269.884 33.9368C270.843 35.9697 271.79 38.1018 272.923 40.3576C273.873 37.5515 276.239 36.3306 278.245 34.763C278.245 34.763 280.612 33.5421 281.815 33.5892C283.018 33.6363 285.301 33.9169 285.959 34.3001C287.612 35.6119 288.731 37.1605 288.066 39.296C287.524 41.2451 286.983 43.1942 285.969 44.8838C283.151 49.7783 280.147 54.5491 277.243 59.3322C274.857 63.1711 271.651 66.3046 268.358 69.3265C268.023 69.5878 267.776 69.9605 267.318 70.4082C266.26 68.3632 265.189 66.4174 264.416 64.5083C262.957 60.8014 261.299 57.0702 260.262 53.2136C259.087 48.8362 257.725 44.3351 258.088 39.7435C258.18 36.5298 258.868 33.3892 261.841 31.3357Z" fill="#223A70" stroke="#223A70" stroke-width="0.75"/>
    <path d="M248.072 78.6248C246.12 76.47 244.069 74.3029 241.931 72.0244C242.133 73.6618 246.77 78.5655 248.072 78.6248Z" fill="#223A70" stroke="#223A70" stroke-width="0.75" stroke-miterlimit="10"/>
    <path d="M271.326 136.21C272.43 136.244 274.043 130.496 273.394 128.401C272.667 131.033 272.04 133.677 271.326 136.21Z" fill="#223A70" stroke="#223A70" stroke-width="0.75" stroke-miterlimit="10"/>
    <path d="M239.116 95.7663C238.682 96.0153 238.348 96.2766 238.026 96.4386C236.725 97.1858 236.34 97.0377 235.705 95.6494C235.468 95.1163 235.008 94.7575 234.66 94.3115C234.798 94.8324 234.725 95.4281 234.973 95.8618C235.21 96.3948 235.621 97.1509 236.093 97.4104C236.565 97.67 237.396 97.4697 238.028 97.2451C238.449 97.0953 239.28 96.895 239.116 95.7663Z" fill="#223A70" stroke="#223A70" stroke-width="0.75" stroke-miterlimit="10"/>
    <path d="M292.946 107.019C294.545 106.308 294.944 101.419 293.751 100.466C293.483 102.65 293.227 104.735 292.946 107.019Z" fill="#223A70" stroke="#223A70" stroke-width="0.75" stroke-miterlimit="10"/>
    <path d="M285.514 117.494C285.39 117.68 285.254 117.966 285.031 118.14C283.929 118.912 283.544 118.764 282.872 117.673C282.698 117.45 282.635 117.14 282.35 117.004C282.263 116.893 281.965 116.856 281.853 116.943C281.742 117.03 281.606 117.316 281.693 117.428C282.315 118.109 282.875 119.286 283.657 119.483C284.34 119.668 285.256 118.772 286.123 118.274C286.222 118.287 286.073 117.865 285.998 117.654C285.712 117.518 285.613 117.506 285.514 117.494Z" fill="#223A70" stroke="#223A70" stroke-width="0.75" stroke-miterlimit="10"/>
    <path d="M291.907 131.885C291.205 134.319 290.305 136.728 291.675 139.517C291.835 139.032 291.983 138.647 291.908 138.437C291.309 136.75 291.405 135.15 291.91 133.498C292.07 133.014 291.945 132.394 291.907 131.885Z" fill="#223A70" stroke="#223A70" stroke-width="0.75" stroke-miterlimit="10"/>
    <path d="M287.538 101.013C287.292 102.192 287.158 103.284 286.888 104.662C287.31 104.512 287.719 104.462 287.743 104.263C287.877 103.171 288.072 101.582 288.207 100.49C287.996 100.565 287.736 101.037 287.538 101.013Z" fill="#223A70" stroke="#223A70" stroke-width="0.75" stroke-miterlimit="10"/>
    <path d="M235.893 72.7936C236.95 74.0322 238.403 75.3195 239.46 76.5581C239.572 76.471 237.892 73.7448 236.835 72.5063C236.612 72.6805 236.004 72.7065 235.893 72.7936Z" fill="#223A70" stroke="#223A70" stroke-width="0.75" stroke-miterlimit="10"/>
    <path d="M282.363 99.671C281.931 100.727 281.511 101.683 281.042 103.036C281.551 102.998 281.861 102.935 281.972 102.848C282.293 101.88 282.686 100.316 283.007 99.3471C282.709 99.3105 282.561 99.6954 282.363 99.671Z" fill="#223A70" stroke="#223A70" stroke-width="0.75" stroke-miterlimit="10"/>
    <path d="M229.888 72.4594C229.777 72.5465 229.169 72.5726 228.959 72.6475C229.829 73.7623 231.085 75.0253 231.955 76.1401C232.154 76.1645 230.759 73.5743 229.888 72.4594Z" fill="#223A70" stroke="#223A70" stroke-width="0.75" stroke-miterlimit="10"/>
    <path d="M244.412 89.564C244.981 89.0293 245.514 88.7925 245.551 88.4946C245.599 88.0974 245.14 87.7386 244.99 87.3171C244.656 87.5783 244.123 87.8152 244.086 88.113C243.839 88.4858 244.187 88.9317 244.412 89.564Z" fill="#223A70" stroke="#223A70" stroke-width="0.75" stroke-miterlimit="10"/>
    <path d="M278.913 99.0448C278.678 99.3182 278.232 99.6666 278.084 100.052C277.912 100.635 278.037 101.255 278.063 101.863C278.063 101.863 278.349 101.999 278.361 101.9C278.473 101.813 278.596 101.626 278.621 101.428C278.805 100.745 278.903 99.9506 278.988 99.2555C278.988 99.2555 279 99.1563 278.913 99.0448Z" fill="#223A70" stroke="#223A70" stroke-width="0.75" stroke-miterlimit="10"/>
    <path d="M281.594 111.67C281.222 111.423 280.997 110.791 280.823 110.568C280.537 110.432 280.017 110.569 280.017 110.569C279.98 110.867 279.745 111.141 279.82 111.352C280.032 112.083 280.492 112.442 281.594 111.67Z" fill="#223A70" stroke="#223A70" stroke-width="0.75" stroke-miterlimit="10"/>
    <path d="M235.209 84.0991C235.074 84.3848 234.354 84.498 234.231 84.6844C233.996 84.9578 234.368 85.2052 234.232 85.4909C234.518 85.6267 234.878 85.9734 234.978 85.9856C235.821 85.686 235.683 85.1652 235.209 84.0991Z" fill="#223A70" stroke="#223A70" stroke-width="0.75" stroke-miterlimit="10"/>
    <path d="M290.402 112.148C289.956 112.496 289.534 112.646 289.411 112.832C289.386 113.031 289.747 113.378 289.909 113.7C290.132 113.526 291.049 113.437 291.185 113.151C291.209 112.953 291.295 112.258 290.402 112.148Z" fill="#223A70" stroke="#223A70" stroke-width="0.75" stroke-miterlimit="10"/>
    <path d="M275.03 133.943C275.127 133.149 275.225 132.355 275.322 131.561C275.223 131.548 275.124 131.536 275.124 131.536C274.927 132.318 274.829 133.113 274.633 133.895C274.732 133.907 274.93 133.931 275.03 133.943Z" fill="#223A70" stroke="#223A70" stroke-width="0.75" stroke-miterlimit="10"/>
    <path d="M269.891 197.109C269.616 196.067 269.949 194.999 268.758 194.853C267.864 194.743 267.382 195.389 267.284 196.184C267.175 197.077 267.822 198.366 268.442 198.241C269.05 198.215 269.433 197.556 269.891 197.109Z" fill="#223A70" stroke="#223A70" stroke-width="0.75" stroke-miterlimit="10"/>
    <path d="M282.462 194.018C282.721 193.546 283.576 193.148 284.196 193.022C284.605 192.972 285.387 193.169 285.648 193.503C285.81 193.825 285.701 194.719 285.366 194.98C284.797 195.515 283.954 195.814 283.297 196.238C282.267 195.607 282.079 194.677 282.462 194.018ZM284.769 194.1C284.471 194.064 284.198 193.829 283.888 193.891C283.268 194.017 282.822 194.365 283.284 195.53C283.865 194.896 284.323 194.449 284.769 194.1Z" fill="#223A70" stroke="#223A70" stroke-width="0.75" stroke-miterlimit="10"/>
    <path d="M283.077 185.729C283.113 185.431 283.993 184.833 284.601 184.807C284.911 184.745 285.556 185.227 285.805 185.661C286.267 186.826 286.244 187.831 284.844 188.566C283.516 187.899 283.042 186.833 283.077 185.729ZM284.888 185.75C284.813 185.539 284.292 185.676 284.106 185.553C284.231 186.173 284.245 186.88 284.371 187.5C285.436 187.027 285.311 186.406 284.888 185.75Z" fill="#223A70" stroke="#223A70" stroke-width="0.75" stroke-miterlimit="10"/>
    <path d="M269.853 190.855C269.294 190.484 268.895 189.629 268.869 189.021C268.843 188.413 269.239 187.656 270.231 187.778C271.224 187.9 271.932 188.692 271.81 189.685C271.749 190.181 270.313 191.214 269.853 190.855ZM270.062 189.974C270.384 189.812 270.706 189.65 271.016 189.587C270.755 189.253 270.494 188.918 270.221 188.683C270.01 188.758 269.898 188.845 269.688 188.92C269.85 189.242 269.912 189.552 270.062 189.974Z" fill="#223A70" stroke="#223A70" stroke-width="0.75" stroke-miterlimit="10"/>
    <path d="M274.983 194.207C275.068 193.512 276.158 192.84 277.051 192.95C277.845 193.047 278.394 194.324 278.112 195.801C278.063 196.198 277.307 196.609 277.096 196.684C275.695 196.613 274.836 195.399 274.983 194.207ZM277.016 194.054C276.607 194.104 276 194.13 275.876 194.317C275.555 195.285 276.201 195.768 276.835 196.35C277.046 196.275 277.145 196.287 277.356 196.212C277.255 195.393 277.142 194.674 277.016 194.054Z" fill="#223A70" stroke="#223A70" stroke-width="0.75" stroke-miterlimit="10"/>
    <path d="M187.737 46.5608C186.836 48.1391 184.3 48.6464 182.948 47.4627C182.779 47.2936 182.666 47.0681 182.497 46.8426C181.708 45.2644 180.3 44.4189 178.609 43.9116C176.186 43.2352 173.82 43.4607 171.397 43.8552C169.762 44.0807 168.241 43.9116 166.663 43.3479C165.987 43.1225 165.255 43.0661 164.522 42.897C164.522 42.9534 164.466 43.0097 164.466 43.0661C164.86 43.3479 165.311 43.6298 165.705 43.9116C166.832 44.7007 167.79 45.7717 168.523 46.9554C168.974 47.6881 169.199 48.6464 169.086 49.5482C168.917 51.1829 168.466 52.8175 167.396 54.1703C166.156 55.6922 164.691 56.9322 162.775 57.665C161.367 58.1723 160.071 58.8487 158.549 59.0178C157.986 59.0742 157.479 59.0742 156.915 58.9614C156.802 58.9614 156.633 58.9051 156.577 59.0742C156.521 59.1869 156.633 59.2433 156.746 59.356C157.141 59.7506 157.479 60.1451 157.817 60.5397C158.155 60.8779 158.155 61.2161 158.042 61.667C157.986 61.8925 157.648 62.118 157.929 62.2307C158.268 62.3434 158.606 62.6816 159.056 62.4562C159.676 62.1743 160.183 61.667 160.803 61.3288C162.606 60.1451 164.578 59.5251 166.776 59.4687C167.565 59.4687 168.354 59.2996 169.086 59.6378C170.213 60.2015 170.664 61.2725 170.889 62.3998C171.34 64.4854 171.622 66.6273 171.228 68.8256C171.115 69.3892 171.171 70.0093 171.115 70.5729C171.115 70.6857 171.115 70.742 171.171 70.7984C171.284 70.8548 171.34 70.742 171.453 70.6857C172.467 69.8965 173.425 69.051 174.552 68.431C176.693 67.3037 178.834 66.1763 181.032 65.2181C182.61 64.5417 184.018 63.5271 185.202 62.2307C186.103 61.2161 186.16 59.8633 185.878 58.5669C185.765 57.7777 185.484 56.9886 185.314 56.1995C184.976 54.5649 186.16 53.0993 187.85 53.043C188.808 52.9866 189.822 53.043 190.78 52.7611C192.076 52.3666 192.978 51.5774 193.823 50.6192C194.105 50.3374 194.274 49.9992 194.556 49.661C195.063 49.0973 194.837 48.0827 194.274 47.5754C193.654 47.0681 192.978 46.7863 192.302 46.3917C191.118 45.7717 189.935 45.659 188.695 46.279C188.526 46.3917 188.301 46.4481 188.076 46.3917C189.259 45.4899 190.837 45.1517 192.302 45.8844C193.147 46.3354 194.048 46.6735 194.837 47.2936C195.626 47.9136 196.584 47.7445 197.486 47.4627C197.767 47.3499 198.049 47.2372 198.105 47.519C198.218 47.8009 197.936 47.97 197.655 48.0263C197.204 48.1391 196.697 48.3082 196.246 48.4209C195.852 48.5336 195.513 48.6464 195.513 49.1537C195.513 49.3228 195.457 49.4919 195.344 49.6046C194.33 50.6756 193.541 51.972 192.189 52.6484C191.287 53.0993 190.329 53.3248 189.315 53.3812C188.921 53.3812 188.526 53.4375 188.076 53.3812C186.498 53.2684 185.258 55.2413 185.765 56.6504C186.16 57.665 186.329 58.7923 186.329 59.9197C186.329 61.4979 185.653 62.6253 184.413 63.4708C183.061 64.429 181.652 65.3308 180.13 65.9509C178.722 66.5145 177.426 67.36 176.073 68.0364C174.834 68.7128 173.594 69.3329 172.524 70.2911C172.129 70.6857 171.735 71.0239 171.34 71.4748C171.171 71.7003 170.833 71.9257 170.608 71.813C170.382 71.7003 170.495 71.3621 170.551 71.1366C170.833 69.6711 170.833 68.2055 170.889 66.7964C170.946 64.9363 170.777 63.0198 169.988 61.2725C169.593 60.3706 168.466 59.6942 167.452 59.7506C165.48 59.8633 163.621 60.1451 161.874 61.1034C161.198 61.4979 160.578 62.0052 160.014 62.5125C159.733 62.738 159.507 63.0762 159.113 63.1889C158.831 63.2453 158.662 63.358 158.493 63.0762C158.268 62.7944 157.929 62.8507 157.648 62.7944C157.31 62.7944 157.253 62.6816 157.366 62.3434C157.929 60.8779 157.929 60.8779 156.746 59.8633C156.352 59.5251 156.014 59.1869 155.619 58.8487C155.506 58.736 155.45 58.6232 155.506 58.5105C155.563 58.3978 155.676 58.3978 155.788 58.4541C157.141 59.0178 158.493 58.8487 159.845 58.3978C161.254 57.9468 162.663 57.5523 163.902 56.7631C165.818 55.5231 167.509 54.0576 168.241 51.8029C169.03 49.5482 168.861 47.4627 167.001 45.659C166.044 44.7007 165.029 43.9116 163.846 43.3479C163.677 43.2916 163.564 43.1788 163.395 43.0661C163.282 42.9534 163.17 42.8406 163.226 42.6715C163.282 42.5588 163.452 42.6152 163.621 42.6715C165.142 42.8406 166.607 43.1225 168.016 43.5734C169.255 43.968 170.495 43.7425 171.791 43.6298C173.538 43.4043 175.228 43.1225 177.031 43.4043C179.004 43.7425 180.863 44.1934 182.215 45.8281C182.553 46.2226 182.835 46.6736 183.173 47.0681C183.849 47.8572 184.751 48.1391 185.709 47.8009C186.329 47.3499 187.118 47.1245 187.737 46.5608Z" stroke="#223A70" stroke-miterlimit="10"/>
    <path d="M150.634 100.054C151.085 100.054 151.311 100.279 151.423 100.73C151.874 102.309 151.987 103.943 152.212 105.578C152.381 106.931 152.719 108.283 152.776 109.636C152.776 109.693 152.832 109.805 152.945 109.918C153.564 108.678 154.804 108.171 155.818 107.382C156.607 106.762 157.565 106.367 158.298 105.634C160.101 103.831 161.904 101.97 162.411 99.3212C162.467 99.0394 162.467 98.7575 162.467 98.4757C162.411 96.5029 162.467 94.5301 162.693 92.5572C162.862 90.8662 163.763 89.5698 165.285 88.6116C165.961 88.217 166.694 88.0479 167.37 87.7097C168.497 87.146 169.06 86.1878 169.286 85.0041C169.398 84.4968 169.06 83.9895 168.666 83.6513C168.271 83.3131 167.99 82.8622 167.595 82.5804C166.355 81.7912 165.003 81.8476 163.707 82.4113C163.2 82.6367 162.693 82.9749 162.242 83.3131C160.495 84.6096 158.354 84.215 157.002 82.3549C157.171 82.4676 157.396 82.5804 157.509 82.7495C158.636 83.8768 159.932 83.6513 161.284 83.3131C161.848 83.144 162.298 82.8058 162.749 82.4676C164.102 81.5658 165.567 81.3967 167.144 81.7912C167.651 81.904 168.046 82.1858 168.328 82.6367C168.609 83.0877 169.004 83.144 169.511 83.144C170.3 83.144 171.032 82.9186 171.765 82.6931C171.99 82.6367 172.328 82.4676 172.441 82.8058C172.554 83.0877 172.159 83.2004 171.99 83.2568C171.596 83.4822 171.201 83.595 170.863 83.8204C170.356 84.1023 170.074 84.4405 169.905 85.0605C169.511 86.5824 168.778 87.8788 167.032 88.3297C164.271 89.0625 163.031 91.4299 163.031 93.8537C163.031 95.4883 163.087 97.1229 163.031 98.7012C162.975 100.787 162.017 102.478 160.664 104C160.157 104.563 159.65 105.127 159.087 105.691C157.903 106.874 156.438 107.663 155.086 108.565C154.297 109.129 153.677 109.805 153.339 110.707C153.114 111.215 152.832 111.384 152.325 111.327C153.001 108.96 152.212 106.705 151.987 104.394C151.874 103.38 151.649 102.421 151.48 101.407C151.085 100.899 150.916 100.449 150.634 100.054Z" stroke="#223A70" stroke-miterlimit="10"/>
    <path d="M153.396 78.9702C153.001 78.9138 152.832 78.5756 152.55 78.3502C151.592 77.561 150.409 77.1101 149.226 76.7719C146.69 76.1519 144.098 76.1519 141.562 75.8137C140.83 75.701 140.041 75.6446 139.252 75.5882C140.605 76.941 141.45 78.632 142.689 80.0412C143.873 81.4503 144.662 83.1413 145.338 84.8887C145.62 85.6778 145.789 86.5233 146.465 87.1434C146.577 87.2561 146.746 87.5379 146.577 87.707C146.014 88.2707 146.014 89.1162 145.563 89.7362C144.831 90.8072 144.042 91.8781 142.746 92.3854C141.844 92.78 141.055 93.3437 140.154 93.6819C138.689 94.3019 137.224 94.8656 135.59 93.9637C135.533 94.4146 135.759 94.5837 135.984 94.6965C136.209 94.8092 136.378 94.9783 136.604 95.091C137.787 95.7111 137.787 95.8802 137.393 97.1766C137.167 97.9657 137.055 98.8112 136.886 99.6567C136.886 99.7131 136.886 99.8258 136.942 99.8822C137.111 99.9949 137.224 99.8822 137.336 99.7694C138.013 99.2621 138.689 98.7548 139.365 98.3039C140.436 97.5148 141.732 97.1202 142.915 96.6129C143.873 96.2184 144.831 95.7674 145.789 95.7674C146.859 95.7674 148.042 95.4856 149 96.3311C149.282 96.6129 149.508 96.8947 149.733 97.2329C149.789 97.3457 149.846 97.4584 149.677 97.5148C149.451 97.6275 149.508 97.3457 149.508 97.3457C148.944 97.0638 148.662 96.3875 147.817 96.2747C145.789 95.9929 144.042 96.6693 142.295 97.3457C141.337 97.7402 140.379 98.0784 139.534 98.6421C138.745 99.1494 138.069 99.9385 137.28 100.446C137.055 100.615 136.773 100.784 136.548 100.671C136.322 100.559 136.379 100.22 136.435 99.9949C136.604 98.8676 136.717 97.7402 137.055 96.6129C137.167 96.2184 137.167 95.9929 136.829 95.7674C136.209 95.2601 135.421 94.9219 134.97 94.2455C134.857 94.0764 134.744 93.9073 134.688 93.6819C134.632 93.4564 134.744 93.2873 134.97 93.4564C136.998 94.5837 138.858 93.9637 140.661 92.9491C141.844 92.2727 143.14 91.8218 144.098 90.7508C144.943 89.7926 145.394 88.6652 145.958 87.5943C146.014 87.4815 146.014 87.2561 145.958 87.1434C145.056 85.7342 144.662 84.0432 143.873 82.5777C143.197 81.2812 142.351 80.1539 141.45 79.0266C140.717 78.0683 140.21 76.941 139.252 76.2083C138.858 75.8701 138.407 75.6446 138.013 75.3628C137.9 75.3064 137.787 75.1937 137.844 75.0246C137.9 74.9118 138.013 74.9682 138.125 74.9682C139.872 75.4755 141.675 75.4191 143.478 75.701C145.394 75.9828 147.31 75.8701 149.169 76.4337C150.578 76.8847 151.93 77.3356 153.001 78.4065C153.226 78.632 153.452 78.7447 153.396 78.9702Z" stroke="#223A70" stroke-miterlimit="10"/>
    <path d="M165.904 83.7627C166.186 83.7627 166.411 83.8754 166.355 84.2135C166.355 84.5516 166.129 84.6643 165.847 84.6643C165.509 84.6643 165.284 84.5516 165.284 84.1571C165.284 83.7627 165.735 83.9317 165.904 83.7627Z" stroke="#223A70" stroke-miterlimit="10"/>
    <path d="M191.063 49.6037C190.894 49.5474 190.499 49.7164 190.556 49.2656C190.556 48.9839 190.668 48.7021 191.007 48.7021C191.288 48.7021 191.514 48.8712 191.514 49.2093C191.457 49.5474 191.401 49.6601 191.063 49.6037Z" stroke="#223A70" stroke-miterlimit="10"/>
    <path d="M150.636 100.052C150.692 99.6572 150.41 99.4318 150.354 99.0937C150.298 98.812 149.847 98.4175 150.241 98.2485C150.579 98.1358 150.579 98.6429 150.692 98.9247C150.861 99.3191 151.086 99.7135 150.636 100.052Z" stroke="#223A70" stroke-miterlimit="10"/>
    <path d="M153.395 79.0289C154.128 79.3107 154.522 79.9869 155.029 80.4376C154.973 80.494 154.917 80.5503 154.917 80.5503C154.409 80.0432 153.902 79.5361 153.395 79.0289ZM153.395 79.0289C153.395 78.9726 153.395 79.0289 153.395 79.0289Z" stroke="#223A70" stroke-miterlimit="10"/>
    <path d="M156.999 1C125 13 91.6858 43.8094 79 72C43 152 88.9989 229.481 156.999 255.481C214.548 277.485 265.174 271.679 330.999 297.481C346.743 303.652 361.508 311.096 375 319.406" stroke="#223A70" stroke-width="2"/>
</svg>
