<svg width="252" height="257" viewBox="0 0 252 257" fill="none" xmlns="http://www.w3.org/2000/svg">
<path opacity="0.2" d="M2.87402 246.339C2.87402 246.339 4.68172 193.916 7.26414 187.459C9.58832 181.003 23.2751 166.542 27.1488 164.476C31.0224 162.41 39.2862 146.657 39.2862 146.657L50.3906 156.212L64.5939 148.981L71.3082 163.701C71.3082 163.701 102.814 177.905 105.138 187.459C107.462 197.014 105.396 244.014 105.396 244.014C105.396 244.014 89.9016 246.597 77.506 245.047C67.951 243.756 58.3961 248.146 48.5829 246.597C38.7697 245.047 2.87402 246.339 2.87402 246.339Z" fill="#2655BD"/>
<path opacity="0.2" d="M135.61 156.211C135.61 156.211 144.132 136.068 145.94 115.925C144.132 106.629 134.061 47.4911 141.55 35.0955C149.039 22.6999 150.847 8.23832 177.446 4.62294L184.16 7.20536C184.16 7.20536 185.709 0.749304 201.462 1.00755C216.957 1.26579 227.545 4.88118 235.55 15.9856C243.556 27.09 246.913 40.5186 246.913 50.59C246.913 50.59 235.034 146.914 235.292 141.491C235.292 141.491 230.127 160.859 232.709 163.442C235.292 166.282 207.66 135.552 206.369 133.744C204.819 131.936 200.687 108.436 203.012 106.37C205.336 104.563 220.314 91.9088 223.929 83.1285C227.545 75.123 224.962 59.6285 224.704 51.3648C224.704 45.6834 209.468 23.2164 199.654 19.0845C189.841 14.9526 189.066 15.9856 189.066 15.9856C189.066 15.9856 168.924 34.8373 162.726 42.3263C160.143 45.4252 160.66 52.656 159.627 59.8867C158.594 67.1175 156.011 74.0901 157.819 76.4142C157.819 76.4142 163.759 97.0736 166.858 101.98C169.957 106.887 176.154 112.052 181.836 112.568C181.836 112.568 184.16 118.766 183.902 122.64C183.902 122.64 180.803 131.678 178.22 134.26C175.638 136.843 167.374 148.98 167.374 148.98L168.924 153.629L141.808 171.447C141.808 171.447 153.946 143.041 152.654 136.326C151.363 140.975 147.231 148.722 143.099 152.596C138.968 156.469 135.61 156.211 135.61 156.211Z" fill="#2655BD"/>
<path d="M50.6483 8.23828C55.0384 8.23828 58.912 9.01301 61.4944 13.1449C62.0109 13.9196 63.5604 13.9196 64.3351 13.6614C69.7582 12.3702 74.6648 14.4361 79.0549 16.7603C84.2197 19.6009 89.3846 22.6998 93.5165 27.6064C101.005 36.3867 102.297 46.7163 102.038 57.8208C101.78 68.9252 98.6813 79.2549 93 88.8098C92.4835 89.5845 92.4835 90.101 93 90.8757C95.3242 93.4582 94.2912 96.2988 93 98.8813C91.967 101.464 89.9011 101.98 87.5769 101.722C84.478 101.464 83.1868 102.238 82.6703 105.596C81.6373 112.052 79.0549 118.249 74.6648 123.414C72.3406 126.255 69.2417 127.804 66.401 129.87C65.1098 130.645 64.5934 131.42 64.5934 133.227C64.8516 136.326 62.7857 139.167 62.5274 142.008C62.5274 143.299 62.0109 144.59 62.5274 146.398C64.8516 144.332 65.6263 145.623 66.6593 147.947C67.9505 151.821 70.5329 154.92 71.8241 158.793C74.4065 165.508 80.6044 167.574 85.511 171.447C90.6758 175.579 96.0989 179.453 101.522 183.326C105.396 186.167 106.17 190.299 106.945 194.431C109.011 204.76 108.753 215.348 108.495 225.936C108.495 230.585 107.203 235.233 107.203 239.881C107.203 241.689 108.236 242.98 107.978 244.788C107.72 245.563 107.978 246.596 106.687 246.596C105.912 246.596 105.137 246.079 105.137 244.788C105.137 232.392 106.429 219.997 105.912 207.601C105.654 200.887 105.137 194.431 101.78 188.491C99.456 184.101 95.3242 181.777 91.4505 179.195C85.2527 174.546 78.7967 170.156 72.5989 165.508C71.3076 164.475 70.7912 164.475 69.2417 165.249C65.8846 166.799 62.2692 168.348 59.1703 170.673C57.8791 171.706 56.8461 171.447 56.3296 169.381C55.5549 166.541 54.5219 163.7 53.2307 160.343C51.1648 164.217 49.3571 167.315 47.8076 170.931C46.7747 172.997 45.7417 172.48 44.7087 171.447C41.0933 168.09 36.9615 165.508 32.5713 163.184C31.5384 162.667 31.0219 162.667 30.5054 163.7C28.956 166.541 26.1153 168.09 23.5329 170.156C18.1098 173.513 12.6867 178.42 9.5878 185.392C7.52186 190.041 7.26362 195.464 6.74713 200.37C5.45592 213.024 4.42296 225.678 4.16471 238.332C4.16471 240.398 3.90647 242.464 4.6812 244.53C4.93944 245.305 4.93944 246.079 4.42296 246.596C3.90647 246.854 3.38999 246.854 2.8735 246.596C2.35702 246.079 1.84054 245.563 2.09878 244.788C2.61526 240.914 3.13175 237.299 3.13175 233.425C3.13175 228.519 2.35702 223.612 2.8735 218.447C3.13175 215.607 3.90647 212.766 4.16471 209.667C4.16471 202.953 5.19768 196.497 5.97241 189.782C6.48889 185.134 9.07131 181.519 12.1702 177.903C16.5603 172.738 21.7252 168.607 27.1483 164.733C29.4724 162.925 29.4724 160.343 30.7636 158.277C33.0878 154.145 35.9285 150.271 39.2856 146.914C42.6428 143.557 42.1263 139.684 42.6428 135.81C42.6428 134.777 41.8681 134.777 41.3516 134.519C39.5439 134.002 37.9944 133.744 36.1867 133.227C26.89 130.387 21.4669 123.672 18.368 114.634C17.8515 112.826 17.0768 111.019 16.5603 108.953C16.3021 106.887 16.8186 104.563 12.6867 105.079C8.03835 105.596 4.16471 99.3977 4.6812 93.7164C4.6812 92.4252 4.6812 91.3922 4.42296 90.101C0.291083 78.2219 0.291083 66.0845 2.35702 53.9471C3.13175 49.557 4.93944 45.4251 7.00538 41.5515C10.1043 36.1284 12.1702 29.9306 16.5603 25.2823C21.4669 20.3757 26.6318 15.7273 32.3131 11.5954C34.1208 10.046 36.1867 9.27125 38.7691 9.52949C38.5109 10.3042 37.7362 10.8207 36.9615 11.0789C34.379 11.8537 32.0549 13.1449 29.9889 14.6943C16.3021 25.024 7.52186 38.4526 4.42296 55.2383C2.35702 66.0845 2.09878 76.9307 5.97241 87.5186C7.26362 91.3922 10.1043 89.5845 11.6537 89.3263C13.7197 89.0681 12.1702 86.7439 11.912 85.1944C11.3955 83.1285 11.1372 81.0625 11.6537 78.4801C13.9779 83.3867 15.0109 88.0351 15.7856 92.6834C17.0768 99.1395 17.8515 105.596 19.6592 112.052C21.4669 117.991 24.5658 122.64 29.2142 126.771C35.1538 131.936 42.3845 132.969 49.6153 133.227C52.9725 133.227 56.5878 133.227 59.6868 131.42C68.2087 127.03 75.6978 121.348 78.5384 111.535C81.3791 101.98 83.9615 92.4252 84.9945 82.612C85.2527 79.7713 85.511 76.9307 87.5769 74.6065C87.0604 79.5131 87.8351 84.6779 86.5439 89.8428C88.3516 89.0681 90.1593 89.8428 91.1923 88.0351C92.4835 85.9691 93.5165 83.9032 94.5494 81.8373C98.1648 73.5735 100.489 65.0515 100.231 55.7548C100.231 47.7493 98.9396 40.0021 95.0659 32.7713C90.934 25.2823 84.2197 20.3757 76.7307 17.2768C71.5659 15.2108 65.3681 13.9196 59.6868 16.7603C59.1703 17.0185 58.6538 17.0185 58.3955 16.502C58.1373 15.9855 58.3955 15.4691 58.6538 15.2108C60.4615 13.9196 59.4285 13.1449 58.1373 12.3702C57.1043 11.5954 55.8131 10.8207 54.5219 10.5625C52.456 10.3042 51.1648 9.78773 50.6483 8.23828ZM62.5274 132.453C57.3626 134.26 52.1977 135.035 47.0329 135.035C44.967 135.035 44.4505 135.81 44.4505 137.876C44.4505 140.716 44.7087 143.557 44.1922 146.14C43.934 146.914 44.4505 147.689 43.4175 147.947C40.8351 148.722 42.6428 149.755 43.4175 150.271C45.4834 151.563 47.8076 152.854 50.1318 154.145C51.9395 155.178 53.7472 155.178 55.2966 153.37C56.8461 151.304 58.912 149.755 60.7197 147.947C61.2362 147.431 62.0109 147.173 61.4944 146.14C60.4615 144.848 61.2362 143.815 61.2362 142.524C61.2362 139.425 62.7857 136.068 62.5274 132.453ZM39.5439 150.271C39.2856 150.53 39.0274 150.53 38.7691 150.53C36.9615 153.112 34.379 155.436 32.8296 158.277C32.3131 159.31 32.5713 160.085 33.6043 160.601C37.7362 162.667 41.3516 164.991 45.2252 167.574C46.2582 168.09 47.0329 168.09 47.5494 167.057C48.8406 164.475 50.1318 161.634 51.423 159.052C51.9395 158.019 51.9395 156.727 50.39 156.469C46.5164 155.695 43.6758 153.37 40.8351 151.304C40.3186 150.788 40.0604 150.53 39.5439 150.271ZM70.2747 160.085C67.9505 156.986 66.9175 152.596 64.5934 148.98C64.3351 148.464 63.3021 148.464 63.0439 148.98C60.4615 152.079 54.5219 152.854 56.8461 159.31C57.6208 161.118 57.3626 163.442 58.1373 165.508C58.6538 167.574 59.6868 167.574 60.978 166.541C63.3021 164.733 66.1428 163.442 68.9835 161.892C69.2417 161.892 70.0164 161.634 70.2747 160.085ZM14.7526 101.464C14.4944 99.1395 13.9779 97.59 14.2362 96.0406C14.4944 92.9417 11.6537 92.4252 10.1043 90.8757C9.5878 90.101 8.55483 91.134 8.03834 91.6505C7.26362 92.167 6.74713 92.6834 7.52186 93.7164C7.7801 94.2329 8.29659 94.4911 7.7801 95.2659C6.23065 98.8813 8.03834 101.98 11.912 102.755C13.7197 103.271 15.2691 103.271 14.7526 101.464ZM86.5439 100.172C90.1593 100.172 92.4835 98.1065 92.2253 95.0076C92.2253 92.6834 90.934 91.3922 88.6099 91.134C86.2857 90.8758 83.9615 95.0076 83.9615 98.8813C84.2198 100.947 85.7692 99.656 86.5439 100.172Z" fill="#223A70" stroke="#223A70" stroke-miterlimit="10"/>
<path d="M55.5552 239.365C55.297 241.948 54.0058 243.239 51.9398 243.497C50.1321 243.497 49.3574 242.206 49.3574 240.398C49.3574 237.816 50.6486 236.525 52.9728 236.525C55.5552 236.267 55.0387 238.591 55.5552 239.365Z" fill="#223A70" stroke="#223A70" stroke-miterlimit="10"/>
<path d="M52.1975 193.139C50.3898 193.398 49.0986 192.623 49.0986 190.557C49.0986 189.266 49.6151 187.458 51.4228 187.716C53.2305 187.975 55.5547 187.716 55.5547 190.815C55.5547 193.139 54.0052 193.139 52.1975 193.139Z" fill="#223A70" stroke="#223A70" stroke-miterlimit="10"/>
<path d="M52.7145 217.415C50.6485 217.415 48.8408 216.64 48.8408 214.316C48.8408 213.024 49.3573 211.217 51.4232 210.958C52.7145 210.7 55.5551 214.316 55.2969 215.865C55.0386 217.415 53.7474 217.415 52.7145 217.415Z" fill="#223A70" stroke="#223A70" stroke-miterlimit="10"/>
<path d="M38.7695 9.52904C42.6432 7.97959 46.5168 7.72135 50.6487 8.23783C46.775 9.52904 42.6432 9.01256 38.7695 9.52904Z" fill="#223A70" stroke="#223A70" stroke-miterlimit="10"/>
<path d="M41.0939 108.179C43.6763 109.728 46.0005 110.503 47.5499 112.311C49.3576 114.635 50.6488 114.118 52.4565 112.569C54.006 111.278 55.8137 109.986 57.8796 109.212C58.6543 108.953 59.9455 108.695 60.2038 109.728C60.7203 110.761 59.6873 111.019 58.9126 111.536C56.3301 113.085 53.2312 114.377 50.9071 116.442C49.6158 117.475 48.3246 117.217 47.2917 115.926C45.7422 113.86 43.6763 112.052 41.3521 110.761C40.5774 110.245 40.0609 109.728 40.3191 108.695C40.8356 108.695 41.0939 108.437 41.0939 108.179Z" fill="#223A70" stroke="#223A70" stroke-miterlimit="10"/>
<path d="M34.3788 61.1777C34.1205 61.1777 33.8623 60.9195 33.604 60.9195C33.3458 60.403 33.604 59.8865 33.8623 59.6283C34.8952 58.8535 36.1865 57.8206 37.2194 57.0458C41.3513 54.7217 43.159 50.848 45.7414 47.2326C47.0326 45.4249 48.3238 43.6173 49.8733 41.8096C50.3898 41.2931 50.9063 40.7766 51.681 41.5513C52.1975 42.0678 51.9392 42.326 51.4227 42.8425C47.0326 49.5568 42.9008 56.5294 35.4117 60.6612C35.4117 60.6612 34.8952 60.9195 34.3788 61.1777Z" fill="#223A70" stroke="#223A70" stroke-miterlimit="10"/>
<path d="M74.6652 41.8092C73.374 45.6828 71.3081 49.04 68.9839 51.8806C67.4345 53.6883 65.6268 55.2378 63.3026 56.0125C62.5279 56.2708 61.4949 57.8202 60.7202 56.2708C60.2037 54.9796 61.4949 54.7213 62.2696 54.2048C66.4015 51.6224 69.2422 48.2653 71.5663 44.1334C71.8246 43.3587 72.0828 42.5839 72.3411 41.8092C72.5993 41.2927 73.1158 41.0345 73.6323 41.2927C74.407 41.2927 74.6652 41.551 74.6652 41.8092Z" fill="#223A70" stroke="#223A70" stroke-miterlimit="10"/>
<path d="M86.2853 45.6838C85.5105 50.0739 85.2523 54.464 81.3787 57.5629C80.8622 58.0794 80.6039 58.8541 79.571 58.0794C79.0545 57.5629 79.0545 57.0464 79.571 56.53C82.6699 53.431 83.9611 49.5574 84.2193 45.4255C84.2193 44.6508 84.7358 44.3926 85.5105 44.3926C86.027 44.3926 86.2853 44.9091 86.2853 45.6838Z" fill="#223A70" stroke="#223A70" stroke-miterlimit="10"/>
<path d="M27.9225 42.3262C28.1808 42.8427 28.439 43.1009 28.439 43.3591C25.3401 48.2657 24.5654 54.2053 21.4665 59.3702C21.2082 59.8866 20.95 60.9196 19.917 60.4031C19.1423 60.1449 19.1423 59.3702 19.6588 58.5954C22.7577 54.98 23.7907 50.5899 25.3401 46.1998C25.8566 44.6504 26.8896 43.6174 27.9225 42.3262Z" fill="#223A70" stroke="#223A70" stroke-miterlimit="10"/>
<path d="M68.2083 86.2269C66.1424 86.4852 66.4006 84.6775 66.1424 83.6445C65.8841 82.095 66.9171 81.3203 68.2083 81.3203C69.7578 81.3203 71.049 82.095 71.049 83.9027C71.3072 85.9687 69.7578 86.2269 68.2083 86.2269Z" fill="#223A70" stroke="#223A70" stroke-miterlimit="10"/>
<path d="M31.7967 84.1602C32.8297 84.4184 34.1209 84.6766 34.1209 86.2261C34.1209 87.5173 33.6044 89.0667 31.5385 88.8085C29.989 88.5503 28.9561 87.7755 28.9561 86.2261C29.2143 84.9349 29.989 84.1602 31.7967 84.1602Z" fill="#223A70" stroke="#223A70" stroke-miterlimit="10"/>
<path d="M156.528 68.9257C158.336 65.3103 157.303 61.4367 157.819 57.8213C158.336 53.6894 159.885 49.5576 160.918 45.6839C161.951 41.2938 165.825 38.1949 168.924 34.8378C174.088 29.4147 179.512 23.9916 185.193 18.8268C186.226 17.7938 187.259 16.5026 189.066 16.2443C189.066 18.052 187.775 19.085 186.484 20.118C180.028 25.7993 174.088 31.9971 168.149 38.1949C164.792 41.5521 163.242 45.6839 161.951 50.3323C159.885 57.0466 160.402 64.0191 159.369 70.7334C158.852 74.3488 160.143 77.7059 161.176 81.0631C162.209 84.162 162.726 87.5191 163.501 90.8763C165.308 97.5906 168.665 103.272 174.605 106.629C181.836 110.761 189.583 111.794 197.588 109.211C200.429 108.179 203.012 106.887 205.336 104.821C210.501 99.9148 215.407 94.4917 218.506 88.0356C221.347 82.0961 223.929 76.1565 224.187 69.184C224.187 65.8268 224.704 62.4697 225.22 59.3708C226.77 51.8817 223.929 45.9422 219.539 40.5191C214.891 34.8378 210.759 28.8982 205.077 24.2498C201.462 21.4092 197.33 19.8597 193.198 17.7938C192.165 17.2773 190.874 16.7608 190.099 14.9531C198.621 17.7938 205.852 21.4092 211.534 27.607C216.698 33.2883 221.605 38.9696 225.479 45.4257C229.352 52.14 229.869 59.3708 230.385 66.6015C230.902 74.0906 231.418 81.8378 230.385 89.0686C228.836 101.206 229.352 113.602 227.028 125.481C225.995 130.387 225.737 135.552 225.22 140.459C225.22 141.233 224.962 142.008 224.962 142.783C224.962 143.558 224.704 144.332 223.671 144.074C222.896 143.816 223.154 143.041 223.154 142.525C224.187 134.519 224.962 126.255 226.253 118.25C227.545 110.761 226.512 103.272 228.061 95.7829C229.869 85.7115 228.319 75.3818 228.836 65.3103C228.836 65.0521 228.578 64.7938 228.578 64.2774C227.286 65.3103 227.286 66.6015 227.028 67.8928C226.253 76.4147 223.413 84.4202 219.023 91.651C216.957 95.0082 216.182 98.3653 216.698 102.239C217.99 110.244 215.924 118.25 215.149 126.255C214.632 130.387 214.632 135.036 213.341 139.168C212.825 140.975 215.149 143.299 216.698 143.816C218.506 144.332 219.539 145.365 220.572 146.398C229.094 155.695 237.358 165.25 246.138 174.288C249.753 177.904 250.786 182.294 250.786 187.201C251.303 199.854 250.786 212.508 250.27 225.162C250.012 233.168 250.528 240.915 250.786 248.92C250.786 249.953 251.045 251.245 249.753 251.245C248.204 251.503 247.946 250.212 247.946 248.92C248.462 232.393 247.946 215.607 248.979 199.08C249.237 193.398 248.462 187.717 247.946 182.036C247.687 178.937 245.363 176.613 243.297 174.547C236.067 167.058 229.094 158.794 221.347 151.563C220.572 150.788 220.056 150.014 219.281 149.239C217.99 147.69 216.698 146.657 215.924 149.497C215.665 150.53 214.632 150.53 213.858 150.788C211.275 151.821 208.951 152.854 207.66 155.437C206.627 156.986 205.594 157.245 204.561 155.179C202.753 152.08 200.946 148.981 199.396 145.624C198.621 143.558 196.814 143.299 195.264 144.849C194.231 146.14 192.94 147.69 192.424 149.239C191.132 153.629 188.034 156.728 185.968 160.602C185.193 162.151 184.16 162.151 183.385 160.602C182.352 158.536 180.803 157.761 178.995 156.986C176.413 155.953 174.088 154.404 172.281 152.596C170.99 151.305 170.473 151.563 169.44 152.854C167.632 154.92 165.825 156.47 164.017 158.277C161.176 161.118 157.303 161.893 154.204 164.217C147.49 169.382 140.259 174.288 137.16 182.81C135.094 188.492 134.319 194.431 134.577 200.371C135.094 214.058 135.869 228.003 136.643 241.69C136.643 243.497 136.643 245.563 137.418 247.371C137.935 248.662 137.418 249.179 136.643 249.437C134.577 250.212 134.319 249.179 134.319 248.146C134.061 244.272 133.803 240.398 133.803 236.525C134.061 227.228 132.253 217.931 132.253 208.893C132.253 199.338 131.22 189.525 135.61 180.228C138.709 173.772 144.391 169.64 149.814 164.992C151.105 163.959 152.396 162.926 153.946 162.409C160.66 160.343 160.402 154.146 162.209 149.239C165.308 141.492 166.341 132.97 167.374 124.964C168.149 118.766 168.149 112.31 166.083 106.113C162.984 96.2994 158.852 87.0027 157.303 76.673C157.303 73.8323 157.044 71.5081 156.528 68.9257ZM187.259 113.085C184.676 112.31 184.418 113.86 184.418 115.926C184.418 121.091 183.902 126.514 182.869 131.679C182.352 133.486 183.127 134.261 184.418 135.294C187.775 137.876 191.649 139.168 195.264 140.975C199.913 143.299 202.495 139.168 205.852 137.36C208.435 135.81 204.561 134.777 205.077 133.228V132.97C204.303 126.514 202.495 120.058 203.012 113.343C203.012 111.277 202.495 110.761 200.429 111.536C196.039 112.569 191.649 112.31 187.259 113.085ZM175.638 136.843C178.22 134.519 180.544 131.937 181.319 128.58C182.352 124.706 182.094 120.832 182.61 116.959C182.869 113.86 182.094 112.052 178.737 111.794C177.704 111.794 176.671 111.277 175.896 110.503C174.347 109.211 174.088 109.728 173.83 111.536C173.314 117.992 173.055 124.706 172.281 131.162C171.764 135.81 169.698 144.074 166.858 146.398C166.858 145.107 167.374 144.074 167.632 143.041C169.182 139.168 169.957 135.294 170.473 131.162C171.506 124.19 170.473 117.217 171.764 110.244C172.023 108.179 170.99 107.404 169.44 107.404C167.374 107.404 168.407 109.211 168.407 109.986C169.182 117.733 168.665 124.964 167.374 132.712C166.341 139.168 164.792 145.365 162.726 151.563C162.209 153.113 161.435 154.92 161.176 156.47C161.176 156.728 161.176 157.503 161.435 157.503C161.693 157.761 162.468 157.503 162.468 157.503C164.017 154.662 169.182 154.146 166.858 149.239C166.599 148.981 167.374 148.206 167.632 147.69C169.44 144.591 171.764 141.75 172.797 138.135C174.088 132.712 174.605 127.288 175.38 122.124C175.638 120.316 175.121 118.25 177.446 116.701C178.22 123.157 176.413 129.871 175.638 136.843ZM193.198 143.041C193.198 141.75 191.907 141.234 190.616 140.717C188.034 139.942 185.709 138.909 183.385 137.102C181.319 135.552 179.512 136.069 177.962 137.876C175.38 140.459 173.572 143.558 171.248 146.657C169.957 148.206 170.215 149.239 171.248 150.53C174.347 153.887 178.479 155.695 182.61 157.761C183.385 158.019 183.902 158.277 184.418 157.503C185.968 155.179 188.034 153.371 189.066 150.788C190.616 147.948 191.907 145.624 193.198 143.041ZM211.534 136.843C214.116 124.448 214.632 112.052 214.632 98.8818C212.567 99.9148 211.792 101.722 210.242 102.755C206.369 105.596 203.786 108.953 204.303 114.376C204.561 117.992 204.819 121.349 205.852 124.706C206.369 126.514 205.594 128.58 207.143 130.129C209.984 122.124 208.176 113.86 209.468 105.854C209.984 106.887 209.726 107.92 209.726 109.211C210.759 114.118 210.501 119.025 209.984 123.931C209.468 128.321 206.369 132.97 211.534 136.843ZM201.462 143.558C201.72 146.398 203.012 149.239 204.303 151.821C204.819 152.596 205.336 153.371 206.11 152.596C208.176 150.53 210.759 149.755 213.083 148.206C214.632 147.173 214.374 146.14 213.341 145.107C212.05 143.558 210.501 142.008 209.468 140.459C208.176 138.135 206.885 137.618 204.819 139.426C204.045 140.201 202.753 140.717 201.979 141.492C201.979 142.266 200.946 142.266 201.462 143.558Z" fill="#223A70" stroke="#223A70" stroke-miterlimit="10"/>
<path d="M235.292 141.75C237.099 138.651 237.099 135.036 237.358 131.679C238.649 120.316 240.198 108.695 240.973 97.3326C242.006 81.838 244.33 66.6018 244.588 51.1072C244.847 38.7116 243.039 26.5742 235.55 16.2446C230.385 9.01377 223.671 3.59069 213.858 3.33245C206.11 3.07421 198.105 2.29948 190.616 4.8819C189.066 5.39839 187.517 6.17311 185.967 7.20608C185.193 7.72256 184.934 8.75553 184.16 7.46432C183.385 6.43135 184.16 5.91487 184.934 5.39839C188.55 3.07421 192.682 1.783 196.814 1.52475C203.528 1.00827 210.242 1.26651 216.957 1.52475C220.83 1.783 223.929 3.84893 227.028 5.65663C235.55 10.8215 240.198 18.3105 243.555 27.6072C247.946 40.0028 247.429 52.6567 245.88 65.5688C244.847 75.6402 243.814 85.9699 243.297 96.0413C242.522 107.404 240.973 118.767 239.94 130.129C239.424 136.327 237.358 141.75 235.033 147.432C233.742 150.272 234 153.888 234.517 157.245C234.775 158.019 235.292 159.052 234 159.311C232.968 159.569 232.709 158.278 232.709 157.503C232.451 155.179 232.193 152.855 232.193 150.53C232.193 136.585 234.775 123.157 235.808 109.212C236.325 102.239 236.841 95.2666 236.583 88.2941C236.325 78.4809 236.066 68.4095 235.033 58.5963C234.259 50.849 231.676 43.8765 229.61 36.6457C226.77 26.8325 220.314 19.6017 212.308 13.9204C207.918 10.8215 202.753 9.53026 197.33 12.1127C195.006 13.4039 191.907 12.8874 189.583 14.1786C189.066 14.4369 188.808 14.1786 188.55 13.9204C188.292 13.4039 188.55 13.1456 188.808 12.8874L189.066 12.6292C194.489 11.8544 199.654 7.98081 205.594 9.27202C211.792 10.5632 217.215 13.9204 221.088 19.0852C222.38 20.6347 223.413 22.4424 224.962 23.7336C228.577 27.6072 230.643 32.5138 232.193 37.4204C234.259 44.6512 236.583 51.882 237.358 59.371C237.358 60.4039 237.616 61.1787 237.616 62.2116C237.874 77.9644 239.165 93.9754 237.616 109.728C236.841 117.734 236.066 125.997 234.775 134.003C234.259 136.585 234.259 139.426 234.259 142.267C234.517 141.75 235.033 141.75 235.292 141.75Z" fill="#223A70" stroke="#223A70" stroke-miterlimit="10"/>
<path d="M156.528 68.9261C155.495 70.2173 156.011 71.7668 156.011 73.058C156.011 78.7393 156.011 84.6789 155.753 90.3602C155.495 95.0086 158.077 99.1404 158.077 104.047C157.819 109.987 158.852 115.926 158.336 121.866C157.819 125.998 159.369 130.388 157.819 134.52C154.978 142.525 153.687 151.047 149.814 158.794C148.781 161.119 146.715 162.152 144.907 163.701C144.907 161.119 146.198 159.311 146.973 157.245C150.588 146.657 151.621 135.553 150.072 124.448C149.039 116.959 148.006 109.47 147.231 101.981C146.456 96.8163 145.165 91.6514 144.907 86.4866C144.39 78.7393 144.132 70.9921 144.649 63.2448C144.907 58.5964 144.907 54.2063 145.682 49.8162C146.973 41.2942 149.555 33.0305 154.462 25.7997C160.401 17.536 167.891 11.0799 177.704 7.46451C178.995 6.94803 180.286 6.94803 182.094 7.46451C178.478 9.78869 174.863 10.5634 171.506 11.8546C165.566 14.437 162.209 19.3436 158.077 23.7338C154.462 27.6074 152.654 32.514 150.847 37.4206C144.649 54.9811 146.715 73.058 147.748 90.8767C148.264 98.1075 150.072 105.338 150.847 112.569C150.847 112.827 151.105 113.086 151.621 113.86C152.654 109.987 152.654 106.371 152.396 103.014C151.363 90.102 150.588 77.1899 151.105 64.2778C151.363 51.1074 153.429 37.9371 160.66 26.3162C165.566 18.5689 171.764 12.8876 180.803 10.0469C182.869 9.27221 184.418 9.78869 186.226 11.3381C183.385 11.0799 180.803 10.3052 178.22 11.8546C171.764 15.7283 166.341 20.3766 162.209 27.0909C157.303 35.0964 156.011 43.8766 154.462 52.9151C152.912 61.9536 153.687 71.2503 153.429 80.2888C153.429 81.3217 153.429 82.613 154.462 83.6459C155.753 80.2888 154.978 76.9316 155.237 73.8327C155.237 72.2833 154.978 70.7338 155.753 69.1844C155.753 68.4096 156.011 67.8932 156.528 68.9261ZM152.654 143.558C157.561 137.877 158.594 101.465 154.204 95.7833C153.429 111.794 154.978 127.547 152.654 143.558Z" fill="#223A70" stroke="#223A70" stroke-miterlimit="10"/>
<path d="M135.61 156.212C138.967 150.014 141.55 143.299 142.583 136.843C143.616 130.387 144.132 123.415 143.616 116.442C143.099 107.404 141.808 98.3653 140.259 89.5851C139.226 83.1291 138.451 76.4148 138.193 69.7005C137.935 60.4038 138.968 51.3653 140 42.3268C140.775 35.6125 143.358 29.4147 146.457 23.4751C150.072 15.7279 156.011 10.0466 163.242 6.43117C167.374 4.10699 172.539 2.55754 177.704 4.62347C175.638 5.13996 173.314 5.91468 171.248 6.17293C160.66 7.72238 154.204 14.4367 149.297 22.9587C146.198 28.3817 143.874 34.3213 142.583 40.5191C142.066 43.1015 141.55 45.684 141.55 48.5246C140.775 61.9532 140 75.64 143.099 89.0686C144.907 98.1071 146.198 107.146 146.457 116.184C146.715 127.288 145.424 138.393 141.033 148.723C140.259 150.272 140 152.08 139.484 153.629C138.451 155.179 137.935 156.47 135.61 156.212Z" fill="#223A70" stroke="#223A70" stroke-miterlimit="10"/>
<path d="M222.38 89.0693C220.314 102.498 221.347 115.927 220.83 129.097C220.572 132.712 219.797 136.328 219.281 139.685C219.281 140.201 219.281 140.976 218.506 140.976C217.731 140.976 217.731 140.201 217.989 139.427C219.539 131.163 219.539 122.899 219.797 114.377C219.797 108.696 220.055 103.273 220.314 97.5913C220.314 94.7507 220.83 91.6518 222.38 89.0693Z" fill="#223A70" stroke="#223A70" stroke-miterlimit="10"/>
<path d="M161.434 97.5908C166.34 114.635 166.082 131.421 160.143 147.948C161.692 139.684 162.983 131.162 163.5 122.64C164.016 114.118 161.176 105.855 161.434 97.5908Z" fill="#223A70" stroke="#223A70" stroke-miterlimit="10"/>
<path d="M198.363 210.442C198.621 211.992 197.588 213.283 196.555 214.574C196.038 215.349 195.522 216.64 194.231 216.382C193.198 216.123 193.198 215.091 193.198 214.058C193.456 213.025 192.165 213.025 191.907 212.508C190.615 210.7 191.132 208.893 192.165 207.343C192.681 206.052 193.973 205.536 195.264 206.31C196.813 207.085 198.621 207.86 198.363 210.442Z" fill="#223A70" stroke="#223A70" stroke-miterlimit="10"/>
<path d="M197.072 253.311C197.072 254.86 195.781 255.893 193.715 255.893C191.649 255.893 189.583 255.635 189.841 252.794C189.841 250.729 189.841 248.146 192.682 247.63C194.748 247.371 197.072 250.212 197.072 253.311Z" fill="#223A70" stroke="#223A70" stroke-miterlimit="10"/>
<path d="M195.522 86.4867C195.522 89.5856 191.132 94.234 188.291 94.234C186.225 94.234 181.061 88.0362 181.577 85.712C181.577 85.4538 181.835 84.9373 182.094 84.679C182.61 84.4208 183.127 84.9373 183.127 85.4538C183.643 86.745 184.16 87.7779 185.192 88.8109C187.258 91.1351 188.808 91.3933 191.39 89.3274C192.94 88.5527 193.456 86.4867 195.522 86.4867Z" fill="#223A70" stroke="#223A70" stroke-miterlimit="10"/>
<path d="M199.139 169.897C198.622 171.447 199.397 174.546 196.298 174.546C194.49 174.546 191.65 173.771 191.908 170.672C192.166 168.864 192.166 166.024 195.265 166.54C196.815 166.799 199.655 166.024 199.139 169.897ZM195.523 168.606C194.749 168.606 193.716 168.864 193.974 169.897C194.232 170.672 193.716 172.222 195.523 171.963C196.556 171.963 197.073 171.189 197.331 170.156C197.331 169.123 196.815 168.606 195.523 168.606Z" fill="#223A70" stroke="#223A70" stroke-miterlimit="10"/>
<path d="M171.764 62.4702C171.248 63.2449 171.248 64.7944 169.44 64.7944C167.374 64.7944 166.857 62.9867 166.857 61.6955C166.599 60.6625 167.89 59.6295 169.182 59.8878C170.215 59.8878 171.764 60.4043 171.764 62.4702Z" fill="#223A70" stroke="#223A70" stroke-miterlimit="10"/>
<path d="M208.434 58.3369C209.725 58.5952 211.275 58.5952 211.017 60.4028C210.758 61.6941 210.5 64.2765 209.209 64.0182C207.659 63.76 206.885 61.6941 206.368 60.1446C205.852 58.5952 207.401 58.5952 208.434 58.3369Z" fill="#223A70" stroke="#223A70" stroke-miterlimit="10"/>
</svg>
