<svg width="24" height="32" fill="none" xmlns="http://www.w3.org/2000/svg"><path d="M7.11 31.162c-.082 0-.17 0-.261-.013-.97-.096-1.46-.268-2.273-.557l-.227-.08c-1.484-.524-2.36-1.095-2.546-1.404a1.788 1.788 0 0 1-.14-1.562c.037-.092.087-.21.139-.329 0-.012.186-.519.19-.532.304-.797.934-3.918 1.061-4.707-.026-.211-.032-.38-.062-.615A8.048 8.048 0 0 0 1.9 18.268l-.047-.075c-.508-.798-1.138-1.79-1.021-4.127.14-2.702 1.995-5.263 4.965-6.847a10.127 10.127 0 0 1 4.759-1.151c2.445 0 4.827.822 6.373 2.2a9.796 9.796 0 0 1 3.297 6.32c.303 2.536-1.305 5.098-2.46 6.202-.578.552-1.336.97-2.213 1.454-.859.456-1.688.962-2.483 1.517-1.575 1.127-2.992 3.739-3.93 5.466-.237.442-.443.815-.563 1-.505.773-.952.932-1.467.932v.003z" fill="#fff"/><path d="M18.658 16.889a4.15 4.15 0 0 0 .032-3.88c-1.072-2.088-4.75-4.973-7.932-4.742-3.182.231-6.985 2.357-7.741 5.848-1.076 4.963.895 8.908 1.992 9.671 1.288.895 4.334.59 6.047.482 2.084-.134 4.405-1.957 5.8-3.126 1.396-1.168 1.802-4.253 1.802-4.253z" fill="#FFF574"/><path d="M9.545 12.158c1.163-.334 1.94-1.154 1.734-1.832-.206-.679-1.315-.959-2.478-.626-1.163.334-1.94 1.154-1.734 1.832.205.679 1.315.959 2.478.626z" fill="#fff"/><path d="M17.546 7.651C14.73 5.146 9.505 4.306 5.424 6.485 2.098 8.26.161 11.145.015 14.028c-.133 2.668.643 3.803 1.197 4.677.51.849.84 1.788.97 2.763.107.833.071 1.141.01 1.46-.09.476.137.93.51 1.033.415.107.898-.127 1.08-.942.188-.717.239-1.46.151-2.195-.125-1.205-.478-1.793-.997-2.924-.518-1.13-.966-2.225-.874-3.53.1-1.386.84-3.095 2.121-4.364C5.465 8.737 7.005 8.104 8.867 7.6c1.72-.459 4.806-.2 6.93 1.566 1.406 1.168 2.815 3.147 3.164 5.042.335 1.81-.13 3.71-2.012 5.585-1.882 1.874-3.672 2.054-4.98 3.319-.311.294-.627.642-.933 1-.512-.011-1.172-.014-1.942-.073-1.515-.118-3.277-.443-3.277-.443-.39-.117-.952-.263-1.13.173-.176.436.186.843.93 1.179.744.336 2.085.672 3.235.831.295.04.578.073.847.096a12.73 12.73 0 0 0-.71 1.19c-.536-.1-1.334-.1-1.97-.16-.727-.069-1.211-.147-1.754-.203-.303-.034-.774-.092-.909.303-.151.454.29.73.923.985.944.349 1.918.612 2.912.786-.371.72-.758 1.29-1.1 1.302a6.424 6.424 0 0 1-2.394-.523c-1.024-.427-1.792-.868-1.923-1.04-.209-.277-.151-.553-.115-.795.099-.648.185-1.76-.348-1.857-.734-.132-.953.308-1.394 1.37a2.587 2.587 0 0 0 .195 2.299c.467.776 2.13 1.462 2.994 1.768.953.336 1.529.568 2.702.683 1.02.1 1.818-.211 2.539-1.303.606-.92 2.436-4.924 4.276-6.242 1.898-1.36 3.6-1.916 4.79-3.048 1.189-1.132 3.058-3.972 2.71-6.894a10.67 10.67 0 0 0-3.577-6.845zM23.258 6.862a2.56 2.56 0 0 0-1.57.252c-.471.255-1.01.423-1.318.92-.335.544-.052 1.06.956 1.076.413 0 1.364-.295 1.78-.442.417-.148.638-.295.835-.683.165-.324-.001-.946-.683-1.123zM14.583 3.88c.25.083.596-.026.894-.338.336-.35 1.541-1.946 1.429-2.731a.95.95 0 0 0-.185-.425.986.986 0 0 0-.367-.292 1.014 1.014 0 0 0-.92.035c-.69.38-1.18 2.265-1.236 2.916-.053.62.112.743.385.834zM6.515 3.626c.412.335.645.411.956.295.279-.109.38-.61.373-.858-.012-.411-.596-2.078-.91-2.489a1.12 1.12 0 0 0-.59-.35 1.143 1.143 0 0 0-.688.055c-.455.177-.534.59-.547.967-.021.562.747 1.847 1.406 2.38z" fill="#282E33"/></svg>