<svg width="14" height="14" fill="none" xmlns="http://www.w3.org/2000/svg"><path d="M12.333.333h-8C3.596.333 3 .93 3 1.666v8C3 10.403 3.596 11 4.333 11h8c.737 0 1.333-.597 1.333-1.334v-8c0-.736-.596-1.333-1.333-1.333zm-5.667 5c0 .553-.446 1-1 1H5v1.333H4v-4h1.666c.554 0 1 .447 1 1v.667zM10 6.666c0 .554-.447 1-1 1H7.333v-4H9c.553 0 1 .447 1 1v2zm2.666-2h-1v.667h1v1h-1v1.333h-1v-4h2v1zM5 5.333h.666v-.667H5v.667zM1.666 3H.333v9.333c0 .737.597 1.333 1.333 1.333H11v-1.333H1.666V3zm6.667 3.666H9v-2h-.667v2z" fill="#223A70"/></svg>