<svg width="16" height="16" fill="none" xmlns="http://www.w3.org/2000/svg"><path opacity=".54" d="M12.796 7.99a.785.785 0 0 0-.58.226.787.787 0 0 0-.225.581V13.6a.806.806 0 0 1-.216.582.754.754 0 0 1-.571.225H2.398a.754.754 0 0 1-.571-.226.806.806 0 0 1-.216-.58V4.801c0-.25.072-.447.216-.591.143-.144.334-.216.571-.216h4.796c.25 0 .447-.072.59-.215.144-.144.216-.341.216-.591 0-.238-.072-.429-.215-.572-.144-.144-.34-.216-.59-.216H2.397c-.674 0-1.243.228-1.705.685C.231 3.542 0 4.114 0 4.802v8.797c0 .675.231 1.244.693 1.707.462.463 1.03.694 1.705.694h8.806c.674 0 1.242-.231 1.705-.694.462-.463.693-1.032.693-1.707V8.797a.787.787 0 0 0-.225-.581.785.785 0 0 0-.58-.225zM15.906.47a.88.88 0 0 0-.168-.225.88.88 0 0 0-.225-.169.249.249 0 0 0-.16-.066A1.882 1.882 0 0 0 15.195 0h-4.796a.804.804 0 0 0-.58.216.756.756 0 0 0-.225.572c0 .25.074.447.224.59.15.144.344.216.581.216h2.885L5.845 9.041a.773.773 0 0 0 0 1.125.778.778 0 0 0 .244.17.807.807 0 0 0 .318.056.754.754 0 0 0 .3-.057c.088-.037.175-.094.263-.169l7.419-7.446v2.87c0 .25.075.447.225.59.15.144.343.216.58.216.238 0 .431-.072.581-.215.15-.144.225-.341.225-.591V.788c0-.038-.003-.09-.01-.16a.213.213 0 0 0-.084-.16z" fill="#223A70"/></svg>