<svg width="140" height="33" viewBox="0 0 140 33" fill="none" xmlns="http://www.w3.org/2000/svg">
    <path d="M17.0522 7.69076C14.3168 5.16868 9.24145 4.324 5.27679 6.51937C2.05131 8.30434 0.165822 11.2089 0.0116625 14.1095C-0.102969 16.7949 0.652016 17.9384 1.1975 18.819C1.69616 19.6748 2.01754 20.6235 2.14222 21.608C2.22791 22.0943 2.22791 22.592 2.14222 23.0782C2.0861 23.2819 2.10526 23.4992 2.19614 23.6898C2.28702 23.8803 2.44344 24.0311 2.63632 24.1141C3.0316 24.2217 3.50989 23.9866 3.68777 23.1659C3.86981 22.444 3.9207 21.6948 3.83797 20.9546C3.71544 19.7593 3.37154 19.1497 2.86954 18.0141C2.36753 16.8786 1.92482 15.767 2.01573 14.4522C2.19117 12.8003 2.91391 11.2562 4.06723 10.0694C5.30841 8.78645 6.83419 8.14896 8.62481 7.64693C9.79185 7.38948 11.0013 7.39901 12.1642 7.67482C13.3271 7.95062 14.4139 8.48569 15.3446 9.24066C16.7122 10.416 18.0799 12.4281 18.4198 14.3167C18.744 16.1375 18.2934 18.05 16.4434 19.9346C14.5935 21.8192 12.8859 22.0025 11.6092 23.2774C11.3048 23.5802 11.0004 23.9229 10.704 24.2815C10.2059 24.2815 9.56162 24.2815 8.8185 24.2098C7.34806 24.0902 5.63254 23.7715 5.63254 23.7715C5.23726 23.652 4.71154 23.5045 4.53762 23.9428C4.36369 24.3811 4.71549 24.7915 5.43885 25.1381C6.4536 25.5499 7.51622 25.8297 8.60109 25.9708C8.8857 26.0147 9.16239 26.0465 9.42328 26.0705C9.17134 26.4552 8.94169 26.8543 8.73549 27.2657C8.21372 27.1622 7.43897 27.1622 6.81838 27.1024C6.11083 27.0307 5.63254 26.959 5.11473 26.8992C4.82222 26.8633 4.36369 26.8076 4.23325 27.202C4.087 27.6602 4.5139 27.9351 5.13054 28.1941C6.04564 28.5488 6.99193 28.8156 7.95679 28.991C7.59708 29.7161 7.21761 30.2938 6.88953 30.3018C6.0845 30.2833 5.29138 30.1017 4.55738 29.7679C3.88538 29.504 3.25852 29.1356 2.69957 28.6762C2.62437 28.5597 2.57517 28.428 2.55538 28.2905C2.53559 28.1529 2.54567 28.0126 2.58493 27.8793C2.68375 27.2259 2.76676 26.1063 2.24895 26.0107C1.53744 25.8752 1.32399 26.3175 0.893137 27.3893C0.750044 27.764 0.692788 28.1665 0.725642 28.5666C0.758496 28.9668 0.880612 29.3543 1.08287 29.7002C1.53744 30.497 3.15414 31.1704 3.99213 31.4772C4.82834 31.8366 5.71288 32.0689 6.61679 32.1665C7.60499 32.2661 8.38764 31.9553 9.08334 30.8556C9.6644 29.9313 11.455 25.8991 13.2338 24.5723C15.0125 23.2456 16.732 22.6639 17.8862 21.5044C19.0404 20.345 20.8587 17.5201 20.5188 14.5677C20.2387 11.9245 19.005 9.47717 17.0522 7.69076Z" fill="#FAFAFA"/>
    <path d="M22.5983 6.89761C22.077 6.8141 21.5429 6.9036 21.0765 7.15261C20.6179 7.40761 20.0922 7.57893 19.7957 8.07697C19.4993 8.57501 19.7444 9.15274 20.7247 9.15274C21.316 9.07367 21.8959 8.92386 22.452 8.7065C22.6269 8.66054 22.789 8.5749 22.926 8.45613C23.0631 8.33735 23.1713 8.18859 23.2426 8.02119C23.2815 7.90483 23.2953 7.78146 23.2832 7.6593C23.271 7.53713 23.2332 7.41897 23.1723 7.31267C23.1113 7.20637 23.0286 7.11438 22.9296 7.04281C22.8307 6.97125 22.7177 6.92175 22.5983 6.89761Z" fill="#FAFAFA"/>
    <path d="M14.1741 3.89759C14.3327 3.92859 14.4967 3.91486 14.6481 3.85792C14.7994 3.80097 14.9322 3.70302 15.0319 3.57486C15.356 3.22424 16.526 1.61855 16.4193 0.829655C16.3965 0.674497 16.3368 0.527207 16.2453 0.400356C16.1537 0.273505 16.0331 0.170861 15.8937 0.101185C15.7543 0.031508 15.6002 -0.0031316 15.4446 0.000222307C15.2891 0.00357622 15.1366 0.0448241 15.0003 0.120445C14.3322 0.518878 13.8539 2.39948 13.8144 3.05689C13.7749 3.71431 13.9093 3.80196 14.1741 3.89759Z" fill="#FAFAFA"/>
    <path d="M6.33596 3.64258C6.73124 3.97726 6.96446 4.04101 7.26487 3.93343C7.56528 3.82585 7.63248 3.31984 7.62853 3.06883C7.45787 2.19225 7.15528 1.34711 6.73124 0.562691C6.58154 0.391718 6.38282 0.271881 6.16257 0.219771C5.94233 0.167662 5.71146 0.185856 5.50192 0.271836C5.32434 0.358286 5.17789 0.498371 5.08296 0.672609C4.98803 0.846847 4.94933 1.04657 4.97225 1.24401C4.95248 1.80979 5.69956 3.10469 6.33596 3.64258Z" fill="#FAFAFA"/>
    <path d="M35.65 28.3532C35.5745 28.3511 35.5002 28.333 35.4321 28.3C35.364 28.267 35.3036 28.22 35.2547 28.1619L28.3768 20.8029C28.1241 20.5032 27.9886 20.1208 27.9959 19.7275C28.0032 19.3343 28.1527 18.9572 28.4164 18.6673L35.1915 11.5074C35.2408 11.4507 35.3016 11.4054 35.3698 11.3744C35.438 11.3435 35.512 11.3277 35.5868 11.3281C35.6608 11.3277 35.7341 11.3427 35.8021 11.3722C35.8702 11.4017 35.9314 11.445 35.982 11.4995L37.3932 12.9856C37.5011 13.104 37.5591 13.2601 37.5546 13.4208C37.5502 13.5815 37.4838 13.7341 37.3695 13.8462C37.3695 13.8462 32.1834 19.1135 32.0648 19.229C31.9581 19.3189 31.8702 19.4293 31.8064 19.5538C31.7426 19.6783 31.7041 19.8145 31.6932 19.9542C31.6922 20.0628 31.7126 20.1706 31.7533 20.2711C31.794 20.3717 31.8542 20.4631 31.9304 20.5399C32.0806 20.6993 35.2508 23.7712 37.0335 25.6319L37.405 26.0303C37.5078 26.1449 37.5642 26.2942 37.5631 26.4486C37.5621 26.5283 37.5456 26.6069 37.5144 26.6801C37.4832 26.7532 37.4379 26.8194 37.3813 26.875L36.0255 28.1978C35.9742 28.2503 35.9125 28.2914 35.8444 28.3181C35.7763 28.3449 35.7033 28.3569 35.6302 28.3532H35.65Z" fill="#FAFAFA"/>
    <path d="M48.7938 28.5682C48.1608 28.5632 47.5334 28.4473 46.9399 28.2255C46.8264 28.1914 46.7268 28.1216 46.6557 28.0262C46.5845 27.9308 46.5456 27.8149 46.5446 27.6956V25.9186C46.5457 25.7703 46.6048 25.6284 46.7092 25.5239C46.8137 25.4194 46.9548 25.3608 47.102 25.3608C47.1545 25.3552 47.2075 25.3552 47.2601 25.3608C47.8174 25.5281 48.2601 25.6556 48.5012 25.7074C48.5863 25.7306 48.674 25.7426 48.7621 25.7433C48.836 25.745 48.9094 25.7309 48.9775 25.7021C49.0456 25.6732 49.1069 25.6303 49.1574 25.5759C49.2285 25.4778 49.2789 25.366 49.3054 25.2474C49.3319 25.1289 49.334 25.0061 49.3116 24.8867C49.2239 24.5482 49.0494 24.2391 48.8056 23.9902C48.7107 23.8746 46.177 20.9262 46.1414 20.8705C46.1059 20.8147 46.0228 20.6792 45.9715 20.5876C45.2718 19.3245 46.0347 17.6272 46.4458 16.6032C46.4875 16.5005 46.5587 16.4126 46.6502 16.3508C46.7418 16.2891 46.8495 16.2563 46.9597 16.2566C47.048 16.2559 47.135 16.2779 47.2126 16.3204L48.7938 17.1411C48.9159 17.2046 49.0105 17.3112 49.0593 17.4406C49.1082 17.5701 49.108 17.7131 49.0586 17.8424C48.9361 18.1691 48.6356 19.0377 48.6001 19.2209C48.5453 19.4513 48.5535 19.6922 48.6238 19.9182C48.6515 20.0178 50.6002 22.4004 50.6516 22.4562C51.4698 23.4284 52.4027 25.3807 51.7979 26.4923C51.0824 27.9386 50.1417 28.5682 48.7938 28.5682Z" fill="#FAFAFA"/>
    <path d="M50.6945 15.1731C50.6617 15.1772 50.6285 15.1772 50.5957 15.1731L46.4453 14.4479C46.3724 14.4346 46.303 14.4065 46.2412 14.3654C46.1794 14.3243 46.1264 14.2711 46.0856 14.2089C46.0433 14.1474 46.0141 14.0778 45.9998 14.0045C45.9855 13.9311 45.9865 13.8555 46.0025 13.7825L46.4413 11.8661C46.4689 11.7416 46.5374 11.6302 46.6357 11.55C46.734 11.4697 46.8563 11.4252 46.9828 11.4238C47.0262 11.4199 47.0699 11.4199 47.1133 11.4238L51.1847 12.4438C51.3208 12.4814 51.4375 12.57 51.511 12.6914C51.5845 12.8129 51.6092 12.9581 51.58 13.0972L51.2361 14.7308C51.2099 14.8563 51.1419 14.969 51.0434 15.0502C50.9449 15.1314 50.8218 15.1762 50.6945 15.1771V15.1731Z" fill="#FAFAFA"/>
    <path d="M44.9592 22.6678C44.9614 22.7009 44.9614 22.7342 44.9592 22.7674C44.9077 23.3805 44.8193 23.9899 44.6944 24.5922C44.5274 25.3778 44.3122 26.1523 44.0501 26.9111C44.0342 26.984 44.004 27.0529 43.9612 27.1138C43.9184 27.1747 43.864 27.2264 43.801 27.2657C43.6715 27.3437 43.5165 27.3666 43.3702 27.3294L41.6744 26.8832C41.5513 26.8513 41.4428 26.7776 41.3672 26.6746C41.2916 26.5716 41.2536 26.4454 41.2594 26.3174C41.2604 26.2742 41.2671 26.2314 41.2791 26.1899C41.5884 25.4363 41.8524 24.6646 42.0697 23.879C42.2389 23.3079 42.371 22.7263 42.465 22.1379C42.5013 21.9967 42.5914 21.8757 42.7158 21.8011C42.8401 21.7265 42.9886 21.7043 43.129 21.7394L44.5283 22.09C44.6518 22.1218 44.7608 22.1953 44.837 22.2983C44.9133 22.4013 44.9522 22.5274 44.9473 22.6558L44.9592 22.6678Z" fill="#FAFAFA"/>
    <path d="M53.0499 22.4047C53.048 22.4366 53.048 22.4685 53.0499 22.5004C53.0499 22.5004 53.374 23.3889 53.6112 24.3092C53.7832 25.0793 53.8995 25.861 53.959 26.648C53.9774 26.7194 54.0096 26.7864 54.0538 26.8451C54.098 26.9038 54.1533 26.9531 54.2165 26.9902C54.2797 27.0272 54.3496 27.0513 54.4221 27.0609C54.4946 27.0706 54.5683 27.0657 54.6389 27.0465L56.3228 26.6042C56.4415 26.5673 56.5447 26.4917 56.6162 26.3893C56.6878 26.287 56.7236 26.1635 56.7181 26.0384C56.7238 25.9948 56.7238 25.9506 56.7181 25.907C56.5952 25.1262 56.4276 24.3533 56.2161 23.5921C56.0438 22.9905 55.8107 22.4084 55.5204 21.8549C55.484 21.7137 55.3939 21.5927 55.2696 21.5181C55.1452 21.4435 54.9967 21.4214 54.8563 21.4565L53.457 21.8111C53.3335 21.8429 53.2246 21.9164 53.1483 22.0193C53.0721 22.1223 53.0331 22.2485 53.038 22.3768L53.0499 22.4047Z" fill="#FAFAFA"/>
    <path d="M74.6884 28.1977C74.6129 28.1939 74.5388 28.1747 74.4709 28.1411C74.4029 28.1076 74.3425 28.0604 74.2932 28.0025L73.1073 26.6438C73.0162 26.5372 72.9687 26.3996 72.9746 26.259C72.9805 26.1184 73.0392 25.9853 73.1389 25.8868C74.6054 24.5082 75.2656 23.2572 76.0364 21.5598C76.4909 20.5598 76.4316 19.233 76.4316 18.2409C76.4316 18.0098 76.4316 17.7429 76.4316 17.5516C76.4336 17.5208 76.429 17.4899 76.4181 17.461C76.4072 17.4321 76.3902 17.406 76.3684 17.3843C76.3258 17.3434 76.2691 17.3205 76.2103 17.3205H73.5342C73.3881 17.3195 73.2481 17.2611 73.144 17.1577C73.0399 17.0543 72.98 16.914 72.9769 16.7667V15.1809C72.9764 15.1077 72.9902 15.035 73.0175 14.9672C73.0448 14.8993 73.0851 14.8375 73.1362 14.7853C73.1872 14.7332 73.2479 14.6916 73.3148 14.6631C73.3818 14.6346 73.4536 14.6197 73.5263 14.6192H76.2617C76.3183 14.6182 76.3725 14.5953 76.4129 14.5553C76.4534 14.5152 76.477 14.4611 76.4791 14.404C76.4791 13.9338 76.4791 13.133 76.4791 13.133V11.8381C76.4727 11.7773 76.4795 11.7159 76.4989 11.6581C76.5184 11.6002 76.5501 11.5473 76.5918 11.503C76.6335 11.4587 76.6842 11.424 76.7405 11.4014C76.7968 11.3788 76.8573 11.3687 76.9178 11.3719H78.9812C79.246 11.3719 79.3765 11.5592 79.3765 11.862C79.3765 11.862 79.3765 14.3801 79.3765 14.392C79.3796 14.4531 79.4017 14.5117 79.4397 14.5594C79.4819 14.6014 79.5385 14.6256 79.5978 14.6271H83.5506C83.7767 14.6063 84.0043 14.644 84.2119 14.7368C84.4194 14.8295 84.6 14.9742 84.7365 15.157C84.9361 15.5672 85.0195 16.0249 84.9776 16.4798C84.9776 16.4798 85.2345 23.6158 84.187 26.1498C84.1525 26.2387 84.1074 26.323 84.0526 26.4008C83.4123 27.3371 82.7798 27.9587 81.4122 28.1579H81.2936C80.8277 28.2096 80.3583 28.2216 79.8903 28.1938C79.7511 28.1963 79.6161 28.1455 79.5127 28.0515C79.4092 27.9576 79.345 27.8276 79.333 27.6877L79.1274 25.8868C79.1194 25.809 79.128 25.7304 79.1525 25.6562C79.1771 25.582 79.217 25.5139 79.2697 25.4565C79.3192 25.4 79.38 25.3548 79.4482 25.3239C79.5164 25.293 79.5903 25.2771 79.665 25.2772H79.9615C80.1828 25.2772 80.7283 25.2772 81.0564 25.2374H81.0762C81.6138 25.2374 81.8667 24.4764 81.8944 24.4405C82.2897 23.3528 82.2897 20.2689 82.2897 19.3645C82.2897 18.0258 82.432 17.2886 81.4991 17.2886L79.586 17.3126C79.5325 17.3101 79.4801 17.328 79.4391 17.3627C79.3981 17.3974 79.3715 17.4463 79.3646 17.4998C79.3093 18.5118 79.2579 21.0857 78.665 22.5998C77.9023 24.6674 76.6768 26.5299 75.0837 28.0423C75.0317 28.0939 74.9699 28.1343 74.9019 28.161C74.834 28.1877 74.7613 28.2002 74.6884 28.1977Z" fill="#FAFAFA"/>
    <path d="M92.6653 15.1735C92.6325 15.1774 92.5993 15.1774 92.5665 15.1735L88.4161 14.4483C88.3434 14.4345 88.2741 14.4063 88.2124 14.3652C88.1506 14.3241 88.0976 14.2711 88.0564 14.2092C88.0152 14.1472 87.9866 14.0776 87.9724 14.0045C87.9581 13.9313 87.9584 13.856 87.9734 13.7829L88.4161 11.8665C88.4405 11.7412 88.5068 11.6282 88.6039 11.5462C88.701 11.4643 88.8231 11.4184 88.9497 11.4163C88.9931 11.4124 89.0368 11.4124 89.0802 11.4163L93.1515 12.4362C93.2913 12.4696 93.4128 12.5564 93.4902 12.6783C93.5677 12.8002 93.5951 12.9478 93.5666 13.0897L93.2069 14.7312C93.1814 14.8571 93.1136 14.9702 93.0149 15.0515C92.9163 15.1328 92.7928 15.1773 92.6653 15.1775V15.1735Z" fill="#FAFAFA"/>
    <path d="M90.9261 28.1582C90.7927 28.1584 90.6636 28.1103 90.5624 28.0227L89.0722 26.7159C89.0106 26.6614 88.9617 26.594 88.9289 26.5183C88.8961 26.4426 88.8803 26.3605 88.8825 26.278C88.8848 26.1954 88.9051 26.1144 88.942 26.0406C88.9789 25.9669 89.0314 25.9022 89.0959 25.8513C90.0367 25.1102 91.9222 24.1301 93.9539 21.4327C95.2344 19.6736 96.215 17.7117 96.8553 15.6275C96.9462 15.3247 97.0371 15.1414 97.0924 14.9781C97.1217 14.888 97.1734 14.807 97.2426 14.7428C97.3118 14.6786 97.3962 14.6334 97.4877 14.6115C97.6365 14.6025 97.7856 14.6025 97.9344 14.6115L99.5155 14.6553C99.5966 14.6669 99.6741 14.6966 99.7425 14.742C99.8108 14.7875 99.8683 14.8477 99.9108 14.9183C99.9519 14.9856 99.9778 15.0611 99.9867 15.1396C99.9956 15.2181 99.9872 15.2976 99.9622 15.3725C99.9108 15.5359 99.8436 15.7709 99.7645 16.0259C99.389 17.3009 98.0806 20.8071 96.2742 23.1977C94.9119 25.0966 93.2239 26.7346 91.2897 28.0347C91.1865 28.1174 91.0579 28.161 90.9261 28.1582Z" fill="#FAFAFA"/>
    <path d="M103.488 27.9273C103.364 27.9849 103.223 27.9934 103.093 27.9512L101.203 27.3655C101.125 27.3412 101.054 27.2998 100.993 27.2442C100.933 27.1887 100.886 27.1204 100.855 27.0442C100.824 26.968 100.81 26.8859 100.814 26.8037C100.818 26.7214 100.841 26.6412 100.879 26.5687C101.895 24.7179 102.657 22.737 103.144 20.6798C103.668 18.6278 103.92 16.5152 103.895 14.3965C103.895 14.0459 103.895 13.2491 103.895 13.0817C103.906 12.9587 103.958 12.8432 104.044 12.7552C104.13 12.6672 104.244 12.6122 104.366 12.5996H106.37C106.489 12.6138 106.6 12.6678 106.685 12.753C106.771 12.8382 106.825 12.9497 106.84 13.0698C106.84 13.2929 106.84 14.1654 106.84 14.4444C106.786 16.7671 106.496 19.0782 105.975 21.3412C105.022 25.4052 104.204 26.8237 103.765 27.6643C103.706 27.7816 103.608 27.8745 103.488 27.9273Z" fill="#FAFAFA"/>
    <path d="M111.741 27.9273C111.866 27.9849 112.007 27.9934 112.137 27.9512L114.026 27.3655C114.104 27.3414 114.175 27.3003 114.235 27.2452C114.295 27.1901 114.343 27.1224 114.374 27.0468C114.406 26.9705 114.421 26.8878 114.417 26.805C114.413 26.7221 114.39 26.6413 114.35 26.5687C113.336 24.7171 112.575 22.7364 112.085 20.6798C111.564 18.6274 111.311 16.515 111.334 14.3965C111.334 14.0459 111.334 13.2491 111.334 13.0817C111.325 12.9617 111.275 12.8486 111.193 12.761C111.111 12.6733 111.002 12.6164 110.884 12.5996H108.876C108.757 12.6144 108.646 12.6686 108.561 12.7537C108.476 12.8388 108.421 12.95 108.405 13.0698C108.405 13.2929 108.405 14.1654 108.405 14.4444C108.459 16.7671 108.749 19.0782 109.271 21.3412C110.224 25.4052 111.042 26.8237 111.481 27.6643C111.536 27.7789 111.628 27.8715 111.741 27.9273Z" fill="#FAFAFA"/>
    <path d="M124.999 12.7351H119.169C118.863 12.7351 118.616 12.9848 118.616 13.2929V15.0938C118.616 15.4019 118.863 15.6516 119.169 15.6516H124.999C125.305 15.6516 125.553 15.4019 125.553 15.0938V13.2929C125.553 12.9848 125.305 12.7351 124.999 12.7351Z" fill="#FAFAFA"/>
    <path d="M126.916 24.4446H117.311C117.005 24.4446 116.757 24.6943 116.757 25.0024V26.8033C116.757 27.1114 117.005 27.3611 117.311 27.3611H126.916C127.222 27.3611 127.469 27.1114 127.469 26.8033V25.0024C127.469 24.6943 127.222 24.4446 126.916 24.4446Z" fill="#FAFAFA"/>
    <path d="M139.446 17.7952H129.952C129.646 17.7952 129.398 18.0449 129.398 18.353V20.1539C129.398 20.462 129.646 20.7117 129.952 20.7117H139.446C139.752 20.7117 140 20.462 140 20.1539V18.353C140 18.0449 139.752 17.7952 139.446 17.7952Z" fill="#FAFAFA"/>
    <path d="M113.362 9.55123C112.926 9.45091 112.472 9.46367 112.043 9.58832C111.614 9.71297 111.223 9.94542 110.907 10.2639C110.591 10.5824 110.36 10.9765 110.236 11.4094C110.113 11.8422 110.1 12.2996 110.2 12.7387C110.308 13.2255 110.551 13.6713 110.901 14.0241C111.251 14.3768 111.693 14.6219 112.176 14.7309C112.612 14.8312 113.065 14.8184 113.495 14.6938C113.924 14.5691 114.315 14.3367 114.631 14.0182C114.947 13.6997 115.178 13.3055 115.301 12.8727C115.425 12.4399 115.438 11.9825 115.338 11.5434C115.23 11.0566 114.987 10.6108 114.637 10.258C114.287 9.90526 113.845 9.66013 113.362 9.55123ZM112.761 12.9857C112.594 12.9865 112.431 12.9373 112.292 12.8444C112.153 12.7514 112.044 12.6189 111.98 12.4637C111.916 12.3084 111.899 12.1375 111.931 11.9725C111.963 11.8075 112.044 11.6559 112.162 11.537C112.28 11.418 112.43 11.3371 112.594 11.3045C112.757 11.2719 112.927 11.289 113.081 11.3538C113.235 11.4185 113.367 11.5279 113.459 11.6681C113.551 11.8082 113.6 11.9729 113.599 12.141C113.594 12.3616 113.503 12.5714 113.347 12.7255C113.19 12.8796 112.98 12.9659 112.761 12.9658V12.9857Z" fill="#FAFAFA"/>
    <path d="M65.889 15.1731C65.8562 15.1769 65.823 15.1769 65.7902 15.1731L61.6437 14.4479C61.5705 14.4351 61.5006 14.4075 61.4383 14.3668C61.376 14.326 61.3225 14.2729 61.2811 14.2107C61.2397 14.1485 61.2113 14.0785 61.1975 14.0049C61.1837 13.9313 61.1849 13.8557 61.201 13.7825L61.6397 11.8661C61.6667 11.7413 61.735 11.6295 61.8335 11.5491C61.9319 11.4687 62.0546 11.4245 62.1813 11.4238C62.2247 11.4199 62.2683 11.4199 62.3117 11.4238L66.3791 12.4438C66.5163 12.4796 66.6343 12.5679 66.7081 12.6898C66.7819 12.8118 66.8057 12.9579 66.7744 13.0972L66.4187 14.7308C66.3932 14.8567 66.3254 14.9698 66.2267 15.0511C66.1281 15.1324 66.0046 15.1769 65.8771 15.1771L65.889 15.1731Z" fill="#FAFAFA"/>
    <path d="M63.1339 28.5524C63.0386 28.5516 62.9451 28.5259 62.8626 28.4777C62.7802 28.4295 62.7115 28.3605 62.6635 28.2774L61.7228 26.7475C61.6465 26.621 61.6228 26.4693 61.6568 26.3253C61.6908 26.1813 61.7799 26.0567 61.9046 25.9785C65.2526 23.8708 66.0234 22.791 66.3871 20.8507C66.5096 20.1893 66.4978 19.6115 66.1894 19.2928C65.9648 19.0532 65.6939 18.8625 65.3935 18.7323C65.093 18.6022 64.7693 18.5353 64.4423 18.5358C64.1209 18.5429 63.8008 18.5789 63.4857 18.6433C62.2795 18.9377 61.1185 19.3961 60.0349 20.006C59.9544 20.0527 59.8631 20.0775 59.7701 20.0777C59.6748 20.0785 59.581 20.0542 59.4979 20.0074C59.4147 19.9606 59.3451 19.8929 59.2957 19.8107L58.3668 18.2688C58.3269 18.2056 58.3004 18.1347 58.2888 18.0607C58.2773 17.9867 58.2809 17.911 58.2996 17.8385C58.319 17.7655 58.3528 17.6971 58.399 17.6376C58.4452 17.578 58.5028 17.5284 58.5684 17.4919C60.0071 16.6775 61.5721 16.1144 63.1972 15.8264C63.5252 15.7866 64.3514 15.7507 64.6478 15.7587C65.3379 15.7489 66.0222 15.8858 66.6563 16.1604C67.2904 16.435 67.8599 16.8412 68.3279 17.3524C69.0275 18.0616 69.6047 19.7231 69.0947 21.6356C68.2291 24.8748 66.8693 26.2972 63.4304 28.4846C63.3418 28.5416 63.239 28.572 63.1339 28.5723V28.5524Z" fill="#FAFAFA"/>
</svg>
