<?xml version="1.0" encoding="utf-8"?>
<!-- Generator: Adobe Illustrator 22.1.0, SVG Export Plug-In . SVG Version: 6.00 Build 0)  -->
<svg version="1.1" id="レイヤー_1" xmlns="http://www.w3.org/2000/svg" xmlns:xlink="http://www.w3.org/1999/xlink" x="0px"
	 y="0px" viewBox="0 0 354.1 85.7" style="enable-background:new 0 0 354.1 85.7;" xml:space="preserve">
<style type="text/css">
	.st0{fill:#282E33;}
	.st1{fill:#FFFFFF;}
	.st2{fill:#FFF474;}
	.st3{fill:#272D33;}
</style>
<title>アセット 3</title>
<g id="レイヤー_2_1_">
	<g id="レイヤー_3">
		<path class="st0" d="M90.1,76.5c-0.4,0-0.8-0.2-1-0.5L71.7,57.6c-1.3-1.6-1.3-3.9,0.1-5.4l17.2-18c0.3-0.3,0.6-0.5,1-0.5
			c0.4,0,0.7,0.2,1,0.4l3.5,3.8c0.6,0.6,0.5,1.6-0.1,2.2c0,0-13.1,13.2-13.4,13.5c-0.5,0.5-0.9,1.1-0.9,1.8c0,0.6,0.2,1.1,0.6,1.5
			c0.4,0.4,8.4,8.1,12.9,12.8l0.9,1c0.3,0.3,0.5,0.7,0.5,1c0,0.4-0.2,0.8-0.5,1.1l-3.4,3.3C90.8,76.4,90.5,76.6,90.1,76.5L90.1,76.5
			z"/>
		<path class="st0" d="M123.4,77.1c-1.6,0-3.2-0.3-4.7-0.9c-0.6-0.2-1-0.7-1-1.3v-4.5c0-0.8,0.6-1.4,1.4-1.4c0.1,0,0.3,0,0.4,0.1
			c1.4,0.4,2.5,0.7,3.1,0.9c0.2,0.1,0.4,0.1,0.7,0.1c0.4,0,0.7-0.1,1-0.4c0.4-0.5,0.5-1.1,0.4-1.7c-0.2-0.8-0.7-1.6-1.3-2.2
			c-0.2-0.3-6.7-7.7-6.7-7.8s-0.3-0.5-0.4-0.7c-1.8-3.2,0.2-7.4,1.2-10c0.2-0.5,0.7-0.9,1.3-0.9c0.2,0,0.4,0.1,0.6,0.2l4,2.1
			c0.6,0.3,0.9,1.1,0.7,1.8c-0.3,0.8-1.1,3-1.2,3.5c-0.1,0.6-0.1,1.2,0.1,1.8c0.1,0.3,5,6.2,5.1,6.4c2.1,2.4,4.4,7.3,2.9,10.1
			C129.1,75.5,126.8,77.1,123.4,77.1z"/>
		<path class="st0" d="M128.4,43c-0.1,0-0.2,0-0.2,0l-10.5-1.8c-0.8-0.1-1.3-0.9-1.1-1.6c0,0,0,0,0,0l0.9-4.3
			c0.1-0.7,0.7-1.2,1.4-1.2c0.1,0,0.2,0,0.3,0l10.3,2.5c0.7,0.2,1.2,0.9,1.1,1.6l-0.7,3.6C129.6,42.5,129.1,43,128.4,43z"/>
		<path class="st0" d="M113.7,62.3c0,0.1,0,0.2,0,0.2c-0.1,1.5-0.4,3.1-0.7,4.6c-0.4,2-1,3.9-1.6,5.8c-0.1,0.4-0.3,0.7-0.6,0.9
			c-0.3,0.2-0.7,0.3-1.1,0.2l-4.2-1.1c-0.6-0.2-1-0.8-1-1.4c0-0.1,0-0.2,0-0.3c0.8-1.9,1.5-3.8,2-5.8c0.4-1.4,0.8-2.9,1-4.4
			c0.2-0.7,0.9-1.2,1.7-1l3.5,0.9C113.3,61,113.7,61.6,113.7,62.3L113.7,62.3z"/>
		<path class="st0" d="M134.1,61.6c0,0.1,0,0.2,0,0.2s0.8,2.2,1.4,4.5c0.4,1.9,0.7,3.9,0.9,5.9c0.2,0.7,1,1.2,1.7,1c0,0,0,0,0,0
			l4.3-1.1c0.6-0.2,1-0.8,1-1.4c0-0.1,0-0.2-0.1-0.3c-0.3-2-0.7-3.9-1.3-5.8c-0.4-1.5-1-3-1.8-4.4c-0.2-0.7-0.9-1.2-1.7-1l-3.5,0.9
			C134.5,60.3,134,60.9,134.1,61.6L134.1,61.6z"/>
		<path class="st0" d="M188.9,76.1c-0.4,0-0.8-0.2-1.1-0.5l-3-3.4c-0.5-0.6-0.5-1.4,0.1-1.9c3.7-3.5,5.4-6.6,7.3-10.9
			c1.1-2.5,1-5.8,1-8.3c0-0.6,0-1.2,0-1.7c0-0.3-0.2-0.6-0.5-0.6c0,0,0,0,0,0h-6.8c-0.8,0-1.4-0.6-1.4-1.4v-3.9
			c0-0.8,0.6-1.4,1.4-1.4h6.9c0.3,0,0.5-0.2,0.6-0.5c0-1.2,0-3.2,0-3.2v-3.2c-0.1-0.6,0.3-1.1,0.9-1.2c0.1,0,0.1,0,0.2,0h5.2
			c0.7,0,1,0.5,1,1.2c0,0,0,6.3,0,6.3c0,0.2,0.1,0.3,0.2,0.4c0.1,0.1,0.2,0.2,0.4,0.2h9.6c1.1-0.1,2.2,0.4,2.9,1.3
			c0.5,1,0.7,2.2,0.6,3.3c0,0,0.6,17.9-2,24.3c-0.1,0.2-0.2,0.4-0.4,0.6c-0.4,0.6-2.7,3.7-6.1,4.2h-0.3c-1.2,0.2-2.4,0.3-3.6,0.3
			c-0.7,0-1.3-0.5-1.4-1.3l-0.4-4.5c-0.1-0.8,0.5-1.4,1.2-1.5c0,0,0.1,0,0.1,0h0.8c0.9,0,1.8,0,2.8-0.1h0.1c1.4,0,2-1.9,2.1-2
			c1-2.7,1-10.5,1-12.7c0-3.4,0.4-5.2-2-5.2l-4.8,0.1c-0.3,0-0.5,0.2-0.6,0.5c-0.1,2.5-0.3,9-1.8,12.8c-1.9,5.2-5,9.9-9.1,13.7
			C189.6,76,189.3,76.2,188.9,76.1z"/>
		<path class="st0" d="M234.5,43h-0.2l-10.5-1.9c-0.4-0.1-0.7-0.3-0.9-0.6c-0.2-0.3-0.3-0.7-0.2-1.1l0.9-4.3
			c0.1-0.7,0.7-1.2,1.4-1.1c0.1,0,0.2,0,0.3,0l10.3,2.5c0.7,0.2,1.2,0.9,1,1.6l-0.7,3.6C235.8,42.5,235.2,43,234.5,43z"/>
		<path class="st0" d="M229.9,76c-0.3,0-0.7-0.1-0.9-0.3l-3.8-3.3c-0.3-0.3-0.5-0.7-0.5-1.1c0-0.4,0.2-0.8,0.5-1.1
			c2.4-1.9,7.1-4.3,12.3-11.1c3.2-4.4,5.7-9.3,7.3-14.6c0.2-0.8,0.5-1.2,0.6-1.6c0.2-0.5,0.5-0.8,1-0.9c0.2,0,1.1,0,1.1,0l4,0.1
			c0.4,0.1,0.8,0.3,1,0.7c0.2,0.3,0.3,0.8,0.1,1.1c-0.1,0.4-0.3,1-0.5,1.6c-1,3.2-4.3,12-8.8,18c-3.5,4.8-7.7,8.9-12.6,12.2
			C230.5,75.9,230.2,76,229.9,76z"/>
		<path class="st0" d="M261.7,75.5c-0.3,0.1-0.7,0.2-1,0.1L256,74c-0.4-0.1-0.7-0.4-0.9-0.8c-0.2-0.4-0.1-0.8,0.1-1.2
			c2.6-4.6,4.5-9.6,5.7-14.8c1.3-5.2,2-10.5,1.9-15.8c0-0.9,0-2.9,0-3.3c0.1-0.6,0.5-1.1,1.1-1.2h5.1c0.6,0.1,1.1,0.6,1.2,1.2
			c0,0.6,0,2.8,0,3.5c-0.1,5.8-0.9,11.7-2.2,17.4c-2.4,10.2-4.5,13.8-5.6,15.9C262.3,75.1,262,75.3,261.7,75.5z"/>
		<path class="st0" d="M282.6,75.5c0.3,0.1,0.7,0.2,1,0.1l4.8-1.5c0.7-0.2,1.2-1,0.9-1.8c0-0.1-0.1-0.2-0.1-0.2
			c-2.6-4.6-4.5-9.6-5.7-14.8c-1.3-5.2-2-10.5-1.9-15.8c0-0.9,0-2.9,0-3.3c-0.1-0.6-0.5-1.1-1.1-1.2h-5.1c-0.6,0.1-1.1,0.6-1.2,1.2
			c0,0.6,0,2.8,0,3.5c0.1,5.8,0.9,11.7,2.2,17.4c2.4,10.2,4.5,13.8,5.6,15.9C282.1,75.1,282.3,75.3,282.6,75.5z"/>
		<path class="st0" d="M301.4,37.3h14.8c0.8,0,1.4,0.6,1.4,1.4v4.5c0,0.8-0.6,1.4-1.4,1.4h-14.8c-0.8,0-1.4-0.6-1.4-1.4v-4.5
			C300,38,300.6,37.3,301.4,37.3z"/>
		<path class="st0" d="M296.7,66.7H321c0.8,0,1.4,0.6,1.4,1.4v4.5c0,0.8-0.6,1.4-1.4,1.4h-24.3c-0.8,0-1.4-0.6-1.4-1.4v-4.5
			C295.3,67.3,295.9,66.7,296.7,66.7z"/>
		<path class="st0" d="M328.7,50h24c0.8,0,1.4,0.6,1.4,1.4v4.5c0,0.8-0.6,1.4-1.4,1.4h-24c-0.8,0-1.4-0.6-1.4-1.4v-4.5
			C327.3,50.7,327.9,50,328.7,50z"/>
		<path class="st0" d="M286.7,29.3c-3.6-0.8-7.2,1.4-8,5c-0.2,1-0.2,2,0,3c0.6,2.5,2.5,4.4,5,5c3.6,0.8,7.2-1.4,8-5
			S290.3,30.1,286.7,29.3z M285.2,37.9c-1.2,0-2.1-0.9-2.1-2.1c0-1.2,0.9-2.1,2.1-2.1s2.1,0.9,2.1,2.1c0,0,0,0,0,0
			C287.3,37,286.4,37.9,285.2,37.9z"/>
		<path class="st0" d="M166.8,43c-0.1,0-0.2,0-0.2,0l-10.5-1.8c-0.8-0.1-1.3-0.9-1.1-1.6c0,0,0,0,0,0l0.9-4.3
			c0.1-0.7,0.7-1.2,1.4-1.2c0.1,0,0.2,0,0.3,0l10.3,2.5c0.7,0.2,1.2,0.9,1.1,1.6l-0.7,3.6C168.1,42.5,167.5,43,166.8,43z"/>
		<path class="st0" d="M159.6,77c-0.5,0-0.9-0.2-1.2-0.7l-2.4-3.8c-0.4-0.7-0.2-1.5,0.5-1.9c8.5-5.3,10.5-7.9,11.3-12.8
			c0.3-1.7,0.3-3.1-0.5-3.9c-1.1-1.2-2.7-1.9-4.4-1.9c-0.8,0-1.6,0.1-2.4,0.3c-3.1,0.7-6,1.9-8.7,3.4c-0.2,0.1-0.4,0.2-0.7,0.2
			c-0.5,0-0.9-0.3-1.2-0.7l-2.4-3.9c-0.4-0.6-0.3-1.5,0.4-1.9c0,0,0.1-0.1,0.1-0.1c3.6-2,7.6-3.5,11.7-4.2c0.8-0.1,2.9-0.2,3.7-0.2
			c3.5,0,6.9,1.4,9.3,4c1.8,1.8,3.2,5.9,1.9,10.7c-2.2,8.1-5.6,11.7-14.3,17.2C160.2,77,160,77,159.6,77L159.6,77z"/>
		<g>
			<polygon class="st1" points="10.8,23.7 22.8,18.6 34.4,18.6 46.1,24.4 53,38.8 49.6,52.7 39.1,59.3 29,68.2 21.3,82.2 10.8,80.2 
				5.5,75.8 8.5,57.4 3.4,35.3 			"/>
			<g>
				<path class="st2" d="M48.6,45.1c0,0,2.8-4.7,0.1-10.3c-2.8-5.5-12.2-13.1-20.4-12.5s-18,6.2-19.9,15.5
					c-2.8,13.1,2.3,23.6,5.1,25.6c3.3,2.4,11.1,1.6,15.6,1.3c5.4-0.4,11.3-5.2,14.9-8.3C47.6,53.2,48.6,45.1,48.6,45.1z"/>
				<ellipse transform="matrix(0.9593 -0.2825 0.2825 0.9593 -7.3002 8.0309)" class="st1" cx="24.2" cy="29.3" rx="5.6" ry="3.4"/>
				<g>
					<path class="st3" d="M45.7,20.7c-7.2-6.6-20.7-8.8-31.2-3.1C6,22.3,1,29.9,0.6,37.5c-0.3,7.1,1.7,10.1,3.1,12.4
						c1.2,2,2.2,4.8,2.5,7.3c0.3,2.2,0.2,3,0,3.9c-0.2,1.3,0.4,2.5,1.3,2.7c1.1,0.3,2.3-0.3,2.8-2.5c0.4-1.9,0.7-3.3,0.4-5.8
						c-0.3-3.2-1.2-4.7-2.6-7.7c-1.3-3-2.5-5.9-2.3-9.3c0.3-3.7,2.2-8.2,5.4-11.5c3.3-3.4,7.3-5,12.1-6.4c4.4-1.2,12.4-0.5,17.8,4.1
						c3.6,3.1,7.2,8.3,8.1,13.3c0.9,4.8-0.3,9.8-5.2,14.8s-9.4,5.4-12.8,8.8c-0.8,0.8-1.6,1.7-2.4,2.6c-1.3,0-3,0-5-0.2
						c-3.9-0.3-8.4-1.1-8.4-1.1c-1-0.3-2.4-0.7-2.9,0.5c-0.5,1.2,0.5,2.2,2.4,3.1c1.9,0.9,5.4,1.8,8.3,2.2c0.8,0.1,1.5,0.2,2.2,0.3
						c-0.7,1.1-1.3,2.2-1.8,3.1c-1.4-0.3-3.4-0.3-5.1-0.4c-1.9-0.2-3.1-0.4-4.5-0.5c-0.8-0.1-2-0.2-2.3,0.8
						c-0.4,1.2,0.7,1.9,2.4,2.6c1.5,0.6,5.2,1.7,7.5,2.1c-1,1.9-2,3.4-2.8,3.4c-1.1,0-3.5-0.2-6.2-1.4c-2.6-1.1-4.6-2.3-4.9-2.8
						c-0.5-0.7-0.4-1.5-0.3-2.1c0.3-1.7,0.5-4.7-0.9-4.9c-1.9-0.4-2.4,0.8-3.6,3.6c-1,2.4-0.3,4.7,0.5,6.1c1.2,2.1,5.5,3.9,7.7,4.7
						c2.5,0.9,3.9,1.5,7,1.8c2.6,0.3,4.7-0.6,6.5-3.4c1.5-2.4,6.3-13,11-16.5c4.9-3.6,9.3-5.1,12.3-8.1c3.1-3,7.9-10.5,7-18.2
						C54,30.5,50.1,24.7,45.7,20.7z"/>
					<path class="st3" d="M60.4,18.6c-0.8-0.2-2.6-0.1-4,0.7c-1.2,0.7-2.6,1.1-3.4,2.4c-0.9,1.4-0.1,2.8,2.5,2.8
						c1.1,0,3.5-0.8,4.6-1.2c1.1-0.4,1.6-0.8,2.1-1.8C62.6,20.7,62.2,19,60.4,18.6z"/>
					<path class="st3" d="M38.1,10.7c0.6,0.2,1.5-0.1,2.3-0.9c0.9-0.9,4-5.1,3.7-7.2C43.9,1,42-0.2,40.3,0.8c-1.8,1-3,6-3.2,7.7
						C37,10.1,37.4,10.4,38.1,10.7z"/>
					<path class="st3" d="M17.4,10c1.1,0.9,1.7,1.1,2.5,0.8c0.7-0.3,1-1.6,1-2.3c0-1.1-1.5-5.5-2.3-6.6c-0.6-0.8-1.9-1.3-3.3-0.8
						c-1.2,0.5-1.4,1.5-1.4,2.6C13.7,5.2,15.7,8.6,17.4,10z"/>
				</g>
			</g>
		</g>
	</g>
</g>
</svg>
