<svg xmlns="http://www.w3.org/2000/svg" viewBox="0 0 332.44 87.48"><defs><style>.cls-1{fill:#fff;}.cls-2{fill:#fff574;}.cls-3{fill:#282e33;}</style></defs><title>logo-hoken</title><g id="レイヤー_2" data-name="レイヤー 2"><g id="color"><polygon class="cls-1" points="10.54 24.03 22.96 18.82 34.98 18.82 46.99 24.83 54.2 39.65 50.6 54.07 39.78 60.88 29.37 70.1 21.36 84.52 10.54 82.51 5.04 77.91 8.14 58.88 2.93 36.05 10.54 24.03"/><path class="cls-2" d="M49.61,46.17a11.6,11.6,0,0,0,.08-10.6C46.85,29.86,37,22,28.6,22.61S10,29.05,8,38.59C5.16,52.16,10.4,62.94,13.32,65c3.42,2.45,11.52,1.62,16.08,1.32C34.94,66,41.11,61,44.82,57.8S49.61,46.17,49.61,46.17Z"/><ellipse class="cls-1" cx="24.39" cy="29.89" rx="5.84" ry="3.5" transform="translate(-7.45 8.11) rotate(-16.41)"/><path class="cls-3" d="M46.65,20.92c-7.48-6.86-21.38-9.14-32.24-3.19C5.58,22.58.43,30.47,0,38.35c-.36,7.3,1.71,10.4,3.18,12.79A20.19,20.19,0,0,1,5.8,58.69a11.24,11.24,0,0,1,0,4,2.37,2.37,0,0,0,1.36,2.81c1.1.29,2.39-.35,2.87-2.58a16.5,16.5,0,0,0,.42-6c-.34-3.29-1.28-4.9-2.65-8s-2.59-6.07-2.34-9.63a20.07,20.07,0,0,1,5.63-11.93c3.39-3.49,7.51-5.22,12.47-6.58A21.92,21.92,0,0,1,42,25.06c3.74,3.19,7.49,8.6,8.42,13.78.88,4.95-.35,10.15-5.36,15.27s-9.76,5.61-13.23,9.07c-.83.83-1.67,1.76-2.48,2.74-1.37,0-3.13,0-5.17-.2-4-.33-8.72-1.19-8.72-1.19-1-.32-2.52-.72-3,.47s.5,2.3,2.48,3.23a35.57,35.57,0,0,0,8.6,2.27c.78.11,1.53.2,2.25.26A33.5,33.5,0,0,0,23.9,74c-1.43-.28-3.55-.28-5.24-.44-1.94-.19-3.24-.4-4.67-.56-.8-.09-2.06-.25-2.41.83-.41,1.24.77,2,2.45,2.69a42.79,42.79,0,0,0,7.75,2.15c-1,2-2,3.53-2.93,3.56a16.57,16.57,0,0,1-6.38-1.46A18.75,18.75,0,0,1,7.36,78a2.62,2.62,0,0,1-.31-2.17C7.31,74,7.54,71,6.12,70.7c-1.94-.36-2.53.84-3.7,3.75a7.21,7.21,0,0,0,.52,6.28c1.24,2.13,5.66,4,8,4.83a25.25,25.25,0,0,0,7.18,1.87c2.71.27,4.86-.58,6.75-3.57,1.6-2.51,6.48-13.45,11.37-17.06,5-3.71,9.57-5.22,12.74-8.33s8.13-10.86,7.2-18.84A29.43,29.43,0,0,0,46.65,20.92Z"/><path class="cls-3" d="M61.84,18.77a6.57,6.57,0,0,0-4.17.68c-1.26.7-2.69,1.16-3.51,2.52s-.13,2.9,2.55,2.94a20.2,20.2,0,0,0,4.73-1.21,3.27,3.27,0,0,0,2.22-1.86A2.35,2.35,0,0,0,61.84,18.77Z"/><path class="cls-3" d="M38.78,10.61a2.38,2.38,0,0,0,2.37-.92c.9-1,4.1-5.32,3.8-7.47A2.63,2.63,0,0,0,41,.36c-1.84,1-3.14,6.19-3.29,8S38.05,10.36,38.78,10.61Z"/><path class="cls-3" d="M17.32,9.92c1.09.92,1.71,1.12,2.54.79s1-1.67,1-2.34a23.78,23.78,0,0,0-2.41-6.81A3,3,0,0,0,15,.77a2.6,2.6,0,0,0-1.46,2.64C13.53,5,15.57,8.46,17.32,9.92Z"/><path class="cls-3" d="M247.26,76.8a1.38,1.38,0,0,1-1-.48L228.83,57.83a4.08,4.08,0,0,1,.1-5.37l17.16-18a1.36,1.36,0,0,1,1-.44,1.34,1.34,0,0,1,1,.43l3.57,3.73a1.55,1.55,0,0,1-.06,2.16s-13.11,13.24-13.41,13.52a2.67,2.67,0,0,0-.93,1.82,2,2,0,0,0,.6,1.47c.38.41,8.4,8.13,12.92,12.8l.94,1a1.57,1.57,0,0,1,.42,1.08,1.53,1.53,0,0,1-.46,1.08l-3.46,3.32a1.33,1.33,0,0,1-.94.39Z"/><path class="cls-3" d="M280.54,77.34a13.8,13.8,0,0,1-4.69-.86,1.4,1.4,0,0,1-1-1.34V70.68a1.41,1.41,0,0,1,1.41-1.4,1.83,1.83,0,0,1,.4,0c1.41.42,2.53.74,3.14.87a2.68,2.68,0,0,0,.66.09,1.39,1.39,0,0,0,1-.41,2.27,2.27,0,0,0,.38-1.75,5,5,0,0,0-1.27-2.24c-.24-.3-6.66-7.7-6.75-7.84s-.3-.48-.43-.71c-1.77-3.17.16-7.44,1.2-10a1.4,1.4,0,0,1,1.3-.87,1.32,1.32,0,0,1,.64.16l4.06,2.06a1.42,1.42,0,0,1,.67,1.77A36.34,36.34,0,0,0,280.16,54a3.4,3.4,0,0,0,.07,1.75c.06.25,5,6.23,5.13,6.37,2.07,2.44,4.43,7.36,2.91,10.14C286.33,75.76,284,77.34,280.54,77.34Z"/><path class="cls-3" d="M285.54,43.19l-.25,0-10.51-1.83a1.38,1.38,0,0,1-.91-.59,1.42,1.42,0,0,1-.21-1.08l.92-4.31A1.42,1.42,0,0,1,276,34.25a1.86,1.86,0,0,1,.33,0l10.31,2.56a1.4,1.4,0,0,1,1.05,1.64l-.73,3.58a1.4,1.4,0,0,1-1.37,1.12Z"/><path class="cls-3" d="M270.82,62.52a1.13,1.13,0,0,1,0,.25,38.39,38.39,0,0,1-.67,4.58,51.48,51.48,0,0,1-1.63,5.83,1.4,1.4,0,0,1-.64.88,1.37,1.37,0,0,1-1.08.16l-4.27-1.11a1.42,1.42,0,0,1-1-1.42,1.26,1.26,0,0,1,.05-.33,51.07,51.07,0,0,0,2-5.8,34.16,34.16,0,0,0,1-4.38,1.39,1.39,0,0,1,1.69-1l3.53.89a1.4,1.4,0,0,1,1.06,1.42Z"/><path class="cls-3" d="M291.32,61.85a1.07,1.07,0,0,0,0,.25s.82,2.23,1.43,4.53a40.46,40.46,0,0,1,.87,5.88,1.45,1.45,0,0,0,.64.89,1.43,1.43,0,0,0,1.09.15l4.26-1.11A1.42,1.42,0,0,0,300.69,71a1.91,1.91,0,0,0-.06-.33,49,49,0,0,0-1.27-5.81,23.37,23.37,0,0,0-1.75-4.36,1.39,1.39,0,0,0-1.69-1l-3.54.89a1.4,1.4,0,0,0-1.06,1.42Z"/><path class="cls-3" d="M324,43.19l-.25,0-10.5-1.83a1.4,1.4,0,0,1-.92-.59,1.41,1.41,0,0,1-.2-1.08l.92-4.31a1.4,1.4,0,0,1,1.37-1.11,1.86,1.86,0,0,1,.33,0l10.3,2.56a1.4,1.4,0,0,1,1.05,1.64l-.72,3.58A1.41,1.41,0,0,1,324,43.19Z"/><path class="cls-3" d="M316.85,77.3a1.42,1.42,0,0,1-1.2-.66l-2.37-3.84a1.42,1.42,0,0,1,.45-1.94c8.48-5.29,10.44-8,11.36-12.88.31-1.66.28-3.12-.51-3.92a6,6,0,0,0-4.41-1.93,13.67,13.67,0,0,0-2.43.27A34.88,34.88,0,0,0,309,55.83a1.41,1.41,0,0,1-1.87-.5l-2.36-3.86a1.39,1.39,0,0,1-.16-1.09,1.41,1.41,0,0,1,.68-.87A37.05,37.05,0,0,1,317,45.33c.83-.11,2.92-.19,3.67-.18a12.45,12.45,0,0,1,9.32,4c1.78,1.77,3.24,6,1.94,10.76-2.19,8.13-5.63,11.7-14.34,17.2a1.4,1.4,0,0,1-.75.22Z"/><path class="cls-3" d="M84.86,44.54c.6-1.85,2-6,2-7.77s-2-2.46-3.06-2.46a2.28,2.28,0,0,0-2.36,1.76,50.11,50.11,0,0,1-5,13.2c-2.13,3.75-2.36,4.16-2.36,5,0,1.29,1.57,2.5,2.87,2.5a2.65,2.65,0,0,0,2.31-1.44L79.56,73c0,2.36,0,3.7,2.59,3.7,2.92,0,2.92-1.81,2.92-3.7Zm24.37-3.68c.88,0,.88.51.88.84v3.93c0,.33,0,.84-.88.84H95.53c-.88,0-.88-.51-.88-.84V41.7c0-.33,0-.84.88-.84ZM99.51,55.31H90c-2.18,0-3.71,0-3.71,2.73,0,2.45,1.81,2.45,3.71,2.45h5.46a29.51,29.51,0,0,1-7.13,7.59c-1.11.84-2.17,1.72-2.17,2.92a2.78,2.78,0,0,0,2.63,2.78c2.5,0,8.06-5.51,10.74-10.05v9.45c0,2.45,0,3.7,3.06,3.7,2.59,0,2.59-1.62,2.59-3.7V64c2.22,3.66,7.73,9.44,10,9.44a3,3,0,0,0,2.92-2.87,3.14,3.14,0,0,0-1.35-2.27c-4.67-3.51-6.06-5.69-7.36-7.82h5c2.22,0,3.7,0,3.7-2.73,0-2.45-1.76-2.45-3.7-2.45h-9.26V51.6h6.53c1.11,0,4,0,4-3.93v-8.1c0-3.94-2.87-3.94-4-3.94H93.22c-1.16,0-4,0-4,3.94v8.1c0,3.93,2.87,3.93,4,3.93h6.29Z"/><path class="cls-3" d="M134.9,40c0-.51.14-.65.69-.65h1.62c.51,0,.74,0,.74.61,0,.74-.23,2.77-1.62,6.94a5.94,5.94,0,0,0-.46,2.23,6.07,6.07,0,0,0,.46,2c1.62,4.58,1.86,7.08,1.86,8.1,0,1.72-.28,2.32-1.44,2.32a16.59,16.59,0,0,1-1.85-.19Zm0,26.54a7,7,0,0,0,2.5.42c4.07,0,6-2.73,6-6.76a26.25,26.25,0,0,0-2.64-11.07c.37-1.21,2.55-8.43,2.55-11.35a3.57,3.57,0,0,0-3.52-3.52h-6.34a3.63,3.63,0,0,0-3.71,3.7V73.34c0,2.23,0,3.71,2.73,3.71,2.46,0,2.46-1.76,2.46-3.71ZM151.43,45a47,47,0,0,0,4.5-3.56,5.51,5.51,0,0,1,1.39-1.07c.27,0,.74.46,1.06.74A32.52,32.52,0,0,0,163.24,45ZM160,57.13h3.43c.37,0,1.06,0,1.06.7V60c0,.69-.64.69-1.06.69H160Zm-5.32,3.52h-3.52c-.38,0-1.07,0-1.07-.69V57.83c0-.7.69-.7,1.07-.7h3.52Zm-.79,4.87c-1.39,2.27-4.82,4.49-7.13,5.46-2.55,1.07-3.34,1.39-3.34,3.2a2.61,2.61,0,0,0,2.83,2.73c1.94,0,7.92-3,11.34-7.6,3.62,4.13,8.39,7.55,10.38,7.55a2.74,2.74,0,0,0,2.59-2.73c0-.88-.28-1.53-2-2.59a34.29,34.29,0,0,1-7.31-6h4.35c2.87,0,4-1.9,4-3.25V55.56c0-1.35-1.16-3.24-4-3.24H160V50h3.2c2,0,3.93,0,3.7-2.92a3.14,3.14,0,0,0,1.11.23,2.72,2.72,0,0,0,2.74-2.91c0-1.21-.51-1.67-2-2.6a40.87,40.87,0,0,1-6.07-4.31c-2.92-2.54-3.75-3.19-5.56-3.19a4,4,0,0,0-2.87,1.25,67.44,67.44,0,0,1-7.78,6.07c-3.2,1.94-3.57,2.13-3.57,3.38,0,.65.6,3,2.59,3a5.68,5.68,0,0,0,2.37-.83c-.14,2.78,1.57,2.78,3.7,2.78h3.11v2.32h-5.61c-2.87,0-4,1.89-4,3.24v6.71c0,1.35,1.11,3.25,4,3.25Z"/><path class="cls-3" d="M201.21,76.23a1.28,1.28,0,0,0,1.42.79c10-2.56,14.76-10.56,14.76-21.31,0-12-6.59-21.25-17-21.25-10.91,0-19.27,10.66-19.27,23.17,0,9,3.87,16.08,8.9,16.08,4.81,0,8.48-7.08,10.91-17.62.94-4.11,1.61-8.06,2.12-11.76a1.84,1.84,0,0,1,.69-1.25A1.1,1.1,0,0,1,205,43c3.66,2,5.63,6.46,5.63,12.45,0,6.92-3.46,11.61-8.65,13.26-.62.2-1.24.39-1.95.56a1.5,1.5,0,0,0-1,1,2.27,2.27,0,0,0,.1,1.66C199.81,73.39,200.68,75.15,201.21,76.23Zm-6.67-21.79c-1.44,6.12-2.67,9.32-4.32,9.32-1.4,0-2.63-2.4-2.63-7,0-4.35,2.22-10.21,6.7-13.11a1.1,1.1,0,0,1,1.42.16,2.07,2.07,0,0,1,.52,1.73A84,84,0,0,1,194.54,54.44Z"/></g></g></svg>