<svg width="113" height="32" viewBox="0 0 113 32" fill="none" xmlns="http://www.w3.org/2000/svg">
    <path d="M44.8464 5.13712H38.0979V0.802676C38.0979 0.374582 37.7484 0 37.2913 0H34.1187C33.6885 0 33.3121 0.347826 33.3121 0.802676V5.13712H26.5637C26.1335 5.13712 25.7571 5.48495 25.7571 5.9398V16.214C25.7571 16.6421 26.1066 17.0167 26.5637 17.0167H29.7363C30.1664 17.0167 30.5428 16.6689 30.5428 16.214V9.89966H40.8672V14.8763C40.8672 19.0234 38.9852 22.9565 35.705 25.5251L32.4518 28.1204C32.1023 28.388 32.0485 28.8963 32.3173 29.2174L34.3069 31.6789C34.5758 32.0268 35.0866 32.0803 35.4093 31.8127L38.6625 29.2174C43.0719 25.7124 45.5992 20.4682 45.5992 14.8495V5.91304C45.653 5.5117 45.3034 5.13712 44.8464 5.13712ZM78.1854 14.6355H96.4412C96.8714 14.6355 97.2478 14.2876 97.2478 13.8328V10.6756C97.2478 10.2475 96.8983 9.87291 96.4412 9.87291H78.1854C77.7552 9.87291 77.3788 10.2207 77.3788 10.6756V13.8328C77.4057 14.2609 77.7552 14.6355 78.1854 14.6355ZM19.0624 7.51839H16.2931V0.802676C16.2931 0.374582 15.9436 0 15.4865 0H12.3139C11.8837 0 11.5073 0.347826 11.5073 0.802676V7.51839H0.806589C0.376408 7.51839 0 7.86622 0 8.32107V11.4783C0 11.9064 0.349522 12.2809 0.806589 12.2809H9.0338L5.05463 22.3144C4.46313 23.8127 3.57588 25.1773 2.41977 26.3278C1.93581 26.8094 1.31743 27.1304 0.672158 27.2642C0.295749 27.3445 0.0537728 27.6656 0.0537728 28.0401V31.1706C0.0537728 31.6254 0.457068 32 0.914135 31.9465C2.76929 31.7592 4.46313 30.9565 5.80744 29.6187C7.42062 28.0134 8.65739 26.1137 9.51775 24L11.588 18.8361V31.1973C11.588 31.6254 11.9375 32 12.3946 32H15.5672C15.9974 32 16.3738 31.6522 16.3738 31.1973V12.2542H19.1431C19.5732 12.2542 19.9496 11.9064 19.9496 11.4515V8.29431C19.8421 7.86622 19.4926 7.51839 19.0624 7.51839ZM71.4369 16.214V13.0569C71.4369 12.6288 71.0874 12.2542 70.6303 12.2542H63.8819V6.74247C64.8229 6.31438 65.7639 5.83277 66.6512 5.2709C67.5115 4.70903 67.9955 4.3612 68.7752 3.69231C69.1247 3.39799 69.1516 2.86288 68.8289 2.54181C68.2643 1.95318 67.3502 0.989967 66.6243 0.240803C66.3285 -0.0535113 65.8715 -0.0802684 65.5488 0.18729C62.188 3.02341 58.0475 3.90635 53.8802 3.66555C53.45 3.63879 53.0736 3.93311 53.0198 4.3612C52.8854 5.40468 52.7509 6.44816 52.6165 7.49164C52.5627 7.94649 52.8854 8.34783 53.3424 8.37458C55.2783 8.56187 57.241 8.50836 59.1499 8.16053V12.2542H52.4014C51.9712 12.2542 51.5948 12.602 51.5948 13.0569V16.214C51.5948 16.6421 51.9444 17.0167 52.4014 17.0167H59.1499C59.1499 18.7826 59.1499 20.5217 59.1499 22.2876C59.123 24.9097 57.2141 26.9431 54.6868 27.2642C54.2835 27.3177 53.9877 27.6388 53.9877 28.0401V31.1706C53.9877 31.6254 54.391 32 54.8481 31.9732C57.8056 31.7324 60.548 30.2341 62.2418 27.7458C63.1828 26.3813 63.7474 24.7759 63.8819 23.1171C63.9088 22.6354 63.9088 22.1271 63.9088 21.6455V16.99H70.6572C71.0874 16.99 71.4369 16.6421 71.4369 16.214ZM112.385 0.642141L109.266 0.0267554C108.836 -0.0535121 108.406 0.214047 108.325 0.642141L104.184 21.4314C103.566 24.5619 100.931 26.9164 97.7855 27.2375C97.7317 27.2375 97.678 27.2375 97.5973 27.2642C97.5704 27.2642 97.5435 27.2642 97.5167 27.2642H97.4898C97.4629 27.2642 97.436 27.2642 97.436 27.2642H97.4091C97.3822 27.2642 97.3553 27.2642 97.3553 27.2642H97.3284C97.3016 27.2642 97.2747 27.2642 97.2747 27.2642H97.2478C97.2209 27.2642 97.194 27.2642 97.194 27.2642H97.1671C97.1403 27.2642 97.1134 27.2642 97.0865 27.2642H94.1559C95.0969 28.602 95.6615 30.2341 95.6615 32H97.0596C97.1134 32 97.1402 32 97.194 32H97.2209C97.2478 32 97.2747 32 97.3016 32C97.3285 32 97.3284 32 97.3553 32C97.3822 32 97.4091 32 97.436 32C97.4629 32 97.4629 32 97.4898 32C97.5167 32 97.5435 32 97.5435 32C97.5704 32 97.5973 32 97.5973 32C97.6242 32 97.6511 32 97.6511 32C97.7049 32 97.7317 32 97.7855 32H97.8124C97.8393 32 97.8662 32 97.8931 32C97.9199 32 97.92 32 97.9468 32C97.9737 32 98.0006 32 98.0275 32H98.0544C98.0813 32 98.1081 32 98.135 32H98.1619C98.1888 32 98.2157 32 98.2695 32C98.4039 31.9732 98.5383 31.9732 98.6728 31.9465C98.7265 31.9465 98.7534 31.9465 98.8072 31.9197C103.754 31.1706 107.841 27.398 108.836 22.3946L112.976 1.60535C113.084 1.1505 112.815 0.722408 112.385 0.642141ZM97.3822 26.4615C95.4195 22.9298 91.6286 20.5485 87.2999 20.5485C82.6216 20.5485 78.5887 23.3311 76.7873 27.3445C75.7119 26.4348 74.3138 25.8729 72.8081 25.8729C69.4205 25.8729 66.6512 28.6288 66.6512 32H69.8238C69.8238 30.3679 71.1681 29.0301 72.8081 29.0301C74.4482 29.0301 75.7925 30.3679 75.7925 32H78.9651C78.9651 27.4247 82.7023 23.7057 87.2999 23.7057C89.7734 23.7057 91.9781 24.7759 93.5106 26.4615H97.0327C97.1671 26.4615 97.2747 26.4615 97.3822 26.4615Z" fill="#FF6964"/>
</svg>
