<svg width="88" height="32" viewBox="0 0 88 32" fill="none" xmlns="http://www.w3.org/2000/svg">
    <path d="M19.3168 0H0.804867C0.36219 0 0 0.355555 0 0.790121V2.37036C0 2.80493 0.36219 3.16049 0.804867 3.16049H16.9022V12.2469H2.4146C1.97192 12.2469 1.60973 12.6024 1.60973 13.037V14.6172C1.60973 15.0518 1.97192 15.4074 2.4146 15.4074H16.9022V28.8394H0.804867C0.36219 28.8394 0 29.195 0 29.6296V31.2098C0 31.6444 0.36219 31.9999 0.804867 31.9999H19.3168C19.7595 31.9999 20.1217 31.6444 20.1217 31.2098V29.6296V14.6172V12.2469V2.37036V0.790121C20.1217 0.355555 19.7595 0 19.3168 0ZM53.1615 13.8271H71.6734C72.1161 13.8271 72.4783 13.4716 72.4783 13.037V11.4568C72.4783 11.0222 72.1161 10.6666 71.6734 10.6666H53.1615C52.7188 10.6666 52.3566 11.0222 52.3566 11.4568V13.037C52.3566 13.4716 52.7188 13.8271 53.1615 13.8271ZM45.7567 24.2962L45.1128 15.4074C45.1128 14.9728 44.7506 14.6172 44.3079 14.6172H42.6982C42.2555 14.6172 41.8933 14.9728 41.8933 15.4074L42.7384 27.1407C42.3762 27.6543 42.0945 28.2468 41.8933 28.7999H30.102L31.591 21.3728L35.6556 1.34321C35.7361 0.90864 35.4544 0.513579 35.0117 0.395061L33.4422 0.0790125C32.9995 3.0023e-07 32.5971 0.276544 32.4764 0.711111L29.4984 15.3679L26.8021 28.7999L26.3996 30.7752C26.2789 31.3678 26.7618 31.9604 27.4057 31.9604H42.9799C43.0201 31.9604 43.0604 31.9604 43.1006 31.9604H44.1067V31.9209C44.1067 30.7752 44.4689 29.6296 45.1128 28.6419C45.3543 28.2468 45.6762 27.8913 45.9981 27.5752L45.7567 24.2962ZM87.3683 0.51358L85.7988 0.19753C85.7586 0.19753 85.6781 0.19753 85.6378 0.19753C85.2757 0.19753 84.9135 0.474074 84.833 0.829628L80.9696 19.8716C80.9294 20.0691 80.8891 20.2271 80.8489 20.4246C79.8428 24.4148 76.6233 27.3777 72.7197 28.4049C72.0758 28.5629 71.3917 28.7209 70.6673 28.7604C71.11 29.7086 71.3515 30.7752 71.3917 31.9209C72.0758 31.8814 72.76 31.7629 73.4039 31.6049C77.0258 30.8147 80.2855 28.6419 82.2574 25.4814C83.1025 24.1382 83.6659 22.637 83.9879 21.0567L87.972 1.42222C88.0927 1.02716 87.811 0.632098 87.3683 0.51358Z" fill="#4A4A4A"/>
    <path d="M63.504 22.2021C59.2382 22.2021 55.576 24.8491 54.1675 28.5626C53.2419 27.575 51.9139 26.9429 50.4249 26.9429C48.6139 26.9429 47.0042 27.891 46.1188 29.2737C45.5957 30.0639 45.314 30.9725 45.314 31.9601C45.314 31.9601 45.314 31.9602 45.314 31.9997H47.3261C47.3261 31.9997 47.3261 31.9997 47.3261 31.9601C47.3261 30.2614 48.7347 28.9182 50.4249 28.9182C52.1553 28.9182 53.5236 30.3009 53.5236 31.9601C53.5236 31.9601 53.5236 31.9602 53.5236 31.9997H55.5358C55.5358 31.9997 55.5358 31.9997 55.5358 31.9601C55.5358 27.654 59.1174 24.1775 63.4637 24.1775C66.3612 24.1775 68.8966 25.7182 70.3051 28.0095L70.627 27.97C71.1904 27.9305 71.7941 27.812 72.3977 27.654C70.788 24.454 67.4076 22.2021 63.504 22.2021Z" fill="#FF6964"/>
</svg>
