<svg id="レイヤー_1" data-name="レイヤー 1" xmlns="http://www.w3.org/2000/svg" viewBox="0 0 579.4 232.9" height="32px"><defs><style>.cls-1{fill:#040000;}</style></defs><title>kaihikon_logo</title><path class="cls-1" d="M433.3,122.14a4.76,4.76,0,0,1,.36-.89c6.64-15.07,10.22-38.59,12.2-78.43H420c2-3.19,10-14.67,20-14.67a6.39,6.39,0,0,1,6.38,6.38,4.92,4.92,0,0,1-4.9,4.92,4.2,4.2,0,0,1-1-.13,3.59,3.59,0,1,0-4.5-4.15.88.88,0,0,0-.19.54,5.67,5.67,0,0,0,5.65,5.66,6.84,6.84,0,0,0,6.81-6.84A8.3,8.3,0,0,0,440,26.25,17.86,17.86,0,0,0,431,28.91a9.47,9.47,0,0,0-.29-5.31c-2.08-5.74-8.43-9-12-12.91-3.58,4-9.93,7.17-12,12.91a9.65,9.65,0,0,0-.31,5.31,17.76,17.76,0,0,0-9-2.66,8.29,8.29,0,0,0-8.29,8.28,6.83,6.83,0,0,0,6.82,6.84,5.66,5.66,0,0,0,5.63-5.66.85.85,0,0,0-.19-.54,3.59,3.59,0,1,0-4.5,4.15,4.18,4.18,0,0,1-.94.13A4.91,4.91,0,0,1,391,34.53a6.38,6.38,0,0,1,6.38-6.38c9.95,0,18,11.48,20,14.67H391v4.32h17.76c-4.31,29.61-6.46,41.27-13.28,69.1l7.9,2.14a41.38,41.38,0,0,0,2.14-7.53l.55-2.16a10.4,10.4,0,0,1,.53-1.8c5.95,5,9.7,8.61,17.42,16.34-7.36,16.51-16.7,27.27-31.77,37.33l1.07,2c16.71-8.63,26-17.06,36.26-33.21a150.94,150.94,0,0,1,13.29,17.58l6.27-9A146.2,146.2,0,0,0,433.3,122.14ZM411.48,32.75a9.61,9.61,0,0,0,7.21-3.47,9.58,9.58,0,0,0,7.21,3.46,46.36,46.36,0,0,0-7.21,8.63A45.26,45.26,0,0,0,411.48,32.75Zm15.19,84.38-.9-.73a120.31,120.31,0,0,0-18.84-11.3c4.66-20.81,6.81-33,10.4-58h19.56C435.64,77.46,431.68,103.66,426.67,117.13Z"/><path class="cls-1" d="M572.81,110.37a79.18,79.18,0,0,1-6.08-5.25,61.55,61.55,0,0,1-5.64-6.1,55.06,55.06,0,0,1-5.17-7.69c-1.63-2.89-3.38-6.32-5.26-10.35s-4.27-9.29-7.16-15.81c-1-2.31-2.29-5.33-3.89-9s-3-6.85-4.14-9.43c-.38-.84-.79-1.73-1.22-2.63H551.4V39.77H532.17c-.34-.71-.71-1.43-1.1-2.18A111.49,111.49,0,0,0,518.88,18.2a71.61,71.61,0,0,0-5.34-5.89,321.13,321.13,0,0,0,32-4.46l-9.19-6.66a216.85,216.85,0,0,1-28.7,6,37.77,37.77,0,0,0-10.74-5.86A22.27,22.27,0,0,0,486.35.22a18.83,18.83,0,0,0-9.13,4.11A18.85,18.85,0,0,0,472,10.85l-8.22-4.64V80c-2.69.35-5,.53-7,.72l-8.8.89,4.78,8.79c26.38-4.85,49.78-10.94,66.66-18.13l.34-.18.73-.35-.91-1.44-1.61.35c-11.49,2.88-35.36,7.19-43.79,8.09a4.72,4.72,0,0,0-1.44.17V44.08h44.39c.52,3,1.19,6.45,2,10.4a46.89,46.89,0,0,0,9.34,3.33,27,27,0,0,0,.91,2.66,50.28,50.28,0,0,1-9.53-2.29,86.84,86.84,0,0,0,4.69,15.14,84.76,84.76,0,0,0,11.76,2.32,16.74,16.74,0,0,0,.87,2.42,45.94,45.94,0,0,1-10.37-.15c1,1.82,2.3,3.92,3.86,6.26a75,75,0,0,0,4.66,6.44,66,66,0,0,0,9.15.65q.6.9.81,1.17c.12.11.44.48,1,1a29,29,0,0,1-8.12.65c.75.76,1.53,1.47,2.3,2.18H462.92v68.93h9v-7.91h61.2V164h9.16V98a72.81,72.81,0,0,0,14,9.6A89.65,89.65,0,0,0,579,115.8l.41-1A57.29,57.29,0,0,1,572.81,110.37ZM533.08,153h-61.2V127.53h61.2Zm0-29.79h-61.2V100.62h61.2ZM526,32.87c1.27,2.29,2.46,4.58,3.63,6.9h-5.76c-.69-1.8-1.26-3.22-1.62-4.16a114.81,114.81,0,0,0-12.27-23L511,12.5c.5.43,1,.86,1.43,1.26a43.26,43.26,0,0,1,3.69,4.08A106.76,106.76,0,0,1,526,32.87ZM478.56,6.32a16.46,16.46,0,0,1,9.19-3.68,19.74,19.74,0,0,1,10.25,2,24.53,24.53,0,0,1,4.94,3.17c-8.59,1.16-18,2.12-28,2.84A16,16,0,0,1,478.56,6.32ZM508,39.77H472.78v-11a19.79,19.79,0,0,0,1.67,2.39,19.26,19.26,0,0,0,5.87,4.92,14.36,14.36,0,0,0,6.54,1.82,8.1,8.1,0,0,0,5.38-1.75,5.88,5.88,0,0,0,2.25-3.69,4.6,4.6,0,0,0-1-3.84,4.94,4.94,0,0,0-7.16-.75,4.38,4.38,0,0,0-1.78,3.06,4.6,4.6,0,0,0,1.18,3.38,11,11,0,0,1-9.3-4.49A17.13,17.13,0,0,1,473.3,24a19.79,19.79,0,0,1-.52-2.35V16.49a15,15,0,0,1,.68-2.74h2.91c7.72,0,19.74-.36,27.29-.71H504l3.6-.28a30.73,30.73,0,0,1,3.21,5.16,44.78,44.78,0,0,1,2.77,7.21,72.28,72.28,0,0,1,2,8.56,30.29,30.29,0,0,0,4.73,2,11.18,11.18,0,0,0,.34,1.28,5.75,5.75,0,0,0,.41,1.09c-1.1-.26-2-.47-2.54-.64s-1.41-.37-2.46-.64c.15,1.07.29,2.05.42,3Zm42.11,56.16A99.18,99.18,0,0,1,538.56,76.8q-2.28-4.71-4.3-9.54c-1.31-3.25-2.9-7.37-4.74-12.43-1.57-4.25-2.91-7.8-4-10.75h6.21c1.23,2.62,2.4,5.23,3.5,7.88l2.86,7.24c.72,1.83,1.73,4.28,3,7.34s2.61,6.07,3.95,9.11,2.73,5.93,4.16,8.7a78.75,78.75,0,0,0,9.35,15.35,65.46,65.46,0,0,0,12.72,11.85C563.54,109,556.48,103.81,550.07,95.93Z"/><path class="cls-1" d="M302.05,150.14a394.5,394.5,0,0,1,51.5,16l7.18-8.09c-21.9-5.57-29.26-6.83-57.62-9.87Z"/><path class="cls-1" d="M222.71,142.06H343.86V86.78H222.71Zm9.34-51H334.53v11.85H232.05Zm0,16.17H334.53v12.21H232.05Zm0,16.49H334.53v14H232.05Z"/><path class="cls-1" d="M201,83.91l.7,2.69c37.52-4.12,54.93-12.73,60.67-29.79h35.35V79.44h8.8V56.81h43.79c-.53,9.34-.89,12.92-2,14.55-1.26,2.33-3.23,3.22-6.82,3.22H328.26v4.86h18.66c5.55,0,8.43-1.45,9.87-5.39,1.25-3.59,2-8.79,2.68-21.53H306.53V36.91h43.61V12.67H306.53V1.18h-8.8V12.67H267V1.18h-8.79V12.67H214.46V17h43.79v.9c-.17,2.7-.35,7.54-.72,14.71H217.7c-2,10.59-4.14,18.13-8.81,31.41h9.34l1.78-5.2.37-.9v-.35l.37-.73h32.12C247.84,70.28,229.18,80,201,83.91ZM306.53,17h34.65V32.58H306.53ZM267,19V17h30.69V32.58h-31.4C266.69,30.07,267,22,267,19ZM264,51.44a97.8,97.8,0,0,0,1.81-12.21L266,38V36.91h31.77V52.52H263.64Zm-42,1.08.17-1.08c.73-3.23,1.8-8.08,3.07-14.53h31.94a118.89,118.89,0,0,1-2.5,14.53l-.2.34-.18.74Z"/><path class="cls-1" d="M201,164.31l.54,2c26.2-3.23,38-5.39,58.67-11.31l7.18-2.33-9.32-5.75C244.8,153.2,219,161.1,201,164.31Z"/><polygon class="cls-1" points="124.56 69.02 124.56 64.71 38.94 64.71 38.94 69.02 45.05 69.02 118.45 69.02 124.56 69.02"/><path class="cls-1" d="M84.16,8.9l4.72-6.11L76.45,1.19C72.69,9.26,62.81,22.37,48.82,37.8,34.09,53.59,16.7,68.3,0,78.72l.72,1.43C30,68.3,60.85,42.47,81.66,12.67l.9-1.44.89,1.44c21,30.51,48.65,53.84,75.56,63.53a62.83,62.83,0,0,1,5.57-9.87C138.38,56.82,122,46.4,98.35,24.16A122.79,122.79,0,0,1,84.16,8.9Z"/><path class="cls-1" d="M163,150.4a5.2,5.2,0,0,0-2.31-4.15,4.4,4.4,0,0,0-3.53-.82,5.54,5.54,0,0,0-3.22,2.2,5.89,5.89,0,0,1,4.36,1.06,5.78,5.78,0,0,1,2.44,3.34,4.08,4.08,0,0,1-.58,3.59,4.44,4.44,0,0,1-3.58,1.91,6.94,6.94,0,0,1-4.52-1.4,10.11,10.11,0,0,1-2.5-2.51,16,16,0,0,1-1.92-3.61,19.57,19.57,0,0,1-1.24-8.6l.46-5.61c.42-4.65-.45-8-3-9.84a7.45,7.45,0,0,0-4.18-1.39,8.44,8.44,0,0,0-3.57.74.3.3,0,0,1-.11.07,7.36,7.36,0,0,0-.75.36s0,0,0,0l-.21.11,0,0c-5.18,3.22-2.46,12.29,1.92,18.86-1.77-2.06-8.56-14.17-14.63-10.75-5.32,3-4.89,7.47-3.41,11-19.87,1.59-47.14,3-73.69,3.73,12-15.25,16.87-22.24,26-37.33l2.51-3.76c.55-1.07,1.08-2,1.63-2.87h84.89v-4.3H4.5v4.3H61.91C54.39,123.42,47.56,138,41.1,148.89h-.72l-11.29.18H13.29l3.58,10.23,6.82-1.08c45.19-3.2,78.72-6.51,97.3-9.55l.72,1h0c.42.55.87,1.11,1.34,1.66a29,29,0,0,0,5.2,4.59,32.56,32.56,0,0,0,18.61,5.88,23.36,23.36,0,0,0,8.53-1.53,12.84,12.84,0,0,0,5.85-4.47h0l0,0A8.56,8.56,0,0,0,163,150.4Z"/><path class="cls-1" d="M160.83,206.35h2.65v9.72l10.34-9.72h3.47L164.87,218l13.39,14.28h-3.44l-11.34-12.07v12.07h-2.65Z"/><path class="cls-1" d="M206.4,206.35l12.08,25.89h-2.81l-4.06-8.53H200.47l-4.05,8.53h-2.89l12.24-25.89Zm-.33,5.5-4.43,9.37h8.85Z"/><path class="cls-1" d="M235.83,206.35h2.58v25.89h-2.58Z"/><path class="cls-1" d="M258,206.35h2.59v10.86h13.18V206.35h2.59v25.89h-2.59v-12.5H260.57v12.5H258Z"/><path class="cls-1" d="M296,206.35h2.61v25.89H296Z"/><path class="cls-1" d="M318.2,206.35h2.62v9.72l10.35-9.72h3.47L322.23,218l13.38,14.28h-3.44l-11.35-12.07v12.07H318.2Z"/><path class="cls-1" d="M365.5,205.7a13.39,13.39,0,0,1,9.84,3.92,13.05,13.05,0,0,1,4,9.66A13.69,13.69,0,0,1,356,229a13,13,0,0,1-4-9.54,13.91,13.91,0,0,1,1.79-6.92,13.08,13.08,0,0,1,4.92-5A13.22,13.22,0,0,1,365.5,205.7Zm.11,2.52a10.75,10.75,0,0,0-5.44,1.48,11,11,0,0,0-4,4,11.37,11.37,0,0,0-1.44,5.66,10.91,10.91,0,0,0,10.9,11,11.11,11.11,0,0,0,5.59-1.46,10.6,10.6,0,0,0,4-4,11.31,11.31,0,0,0,1.44-5.63,11.11,11.11,0,0,0-1.44-5.59,11,11,0,0,0-4-4A11.1,11.1,0,0,0,365.61,208.22Z"/><path class="cls-1" d="M398.22,232.24V206.35h.57L416,226.19V206.35h2.57v25.89H418l-17.1-19.61v19.61Z"/></svg>
