<svg xmlns="http://www.w3.org/2000/svg" viewBox="0 0 561.17 170.08"><defs><style>.cls-1{fill:#272d33;}.cls-2{fill:none;}.cls-3{fill:#fff;}.cls-4{fill:#f6ed78;}</style></defs><g id="レイヤー_2" data-name="レイヤー 2"><g id="レイヤー_1-2" data-name="レイヤー 1"><path class="cls-1" d="M494,88.76c.31-.83,2.59-8.59,2.59-11.69a3.44,3.44,0,0,0-3.41-3.42h-6.52a3.54,3.54,0,0,0-3.63,3.62V113.8c0,2.38,0,3.62,2.59,3.62,2.38,0,2.38-1.55,2.38-3.62v-7c0-.11,0-.11.11-.21h.2a6.5,6.5,0,0,0,2.49.41c3.82,0,6-2.38,6-6.83a27.86,27.86,0,0,0-2.69-11.38C494,88.86,494,88.86,494,88.76ZM490.1,101.9a7.51,7.51,0,0,1-1.65-.21h-.21a.22.22,0,0,1-.21-.2v-22c0-.63.21-.83.93-.83h1.66c.52,0,.93.1.93.83s-.21,2.69-1.66,7.24a5.42,5.42,0,0,0-.51,2.28,4,4,0,0,0,.41,1.76l.1.31c1.66,4.76,2,7.34,2,8.48C491.86,101,491.55,101.9,490.1,101.9Z"/><path class="cls-1" d="M522.91,112.35a32.39,32.39,0,0,1-7.66-6.31c-.1-.1-.1-.1,0-.21s.1-.1.21-.1H520c2.9,0,3.93-1.86,3.93-3.1V95.69c0-1.24-1-3.1-3.93-3.1h-5.8a.22.22,0,0,1-.2-.21V90a.22.22,0,0,1,.2-.21h3.32c1.24,0,2.48,0,3.1-.72a2.94,2.94,0,0,0,.52-2.07c0-.1,0-.1.1-.21h.31a2,2,0,0,0,.93.21,2.61,2.61,0,0,0,2.59-2.79c0-1.14-.41-1.56-2-2.49a51.79,51.79,0,0,1-6.31-4.45c-3-2.59-3.83-3.21-5.59-3.21a3.9,3.9,0,0,0-2.79,1.25l-.73.62a63.9,63.9,0,0,1-7.34,5.69l-.31.21c-3.11,1.86-3.32,2.07-3.32,3.1,0,.62.63,3,2.49,3a5.42,5.42,0,0,0,2.38-.83h.21c.1,0,.1.11.1.21,0,.93.1,1.66.52,2,.62.62,1.76.62,3.1.62h3.21a.22.22,0,0,1,.21.2v2.38a.23.23,0,0,1-.21.21h-5.8c-2.89,0-3.93,1.86-3.93,3.11v6.93c0,1.24,1,3.1,3.93,3.1h5c.1,0,.1,0,.21.11v.2c-1.55,2.59-5.38,4.87-7.45,5.7-2.59,1.13-3.31,1.34-3.31,3.1a2.46,2.46,0,0,0,2.69,2.59c2.07,0,8.17-3.21,11.59-7.76a.34.34,0,0,1,.2-.11c.11,0,.11,0,.21.11,3.62,4.14,8.59,7.76,10.56,7.76a2.58,2.58,0,0,0,2.48-2.59C524.87,114.11,524.77,113.49,522.91,112.35Zm-14.08-11.48a.22.22,0,0,1-.2.2H505c-.31,0-1.34,0-1.34-.93V98c0-.93.93-.93,1.34-.93h3.63a.22.22,0,0,1,.2.2Zm-3.52-15.94v-.1a.34.34,0,0,1-.2-.11c0-.1,0-.2.1-.2l.21-.11c.93-.72,2.17-1.55,4.45-3.52,0,0,1.14-1.13,1.55-1.13s.62.31,1,.62l.21.2a34.35,34.35,0,0,0,5,4c.1,0,.1.1.1.21s-.1.1-.2.1Zm8.7,15.94V97.24a.22.22,0,0,1,.2-.2h3.52c.31,0,1.35,0,1.35.93v2.17c0,.93-.93.93-1.35.93h-3.52A.22.22,0,0,1,514,100.87Z"/><path class="cls-1" d="M248.77,100.24a2.8,2.8,0,0,0,2.72,2.25h.5a43.4,43.4,0,0,0,4.57-.19c2.71-.43,3.92-2.09,3.92-5.39V75.78A2.78,2.78,0,0,0,257.7,73h-.42a2.77,2.77,0,0,0-2.77,2.77V95.91c0,.62-.13.9-.93,1l-1.41,0h-.7a2.73,2.73,0,0,0-2.12,1A2.76,2.76,0,0,0,248.77,100.24Z"/><path class="cls-1" d="M242.73,97.09a51.85,51.85,0,0,0,7.47-12.64,2.78,2.78,0,0,0-.09-2.29,2.82,2.82,0,0,0-1.81-1.44l-.13,0a2.48,2.48,0,0,0-.66-.08A2.74,2.74,0,0,0,245,82.32a44,44,0,0,1-6.73,11.24,2.76,2.76,0,0,0,1,4.24l.18.08a2.82,2.82,0,0,0,3.35-.79Z"/><path class="cls-1" d="M270.83,95.79l-.33-.15a2.6,2.6,0,0,0-1.19-.28,2.78,2.78,0,0,0-2.35,1.3c-5.07,8.06-12.8,12.8-25.06,15.36a2.78,2.78,0,0,0-1.46,4.62,2.8,2.8,0,0,0,2,.9,2.73,2.73,0,0,0,.59-.07c14-3.08,23.25-8.71,29-17.7a2.64,2.64,0,0,0,.32-2.19A2.86,2.86,0,0,0,270.83,95.79Z"/><path class="cls-1" d="M270.48,81.18a2.75,2.75,0,0,0-2.15-1,2.83,2.83,0,0,0-1.3.32,2.73,2.73,0,0,0-1.46,1.82,2.77,2.77,0,0,0,.45,2.3A66.43,66.43,0,0,1,272.38,95a2.68,2.68,0,0,0,2.4,1.52,2.56,2.56,0,0,0,1.18-.28l.8-.4a2.65,2.65,0,0,0,1.17-3.63A75.83,75.83,0,0,0,270.48,81.18Z"/><path class="cls-1" d="M322.89,108.63a1.93,1.93,0,0,0-.52-.38h1a3.23,3.23,0,0,0,3.23-3.23V85.56a3.23,3.23,0,0,0-3.23-3.22h-5c.39-1,.74-2.1,1.07-3.08h5.47A2.05,2.05,0,0,0,327,77.2v-.81a2.05,2.05,0,0,0-2.05-2H308.47a2.05,2.05,0,0,0-2.05,2v.81a2.05,2.05,0,0,0,2.05,2.06h5.13c-.25,1.19-.48,2.19-.72,3.08h-3.6a3.23,3.23,0,0,0-3.23,3.22V105a3.23,3.23,0,0,0,3.23,3.23h1.05a2.05,2.05,0,0,0-.63.51,27,27,0,0,1-4.6,4.35,2.05,2.05,0,0,0,.09,3.35l.53.36a2.64,2.64,0,0,0,3.14-.12,35.13,35.13,0,0,0,4.51-4.28,2.62,2.62,0,0,0,.55-2.38,2.66,2.66,0,0,0-1.6-1.79h8.16a2.62,2.62,0,0,0-1.39,1.77,2.55,2.55,0,0,0,.57,2.28c1.16,1.35,2.19,2.64,3,3.85a2.59,2.59,0,0,0,2.11,1.09,2.52,2.52,0,0,0,1-.19,2.62,2.62,0,0,0,1-4.09C325.69,111.59,324.4,110.17,322.89,108.63Zm-2-5.74a.6.6,0,0,1-.59.59h-8.14a.59.59,0,0,1-.59-.59v-1.53a.58.58,0,0,1,.59-.58h8.14a.59.59,0,0,1,.59.58Zm0-6.86a.59.59,0,0,1-.59.59h-8.14a.58.58,0,0,1-.59-.59V94.51a.59.59,0,0,1,.59-.59h8.14a.6.6,0,0,1,.59.59Zm0-6.85a.59.59,0,0,1-.59.58h-8.14a.58.58,0,0,1-.59-.58V87.7a.59.59,0,0,1,.59-.59h8.14a.6.6,0,0,1,.59.59Z"/><path class="cls-1" d="M304.63,99.89a3.31,3.31,0,0,0-1.78-2.17,28,28,0,0,1-5-3,29.26,29.26,0,0,0,4.52-8.07,2,2,0,0,0-.16-1.78h.85a2,2,0,0,0,2.05-2.06v-3a3.22,3.22,0,0,0-3.22-3.22h-4.77V75.4a2.36,2.36,0,0,0-2.35-2.35H294a2.35,2.35,0,0,0-2.34,2.35v1.18H287.1a3.23,3.23,0,0,0-3.23,3.22v3a2.05,2.05,0,0,0,2.05,2.06h.53a2.05,2.05,0,0,0,2.05-2.06V81.61a.58.58,0,0,1,.59-.59H299.8a.59.59,0,0,1,.59.59v1.16a2.06,2.06,0,0,0,.3,1.08l-.85-.27a1.87,1.87,0,0,0-.62-.1H295a.44.44,0,0,1-.38-.2.34.34,0,0,1-.08-.21,2.06,2.06,0,0,0-1.95-1.82h-.29a3.22,3.22,0,0,0-2.94,2,24.93,24.93,0,0,1-4.63,7,2.24,2.24,0,0,0-.55,1.8,2.29,2.29,0,0,0,1.07,1.65,2.31,2.31,0,0,0,2.84-.39c.4-.42.78-.85,1.12-1.26a24.45,24.45,0,0,0,2.06,2.8,27.89,27.89,0,0,1-5.14,3.75,3.26,3.26,0,0,0-1.62,2.32,3.07,3.07,0,0,0,.07,1.35,2,2,0,0,0,1.56,1.48v10.09a3.23,3.23,0,0,0,3.23,3.23h.18a2,2,0,0,0,1.88-1.24.48.48,0,0,1,.43-.28h7.93a3.23,3.23,0,0,0,3.22-3.23v-9.2a2.06,2.06,0,0,0,1.4-1.12A3.17,3.17,0,0,0,304.63,99.89ZM292.22,87.78h4.34a21.3,21.3,0,0,1-2.09,3.52,20.78,20.78,0,0,1-2.3-3.46Zm5.45,22.35a.58.58,0,0,1-.58.58H292a.58.58,0,0,1-.58-.58v-4.24a.58.58,0,0,1,.58-.59h5.1a.58.58,0,0,1,.58.59Zm-5.87-9.61a27.06,27.06,0,0,0,2.79-2.3,26.34,26.34,0,0,0,3.09,2.3Z"/><path class="cls-1" d="M376.47,111.62h-4.39c1-2.25,2.06-4.74,3-7.22a2.65,2.65,0,0,0-.13-2.15,2.59,2.59,0,0,0-1.65-1.33l-.19-.06a2.8,2.8,0,0,0-.7-.09,2.66,2.66,0,0,0-2.53,1.9c-.84,2.88-1.95,6.13-3.07,9H353.87a2.35,2.35,0,0,0-2.35,2.34v.42a2.35,2.35,0,0,0,2.35,2.35h22.6a2.36,2.36,0,0,0,2.35-2.35V114A2.35,2.35,0,0,0,376.47,111.62Z"/><rect class="cls-1" x="356.48" y="74.62" width="19.13" height="5.01" rx="2.05"/><path class="cls-1" d="M353,109a3,3,0,0,0-.53-2.28c-1.47-2-3.24-4.25-5.56-7.06.12-.91.25-1.94.35-3h4a2.34,2.34,0,0,0,2.34-2.34v-.37a2.35,2.35,0,0,0-2.34-2.35H347.6c.13-2.59.22-5.27.26-8.17h3.19a2.05,2.05,0,0,0,2.06-2.05v-.91a2.05,2.05,0,0,0-2.06-2h-8.57c.17-.72.32-1.45.47-2.22A2.37,2.37,0,0,0,341,73.41l-.33,0a1.84,1.84,0,0,0-.33,0,2.34,2.34,0,0,0-2.29,1.92,40.69,40.69,0,0,1-3.32,10.26,2.32,2.32,0,0,0-.1,1.79,2.37,2.37,0,0,0,1.23,1.35l.24.11a2.36,2.36,0,0,0,3.09-1.1,38.37,38.37,0,0,0,1.61-3.7.86.86,0,0,1,.79-.56c.66,0,.85,0,.85.87,0,2.25-.07,4.58-.21,7.3h-5.86a2.35,2.35,0,0,0-2.34,2.35v.37a2.34,2.34,0,0,0,2.34,2.34h5.48c-.76,7.34-2.55,12.19-5.77,15.72a2.91,2.91,0,0,0-.74,2.23,2.81,2.81,0,0,0,1.15,2,2.9,2.9,0,0,0,1.66.53,2.77,2.77,0,0,0,2-.86,24.08,24.08,0,0,0,5.34-10.07c1,1.44,2,2.83,2.82,4.14a2.28,2.28,0,0,0,1.94,1.07,2.58,2.58,0,0,0,1.42-.44A3,3,0,0,0,353,109Z"/><path class="cls-1" d="M359.22,100.89a2.54,2.54,0,0,0-.76.11,2.45,2.45,0,0,0-1.48,1.26,2.37,2.37,0,0,0-.1,1.9,39.16,39.16,0,0,1,1.44,4.94,2.33,2.33,0,0,0,2.28,1.84l.38,0,.28-.06.46-.14a2.35,2.35,0,0,0,1.63-2.78,39.5,39.5,0,0,0-1.65-5.33A2.67,2.67,0,0,0,359.22,100.89Z"/><path class="cls-1" d="M357.7,99.59h16.56a3.23,3.23,0,0,0,3.22-3.23V86.75a3.23,3.23,0,0,0-3.22-3.22H357.7a3.23,3.23,0,0,0-3.23,3.22v9.61A3.23,3.23,0,0,0,357.7,99.59ZM360,88.89a.6.6,0,0,1,.59-.59h10.62a.59.59,0,0,1,.58.59v5.29a.58.58,0,0,1-.58.58H360.55a.59.59,0,0,1-.59-.58Z"/><path class="cls-1" d="M424.47,74.58H412.29a2.63,2.63,0,0,0-2.63,2.62V96.68c0,4.7-.41,10.15-3.43,14.82l-.2.22a2,2,0,0,0-.22-1.66c-.59-1-1.27-2-2.08-3.11a2.38,2.38,0,0,0-1.92-1,2.24,2.24,0,0,0-1,.21l-.43.19a2.33,2.33,0,0,0-1,3.37c.54.9,1,1.78,1.45,2.6a2.36,2.36,0,0,0,3.06,1.1l1-.44a2.5,2.5,0,0,0,.39-.23l-.18.23a2.32,2.32,0,0,0-.45,1.87,2.54,2.54,0,0,0,1.25,1.69l.21.12a3.21,3.21,0,0,0,1.6.42,3.28,3.28,0,0,0,2.65-1.36c2.73-3.84,4.23-8.43,4.71-14.45h6.39v10.09c0,.7-.2.92-.83,1l-.8,0h-.52a2.36,2.36,0,0,0-2.31,2.8l.15.75a2.34,2.34,0,0,0,2.27,1.89h.83a21.84,21.84,0,0,0,3.08-.17c2.67-.47,3.76-2,3.76-5.43v-35A2.63,2.63,0,0,0,424.47,74.58Zm-3,21.07a.59.59,0,0,1-.59.59h-5.05a.58.58,0,0,1-.58-.59V90.94a.58.58,0,0,1,.58-.59h5.05a.59.59,0,0,1,.59.59Zm0-10.9a.6.6,0,0,1-.59.59h-5.05a.59.59,0,0,1-.58-.59V80.37a.59.59,0,0,1,.58-.59h5.05a.6.6,0,0,1,.59.59Z"/><path class="cls-1" d="M406.61,105.44A2.35,2.35,0,0,0,409,103.1v-.18a2.35,2.35,0,0,0-2.35-2.35h-1.22V83h1.22a2.37,2.37,0,0,0,0-4.73h-1.22V75.8a2.77,2.77,0,0,0-5.54,0v2.44h-6.79V75.8a2.75,2.75,0,1,0-5.49,0v2.44h-1.22a2.37,2.37,0,0,0,0,4.73h1.22v17.6h-1.65a2.35,2.35,0,0,0-2.35,2.35v.18a2.35,2.35,0,0,0,2.35,2.34ZM393.06,83.56a.59.59,0,0,1,.59-.59h5.62a.59.59,0,0,1,.58.59v1.71a.58.58,0,0,1-.58.59h-5.62a.58.58,0,0,1-.59-.59Zm0,7.24a.58.58,0,0,1,.59-.59h5.62a.58.58,0,0,1,.58.59v1.81a.58.58,0,0,1-.58.58h-5.62a.58.58,0,0,1-.59-.58Zm0,7.37a.58.58,0,0,1,.59-.58h5.62a.58.58,0,0,1,.58.58V100a.58.58,0,0,1-.58.58h-5.62a.58.58,0,0,1-.59-.58Z"/><path class="cls-1" d="M392.31,106.54l-1.07-.36a2,2,0,0,0-.64-.1,2.07,2.07,0,0,0-1.87,1.2,40.15,40.15,0,0,1-3.57,6.18,2.3,2.3,0,0,0-.33,2.05,2.38,2.38,0,0,0,1.42,1.5l.68.25a2.41,2.41,0,0,0,.84.16,2.37,2.37,0,0,0,1.9-1,47.17,47.17,0,0,0,4-6.62,2.29,2.29,0,0,0-1.36-3.29Z"/><path class="cls-1" d="M475,95.43H463.71V91.26h6.86A3.23,3.23,0,0,0,473.8,88V78.14a3.23,3.23,0,0,0-3.23-3.23h-19a3.23,3.23,0,0,0-3.23,3.23V88a3.23,3.23,0,0,0,3.23,3.23h6.39v4.17H447.52a2.35,2.35,0,0,0-2.35,2.35v.79a2,2,0,0,0,1.81,2,3.79,3.79,0,0,0,.53,0h8.8A34.27,34.27,0,0,1,447,110a3,3,0,0,0-.66,4.42,2.64,2.64,0,0,0,2.06,1,2.56,2.56,0,0,0,1.61-.56,46.7,46.7,0,0,0,7.92-8v8.6a2.35,2.35,0,0,0,2.35,2.34h1.08a2.35,2.35,0,0,0,2.35-2.34v-9.2A48,48,0,0,0,472,114.7a2.5,2.5,0,0,0,1.57.55,2.63,2.63,0,0,0,2.05-1,3.25,3.25,0,0,0,.68-2.51,3.21,3.21,0,0,0-1.38-2.19,36,36,0,0,1-9.28-8.91H475a2.35,2.35,0,0,0,2.35-2.34v-.51A2.35,2.35,0,0,0,475,95.43ZM454.39,86.1a.6.6,0,0,1-.59-.59V80.65a.59.59,0,0,1,.59-.58h13.14a.59.59,0,0,1,.59.58v4.86a.6.6,0,0,1-.59.59Z"/><path class="cls-1" d="M446.73,74.82A2.67,2.67,0,0,0,445,73.58l-.33-.08a3,3,0,0,0-.59-.06,2.61,2.61,0,0,0-2.53,1.93,61.72,61.72,0,0,1-8.82,19.15,2.67,2.67,0,0,0-.05,3l.18.26a2.63,2.63,0,0,0,4.35.06l1.14-1.61v19.24a2.35,2.35,0,0,0,2.35,2.35h1a2.35,2.35,0,0,0,2.34-2.35V85.33a1,1,0,0,1,.09-.41,70.77,70.77,0,0,0,2.85-8A2.66,2.66,0,0,0,446.73,74.82Z"/><rect class="cls-2" width="561.17" height="170.08"/><polygon class="cls-3" points="53.74 65.88 65.81 60.82 77.5 60.82 89.18 66.66 96.19 81.07 92.68 95.09 82.17 101.71 72.05 110.66 64.26 124.68 53.74 122.73 48.39 118.26 51.41 99.76 46.34 77.56 53.74 65.88"/><path class="cls-4" d="M91.72,87.41A11.29,11.29,0,0,0,91.8,77.1C89,71.55,79.51,63.88,71.3,64.5s-18,6.26-20,15.54c-2.78,13.18,2.32,23.67,5.15,25.69,3.33,2.38,11.2,1.58,15.63,1.29,5.39-.36,11.39-5.21,15-8.31S91.72,87.41,91.72,87.41Z"/><ellipse class="cls-3" cx="67.2" cy="71.57" rx="5.67" ry="3.4" transform="translate(-17.48 21.9) rotate(-16.41)"/><path class="cls-1" d="M88.85,62.86c-7.28-6.67-20.79-8.89-31.34-3.1-8.59,4.71-13.6,12.38-14,20-.34,7.09,1.66,10.12,3.09,12.43a19.44,19.44,0,0,1,2.51,7.34,11.27,11.27,0,0,1,0,3.89,2.27,2.27,0,0,0,1.31,2.72c1.08.29,2.32-.33,2.8-2.5a16.3,16.3,0,0,0,.4-5.83c-.32-3.21-1.24-4.77-2.58-7.77s-2.51-5.9-2.27-9.37a19.53,19.53,0,0,1,5.47-11.59c3.3-3.39,7.31-5.08,12.12-6.4a21.3,21.3,0,0,1,17.92,4.16C88,70,91.6,75.25,92.51,80.28c.86,4.81-.34,9.86-5.21,14.84s-9.49,5.46-12.87,8.82c-.8.81-1.62,1.71-2.41,2.66-1.32,0-3,0-5-.19-3.91-.32-8.47-1.16-8.47-1.16-1-.31-2.46-.7-2.92.46s.48,2.24,2.4,3.14a34.53,34.53,0,0,0,8.37,2.2c.76.11,1.49.2,2.18.26a35.82,35.82,0,0,0-1.83,3.16c-1.39-.26-3.45-.26-5.1-.42-1.88-.19-3.14-.39-4.53-.54-.78-.09-2-.25-2.35.8-.39,1.21.75,1.94,2.39,2.62A42.58,42.58,0,0,0,64.66,119c-1,1.91-2,3.43-2.84,3.46a16.21,16.21,0,0,1-6.2-1.42,18.13,18.13,0,0,1-5-2.76,2.51,2.51,0,0,1-.3-2.11c.25-1.73.48-4.68-.9-4.94-1.9-.35-2.47.82-3.61,3.65a7.06,7.06,0,0,0,.51,6.1c1.21,2.07,5.51,3.89,7.74,4.7a24.36,24.36,0,0,0,7,1.81c2.64.27,4.72-.56,6.56-3.46,1.55-2.44,6.3-13.09,11.06-16.59,4.91-3.61,9.3-5.07,12.38-8.09S99,88.81,98.08,81A28.64,28.64,0,0,0,88.85,62.86Z"/><path class="cls-1" d="M103.61,60.76a6.5,6.5,0,0,0-4.06.67c-1.21.68-2.61,1.13-3.4,2.45s-.14,2.81,2.47,2.85a19.44,19.44,0,0,0,4.6-1.17,3.17,3.17,0,0,0,2.16-1.81A2.28,2.28,0,0,0,103.61,60.76Z"/><path class="cls-1" d="M81.19,52.84a2.33,2.33,0,0,0,2.31-.9c.87-.93,4-5.17,3.69-7.26a2.55,2.55,0,0,0-3.8-1.81c-1.78,1-3,6-3.19,7.75S80.48,52.59,81.19,52.84Z"/><path class="cls-1" d="M60.33,52.16c1.06.89,1.67,1.09,2.47.77s1-1.62,1-2.28A22.7,22.7,0,0,0,61.42,44a2.87,2.87,0,0,0-3.31-.77,2.52,2.52,0,0,0-1.41,2.57C56.65,47.33,58.63,50.74,60.33,52.16Z"/><path class="cls-1" d="M142.38,110c-4.71-4.87-13.06-12.89-13.46-13.32a2.13,2.13,0,0,1-.62-1.53,2.81,2.81,0,0,1,1-1.9c.32-.29,14-14.07,14-14.07a1.61,1.61,0,0,0,.06-2.25L139.57,73a1.38,1.38,0,0,0-1-.45,1.41,1.41,0,0,0-1,.46L119.66,91.74a4.23,4.23,0,0,0-.11,5.59l18.1,19.24a1.43,1.43,0,0,0,1.08.5,1.38,1.38,0,0,0,1-.41l3.59-3.46a1.58,1.58,0,0,0,.48-1.11,1.6,1.6,0,0,0-.44-1.13Z"/><path class="cls-1" d="M173.05,95.12a3.5,3.5,0,0,1-.07-1.83c.1-.52.89-2.75,1.21-3.6a1.47,1.47,0,0,0-.69-1.84l-4.23-2.15a1.4,1.4,0,0,0-.66-.16,1.46,1.46,0,0,0-1.35.91c-1.09,2.62-3.1,7.06-1.26,10.37.14.24.29.49.45.74s6.78,7.84,7,8.15a5.36,5.36,0,0,1,1.34,2.34,2.32,2.32,0,0,1-.41,1.81,1.39,1.39,0,0,1-1.08.43,2.84,2.84,0,0,1-.69-.09c-.64-.13-1.8-.47-3.28-.9a1.4,1.4,0,0,0-.41-.06,1.48,1.48,0,0,0-1.47,1.46v4.64a1.47,1.47,0,0,0,1,1.4,14.63,14.63,0,0,0,4.88.89c3.55,0,6-1.64,8-5.33,1.58-2.9-.87-8-3-10.55C178.27,101.6,173.12,95.38,173.05,95.12Z"/><path class="cls-1" d="M167.38,80.16l10.94,1.9a1.14,1.14,0,0,0,.26,0A1.47,1.47,0,0,0,180,80.92l.75-3.73a1.46,1.46,0,0,0-1.09-1.71l-10.73-2.66a1.32,1.32,0,0,0-.34,0,1.48,1.48,0,0,0-1.43,1.16l-.95,4.48a1.45,1.45,0,0,0,1.16,1.74Z"/><path class="cls-1" d="M162.16,100.72l-3.68-.92a1.45,1.45,0,0,0-1.76,1,33.75,33.75,0,0,1-1.05,4.56,53.31,53.31,0,0,1-2.1,6,1.86,1.86,0,0,0-.06.34,1.46,1.46,0,0,0,1.09,1.47l4.44,1.16a1.38,1.38,0,0,0,1.12-.16,1.45,1.45,0,0,0,.67-.92,52.2,52.2,0,0,0,1.7-6.07,41,41,0,0,0,.7-4.77,1.15,1.15,0,0,0,0-.26A1.46,1.46,0,0,0,162.16,100.72Z"/><path class="cls-1" d="M193,104.66a24.58,24.58,0,0,0-1.83-4.54,1.45,1.45,0,0,0-1.76-1l-3.68.93a1.47,1.47,0,0,0-1.11,1.48c0,.08,0,.17,0,.26s.86,2.31,1.49,4.72a43,43,0,0,1,.91,6.11,1.39,1.39,0,0,0,.66.92,1.45,1.45,0,0,0,1.13.17l4.43-1.16a1.46,1.46,0,0,0,1.09-1.48,1.33,1.33,0,0,0-.05-.34A53.86,53.86,0,0,0,193,104.66Z"/><path class="cls-1" d="M207.44,80.16l10.94,1.9a1.14,1.14,0,0,0,.26,0,1.47,1.47,0,0,0,1.43-1.16l.75-3.73a1.46,1.46,0,0,0-1.09-1.71L209,72.82a1.32,1.32,0,0,0-.34,0,1.47,1.47,0,0,0-1.43,1.16l-.95,4.48a1.45,1.45,0,0,0,1.16,1.74Z"/><path class="cls-1" d="M224.86,88.25a13,13,0,0,0-9.7-4.12c-.78,0-3,.07-3.82.18a38.46,38.46,0,0,0-12.21,4.36,1.41,1.41,0,0,0-.7.9,1.45,1.45,0,0,0,.17,1.13l2.45,4a1.46,1.46,0,0,0,1.25.7,1.43,1.43,0,0,0,.7-.18,36.27,36.27,0,0,1,9.1-3.57,14.92,14.92,0,0,1,2.52-.28,6.32,6.32,0,0,1,4.6,2c.82.84.85,2.35.52,4.08-1,5.13-3,7.9-11.81,13.41a1.46,1.46,0,0,0-.48,2l2.48,4a1.44,1.44,0,0,0,1.24.69,1.48,1.48,0,0,0,.79-.23c9.06-5.72,12.64-9.44,14.92-17.91C228.23,94.45,226.71,90.1,224.86,88.25Z"/></g></g></svg>