<svg width="449" height="54" viewBox="0 0 449 54" fill="none" xmlns="http://www.w3.org/2000/svg">
<path d="M75.177 8.6586H63.8699V1.32426C63.8699 0.611195 63.2587 0 62.5456 0H57.2486C56.5355 0 55.9243 0.611195 55.9243 1.32426V8.6586H44.5154C43.8023 8.6586 43.1911 9.26979 43.1911 9.98285V27.3C43.1911 28.0131 43.8023 28.6243 44.5154 28.6243H49.8124C50.5255 28.6243 51.1366 28.0131 51.1366 27.3V16.6041H68.4538V24.9571C68.4538 31.9859 65.296 38.5053 59.7952 42.8855L54.2945 47.2658C53.6833 47.7751 53.5814 48.59 54.0908 49.0993L57.4523 53.2758C57.9617 53.887 58.7766 53.9889 59.2859 53.4796L64.7867 49.0993C72.121 43.1911 76.3994 34.3288 76.3994 24.9571V9.98285C76.5012 9.26979 75.89 8.6586 75.177 8.6586ZM130.999 24.6515H161.559C162.272 24.6515 162.883 24.0403 162.883 23.3273V18.0303C162.883 17.3172 162.272 16.706 161.559 16.706H130.999C130.286 16.706 129.675 17.3172 129.675 18.0303V23.3273C129.675 24.0403 130.286 24.6515 130.999 24.6515ZM31.884 12.6314H27.1982V1.32426C27.1982 0.611195 26.587 0 25.8739 0H20.5769C19.8638 0 19.2526 0.611195 19.2526 1.32426V12.6314H1.32426C0.611195 12.6314 0 13.2426 0 13.9556V19.3545C0 20.0676 0.611195 20.6788 1.32426 20.6788H15.0761L8.45486 37.4866C7.43621 40.0333 6.01008 42.2743 4.07463 44.2098C3.15784 45.0247 2.13918 45.6359 1.01866 45.8396C0.407463 45.9415 0 46.5527 0 47.1639V52.5628C0 53.3777 0.713061 53.9889 1.42612 53.887C4.4821 53.5814 7.43621 52.1553 9.57539 50.0161C12.3258 47.2657 14.3631 44.1079 15.7892 40.5426L19.2526 31.7821V52.5628C19.2526 53.2758 19.8638 53.887 20.5769 53.887H25.8739C26.587 53.887 27.1982 53.2758 27.1982 52.5628V20.6788H31.884C32.5971 20.6788 33.2083 20.0676 33.2083 19.3545V14.0575C33.2083 13.2426 32.5971 12.6314 31.884 12.6314ZM119.692 27.3V22.003C119.692 21.29 119.081 20.6788 118.368 20.6788H107.061V11.409C108.691 10.6959 110.219 9.88099 111.645 8.96419C113.071 8.0474 113.886 7.43621 115.21 6.31568C115.821 5.80635 115.821 4.99143 115.312 4.38023C114.395 3.36157 112.867 1.73172 111.645 0.509329C111.136 0 110.321 0 109.811 0.407463C104.209 5.09329 97.18 6.62128 90.2531 6.21382C89.5401 6.21382 88.9289 6.62128 88.827 7.33434C88.6233 9.06606 88.4195 10.8996 88.1139 12.6314C88.0121 13.3444 88.5214 14.0575 89.3363 14.1594C92.596 14.4649 95.8557 14.3631 99.0136 13.8538V20.7806H87.7065C86.9934 20.7806 86.3822 21.3918 86.3822 22.1049V27.4019C86.3822 28.115 86.9934 28.7262 87.7065 28.7262H99.0136C99.0136 31.6803 99.0136 34.6344 99.0136 37.5885C99.0136 41.9687 95.7539 45.4322 91.5774 45.9415C90.9662 46.0434 90.4569 46.5527 90.4569 47.2658V52.6646C90.4569 53.4796 91.068 54.0908 91.883 53.9889C96.8744 53.5814 101.458 51.0348 104.311 46.8583C105.839 44.5154 106.857 41.8669 107.061 39.0146C107.163 38.1997 107.163 37.3848 107.163 36.5698V28.828H118.47C119.081 28.6243 119.692 28.0131 119.692 27.3ZM188.248 1.12052L183.053 0.101866C182.34 0 181.627 0.407463 181.525 1.12052L174.598 36.0605C173.579 41.3575 169.097 45.3303 163.902 45.8396C163.8 45.8396 163.698 45.8396 163.597 45.8396H163.495H163.393H163.291H163.189H163.087H162.985H158.198C159.827 48.0807 160.744 50.8311 160.744 53.7852H163.087C163.189 53.7852 163.189 53.7852 163.291 53.7852H163.393H163.495H163.597H163.698H163.8H163.902H164.004H164.106C164.208 53.7852 164.31 53.7852 164.31 53.7852C164.31 53.7852 164.31 53.7852 164.411 53.7852H164.513C164.513 53.7852 164.513 53.7852 164.615 53.7852H164.717H164.819H164.921C165.023 53.7852 165.023 53.7852 165.125 53.7852C165.328 53.7852 165.532 53.6833 165.838 53.6833C165.939 53.6833 165.939 53.6833 166.041 53.6833C174.292 52.4609 181.219 46.0434 182.849 37.6904L189.776 2.75038C189.47 1.93545 188.961 1.22239 188.248 1.12052ZM163.087 44.5154C159.827 38.6072 153.512 34.5325 146.177 34.5325C138.334 34.5325 131.611 39.2183 128.555 45.9415C126.721 44.4135 124.48 43.4967 121.933 43.4967C116.229 43.4967 111.645 48.0807 111.645 53.7852H116.942C116.942 51.0348 119.183 48.7937 121.933 48.7937C124.684 48.7937 126.925 51.0348 126.925 53.7852H132.222C132.222 46.0434 138.436 39.8295 146.177 39.8295C150.354 39.8295 154.021 41.6631 156.568 44.5154H162.476C162.782 44.6172 162.985 44.6172 163.087 44.5154Z" fill="#FF6964"/>
<path d="M256.193 7.23247L267.703 13.8538C268.416 14.2612 269.333 14.0575 269.741 13.3444L272.186 9.06606C272.593 8.353 272.389 7.43621 271.676 7.02874L260.165 0.407463C259.452 0 258.535 0.203732 258.128 0.916793L255.683 5.19516C255.276 5.90822 255.48 6.82501 256.193 7.23247ZM317.414 7.63994H310.996V1.32426C310.996 0.611195 310.385 0 309.672 0H304.375C303.662 0 303.051 0.611195 303.051 1.32426C303.051 3.46344 303.051 5.50076 303.051 7.63994H287.262C286.447 7.63994 285.734 8.353 285.734 9.16793V14.0575C285.734 14.8724 286.447 15.5855 287.262 15.5855H303.051C303.051 17.1135 303.051 18.5396 303.051 19.8638C301.727 19.2526 300.199 18.947 298.671 18.947C292.762 18.947 287.975 23.7347 287.975 29.643C287.975 35.5512 292.762 40.3389 298.671 40.3389C300.097 40.3389 301.523 40.0333 302.745 39.5239C301.93 42.8855 299.078 45.4322 295.513 45.8396C294.902 45.9415 294.392 46.4508 294.392 47.1639V52.5628C294.392 53.3777 295.105 53.9889 295.818 53.887C300.81 53.4796 305.394 50.9329 308.246 46.7564C309.774 44.4135 310.793 41.765 310.996 38.9128C311.098 38.0978 311.098 37.2829 311.098 36.468V15.6873H317.414C318.331 15.6873 318.942 14.9743 318.942 14.1594V9.16793C318.942 8.353 318.229 7.63994 317.414 7.63994ZM298.671 34.0232C296.226 34.0232 294.29 32.0877 294.29 29.643C294.29 27.1982 296.226 25.2627 298.671 25.2627C301.115 25.2627 303.051 27.1982 303.051 29.643C303.051 32.0877 301.115 34.0232 298.671 34.0232ZM446.885 20.6788H435.578V11.409C437.208 10.6959 438.736 9.88099 440.162 8.96419C441.588 8.0474 442.403 7.43621 443.728 6.31568C444.339 5.80635 444.339 4.99143 443.829 4.38023C442.913 3.36157 441.385 1.73172 440.162 0.509329C439.653 0 438.94 0 438.329 0.407463C432.726 5.09329 425.799 6.62128 418.77 6.21382C418.057 6.21382 417.446 6.62128 417.344 7.33434C417.141 9.06606 416.937 10.8996 416.631 12.6314C416.529 13.3444 417.039 14.0575 417.854 14.1594C421.113 14.4649 424.373 14.3631 427.531 13.8538V20.7806H416.224C415.511 20.7806 414.9 21.3918 414.9 22.1049V27.4019C414.9 28.115 415.511 28.7262 416.224 28.7262H427.531C427.531 31.6803 427.531 34.6344 427.531 37.5885C427.531 41.9687 424.271 45.4322 420.095 45.9415C419.484 46.0434 418.974 46.5527 418.974 47.2658V52.6646C418.974 53.4796 419.585 54.0908 420.4 53.9889C425.392 53.5814 429.976 51.0348 432.828 46.8583C434.356 44.5154 435.375 41.8669 435.578 39.0146C435.68 38.1997 435.68 37.3848 435.68 36.5698V28.828H446.987C447.7 28.828 448.312 28.2168 448.312 27.5038V22.2068C448.21 21.1881 447.599 20.6788 446.885 20.6788ZM210.964 26.9944L231.439 6.11195C231.949 5.60262 231.949 4.68583 231.439 4.1765L227.67 0.509329C227.161 0 226.244 0 225.735 0.509329L200.676 25.9758C200.166 26.4851 200.166 27.3 200.676 27.8094L225.735 53.3777C226.244 53.887 227.059 53.887 227.67 53.3777L231.439 49.7105C231.949 49.2012 231.949 48.3863 231.439 47.7751L210.964 26.9944ZM377.617 20.6788H373.44C372.625 20.6788 371.912 21.3918 371.912 22.2068V32.5971C371.912 33.412 372.625 34.1251 373.44 34.1251H377.617C378.432 34.1251 379.145 33.412 379.145 32.5971V22.2068C379.145 21.3918 378.432 20.6788 377.617 20.6788ZM385.358 34.1251H389.535C390.35 34.1251 391.063 33.412 391.063 32.5971V22.2068C391.063 21.3918 390.35 20.6788 389.535 20.6788H385.358C384.544 20.6788 383.83 21.3918 383.83 22.2068V32.5971C383.83 33.412 384.544 34.1251 385.358 34.1251ZM259.045 24.4478H252.627V14.2612C252.627 13.4463 251.914 12.7332 251.099 12.7332H246.21C245.395 12.7332 244.682 13.4463 244.682 14.2612V30.9672C244.682 31.7821 245.395 32.4952 246.21 32.4952H258.841C261.999 32.4952 264.851 34.6344 265.564 37.6904C266.481 42.0706 263.221 45.8396 259.045 45.8396H249.979C249.266 45.8396 248.655 46.4508 248.655 47.1639V52.4609C248.655 53.174 249.266 53.7852 249.979 53.7852H259.045C267.194 53.7852 273.714 47.2658 273.714 39.1165C273.714 30.9672 267.194 24.4478 259.045 24.4478ZM404 20.6788H398.703C397.99 20.6788 397.379 21.29 397.379 22.003V26.0777C397.379 33.8195 392.693 40.8482 385.053 44.3116L380.469 46.4508C379.756 46.7564 379.45 47.5713 379.858 48.2844L382.099 53.0721C382.404 53.7852 383.219 54.0908 383.932 53.6833L388.516 51.5441C399.008 46.7564 405.528 36.9773 405.528 26.0777V22.003C405.324 21.29 404.713 20.6788 404 20.6788ZM360.503 4.78769H330.351C329.536 4.78769 328.823 5.50076 328.823 6.31568V11.2052C328.823 12.0202 329.536 12.7332 330.351 12.7332H354.086V20.6788C354.086 25.8739 351.845 30.7635 347.872 34.1251L344.001 37.4866L340.436 33.2083C339.926 32.5971 338.908 32.4952 338.296 33.0045L334.527 36.1624C333.916 36.6717 333.814 37.6904 334.324 38.3016L346.751 53.174C347.261 53.887 348.279 53.887 348.992 53.3777L352.761 50.2199C353.373 49.7105 353.474 48.6919 352.965 48.0807L349.196 43.5986L353.169 40.1351C358.873 35.2456 362.133 28.115 362.133 20.6788V6.31568C362.031 5.50076 361.318 4.78769 360.503 4.78769Z" fill="#3F3F44"/>
</svg>
