<svg xmlns="http://www.w3.org/2000/svg" viewBox="0 0 1358.07 204.88" height="24px"><defs><style>.cls-1{fill:#b3a36b;}</style></defs><title>logo-ssi</title><g id="レイヤー_2" data-name="レイヤー 2"><g id="レイヤー_1-2" data-name="レイヤー 1"><path d="M293.22,101.77c-1.44-.72-1.54-1.12-1.54-3.9,0-5.15.41-9.27.51-10.9.1-1.13.32-1.65.82-1.65s.43.31.43,1.13a24,24,0,0,0,.15,3.8c1.17,7.73,6.67,12,15.67,12,9.88,0,15.39-8.59,15.39-15.18,0-7.09-3.66-11.21-12.5-18.5l-4.64-3.81c-10.9-9-13.37-15.33-13.37-22.31,0-11,8.23-18.53,21.29-18.53a37.91,37.91,0,0,1,9.3,1,17.53,17.53,0,0,0,3.74.53c.82,0,1,.2,1,.71S329,37.08,329,37.08c0,1.64-.21,2.36-.71,2.36s-.73-.52-.83-1.34A18.75,18.75,0,0,0,326.08,33c-.62-1.14-1.72-6.94-11.19-6.94C307.79,26,303,31.94,303,39.44c0,5.87,2.88,9.36,12.55,17.28L318.46,59c12.15,9.58,15,16,15,24.18a21.3,21.3,0,0,1-8.75,17.07c-4.42,3.08-12.18,4.32-17.74,4.32a31,31,0,0,1-13.78-2.78"/><path d="M675.05,101.77c-1.44-.72-1.54-1.12-1.54-3.9,0-5.15.42-9.27.51-10.9.1-1.13.31-1.65.83-1.65s.43.31.43,1.13a24,24,0,0,0,.15,3.8c1.16,7.73,6.67,12,15.66,12,9.88,0,15.39-8.59,15.39-15.18,0-7.09-3.66-11.21-12.51-18.5l-4.63-3.81c-10.9-9-13.36-15.33-13.36-22.31,0-11,8.22-18.53,21.29-18.53a37.88,37.88,0,0,1,9.29,1,17.61,17.61,0,0,0,3.74.53c.83,0,1,.2,1,.71s-.53,10.91-.53,10.91c0,1.64-.22,2.36-.73,2.36s-.72-.52-.81-1.34A18.09,18.09,0,0,0,707.9,33c-.62-1.14-1.71-6.94-11.17-6.94-7.1,0-11.85,5.91-11.85,13.41,0,5.87,2.87,9.36,12.54,17.28L700.3,59c12.14,9.58,15,16,15,24.18a21.3,21.3,0,0,1-8.75,17.07c-4.42,3.08-12.19,4.32-17.75,4.32a31,31,0,0,1-13.77-2.78"/><path d="M1325.58,101.21c-1.16-.57-1.25-.91-1.25-3.15,0-4.15.34-7.46.42-8.8.08-.91.25-1.33.67-1.33s.33.26.33.91a19.32,19.32,0,0,0,.14,3.07c.94,6.24,5.38,9.67,12.64,9.67a12.49,12.49,0,0,0,12.4-12.23c0-5.73-2.94-9-10.08-14.94l-3.73-3.07c-8.8-7.21-10.79-12.36-10.79-18,0-8.88,6.64-14.94,17.17-14.94a30.23,30.23,0,0,1,7.51.83,14.36,14.36,0,0,0,3,.41c.67,0,.83.16.83.59s-.44,8.8-.44,8.8c0,1.32-.17,1.9-.57,1.9s-.6-.42-.67-1.08a14.38,14.38,0,0,0-1.09-4.15c-.49-.91-1.37-5.59-9-5.59-5.73,0-9.56,4.76-9.56,10.82,0,4.73,2.32,7.56,10.12,13.94l2.32,1.82c9.79,7.72,12.12,12.86,12.12,19.5A17.17,17.17,0,0,1,1351,100c-3.56,2.5-9.83,3.5-14.32,3.5a25.19,25.19,0,0,1-11.11-2.25"/><path d="M366.18,46.93c-.15-2.8-.81-4.11-3.54-4.69a15.7,15.7,0,0,0-2.8-.24c-.31,0-.64-.17-.64-.5,0-.49-.09-.6.82-.6l1.33,0h30.59a21.66,21.66,0,0,0,3.53-.35c.42-.07.74-.4,1.15-.4.25,0,.33.33.33.74l-1.06,9.3c-.1.41-.26.91-.59.91-.49,0-.65-.42-.65-1.08a15.44,15.44,0,0,0-.49-4c-.59-1.3-1.4-2.73-5.85-3.22l-12.33,0c-.33,0-.5.24-.5.82V68.83c0,.58.08.83.5.83,1.07,0,12.23.11,14.14.11,2.58,0,3.13-.34,3.87-1.15.58-.66.9-1.08,1.23-1.08s.41.18.41.67l-1,9.17c0,.67,0,1.57-.58,1.57-.4,0-.57-.33-.57-.74a10.93,10.93,0,0,0-.32-3.09c-.33-1.16-.56-2.72-4.15-3-2.23-.15-11.56-.09-13-.09a.52.52,0,0,0-.58.57v8.09c0,2.8-.09,11.9,0,13.62.25,5.68,2.55,6.75,10.61,6.75,2.15,0,5.76,0,7.9-.9s3.13-2.56,3.69-5.94c.18-.89.34-1.23.75-1.23s.49.66.49,1.23-.43,6.92-.43,6.92c-.58,2.13-.09,1.7-5.08,1.7H361.75c-.9,0-1.32,0-1.32-.47,0-.24.16-.5.66-.5a13.06,13.06,0,0,0,2.47-.32c1.64-.33,2.05-2.14,2.38-4.52.42-3.47.42-47.48.24-50.12"/><path d="M503,47.12c-.16-2.8-.7-4.11-3.42-4.68a14.61,14.61,0,0,0-2.79-.26c-.33,0-.65-.16-.65-.48,0-.5-.08-.62.83-.62l1.32.05h30.58a22.58,22.58,0,0,0,3.53-.35c.41-.07.75-.42,1.16-.42.24,0,.33.35.33.76l-1.08,9.29c-.08.41-.23.9-.57.9s-.65-.4-.65-1.07a15.76,15.76,0,0,0-.49-4c-.59-1.32-1.41-2.73-5.85-3.24H512.93c-.34,0-.51.25-.51.83V69c0,.57.1.82.51.82,1.06,0,12.24.12,14.14.12,2.56,0,3.14-.34,3.87-1.16.57-.65.9-1.07,1.23-1.07s.42.16.42.66l-1,9.18c0,.66,0,1.58-.59,1.58-.41,0-.57-.34-.57-.74a10.74,10.74,0,0,0-.33-3.11c-.32-1.15-.55-2.73-4.14-3-2.23-.15-11.57-.11-13-.11a.53.53,0,0,0-.58.58s-.08,20,0,21.7c.25,5.69,2.56,6.74,10.62,6.74,2.13,0,5.77,0,7.9-.89s3.13-2.54,3.7-5.92c.17-.91.33-1.25.74-1.25s.49.67.49,1.25-.44,6.9-.44,6.9c-.56,2.15-.07,1.71-5.07,1.71H498.69c-.9,0-1.3,0-1.3-.47,0-.25.16-.49.65-.49a12.89,12.89,0,0,0,2.46-.34c1.65-.33,2.19-2.14,2.51-4.52Z"/><path d="M1266.09,46.14c-.16-2.8-.83-4.11-3.54-4.69a16.66,16.66,0,0,0-2.8-.25c-.31,0-.84-.33-.84-.67,0-.49.6-.48,1.51-.48,3.7,0,8.88.24,9.29.24.57,0,19.16,0,21-.07a19.7,19.7,0,0,0,3.54-.42c.42-.07.75-.41,1.16-.41.24,0,.32.34.32.75,0,.57-.41,1.57-.65,3.87-.08.81-.25,4.43-.41,5.43-.08.4-.25.91-.57.91-.5,0-.67-.42-.67-1.08a15.28,15.28,0,0,0-.49-4c-.57-1.33-1.4-2.31-5.84-2.8-1.4-.16-10.36-.24-11.27-.24-.33,0-.5.24-.5.81V68.33c0,.56.07.81.5.81,1.06,0,11.19,0,13.07-.16s3.14-.34,3.87-1.14.91-1.08,1.25-1.08.4.17.4.66-.4,1.89-.65,4.6c-.17,1.64-.34,4.78-.34,5.36s0,1.56-.58,1.56c-.4,0-.57-.33-.57-.74a16.32,16.32,0,0,0-.33-3.87c-.33-1.16-1.06-2.56-4.27-2.89-2.22-.25-10.37-.4-11.76-.4a.52.52,0,0,0-.59.57v8.31c0,2.8-.08,11.89,0,13.61.24,5.69,1.48,6.75,9.54,6.75,2.15,0,5.77,0,7.9-.9s3.14-2.54,3.71-5.92c.16-.91.33-1.24.74-1.24s.5.66.5,1.24a46.47,46.47,0,0,1-.45,6.91c-.58,2.13-.08,2.13-5.06,2.13,0,0-28.14-.24-30.62-.24-.91,0-1.31-.17-1.31-.66,0-.25.17-.5.66-.5a12.74,12.74,0,0,0,2.46-.31c1.65-.34,2.07-2.15,2.38-4.53.42-3.47.42-47.48.26-50.12"/><path d="M451.31,93.17c4.73-10.92,16.23-39.71,18-45.57a11.58,11.58,0,0,0,.74-3.09A2,2,0,0,0,469,42.64a9.93,9.93,0,0,0-3.1-.34c-.49,0-.91-.07-.91-.49s.51-.64,1.8-.64h12.53c.9,0,1.38.16,1.38.57s-.32.56-1,.56a9.52,9.52,0,0,0-4.58,1c-1.06.74-2.29,2.12-4.48,7.66-.82,2.07-16.56,43.81-19.85,51.78a2.62,2.62,0,0,1-1.94,1.51c-1.54,0-2.43.22-5-5.38L424,48.91c-1.79-4.57-3-5.47-5.86-6.27a12.26,12.26,0,0,0-3.1-.34c-.49,0-.66-.25-.66-.56,0-.49.82-.57,2.12-.57h20.36c1.46,0,2.19.16,2.19.57s-.24.56-.81.56a17.35,17.35,0,0,0-4.15.41A1.63,1.63,0,0,0,433,44.34c0,1.06,1,3.59,2.2,6.76Z"/><path d="M570.06,91.86c.18,6.75,1.11,8.89,3.33,9.54a17.67,17.67,0,0,0,4.12.5c.41,0,.65.17.65.49,0,.5-.49.66-1.48.66H560.07c-.83,0-1.32-.08-1.32-.66,0-.32.24-.49.66-.49a30.33,30.33,0,0,0,5.78-.5c2.06-.57,2.31-3,2.31-10.45V42.12c0-3.21.58-2.87,1.62-1.68,1.22,1.42,44.71,48.17,47.35,50.89V50.23c-.09-5.35-.63-7.16-3.17-7.81a21.37,21.37,0,0,0-4-.42c-.58,0-.66-.25-.66-.58,0-.49.66-.57,1.65-.57h13.17c.91,0,1.48.08,1.48.57,0,.33-.32.58-.91.58a7.44,7.44,0,0,0-2,.24c-2.72.58-3.12,2.38-3.12,7.32V97.78c0,5.44-.29,5.67-.62,6.14-.87,1.36-2.34-.23-5.63-3.59-1.5-1.55-39.93-43.47-42.59-46.46Z"/><path d="M884.33,91.73c.16,6.75,1.1,8.89,3.33,9.54a17.61,17.61,0,0,0,4.12.5c.41,0,.65.16.65.48,0,.51-.49.67-1.48.67h-15c-.81,0-1.32-.09-1.32-.67,0-.32.26-.48.67-.48a17,17,0,0,0,4.19-.5c2-.57,2.31-3,2.31-10.45V43.06c0-3.22.56-2.89,1.61-1.69,1.23,1.41,44.72,46.57,47.34,49.29V50.09c-.07-5.34-.61-7.15-3.17-7.81a21,21,0,0,0-4-.42c-.58,0-.66-.24-.66-.57,0-.5.66-.58,1.64-.58h13.18c.91,0,1.48.08,1.48.58,0,.33-.33.57-.91.57a6.89,6.89,0,0,0-2,.26c-2.72.57-3.13,2.38-3.13,7.32V97.12c0,5.43-.29,5.67-.61,6.13-.87,1.36-2.35-.22-5.63-3.58C925.41,98.12,887,57.79,884.33,54.8Z"/><path d="M760.31,78.4c0,7.9,0,14.4.41,17.86.24,2.38.73,4.2,3.19,4.51a32.67,32.67,0,0,0,3.72.33c.49,0,.65.25.65.5,0,.42-.41.66-1.32.66H745.05c-.93,0-1.32-.17-1.32-.66,0-.25.15-.5.65-.5a38.49,38.49,0,0,0,4.53-.33c1.65-.31,2.06-2.13,2.38-4.51.41-3.46.41-10,.41-17.86V63.91c0-12.83,0-15.13-.16-17.77-.17-2.8-1.34-4.19-3.14-4.61a11.46,11.46,0,0,0-2.56-.33c-.33,0-.67-.16-.67-.49,0-.5.43-.66,1.32-.66h18.77c.91,0,1.33.16,1.33.66,0,.33-.34.49-.68.49a16.39,16.39,0,0,0-2.39.25c-2.23.41-2.9,1.82-3,4.69-.16,2.64-.16,4.94-.16,17.77Z"/><path d="M841,81.28c0-6.67-.42-7.57-3.7-8.48a15.82,15.82,0,0,0-2.79-.25c-.34,0-.68-.16-.68-.49,0-.5.42-.66,1.33-.66,3.7,0,8.88.25,9.29.25s5.6-.25,8.07-.25c.9,0,1.32.16,1.32.66,0,.33-.34.49-.66.49a12.7,12.7,0,0,0-2.06.25c-2.22.42-2.88,1.81-3,4.69-.16,2.63-.16,5.1-.16,8.56v9.22c0,3.69-.08,3.87-1.07,4.44-5.26,2.79-12.67,3.7-17.45,3.7-6.25,0-17.93-.83-27.06-8.8-5-4.37-9.8-13.17-9.8-23.45,0-13.17,6.42-22.47,13.74-27.07s15.56-5.19,21.9-5.19a72.43,72.43,0,0,1,12.58,1.39,39.73,39.73,0,0,0,6.66.83c.83.08,1,.41,1,.74a105.1,105.1,0,0,0-.57,11.69c0,1.31-.18,1.72-.74,1.72s-.49-.49-.58-1.22a12.72,12.72,0,0,0-1.72-5.44c-2.06-3.12-7.74-7.83-18.35-7.83a27.54,27.54,0,0,0-16.38,6.6c-4.56,4-7.37,12.33-7.37,21.95a37,37,0,0,0,8.23,23c3.71,4.32,11.49,9.15,19.06,9.15a22.55,22.55,0,0,0,9.37-2.16c1.08-.57,1.65-2.68,1.65-4.09Z"/><path d="M973.4,81.56l10.73-28.18,9.92,28.21c.73,1.77-1.54,1.65-1.54,1.65H975s-2.16,0-1.64-1.67m-18.31,20.68a.78.78,0,0,0,.63.51h13.86c.77,0,.81-.43.81-.51,0-.34-.6-.55-.94-.63-.5-.16-3.66-.33-2.61-2.8l4.56-11.63c.36-1.09,2.57-.92,2.57-.92h19.57s2.07-.11,2.24.3c0,0,3.56,9.55,4.05,11,1,3-2.44,4.18-3.87,4.18l-1,.15a.88.88,0,0,0-.85.89c0,.49.65.52,1.41.52h21.3c1.09,0,1.59,0,1.59-.5a1.34,1.34,0,0,0-1-1c-.59,0-1.77-.24-2.43-.33-3.87-.5-4.91-3.11-6.79-7.42L988.61,41.42c-1-2.78-1.34-3.28-1.84-3.28s-.64.76-1.65,3.35l-21,54.81c-2,4-4,4.49-5.78,5a5.63,5.63,0,0,1-2.37.42c-.51,0-.84.09-.84.51"/><path d="M1060.32,78.4c0,7.9,0,14.4.41,17.86.24,2.38.73,4.2,3.21,4.51a23.94,23.94,0,0,0,3.08.33c.5,0,.67.25.67.5,0,.42-.41.66-1.32.66h-21.14c-.91,0-1.31-.17-1.31-.66,0-.25.17-.5.65-.5a27.5,27.5,0,0,0,3.83-.33c1.63-.31,2-2.13,2.38-4.51.41-3.46.41-10,.41-17.86V42.14l-10.77.16c-5.1.09-7.07,1.83-8.39,3.81a14.32,14.32,0,0,0-1.4,2.83c-.25.66-.48.82-.83.82s-.4-.24-.4-.73c0-.83,1.64-7.91,1.81-8.56.17-.49.5-1.57.82-1.57.57,0,1.4.82,3.63,1s5.51.39,6.49.39H1072a40.47,40.47,0,0,0,8.14-.81c.41,0,.41.5.41,1,0,2.47.44,8.14.44,9.05,0,.73-.26,1.07-.58,1.07s-.58-.24-.66-1.4l-.08-.9c-.33-2.47-2.9-5.83-10.8-6l-8.5-.16Z"/><path d="M1110.17,63.91c0-12.83,0-15.13-.16-17.77s-.82-4.11-3.54-4.69a17,17,0,0,0-2.8-.25c-.33,0-.66-.16-.66-.49,0-.49.41-.66,1.32-.66h19.83c.9,0,1.31.17,1.31.66,0,.33-.33.49-.66.49a14,14,0,0,0-2,.25c-2.23.34-2.89,1.82-3,4.69-.16,2.64-.16,4.94-.16,17.77V75.44c0,11.85,2.63,17,6.16,20.32,4,3.79,7.74,4.52,12.44,4.52a17.28,17.28,0,0,0,12.91-5.92c3.79-4.69,4.76-11.68,4.76-20.15V63.91c0-12.83,0-15.13-.16-17.77s-.81-4.11-3.53-4.69a16.76,16.76,0,0,0-2.8-.25c-.33,0-.65-.16-.65-.49,0-.49.41-.66,1.3-.66h12.31c.9,0,1.31.17,1.31.66,0,.33-.33.49-.66.49a7,7,0,0,0-2,.25c-2.22.41-2.88,1.82-3.05,4.69-.16,2.64-.16,4.94-.16,17.77v8.82c0,8.88-.19,18.76-6.77,24.6-5.92,5.26-11.13,6.09-14.42,6.09-2.79,0-11.8-.35-17.63-5.86-4-3.87-8.69-9.62-8.69-21.63Z"/><path d="M1200.65,73c0,.41.22.32.59.49,1.3.6,5,.42,8.64.42a10.73,10.73,0,0,0,6.17-1.57c2.87-2,5-6.93,5-13.18,0-10.29-5.42-17.24-14.22-17.24a24.83,24.83,0,0,0-5.52.49,1,1,0,0,0-.67,1Zm-9-26.85c-.18-2.8-.82-4.11-3.54-4.69a15.76,15.76,0,0,0-2.8-.25c-.32,0-.66-.16-.66-.49,0-.49.41-.66,1.32-.66h21.22c5.19,0,10.7.49,15.06,3.62A14.42,14.42,0,0,1,1228,54.85c0,6.1-2.54,12.19-9.94,19,6.74,8.64,12.34,16,17.1,21.07,4.45,4.68,8,5.59,10,5.92a20.37,20.37,0,0,0,3.21.24c.41,0,.75.25.75.5,0,.49-.5.66-2,.66h-6.77c-4.62,0-6.66-.41-8.8-1.55-3.55-1.91-6.43-5.94-11.11-12.11-3.47-4.52-7.33-10-9-12.18a1.34,1.34,0,0,0-1.09-.49l-9.18-.16c-.41,0-.59.24-.59.65v2c0,7.9,0,14.39.42,17.86.25,2.38.74,4.19,3.21,4.52a34.28,34.28,0,0,0,3.7.32c.5,0,.66.25.66.5,0,.41-.41.66-1.32.66H1186.9c-.9,0-1.31-.17-1.31-.66,0-.25.15-.5.65-.5a15.93,15.93,0,0,0,2.82-.32c1.66-.33,2-2.14,2.39-4.52.41-3.47.41-47.48.25-50.12"/><path class="cls-1" d="M156.73,140c-4.43,28.6-28.87,46-58.64,53.15a95.92,95.92,0,0,0,52-70.06A89.29,89.29,0,0,1,192.73,61c-17.61,17.73-31,46.64-36,79m81.52-92.41-6.52-5.49c-2.85.37-6.4.7-9.29,1.22-39.1,6.29-72.14,37.57-78.88,78.7A89.32,89.32,0,0,1,93.42,188a92.24,92.24,0,0,0,13.8-13.74c14.58-17.8,25.41-43,29.69-69.19,3.79-23,14.49-44,30.17-59.1,12.74-12.26,28.31-20.59,42.2-22.88l-5.23-4.41c-36.23,7.34-66.41,41-73.68,85.32-8,48.7-38.3,93.39-78.21,94.39l3.71,3,2.27,1.84c21.85,1,43.6-2.53,61.18-10.11,25.15-10.85,40.35-28.9,44-52.24,5.67-36.67,22.38-68.59,43.6-83.28a52.92,52.92,0,0,1,17.11-8,80.27,80.27,0,0,1,14.25-2.16"/><path class="cls-1" d="M95.67,166.28c14.59-17.79,25.41-43,29.69-69.18,3.78-23,14.49-44,30.17-59.08,13.23-12.75,28.82-21.29,44-23.1l-5.37-4.53c-37,6.6-68,40.66-75.35,85.65-7.87,48-36.26,90.84-77.37,93.64l5.86,4.79c17.9-1.62,34.42-11.19,48.35-28.19"/><path class="cls-1" d="M91.45,80.48c-4.84,26.7-20.88,50-43.5,62.86,18-17.63,31.78-46.95,36.88-79.8,4.28-27.66,27.25-44.83,55.65-52.39C115,24.52,97.05,49.66,91.45,80.48m19.73,19c7.87-48,37.36-92,77.79-93.47L183,1,182.47.5,182,.1c-21.38-.77-42.54,2.78-59.76,10.2C97.08,21.13,81.89,39.19,78.28,62.52c-5.69,36.69-22.4,68.6-43.61,83.3A53.1,53.1,0,0,1,16.78,154,85.79,85.79,0,0,1,0,155.8l3.75,3.07,3.73,3A106,106,0,0,0,18,160.48c40.09-5.73,73.72-37.3,80-79a86.73,86.73,0,0,1,52.13-67.54,90.33,90.33,0,0,0-15.81,15.29c-14.58,17.78-25.41,43-29.7,69.17-3.76,23-14.48,44-30.17,59.09a87.92,87.92,0,0,1-44.41,22.89l5.81,4.75c37-6.65,67.94-40.69,75.32-85.66"/><path d="M684.79,171c-.1-1.65-.49-2.42-2.08-2.75a8.91,8.91,0,0,0-1.66-.15c-.18,0-.5-.21-.5-.4s.34-.28.9-.28c2.17,0,5.22.14,5.45.14s11.29,0,12.42,0a12.12,12.12,0,0,0,2.06-.24c.26,0,.45-.24.69-.24s.18.2.18.44-.21.91-.38,2.27c0,.5-.15,2.62-.23,3.19-.06.24-.14.55-.35.55s-.39-.25-.39-.65a7.93,7.93,0,0,0-.3-2.36c-.33-.77-.81-1.37-3.43-1.66-.81-.09-6.09-.11-6.62-.11-.19,0-.31.11-.31.45V184c0,.34.06.49.31.49.63,0,6.57,0,7.69-.09s1.86-.19,2.28-.68.54-.63.73-.63.25.09.25.37-.25,1.14-.4,2.72c-.13,1-.2,2.83-.2,3.16s0,.92-.35.92-.34-.19-.34-.43a11,11,0,0,0-.17-2.29c-.2-.67-.64-1.51-2.52-1.7-1.32-.14-6.12-.24-6.93-.24a.33.33,0,0,0-.35.35v4.88c0,1.65,0,7,0,8,.16,3.33.88,4,5.63,4a13.75,13.75,0,0,0,4.65-.54c1.26-.52,1.84-1.5,2.17-3.47.1-.54.19-.74.43-.74s.31.4.31.74a24,24,0,0,1-.27,4.06c-.34,1.26,0,1.26-3,1.26,0,0-16.56-.15-18-.15-.53,0-.78-.08-.78-.38,0-.15.11-.29.4-.29a6,6,0,0,0,1.45-.21c1-.18,1.21-1.24,1.4-2.64.24-2.05.24-28,.16-29.51"/><path d="M594.05,197.82c.09,4,.66,5.23,2,5.61a11,11,0,0,0,2.42.31c.24,0,.38.08.38.27s-.28.39-.86.39H589.1c-.48,0-.76,0-.76-.39,0-.19.1-.27.38-.27a10.71,10.71,0,0,0,2.48-.31c1.2-.35,1.34-1.75,1.34-6.15v-28.1c0-1.91.33-1.71,1-1s26.32,27.42,27.87,29V173.31c-.06-3.15-.36-4.23-1.88-4.61a12.83,12.83,0,0,0-2.37-.24c-.33,0-.37-.15-.37-.33s.37-.34,1-.34h7.74c.53,0,.9,0,.9.34s-.21.33-.56.33a3.91,3.91,0,0,0-1.17.16c-1.59.32-1.83,1.39-1.83,4.31V201c0,3.2-.18,3.33-.36,3.61-.53.8-1.37-.14-3.32-2.11-.89-.91-23.51-24.65-25.07-26.42Z"/><path d="M765.72,197.82c.08,4,.64,5.23,1.95,5.61a10.91,10.91,0,0,0,2.43.31c.23,0,.38.08.38.27s-.28.39-.87.39h-8.85c-.49,0-.76,0-.76-.39,0-.19.12-.27.37-.27a10.59,10.59,0,0,0,2.48-.31c1.2-.35,1.35-1.75,1.35-6.15v-28.1c0-1.91.34-1.71.95-1s26.31,27.42,27.87,29V173.31c0-3.15-.36-4.23-1.87-4.61a13,13,0,0,0-2.37-.24c-.34,0-.4-.15-.4-.33s.4-.34,1-.34h7.76c.53,0,.88,0,.88.34s-.21.33-.56.33a3.87,3.87,0,0,0-1.15.16c-1.59.32-1.82,1.39-1.82,4.31V201c0,3.2-.18,3.33-.37,3.61-.53.8-1.37-.14-3.32-2.11-.89-.91-23.51-24.65-25.06-26.42Z"/><path d="M904.88,190c0,4.65,0,8.46.24,10.52.14,1.4.43,2.45,1.87,2.65a18.56,18.56,0,0,0,2.18.21c.29,0,.4.13.4.28s-.25.39-.78.39H895.88c-.53,0-.78-.1-.78-.39s.1-.28.41-.28a21.34,21.34,0,0,0,2.64-.21c1-.2,1.23-1.25,1.42-2.65.23-2.06.23-5.87.23-10.52v-8.54c0-7.55,0-8.89-.1-10.46s-.78-2.45-1.84-2.71a6.57,6.57,0,0,0-1.51-.18c-.2,0-.38-.11-.38-.29s.23-.39.78-.39h11c.54,0,.78.08.78.39s-.18.29-.39.29a8.22,8.22,0,0,0-1.42.15c-1.3.23-1.68,1.07-1.78,2.74s-.09,2.91-.09,10.46Z"/><path d="M568.68,186c0,6,0,10.89.3,13.5.19,1.8.58,3.16,2.42,3.42.87.12,2.25.26,2.82.26.36,0,.5.17.5.35,0,.33-.31.5-1,.5H558.16c-.67,0-1-.13-1-.5,0-.18.12-.35.5-.35a31.81,31.81,0,0,0,3.4-.26c1.27-.26,1.57-1.62,1.83-3.42.29-2.61.29-7.52.29-13.5V175c0-9.71,0-11.45-.11-13.45s-1-3.16-2.38-3.5a9.15,9.15,0,0,0-1.93-.24c-.24,0-.49-.11-.49-.37s.29-.49,1-.49h13.13c.69,0,1,.12,1,.49s-.24.37-.51.37a11.67,11.67,0,0,0-1.81.2c-1.69.32-2.15,1.38-2.3,3.54-.12,2-.12,3.74-.12,13.45Z"/><path d="M817.78,191.85l6.31-16.61,5.85,16.61c.42,1-.92,1-.92,1H818.74s-1.28,0-1-1M807,204a.55.55,0,0,0,.4.32h8.13c.46,0,.48-.27.48-.32s-.36-.31-.55-.36-2.14-.2-1.53-1.67l2.67-6.82c.21-.65,1.51-.55,1.51-.55h11.52s1.22,0,1.33.2c0,0,2.1,5.6,2.38,6.46.62,1.76-1.44,2.45-2.27,2.45l-.57.09a.51.51,0,0,0-.51.52c0,.3.38.31.83.31h12.55c.64,0,.93,0,.93-.3a.81.81,0,0,0-.62-.57c-.32,0-1-.14-1.43-.19-2.28-.31-2.89-1.83-4-4.37l-11.54-31c-.58-1.6-.78-1.91-1.07-1.91s-.39.43-1,2l-12.39,32.28a4.69,4.69,0,0,1-3.4,2.93,3.53,3.53,0,0,1-1.4.26c-.3,0-.5,0-.5.29"/><path d="M978.67,197.82c.09,4,.65,5.23,2,5.61a10.9,10.9,0,0,0,2.42.31c.24,0,.38.08.38.27s-.28.39-.86.39h-8.88c-.48,0-.76,0-.76-.39,0-.19.13-.27.4-.27a10.84,10.84,0,0,0,2.48-.31c1.2-.35,1.35-1.75,1.35-6.15v-28.1c0-1.91.33-1.71.93-1s26.38,27.42,27.92,29V173.31c0-3.15-.35-4.23-1.88-4.61a12.92,12.92,0,0,0-2.38-.24c-.32,0-.37-.15-.37-.33s.37-.34,1-.34h7.77c.53,0,.88,0,.88.34s-.21.33-.55.33a4.07,4.07,0,0,0-1.18.16c-1.56.32-1.82,1.39-1.82,4.31V201c0,3.2-.18,3.33-.36,3.61-.54.8-1.37-.14-3.33-2.11-.89-.91-23.54-24.65-25.1-26.42Z"/><path d="M1030.18,191.85l6.34-16.61,5.83,16.61c.44,1-.92,1-.92,1h-10.28s-1.29,0-1-1M1019.36,204a.57.57,0,0,0,.4.32h8.15c.47,0,.48-.27.48-.32s-.35-.31-.55-.36-2.15-.2-1.52-1.67l2.67-6.82c.21-.65,1.5-.55,1.5-.55H1042s1.22,0,1.33.2c0,0,2.1,5.6,2.38,6.46.61,1.76-1.43,2.45-2.26,2.45l-.58.09a.51.51,0,0,0-.51.52c0,.3.39.31.83.31h12.55c.64,0,.94,0,.94-.3a.82.82,0,0,0-.62-.57c-.33,0-1-.14-1.45-.19-2.27-.31-2.87-1.83-4-4.37l-11.54-31c-.58-1.6-.78-1.91-1.06-1.91s-.4.43-1,2l-12.43,32.28a4.69,4.69,0,0,1-3.39,2.93,3.66,3.66,0,0,1-1.43.26c-.29,0-.49,0-.49.29"/><path d="M868.76,190c0,4.65,0,8.46.24,10.52.13,1.4.43,2.45,1.88,2.65a13.8,13.8,0,0,0,1.81.21c.29,0,.39.13.39.28s-.22.39-.77.39H859.87c-.54,0-.78-.1-.78-.39s.1-.28.4-.28a15.83,15.83,0,0,0,2.25-.21c1-.2,1.21-1.25,1.4-2.65.23-2.06.23-5.87.23-10.52V168.63l-6.34.08c-3,.06-4.15,1.11-4.92,2.26a8.6,8.6,0,0,0-.84,1.67c-.14.38-.28.48-.48.48s-.25-.16-.25-.43c0-.49,1-4.67,1.08-5.06s.27-.91.49-.91a8.84,8.84,0,0,0,2.12.59c1.43.14,3.24.23,3.82.23h17.54a23.78,23.78,0,0,0,4.8-.48c.24,0,.24.29.24.57,0,1.45.26,4.79.26,5.33s-.14.63-.34.63-.34-.13-.4-.82l0-.54c-.2-1.44-1.71-3.42-6.36-3.52l-5-.08Z"/><path d="M655.2,190c0,4.65,0,8.46.25,10.52.12,1.4.42,2.45,1.88,2.65a13.43,13.43,0,0,0,1.81.21c.28,0,.38.13.38.28s-.21.39-.79.39H646.31c-.54,0-.78-.1-.78-.39s.11-.28.38-.28a15.57,15.57,0,0,0,2.27-.21c1-.2,1.21-1.25,1.41-2.65.22-2.06.22-5.87.22-10.52V168.63l-6.33.08c-3,.06-4.15,1.11-4.93,2.26a8.6,8.6,0,0,0-.84,1.67c-.12.38-.28.48-.48.48s-.25-.16-.25-.43c0-.49,1-4.67,1.09-5.06s.25-.91.48-.91a9,9,0,0,0,2.13.59c1.42.14,3.24.23,3.82.23H662a23.37,23.37,0,0,0,4.79-.48c.25,0,.25.29.25.57,0,1.45.26,4.79.26,5.33s-.14.63-.34.63-.34-.13-.4-.82l0-.54c-.19-1.44-1.71-3.42-6.37-3.52l-5-.08Z"/><path d="M726.31,186.79c0,.23.13.2.34.28.76.36,3,.26,5.08.26a6.47,6.47,0,0,0,3.65-.93c1.68-1.18,2.94-4.1,2.94-7.76,0-6-3.2-10.14-8.37-10.14a14.6,14.6,0,0,0-3.26.28.59.59,0,0,0-.38.58ZM721,171c-.12-1.65-.49-2.42-2.08-2.76a9.64,9.64,0,0,0-1.65-.15c-.2,0-.38-.09-.38-.28s.25-.38.77-.38h12.5c3,0,6.29.28,8.87,2.12a8.5,8.5,0,0,1,3.34,6.59c0,3.58-1.52,7.17-5.86,11.18,4,5.09,7.26,9.41,10.07,12.41,2.62,2.76,4.7,3.28,5.9,3.48a11.3,11.3,0,0,0,1.9.15c.24,0,.43.13.43.28,0,.31-.29.39-1.15.39h-4c-2.71,0-3.92-.23-5.19-.92-2.08-1.11-3.77-3.48-6.54-7.11-2-2.68-4.32-5.92-5.27-7.16a.77.77,0,0,0-.63-.32l-5.42-.08c-.24,0-.34.14-.34.4V190c0,4.63,0,8.46.26,10.5.12,1.4.44,2.47,1.85,2.65a19.26,19.26,0,0,0,2.2.21c.29,0,.38.13.38.28s-.22.39-.76.39h-12c-.54,0-.77-.08-.77-.39,0-.15.09-.28.38-.28a9,9,0,0,0,1.67-.21c1-.18,1.2-1.25,1.4-2.65.25-2,.25-27.94.14-29.5"/><path d="M1076.12,190.58c0,7.14.12,10,1,10.9s2.74,1.16,6.69,1.16c2.63,0,4.84,0,6.06-1.5a5.92,5.92,0,0,0,1.19-2.73c.05-.34.23-.63.51-.63s.33.25.33.74a31.67,31.67,0,0,1-.72,4.87c-.35,1.14-.51,1.23-3.21,1.23h-19.2c-.51,0-.82-.16-.82-.44a.4.4,0,0,1,.41-.4,7.27,7.27,0,0,0,1.54-.24c1-.21,1.1-1.14,1.31-2.56a97.79,97.79,0,0,0,.29-10.52v-8.57c0-7.54,0-8.92-.1-10.46s-.4-2.47-2.06-2.69a13.19,13.19,0,0,0-1.71-.13.49.49,0,0,1-.41-.38c0-.29.23-.41.8-.41h11.27c.49,0,.81.12.81.41s-.24.34-.4.34c-.35,0-1.1,0-1.68.1-1.47.29-1.77,1-1.87,2.76-.07,1.54-.07,2.92-.07,10.46Z"/><path d="M943.92,202.26c4.51,0,13.18-2.78,13.18-16.81,0-11.64-6.68-18.13-14.62-18.13-8.38,0-14,5.63-14,16.18,0,11.3,6.38,18.76,15.45,18.76m-1.14-36.39c11.3,0,19.86,6.9,19.86,18.21,0,10.84-8,19.79-20.16,19.79-13.74,0-19.62-10.33-19.62-19.05,0-7.82,6-18.95,19.92-18.95"/></g></g></svg>
