<svg width="442" height="108" viewBox="0 0 442 108" fill="none" xmlns="http://www.w3.org/2000/svg">
<g clip-path="url(#clip0)">
<path d="M139.242 56.1818C139.242 56.0455 139.105 55.9091 138.969 55.9091C138.969 55.9091 137.06 52.7727 135.014 50.3182C133.377 48.2727 131.877 47.0454 131.332 46.5C130.923 46.0909 130.514 45.8182 129.968 45.8182C129.559 45.8182 129.15 45.9545 128.877 46.2273L125.604 48.6818C124.922 49.2273 124.649 50.1818 125.058 50.8636C125.058 51 125.195 51 125.195 51.1364C125.195 51.1364 127.104 53.1818 128.741 55.2273C130.377 57.4091 132.15 60.9545 132.286 60.9545C132.559 61.3636 132.968 61.6364 133.514 61.6364C133.65 61.6364 133.65 61.6364 133.787 61.6364C134.196 61.6364 134.605 61.5 134.878 61.2273L138.833 58.2273C139.378 57.9545 139.651 57 139.242 56.1818Z" fill="#272D33"/>
<path d="M331.398 85.3637C325.261 78.9546 314.35 68.4546 313.805 67.9091C313.123 67.2273 312.987 66.4091 312.987 65.8637C312.987 65.0455 313.396 64.0909 314.214 63.4091C314.623 63 332.489 45 332.489 45C332.898 44.5909 333.17 44.0455 333.17 43.5C333.17 42.9546 333.034 42.4091 332.625 42L327.715 36.9546C327.306 36.5455 326.897 36.4091 326.352 36.4091C325.806 36.4091 325.397 36.6818 324.988 36.9546L301.667 61.5C299.758 63.5455 299.758 66.6818 301.531 68.8637L325.261 94.0909C325.67 94.5 326.079 94.7727 326.624 94.7727C327.17 94.7727 327.579 94.6364 327.852 94.2273L332.625 89.7273C333.034 89.3182 333.307 88.7727 333.307 88.2273C333.307 87.6818 333.17 87.1364 332.761 86.7273L331.398 85.3637Z" fill="#272D33"/>
<path d="M370.675 65.4545C370.402 64.6364 370.402 63.8182 370.538 63C370.675 62.3182 371.766 59.4545 372.175 58.2273C372.584 57.2727 372.175 56.3182 371.22 55.7727L365.629 52.9091C365.356 52.7727 365.083 52.6364 364.81 52.6364C363.992 52.6364 363.31 53.0454 363.037 53.8636C361.674 57.2727 358.946 63.1364 361.401 67.5C361.537 67.7727 361.81 68.1818 361.946 68.4545C362.083 68.5909 370.811 78.6818 371.084 79.0909C371.902 80.0454 372.72 81.1364 372.857 82.0909C372.857 82.9091 372.857 83.8636 372.311 84.4091C371.902 84.8182 371.493 84.9545 370.947 84.9545C370.675 84.9545 370.402 84.9545 369.993 84.8182C369.174 84.6818 367.674 84.1364 365.765 83.5909C365.629 83.5909 365.356 83.4545 365.219 83.4545C364.128 83.4545 363.31 84.2727 363.31 85.3636V91.5C363.31 92.3182 363.856 93 364.674 93.2727C366.72 93.9545 368.493 94.5 371.084 94.5C375.721 94.5 378.994 92.3182 381.585 87.5454C383.63 83.7273 380.494 77.0454 377.63 73.7727C377.493 73.9091 370.811 65.7273 370.675 65.4545Z" fill="#272D33"/>
<path d="M363.037 46.5L377.357 48.9546C377.493 48.9546 377.63 48.9546 377.63 48.9546C378.584 48.9546 379.266 48.2727 379.539 47.4546L380.766 41.8637C381.039 40.9091 380.357 39.8182 379.266 39.6818L365.219 36.1364C365.083 36.1364 364.947 36.1364 364.81 36.1364C363.855 36.1364 363.174 36.8182 362.901 37.6364L361.401 44.1818C361.264 44.7273 361.401 45.2727 361.673 45.6818C362.083 46.0909 362.492 46.3637 363.037 46.5Z" fill="#272D33"/>
<path d="M356.355 72.6818L351.582 71.4545C350.627 71.1818 349.536 71.7273 349.263 72.8182C349.263 72.8182 349.127 74.5909 347.9 78.8182C346.672 83.0454 345.172 86.7273 345.172 86.7273C345.172 86.8636 345.172 87 345.036 87.1364C345.036 88.0909 345.581 88.9091 346.399 89.0455L352.264 90.5455C352.809 90.6818 353.355 90.5454 353.764 90.2727C354.173 90 354.582 89.5909 354.582 89.0455C354.582 89.0455 356.082 84.9545 356.764 81.1364C357.446 77.3182 357.719 74.8636 357.719 74.8636C357.719 74.7273 357.719 74.5909 357.719 74.5909C357.855 73.7727 357.31 72.9545 356.355 72.6818Z" fill="#272D33"/>
<path d="M396.722 77.8636C395.631 74.3182 394.268 71.8636 394.268 71.8636C393.995 70.9091 392.904 70.2273 391.949 70.5L387.176 71.7273C386.358 72 385.676 72.8182 385.676 73.6364C385.676 73.7727 385.676 73.9091 385.676 73.9091C385.676 73.9091 386.767 76.9091 387.585 80.0454C388.403 83.1818 388.813 88.0909 388.813 88.0909C388.949 88.6364 389.222 89.0455 389.631 89.3182C390.04 89.5909 390.585 89.7273 391.131 89.5909L396.995 88.0909C397.813 87.8182 398.495 87 398.359 86.1818C398.359 86.0455 398.359 85.9091 398.223 85.7727C398.495 85.7727 397.813 81.4091 396.722 77.8636Z" fill="#272D33"/>
<path d="M415.679 46.6364L429.999 49.0909C430.135 49.0909 430.272 49.0909 430.272 49.0909C431.226 49.0909 431.908 48.4091 432.181 47.5909L433.408 42C433.681 41.0455 432.999 39.9546 431.908 39.8182L417.861 36.2727C417.725 36.2727 417.589 36.2727 417.452 36.2727C416.498 36.2727 415.816 36.9546 415.543 37.7727L414.043 44.3182C413.906 44.8636 414.043 45.4091 414.315 45.8182C414.725 46.2273 415.134 46.6364 415.679 46.6364Z" fill="#272D33"/>
<path d="M438.727 56.5909C435.454 53.3182 431.772 51.2727 426.044 51.1364C425.089 51.1364 422.225 51.2727 420.998 51.4091C415.407 52.0909 408.86 54.9545 405.042 57.1364C404.633 57.4091 404.224 57.8182 404.087 58.3636C403.951 58.9091 404.087 59.4545 404.36 59.8636L407.633 65.1818C408.042 65.7273 408.588 66.1364 409.27 66.1364C409.542 66.1364 409.951 66 410.224 65.8636C414.179 63.6818 419.225 61.6364 422.089 61.2273C423.589 60.9545 424.544 60.8182 425.362 60.8182C427.681 60.8182 429.726 61.7727 431.363 63.4091C432.454 64.5 432.454 66.4091 432.045 68.7273C430.817 75.4091 428.09 79.0909 416.634 86.3182C415.679 86.8636 415.407 88.0909 415.952 88.9091L419.225 94.0909C419.634 94.6363 420.18 95.0454 420.862 95.0454C421.271 95.0454 421.544 94.9091 421.953 94.7727C433.818 87.2727 438.454 82.3636 441.455 71.3182C443.091 64.6363 441.182 59.0454 438.727 56.5909Z" fill="#272D33"/>
<path d="M271.801 52.0909C260.754 52.0909 252.299 60.4091 252.299 71.4545C252.299 79.5 256.663 83.1818 261.027 83.1818C264.846 83.1818 267.437 81.2727 269.755 76.9091C272.074 72.4091 273.574 66.2727 274.119 59.8636C274.119 59.7273 274.256 59.5909 274.256 59.5909C278.347 60.5455 280.802 64.0909 280.802 68.7273C280.802 73.3636 279.029 76.3636 274.938 78.2727L274.665 78.4091C274.392 78.5454 274.119 78.6818 273.983 78.6818C273.846 78.8182 273.574 78.8182 273.437 78.9545L271.937 79.6364C271.119 80.0455 270.71 81.1364 270.983 81.9545L272.346 85.7727C272.619 86.4545 273.301 87 273.983 87C274.256 87 274.392 87 274.665 86.8636L277.665 85.6364L277.801 85.5C284.348 82.5 288.03 76.5 288.03 68.8636C288.166 58.7727 281.62 52.0909 271.801 52.0909ZM263.209 73.2273C262.118 75.4091 261.436 75.4091 261.027 75.4091C260.345 75.4091 259.663 74.0455 259.663 71.4545C259.663 66.6818 262.391 62.1818 266.618 60.2727C266.618 60.2727 266.755 60.4091 266.618 60.5455C266.073 65.5909 264.846 69.9545 263.209 73.2273Z" fill="#272D33"/>
<path d="M226.796 64.6364C222.977 64.5 219.295 64.7727 215.476 66.5455C215.34 66.5455 215.34 66.5455 215.204 66.6818C214.931 66.8182 214.658 66.9546 214.522 66.9546C214.522 66.6818 214.658 66.5455 214.658 66.2727L214.795 65.8636C214.795 65.7273 214.795 65.7273 214.931 65.5909C215.613 63.1364 216.158 60.6818 216.704 58.2273L232.251 57.9546C232.387 57.9546 232.524 57.9546 232.524 57.9546C233.342 57.8182 234.024 57 234.024 56.0455V50.4546C234.024 49.3636 233.206 48.6818 232.115 48.6818L218.477 48.9546V48.8182C218.75 47.0455 219.022 45.2727 219.159 43.7727L219.704 39.9546C219.841 38.7273 219.022 37.5 217.795 37.3636L213.84 36.6818C213.704 36.6818 213.704 36.6818 213.567 36.6818C212.34 36.6818 211.385 37.5 211.249 38.7273L210.84 42.4091C210.567 44.8636 210.158 47.0455 209.885 49.0909L203.884 49.2273C203.748 49.2273 203.612 49.2273 203.475 49.2273C202.657 49.3636 201.975 50.1818 201.975 51.1364V56.8636C201.975 57.4091 202.248 57.8182 202.521 58.2273C202.93 58.6364 203.339 58.7727 203.884 58.7727L207.976 58.6364V58.7727C206.748 64.5 205.385 69.4091 203.612 74.5909L202.93 76.3636C202.521 77.4546 202.384 79.5 204.294 80.3182L205.521 81C205.657 81 205.657 81.1364 205.794 81.1364L207.021 81.8182C207.294 81.9546 207.567 81.9546 207.976 82.0909C208.658 82.0909 209.339 81.8182 209.885 81.2727L212.34 78.9546C217.113 74.7273 220.659 73.2273 226.114 73.5C229.66 73.6364 231.978 76.5 231.705 79.5C231.16 84.4091 226.523 85.7727 219.022 86.3182H218.75C218.613 86.3182 218.34 86.3182 218.068 86.3182L216.158 86.4546C214.931 86.5909 213.976 87.6818 214.113 88.9091L214.249 93.1364C214.249 94.3636 215.204 95.3182 216.431 95.4546H216.568L219.704 95.3182C219.841 95.3182 220.113 95.3182 220.25 95.3182C232.66 94.5 239.888 89.3182 240.297 79.5C240.706 70.6364 235.797 64.9091 226.796 64.6364Z" fill="#272D33"/>
<path d="M23.3208 105.273C23.0481 105.273 22.7753 105.273 22.5025 105.273C19.3659 105 17.7293 104.318 15.0018 103.364L14.3199 103.091C9.41028 101.318 6.54635 99.4091 6.00084 98.3182C5.31895 97.0909 4.77344 95.0455 5.59171 93C5.72809 92.7273 5.86446 92.3182 6.00084 91.9091C6.00084 91.9091 6.54635 90.1364 6.68273 90.1364C7.63737 87.4091 9.81942 76.9091 10.2286 74.1818C10.0922 73.5 10.0922 72.9546 10.0922 72.1364C9.68304 68.5909 8.31926 64.5 6.54635 61.6364L6.13722 61.3637C4.50069 58.6364 2.45502 55.3637 2.72778 47.4546C3.13691 38.3182 9.27391 29.7273 18.9567 24.2727C23.7299 21.8182 29.0487 20.4546 34.6402 20.4546C42.6864 20.4546 50.46 23.1818 55.5059 27.8182C61.6429 33.5455 65.3251 40.6364 66.2798 49.2273C67.2344 57.8182 62.0521 66.4091 58.2335 70.2273C56.3242 72.1364 53.8694 73.5 51.0055 75.1364C48.5507 76.5 45.8231 78.1364 42.8228 80.3182C37.6405 84.1364 33.0036 93 29.8669 98.7273C29.0487 100.227 28.3668 101.455 27.9576 102.136C26.4575 104.727 25.0937 105.273 23.3208 105.273Z" fill="white"/>
<path d="M61.2337 57C61.2337 57 64.9159 51 61.3701 43.9091C57.8243 36.8182 45.823 27.1364 35.3219 27.9545C24.9572 28.6364 12.4105 35.8636 9.9557 47.7273C6.40988 64.3636 12.8196 77.7273 16.5018 80.3182C20.7295 83.3182 30.6851 82.3636 36.413 81.9545C43.2318 81.5454 50.869 75.4091 55.5058 71.4545C60.0063 67.5 61.2337 57 61.2337 57Z" fill="#FFF474"/>
<path d="M31.3844 41.1363C35.2139 40.0087 37.7663 37.2205 37.0854 34.9086C36.4045 32.5967 32.7481 31.6367 28.9187 32.7643C25.0892 33.8919 22.5368 36.6801 23.2177 38.992C23.8986 41.3039 27.555 42.2639 31.3844 41.1363Z" fill="white"/>
<path d="M57.6879 25.7727C48.4142 17.3182 31.2306 14.4545 17.8656 21.8182C6.95536 27.8182 0.545607 37.5 0.136474 47.3182C-0.27266 56.3182 2.18214 60.1364 4.09143 63.1364C5.59158 65.5909 6.81898 69.2727 7.22811 72.4091C7.63725 75.2727 7.50087 76.2273 7.22811 77.3182C6.95536 78.9545 7.63725 80.4545 8.86464 80.7273C10.2284 81.1364 11.865 80.3182 12.4105 77.5909C12.956 75.1364 13.2287 73.3636 12.956 70.2273C12.5468 66.1364 11.3194 64.2273 9.68291 60.4091C8.04638 56.5909 6.54622 52.9091 6.81898 48.5455C7.09174 43.9091 9.54653 38.1818 13.7742 33.8182C18.002 29.4545 23.0479 27.4091 29.1849 25.6364C34.7764 24.1364 45.0047 24.9545 51.96 30.9545C56.5968 34.9091 61.2337 41.5909 62.3247 48C63.4157 54.1364 61.9156 60.5455 55.7786 66.8182C49.6416 73.0909 43.7773 73.7727 39.4132 78C38.3222 78.9545 37.3676 80.1818 36.4129 81.4091C34.7764 81.4091 32.5944 81.4091 30.0032 81.1364C25.0936 80.7273 19.2293 79.6364 19.2293 79.6364C18.002 79.2273 16.0927 78.6818 15.5472 80.1818C15.0016 81.6818 16.0927 83.0455 18.5475 84.1364C21.0023 85.2273 25.3663 86.4545 29.1849 87C30.1396 87.1364 31.0942 87.2727 31.9125 87.2727C30.9578 88.6364 30.1396 90 29.5941 91.2273C27.8211 90.9545 25.23 90.9545 23.1843 90.6818C20.7295 90.4091 19.2293 90.1364 17.4564 90C16.5018 89.8636 14.8653 89.7273 14.4561 91.0909C13.9106 92.5909 15.4108 93.5455 17.4564 94.3636C19.3657 95.1818 24.1389 96.5455 27.0029 96.9545C25.7755 99.4091 24.5481 101.318 23.4571 101.318C22.0933 101.318 19.093 101.045 15.5472 99.5455C12.0013 98.3182 9.54653 96.8182 9.1374 96.2727C8.45551 95.3182 8.59189 94.3636 8.72827 93.5455C9.00102 91.3636 9.27378 87.6818 7.50087 87.2727C5.04607 86.8636 4.36418 88.3636 2.86403 91.9091C1.63663 94.9091 2.45489 97.9091 3.54592 99.6818C5.04607 102.273 10.5012 104.591 13.3651 105.682C16.5018 106.773 18.4111 107.591 22.2297 108C25.6391 108.273 28.2303 107.318 30.5487 103.636C32.458 100.5 38.595 87 44.5956 82.5C50.869 77.8636 56.4605 76.0909 60.279 72.2727C64.234 68.4545 70.371 58.9091 69.1436 48.9545C68.1889 38.4545 63.143 30.9545 57.6879 25.7727Z" fill="#272D33"/>
<path d="M76.3714 23.1818C75.4167 22.9091 72.9619 23.0455 71.189 24C69.6889 24.8182 67.9159 25.3636 66.8249 27.1364C65.7339 28.9091 66.6885 30.6818 69.9616 30.8182C71.3254 30.8182 74.4621 29.8636 75.8259 29.3182C77.1896 28.9091 77.8715 28.3636 78.5534 27C79.2353 25.9091 78.5534 23.7273 76.3714 23.1818Z" fill="#272D33"/>
<path d="M47.8684 13.0909C48.6867 13.3636 49.7777 12.9545 50.8687 12C51.9597 10.7727 55.9147 5.45455 55.5056 2.72728C55.2328 0.681821 52.778 -0.818179 50.7323 0.409094C48.4139 1.63637 46.9138 8.04546 46.641 10.2273C46.5046 12.4091 47.0501 12.8182 47.8684 13.0909Z" fill="#272D33"/>
<path d="M21.4113 12.2727C22.775 13.3636 23.5933 13.6364 24.5479 13.2273C25.5026 12.8182 25.7753 11.1818 25.7753 10.3636C25.7753 9 23.8661 3.40909 22.775 1.90909C22.0931 0.954546 20.3202 0.272728 18.5473 0.954546C17.0472 1.5 16.7744 2.86364 16.7744 4.22727C16.7744 6.13636 19.2292 10.5 21.4113 12.2727Z" fill="#272D33"/>
<path d="M161.471 46.5L175.791 48.9546C175.927 48.9546 176.064 48.9546 176.064 48.9546C177.018 48.9546 177.7 48.2727 177.973 47.4546L179.2 41.8637C179.473 40.9091 178.791 39.8182 177.7 39.6818L163.653 36.1364C163.517 36.1364 163.381 36.1364 163.244 36.1364C162.29 36.1364 161.608 36.8182 161.335 37.6364L159.835 44.1818C159.698 44.7273 159.835 45.2727 160.108 45.6818C160.517 46.2273 161.062 46.5 161.471 46.5Z" fill="#272D33"/>
<path d="M184.655 56.4545C181.382 53.1818 177.7 51.1364 171.972 51C171.018 51 168.154 51.1364 166.926 51.2727C161.335 51.9545 154.789 54.8182 150.97 57C150.561 57.2727 150.152 57.6818 150.015 58.2273C149.879 58.7727 150.015 59.3182 150.288 59.7273L153.561 65.0455C153.97 65.5909 154.516 66 155.198 66C155.471 66 155.88 65.8636 156.152 65.7273C160.107 63.5455 165.153 61.5 168.017 61.0909C169.517 60.8182 170.472 60.6818 171.29 60.6818C173.609 60.6818 175.654 61.6364 177.291 63.2727C178.382 64.3636 178.382 66.2727 177.973 68.5909C176.745 75.2727 174.018 78.9545 162.562 86.1818C161.608 86.7273 161.335 87.9545 161.88 88.7727L165.153 93.9545C165.562 94.5 166.108 94.9091 166.79 94.9091C167.199 94.9091 167.472 94.7727 167.881 94.6364C179.746 87.1364 184.383 82.2273 187.383 71.1818C189.019 64.6364 186.974 58.9091 184.655 56.4545Z" fill="#272D33"/>
<path d="M121.785 63.4091C118.512 63.4091 115.648 63.6818 112.921 64.3636H112.648V57V56.1818L119.74 56.0455C119.876 56.0455 119.876 56.0455 120.012 56.0455C120.831 55.9091 121.376 55.0909 121.24 54.4091V48.8182C121.24 47.8636 120.422 47.1818 119.603 47.1818L112.648 47.3182L112.784 37.9091C112.784 36.8182 111.966 36 110.875 36H106.238C105.147 36 104.329 36.8182 104.329 37.9091V47.4545H103.92L95.6009 47.5909C95.4645 47.5909 95.3281 47.5909 95.1918 47.5909C94.3735 47.7273 93.828 48.4091 93.9644 49.2273V54.8182C93.9644 55.2273 94.1007 55.6364 94.5099 56.0455C94.7826 56.3182 95.1918 56.4546 95.6009 56.4546L103.92 56.3182H104.329V57.1364L104.193 67.3636H104.056C95.3281 72 91.2368 76.9091 91.2368 83.1818C91.2368 86.8636 93.4189 90.4091 96.9647 92.5909C99.0103 93.8182 101.192 94.5 103.238 94.5C109.239 94.5 112.375 88.0909 112.512 81.6818V73.2273H112.648C115.648 72.2727 118.649 71.8636 121.785 71.8636C127.104 71.8636 129.423 74.7273 129.423 77.5909C129.423 81.2727 127.65 83.3182 123.831 84.5455L119.603 85.5C118.649 85.7727 117.967 86.7273 118.24 87.8182L119.194 92.7273C119.331 93.5455 120.149 94.2273 121.104 94.2273C121.24 94.2273 121.376 94.2273 121.513 94.2273L125.877 93.2727H126.013C133.923 91.2273 138.151 85.6364 138.287 77.5909C138.151 68.8636 131.877 63.5455 121.785 63.4091ZM104.193 83.0455C104.193 84.6818 102.693 85.2273 101.738 85.2273C101.602 85.2273 101.329 85.2273 101.192 85.0909C100.374 84.6818 99.965 84 99.965 83.1818C99.965 81 101.329 78.9546 104.329 76.9091L104.602 76.6364L104.193 83.0455Z" fill="#272D33"/>
</g>
<defs>
<clipPath id="clip0">
<rect width="442" height="108" fill="white"/>
</clipPath>
</defs>
</svg>
