<svg width="107" height="32" viewBox="0 0 107 32" fill="none" xmlns="http://www.w3.org/2000/svg">
    <g clip-path="url(#clip0)">
        <path d="M32.3867 6.67116C30.6465 4.64095 25.6193 2.41738 19.5287 1.06391C13.4381 -0.289567 7.92749 -0.289567 5.51057 0.773877C4.73716 1.06391 3.86707 1.83732 3.57704 3.28747C3.19033 4.64095 3.77039 5.70439 4.25378 6.28445C4.93051 7.05787 5.99396 7.7346 7.34743 8.50802C4.64048 8.9914 2.5136 9.66814 1.35347 10.5382C0.773414 11.0216 0 11.8917 0 13.3419V26.3932C0 27.8434 0.773414 28.7135 1.35347 29.1968C3.48036 30.7437 8.79758 31.9038 15.0816 31.9038C21.3656 31.9038 26.6828 30.7437 28.8097 29.1968C29.4864 28.7135 30.1631 27.8434 30.1631 26.3932V13.3419C30.1631 13.0518 30.1631 12.7618 30.0665 12.4718C30.4532 12.3751 30.7432 12.2784 31.0332 12.0851C31.71 11.795 32.6767 11.0216 32.9668 9.66814C33.4502 8.21799 32.8701 7.25122 32.3867 6.67116Z" fill="#50A035"/>
        <path d="M30.3662 8.6865C30.7194 7.06944 25.6353 4.58555 19.0105 3.13858C12.3858 1.69161 6.72905 1.8295 6.37585 3.44656C6.02265 5.06362 11.1067 7.54751 17.7315 8.99448C24.3562 10.4415 30.013 10.3036 30.3662 8.6865Z" fill="#F0BF70"/>
        <path d="M42.9245 28.8099C41.9577 28.8099 41.6677 27.9398 42.0544 27.1664L49.9819 11.3114H42.1511V8.41111H53.0756C54.0423 8.41111 54.3323 9.2812 53.9456 10.0546L46.0181 25.9096H53.849V28.8099H42.9245ZM76.6647 8.31443H79.565V28.8099H76.6647V8.31443ZM64.4834 7.6377C61.8731 7.6377 59.9396 8.99117 58.9728 11.2147L61.5831 12.3749C62.2598 11.3114 63.1299 10.538 64.4834 10.538C66.0302 10.538 67.287 11.7948 67.287 13.4383V23.2027C67.287 24.8462 66.0302 26.103 64.3867 26.103C62.2598 26.103 61.2931 24.5561 61.2931 23.0093C61.2931 21.3658 62.5499 19.4323 65.2568 19.2389V16.3386C62.1632 16.4353 58.2961 18.5622 58.2961 23.2993C58.2961 26.2963 60.3263 29.0999 64.3867 29.0999C65.6435 29.0999 66.707 28.6166 67.6737 27.7465L67.8671 28.8099H70.284V13.535C70.1873 9.86126 67.8671 7.6377 64.4834 7.6377Z" fill="#50A035"/>
        <path d="M78.1147 6.18734C79.5563 6.18734 80.7249 5.01868 80.7249 3.57707C80.7249 2.13546 79.5563 0.966797 78.1147 0.966797C76.6731 0.966797 75.5044 2.13546 75.5044 3.57707C75.5044 5.01868 76.6731 6.18734 78.1147 6.18734Z" fill="#50A035"/>
        <path d="M100.544 7.6377C98.6105 7.6377 97.1603 8.31443 96.1935 9.76458C95.2268 8.31443 93.6799 7.6377 91.8431 7.6377C88.6528 7.6377 86.0425 9.2812 86.0425 13.9217V28.8099H88.9428V13.9217C88.9428 11.8915 89.7162 10.6347 91.7464 10.6347C93.3899 10.6347 94.7434 11.4081 94.7434 14.6951V28.9066H97.6437V14.5984C97.6437 11.3114 99.0938 10.538 100.641 10.538C102.671 10.538 103.444 11.7948 103.444 13.825V28.7132H106.345V13.9217C106.345 9.2812 103.734 7.6377 100.544 7.6377Z" fill="#50A035"/>
        <path d="M5.02728 24.2657C3.6738 24.7491 2.90039 25.3291 2.90039 26.0059C2.90039 27.6494 8.31429 29.0028 15.1783 29.0028C21.9457 29.0028 27.4563 27.6494 27.4563 26.0059C27.4563 25.3291 26.6829 24.7491 25.3294 24.2657C22.7191 25.0391 19.1421 25.4258 15.1783 25.4258C11.2146 25.4258 7.63755 25.0391 5.02728 24.2657ZM5.02728 17.7883C3.6738 18.2717 2.90039 18.8518 2.90039 19.4318C2.90039 21.0753 8.41096 22.4288 15.1783 22.4288C21.9457 22.4288 27.4563 21.0753 27.4563 19.4318C27.4563 18.7551 26.6829 18.175 25.3294 17.6917C22.7191 18.4651 19.1421 18.8518 15.1783 18.8518C11.2146 18.9485 7.63755 18.4651 5.02728 17.7883ZM17.1119 11.8911C14.7916 11.4077 12.7614 10.7309 10.8279 10.0542C6.1874 10.5376 2.90039 11.601 2.90039 12.9545C2.90039 14.598 8.41096 15.9515 15.1783 15.9515C21.9457 15.9515 27.4563 14.598 27.4563 12.9545C24.6527 13.0512 21.0756 12.7611 17.1119 11.8911Z" fill="white"/>
    </g>
    <defs>
        <clipPath id="clip0">
            <rect width="106.344" height="32" fill="white"/>
        </clipPath>
    </defs>
</svg>
