<svg xmlns="http://www.w3.org/2000/svg" viewBox="0 0 347.62 76.32" height="32px"><defs><style>.cls-1{fill:#8a703c;}.cls-2{fill:#ff3365;}.cls-3{fill:#2fc3a7;}</style></defs><title>logo-mwed</title><g id="レイヤー_2" data-name="レイヤー 2"><g id="レイヤー_1-2" data-name="レイヤー 1"><path class="cls-1" d="M116.82,25.45c5.24-1.89,6.83-4.94,7.89-9.36a27.91,27.91,0,0,0-7.32-1.8c-1.64,6.8-3,11.16-7.59,11.16a4.84,4.84,0,0,1-5.06-5.21c0-1.5.55-8,10.52-8.45a70.74,70.74,0,0,0,1.12-7.08l-9.43.1V2.43h12.4C119,5,118.86,6,117.85,12a29.4,29.4,0,0,1,7.35,1.55A59.65,59.65,0,0,0,125.87,7l2.9.19c-.21,2.2-.46,4.84-.91,7.28a31,31,0,0,1,3.75,1.74l-.92,2.74a24.36,24.36,0,0,0-3.41-1.77c-.74,3-2.29,8.08-8.79,10.4Zm-6.44-10.4a5.71,5.71,0,0,0-3.23,5c0,.58.15,3,2.47,3,2.74,0,3.57-2.29,5.18-8.91A9.94,9.94,0,0,0,110.38,15.05Z"/><path class="cls-1" d="M146.58,2.12c-2,4.52-3.87,9.52-4.7,11.9,1.65-1.35,2.72-1.92,4.4-1.92,4.7,0,4.83,4.33,4.83,6.43v2c0,2.2.36,3.88,2.83,3.88,1.49,0,3.1-.7,4.11-3.6a19.68,19.68,0,0,0,1-6.53l2.66.61c-.18,4-.94,12.2-7.92,12.2-5.19,0-5.25-4.3-5.25-6.68V18.74c0-2.25-.51-4-2.68-4-1.22,0-3.7.64-5.62,4.57A70.84,70.84,0,0,0,137.91,27l-2.86-.88c4.33-13.24,4.85-14.71,5.55-16.69.46-1.28,2.23-6.16,3-8.14Z"/><path class="cls-1" d="M180.76,5.59V8.11h-6.89a65.9,65.9,0,0,1-5.33,15.75l-2.81-1.17c3.26-5.24,4.61-11.43,5.4-14.58h-4.88V5.59h5.37c.33-2.53.42-2.91.55-4.13l2.89.19c-.24,1.46-.27,1.41-.67,3.94Zm5.35,11.83a20.65,20.65,0,0,1,6.49,4.67l-1.77,2.42a15.63,15.63,0,0,0-5-4.15v1.25c0,4.52-3,5.61-6,5.61-4.57,0-6.78-2.53-6.78-5.36,0-2.29,1.79-5.68,7.19-5.68a13.48,13.48,0,0,1,3.18.36L183.21,10H186Zm-2.83,1.66a7.93,7.93,0,0,0-3.15-.58c-3.11,0-4.53,1.56-4.53,3.26,0,3.08,3.69,3.08,4.27,3.08,3,0,3.41-1.64,3.41-3.72Zm7.52-8.94a43.52,43.52,0,0,0-8.11-4l1.07-2.26a47.21,47.21,0,0,1,8.32,3.78Z"/><path class="cls-1" d="M209.31,24.36c3.14-.34,10.56-1.22,10.56-9.95,0-2.41-.74-9.12-9.12-9.39-.28,3.54-.89,11-4,16.07-1.8,2.84-3.75,3.54-5.12,3.54-3,0-5.49-3.54-5.49-8.57,0-8.3,6-13.6,14.09-13.6,9.88,0,12.53,6.83,12.53,12A12.31,12.31,0,0,1,218.65,24a15.91,15.91,0,0,1-8.42,3ZM203,7.09a11,11,0,0,0-4.24,9c0,2.08.76,5.58,2.93,5.58,1.28,0,2.19-1.13,3-2.47,2.56-4.39,3-10.58,3.35-14.09A11.55,11.55,0,0,0,203,7.09Z"/><path class="cls-2" d="M131.55,40.91V34.6h-9.46v6.31H105.5l2.86,13.88H118l-2.35-11.35H135.7c-.21,21.44-12.83,28.52-18.5,30-.83.23-.69.56,0,.55,28-.3,30.11-33.12,30.11-33.12Z"/><path class="cls-2" d="M221.48,50.37l1.23-2.52H183.4l-1.23,2.52h16.75c-1,15.77-10.93,23-14.5,24.1-.41.13-.28.56.09.54,19-1.08,24.5-14.54,27-24.64Z"/><path class="cls-2" d="M287.39,35.87s-6.25,23.82-24.89,26.79c0,0-9.64.53-9.74,11.12,14.93.32,33.46-5.62,35.69-38C288.45,35.81,288.13,35,287.39,35.87Z"/><path class="cls-2" d="M326.83,41.21a6.11,6.11,0,0,1-.76-1.56H310.71L312,35.87H300.85l-6.64,18.92h11.1l4.5-12.62h13.72C320.35,69.3,296.6,74.63,296.6,74.63c25.66.57,34.39-17.12,38.12-30.09a5.77,5.77,0,0,1-1.8.31A7.33,7.33,0,0,1,326.83,41.21Z"/><polygon class="cls-2" points="168.77 55.42 175.49 55.42 176.72 52.9 152.76 52.9 151.53 55.42 158.68 55.42 158.68 70.56 148.96 70.56 147.73 73.08 177.83 73.08 179.06 70.56 168.77 70.56 168.77 55.42"/><path class="cls-2" d="M259.28,47.85h9.89l-2.25-5.75c-.64-1.6-2.8-3.08-5.6-3.08h-9.44l2.26,5.75C254.7,46.36,256,47.85,259.28,47.85Z"/><path class="cls-2" d="M245.12,49q-7.05,0-13.13,7l-3.74,4.52q-5.48,6.74-12.21,6.78a13,13,0,0,0,5.78,1,15.72,15.72,0,0,0,9.4-2.74V75h8.2V61.1h-.06l7.06-12.16A9.42,9.42,0,0,0,245.12,49Z"/><path class="cls-2" d="M210.36,37.76H188.31l-1.23,2.52h24.13C210.79,40.28,210.5,39,210.36,37.76Z"/><path class="cls-2" d="M219.17,41.83c1.74-1.07,2.06-3.69.73-5.86s-3.82-3.06-5.55-2-2.06,3.68-.73,5.85S217.44,42.89,219.17,41.83Z"/><path class="cls-2" d="M230.7,41.83c1.73-1.07,2.06-3.69.72-5.86s-3.81-3.06-5.55-2-2.06,3.68-.73,5.85S229,42.89,230.7,41.83Z"/><path class="cls-2" d="M329.72,34C328,35,327.66,37.66,329,39.83s3.81,3.06,5.55,2,2.06-3.69.73-5.86S331.46,32.91,329.72,34Z"/><path class="cls-2" d="M346.8,36c-1.33-2.17-3.82-3.06-5.55-2s-2.06,3.68-.73,5.85,3.82,3.06,5.55,2S348.13,38.14,346.8,36Z"/><path class="cls-2" d="M80.21,0a5.7,5.7,0,0,0-4.93,4C74.34,1.8,72.45-.13,69.69,0c-3.17.15-5,2.55-5,5.84a6,6,0,0,0,.74,2.91c1.82,4.2,7.75,6.36,9.92,10.4,2.5-3.93,8-6.2,9.83-10.4a6.1,6.1,0,0,0,.64-2.91A5.63,5.63,0,0,0,80.21,0Z"/><path class="cls-3" d="M87.64,38.92C88,46,84.13,53.07,78.27,55a16.33,16.33,0,0,1-5.83.93c2.78-6.72,5.9-14.5,6.14-15,2.8-5.72,7.45-6.07,7.45-6.07A19.61,19.61,0,0,0,69.7,25.61c-7.89-.07-15,3.53-17.92,11.15,0,0-.76,2.22-1.84,5-1.93-2.65-3.22-4.49-4.92-7,3.61-9,7.15-17.41,7.5-18.13,2.8-5.72,7.37-4.34,7.37-4.34-3.5-5.16-9.54-10.93-16.25-11A20.92,20.92,0,0,0,33.09,3.77L33,3.69C23.87,9.55,14.58,6,12.85,4.1c0,0,1.48,7.9,12.84,8.36-.29.73-2.19,5.24-5,12.27-.52,0-.89,0-1,0C8.47,24.6.12,31.41,0,42.61a20.48,20.48,0,0,0,15.26,19.9c2,.58,7.27,1.54,12-.48,4.21-1.8,9-5.75,12-13.27,0,0,0-.08,3.7-9.32,1.43,2,2.78,4.21,4.87,7.24C44.29,56,42.13,61.37,38.13,65c-5.2,4.77-8.5,4.9-8.5,4.9,3.83,4.19,13.08,6.39,16.52,6.39a26.66,26.66,0,0,0,17-6.2c3.26-2.85,4.4-4.32,7.32-9.33l.86,0A17.47,17.47,0,0,0,88.7,43.14C88.7,41,87.6,38.14,87.64,38.92Zm-72.51-.38c-1,2-2.7,5.44-4.35,7.09S3.6,48,3.7,42.65c.16-9,6.56-14.1,15.53-14.25C15.77,37.05,16.48,35.47,15.13,38.54Zm27.2-21.91A3.78,3.78,0,1,1,40,11.81,3.77,3.77,0,0,1,42.33,16.63ZM70.39,39a3.78,3.78,0,1,1-2.11-4.91A3.79,3.79,0,0,1,70.39,39Z"/></g></g></svg>
